<svg version="1.1" viewBox="0.0 0.0 600.0 371.0" fill="none" stroke="none" stroke-linecap="square" stroke-miterlimit="10" width="600" height="371" xmlns:xlink="http://www.w3.org/1999/xlink" xmlns="http://www.w3.org/2000/svg"><path fill="#ffffff" d="M0 0L600.0 0L600.0 371.0L0 371.0L0 0Z" fill-rule="nonzero"/><path stroke="#333333" stroke-width="1.0" stroke-linecap="butt" d="M77.5 300.5L581.5 300.5" fill-rule="nonzero"/><path stroke="#cccccc" stroke-width="1.0" stroke-linecap="butt" d="M77.5 252.5L581.5 252.5" fill-rule="nonzero"/><path stroke="#cccccc" stroke-width="1.0" stroke-linecap="butt" d="M77.5 205.5L581.5 205.5" fill-rule="nonzero"/><path stroke="#cccccc" stroke-width="1.0" stroke-linecap="butt" d="M77.5 157.5L581.5 157.5" fill-rule="nonzero"/><path stroke="#cccccc" stroke-width="1.0" stroke-linecap="butt" d="M77.5 109.5L581.5 109.5" fill-rule="nonzero"/><path stroke="#cccccc" stroke-width="1.0" stroke-linecap="butt" d="M77.5 61.5L581.5 61.5" fill-rule="nonzero"/><clipPath id="id_0"><path d="M77.55 61.916668L581.45 61.916668L581.45 300.45L77.55 300.45L77.55 61.916668Z" clip-rule="nonzero"/></clipPath><path stroke="#000000" stroke-width="2.0" stroke-linecap="butt" stroke-opacity="0.0" clip-path="url(#id_0)" d="M172.0 300.0L111.0 300.0L111.0 268.0C111.0 266.89542 111.89543 266.0 113.0 266.0L170.0 266.0C171.10457 266.0 172.0 266.89542 172.0 268.0Z" fill-rule="nonzero"/><path fill="#4285f4" clip-path="url(#id_0)" d="M172.0 300.0L111.0 300.0L111.0 268.0C111.0 266.89542 111.89543 266.0 113.0 266.0L170.0 266.0C171.10457 266.0 172.0 266.89542 172.0 268.0Z" fill-rule="nonzero"/><path stroke="#000000" stroke-width="2.0" stroke-linecap="butt" stroke-opacity="0.0" clip-path="url(#id_0)" d="M266.0 300.0L205.0 300.0L205.0 258.0C205.0 256.89542 205.89543 256.0 207.0 256.0L264.0 256.0C265.10458 256.0 266.0 256.89542 266.0 258.0Z" fill-rule="nonzero"/><path fill="#4285f4" clip-path="url(#id_0)" d="M266.0 300.0L205.0 300.0L205.0 258.0C205.0 256.89542 205.89543 256.0 207.0 256.0L264.0 256.0C265.10458 256.0 266.0 256.89542 266.0 258.0Z" fill-rule="nonzero"/><path stroke="#000000" stroke-width="2.0" stroke-linecap="butt" stroke-opacity="0.0" clip-path="url(#id_0)" d="M361.0 300.0L300.0 300.0L300.0 238.0C300.0 236.89543 300.89542 236.0 302.0 236.0L359.0 236.0C360.10458 236.0 361.0 236.89543 361.0 238.0Z" fill-rule="nonzero"/><path fill="#4285f4" clip-path="url(#id_0)" d="M361.0 300.0L300.0 300.0L300.0 238.0C300.0 236.89543 300.89542 236.0 302.0 236.0L359.0 236.0C360.10458 236.0 361.0 236.89543 361.0 238.0Z" fill-rule="nonzero"/><path stroke="#000000" stroke-width="2.0" stroke-linecap="butt" stroke-opacity="0.0" clip-path="url(#id_0)" d="M455.0 300.0L394.0 300.0L394.0 195.0C394.0 193.89543 394.89542 193.0 396.0 193.0L453.0 193.0C454.10458 193.0 455.0 193.89543 455.0 195.0Z" fill-rule="nonzero"/><path fill="#4285f4" clip-path="url(#id_0)" d="M455.0 300.0L394.0 300.0L394.0 195.0C394.0 193.89543 394.89542 193.0 396.0 193.0L453.0 193.0C454.10458 193.0 455.0 193.89543 455.0 195.0Z" fill-rule="nonzero"/><path stroke="#000000" stroke-width="2.0" stroke-linecap="butt" stroke-opacity="0.0" clip-path="url(#id_0)" d="M549.0 300.0L488.0 300.0L488.0 94.0C488.0 92.89543 488.89542 92.0 490.0 92.0L547.0 92.0C548.10455 92.0 549.0 92.89543 549.0 94.0Z" fill-rule="nonzero"/><path fill="#4285f4" clip-path="url(#id_0)" d="M549.0 300.0L488.0 300.0L488.0 94.0C488.0 92.89543 488.89542 92.0 490.0 92.0L547.0 92.0C548.10455 92.0 549.0 92.89543 549.0 94.0Z" fill-rule="nonzero"/><path stroke="#4285f4" stroke-width="3.0" stroke-linejoin="round" stroke-linecap="round" d="M135.0625 279.2942Q135.0625 281.20044 134.40625 282.13794Q133.76562 283.0598 132.375 283.0598Q131.01562 283.0598 130.35938 282.15356Q129.70312 281.2473 129.67188 279.4348L129.67188 277.9973Q129.67188 276.1067 130.3125 275.20044Q130.96875 274.27856 132.35938 274.27856Q133.73438 274.27856 134.39062 275.1692Q135.04688 276.0442 135.0625 277.88794L135.0625 279.2942ZM133.96875 277.8098Q133.96875 276.4348 133.57812 275.8098Q133.20312 275.1692 132.35938 275.1692Q131.53125 275.1692 131.14062 275.8098Q130.76562 276.4348 130.76562 277.7317L130.76562 279.46606Q130.76562 280.84106 131.15625 281.51294Q131.5625 282.1692 132.375 282.1692Q133.17188 282.1692 133.5625 281.5442Q133.95312 280.9192 133.96875 279.59106L133.96875 277.8098ZM136.84375 282.3723Q136.84375 282.09106 137.0 281.90356Q137.17188 281.71606 137.5 281.71606Q137.84375 281.71606 138.01562 281.90356Q138.1875 282.09106 138.1875 282.3723Q138.1875 282.63794 138.01562 282.82544Q137.84375 282.9973 137.5 282.9973Q137.17188 282.9973 137.0 282.82544Q136.84375 282.63794 136.84375 282.3723ZM145.0625 279.2942Q145.0625 281.20044 144.40625 282.13794Q143.76562 283.0598 142.375 283.0598Q141.01562 283.0598 140.35938 282.15356Q139.70312 281.2473 139.67188 279.4348L139.67188 277.9973Q139.67188 276.1067 140.3125 275.20044Q140.96875 274.27856 142.35938 274.27856Q143.73438 274.27856 144.39062 275.1692Q145.04688 276.0442 145.0625 277.88794L145.0625 279.2942ZM143.96875 277.8098Q143.96875 276.4348 143.57812 275.8098Q143.20312 275.1692 142.35938 275.1692Q141.53125 275.1692 141.14062 275.8098Q140.76562 276.4348 140.76562 277.7317L140.76562 279.46606Q140.76562 280.84106 141.15625 281.51294Q141.5625 282.1692 142.375 282.1692Q143.17188 282.1692 143.5625 281.5442Q143.95312 280.9192 143.96875 279.59106L143.96875 277.8098ZM152.21875 275.01294L148.6875 282.9348L147.54688 282.9348L151.0625 275.2942L146.45312 275.2942L146.45312 274.40356L152.21875 274.40356L152.21875 275.01294Z" fill-rule="nonzero"/><path fill="#ffffff" d="M135.0625 279.2942Q135.0625 281.20044 134.40625 282.13794Q133.76562 283.0598 132.375 283.0598Q131.01562 283.0598 130.35938 282.15356Q129.70312 281.2473 129.67188 279.4348L129.67188 277.9973Q129.67188 276.1067 130.3125 275.20044Q130.96875 274.27856 132.35938 274.27856Q133.73438 274.27856 134.39062 275.1692Q135.04688 276.0442 135.0625 277.88794L135.0625 279.2942ZM133.96875 277.8098Q133.96875 276.4348 133.57812 275.8098Q133.20312 275.1692 132.35938 275.1692Q131.53125 275.1692 131.14062 275.8098Q130.76562 276.4348 130.76562 277.7317L130.76562 279.46606Q130.76562 280.84106 131.15625 281.51294Q131.5625 282.1692 132.375 282.1692Q133.17188 282.1692 133.5625 281.5442Q133.95312 280.9192 133.96875 279.59106L133.96875 277.8098ZM136.84375 282.3723Q136.84375 282.09106 137.0 281.90356Q137.17188 281.71606 137.5 281.71606Q137.84375 281.71606 138.01562 281.90356Q138.1875 282.09106 138.1875 282.3723Q138.1875 282.63794 138.01562 282.82544Q137.84375 282.9973 137.5 282.9973Q137.17188 282.9973 137.0 282.82544Q136.84375 282.63794 136.84375 282.3723ZM145.0625 279.2942Q145.0625 281.20044 144.40625 282.13794Q143.76562 283.0598 142.375 283.0598Q141.01562 283.0598 140.35938 282.15356Q139.70312 281.2473 139.67188 279.4348L139.67188 277.9973Q139.67188 276.1067 140.3125 275.20044Q140.96875 274.27856 142.35938 274.27856Q143.73438 274.27856 144.39062 275.1692Q145.04688 276.0442 145.0625 277.88794L145.0625 279.2942ZM143.96875 277.8098Q143.96875 276.4348 143.57812 275.8098Q143.20312 275.1692 142.35938 275.1692Q141.53125 275.1692 141.14062 275.8098Q140.76562 276.4348 140.76562 277.7317L140.76562 279.46606Q140.76562 280.84106 141.15625 281.51294Q141.5625 282.1692 142.375 282.1692Q143.17188 282.1692 143.5625 281.5442Q143.95312 280.9192 143.96875 279.59106L143.96875 277.8098ZM152.21875 275.01294L148.6875 282.9348L147.54688 282.9348L151.0625 275.2942L146.45312 275.2942L146.45312 274.40356L152.21875 274.40356L152.21875 275.01294Z" fill-rule="nonzero"/><path stroke="#4285f4" stroke-width="3.0" stroke-linejoin="round" stroke-linecap="round" d="M229.0625 269.6303Q229.0625 271.53656 228.40625 272.47406Q227.76562 273.39594 226.375 273.39594Q225.01562 273.39594 224.35938 272.4897Q223.70312 271.58344 223.67188 269.77094L223.67188 268.33344Q223.67188 266.4428 224.3125 265.53656Q224.96875 264.6147 226.35938 264.6147Q227.73438 264.6147 228.39062 265.5053Q229.04688 266.3803 229.0625 268.22406L229.0625 269.6303ZM227.96875 268.14594Q227.96875 266.77094 227.57812 266.14594Q227.20312 265.5053 226.35938 265.5053Q225.53125 265.5053 225.14062 266.14594Q224.76562 266.77094 224.76562 268.0678L224.76562 269.8022Q224.76562 271.1772 225.15625 271.84906Q225.5625 272.5053 226.375 272.5053Q227.17188 272.5053 227.5625 271.8803Q227.95312 271.2553 227.96875 269.9272L227.96875 268.14594ZM230.84375 272.70844Q230.84375 272.4272 231.0 272.2397Q231.17188 272.0522 231.5 272.0522Q231.84375 272.0522 232.01562 272.2397Q232.1875 272.4272 232.1875 272.70844Q232.1875 272.97406 232.01562 273.16156Q231.84375 273.33344 231.5 273.33344Q231.17188 273.33344 231.0 273.16156Q230.84375 272.97406 230.84375 272.70844ZM239.0625 269.6303Q239.0625 271.53656 238.40625 272.47406Q237.76562 273.39594 236.375 273.39594Q235.01562 273.39594 234.35938 272.4897Q233.70312 271.58344 233.67188 269.77094L233.67188 268.33344Q233.67188 266.4428 234.3125 265.53656Q234.96875 264.6147 236.35938 264.6147Q237.73438 264.6147 238.39062 265.5053Q239.04688 266.3803 239.0625 268.22406L239.0625 269.6303ZM237.96875 268.14594Q237.96875 266.77094 237.57812 266.14594Q237.20312 265.5053 236.35938 265.5053Q235.53125 265.5053 235.14062 266.14594Q234.76562 266.77094 234.76562 268.0678L234.76562 269.8022Q234.76562 271.1772 235.15625 271.84906Q235.5625 272.5053 236.375 272.5053Q237.17188 272.5053 237.5625 271.8803Q237.95312 271.2553 237.96875 269.9272L237.96875 268.14594ZM244.85938 269.52094Q244.53125 269.9272 244.04688 270.1772Q243.57812 270.41156 243.01562 270.41156Q242.28125 270.41156 241.73438 270.0522Q241.1875 269.6928 240.89062 269.03656Q240.59375 268.3647 240.59375 267.5678Q240.59375 266.72406 240.90625 266.03656Q241.23438 265.34906 241.82812 264.9897Q242.4375 264.6147 243.23438 264.6147Q244.5 264.6147 245.21875 265.5678Q245.95312 266.52094 245.95312 268.14594L245.95312 268.45844Q245.95312 270.95844 244.96875 272.09906Q243.98438 273.2397 242.0 273.27094L241.78125 273.27094L241.78125 272.3647L242.01562 272.3647Q243.35938 272.33344 244.07812 271.66156Q244.79688 270.9897 244.85938 269.52094ZM243.1875 269.52094Q243.73438 269.52094 244.1875 269.1928Q244.65625 268.84906 244.875 268.3647L244.875 267.9272Q244.875 266.8647 244.40625 266.1928Q243.9375 265.52094 243.23438 265.52094Q242.51562 265.52094 242.07812 266.0678Q241.65625 266.6147 241.65625 267.52094Q241.65625 268.39594 242.0625 268.95844Q242.48438 269.52094 243.1875 269.52094Z" fill-rule="nonzero"/><path fill="#ffffff" d="M229.0625 269.6303Q229.0625 271.53656 228.40625 272.47406Q227.76562 273.39594 226.375 273.39594Q225.01562 273.39594 224.35938 272.4897Q223.70312 271.58344 223.67188 269.77094L223.67188 268.33344Q223.67188 266.4428 224.3125 265.53656Q224.96875 264.6147 226.35938 264.6147Q227.73438 264.6147 228.39062 265.5053Q229.04688 266.3803 229.0625 268.22406L229.0625 269.6303ZM227.96875 268.14594Q227.96875 266.77094 227.57812 266.14594Q227.20312 265.5053 226.35938 265.5053Q225.53125 265.5053 225.14062 266.14594Q224.76562 266.77094 224.76562 268.0678L224.76562 269.8022Q224.76562 271.1772 225.15625 271.84906Q225.5625 272.5053 226.375 272.5053Q227.17188 272.5053 227.5625 271.8803Q227.95312 271.2553 227.96875 269.9272L227.96875 268.14594ZM230.84375 272.70844Q230.84375 272.4272 231.0 272.2397Q231.17188 272.0522 231.5 272.0522Q231.84375 272.0522 232.01562 272.2397Q232.1875 272.4272 232.1875 272.70844Q232.1875 272.97406 232.01562 273.16156Q231.84375 273.33344 231.5 273.33344Q231.17188 273.33344 231.0 273.16156Q230.84375 272.97406 230.84375 272.70844ZM239.0625 269.6303Q239.0625 271.53656 238.40625 272.47406Q237.76562 273.39594 236.375 273.39594Q235.01562 273.39594 234.35938 272.4897Q233.70312 271.58344 233.67188 269.77094L233.67188 268.33344Q233.67188 266.4428 234.3125 265.53656Q234.96875 264.6147 236.35938 264.6147Q237.73438 264.6147 238.39062 265.5053Q239.04688 266.3803 239.0625 268.22406L239.0625 269.6303ZM237.96875 268.14594Q237.96875 266.77094 237.57812 266.14594Q237.20312 265.5053 236.35938 265.5053Q235.53125 265.5053 235.14062 266.14594Q234.76562 266.77094 234.76562 268.0678L234.76562 269.8022Q234.76562 271.1772 235.15625 271.84906Q235.5625 272.5053 236.375 272.5053Q237.17188 272.5053 237.5625 271.8803Q237.95312 271.2553 237.96875 269.9272L237.96875 268.14594ZM244.85938 269.52094Q244.53125 269.9272 244.04688 270.1772Q243.57812 270.41156 243.01562 270.41156Q242.28125 270.41156 241.73438 270.0522Q241.1875 269.6928 240.89062 269.03656Q240.59375 268.3647 240.59375 267.5678Q240.59375 266.72406 240.90625 266.03656Q241.23438 265.34906 241.82812 264.9897Q242.4375 264.6147 243.23438 264.6147Q244.5 264.6147 245.21875 265.5678Q245.95312 266.52094 245.95312 268.14594L245.95312 268.45844Q245.95312 270.95844 244.96875 272.09906Q243.98438 273.2397 242.0 273.27094L241.78125 273.27094L241.78125 272.3647L242.01562 272.3647Q243.35938 272.33344 244.07812 271.66156Q244.79688 270.9897 244.85938 269.52094ZM243.1875 269.52094Q243.73438 269.52094 244.1875 269.1928Q244.65625 268.84906 244.875 268.3647L244.875 267.9272Q244.875 266.8647 244.40625 266.1928Q243.9375 265.52094 243.23438 265.52094Q242.51562 265.52094 242.07812 266.0678Q241.65625 266.6147 241.65625 267.52094Q241.65625 268.39594 242.0625 268.95844Q242.48438 269.52094 243.1875 269.52094Z" fill-rule="nonzero"/><path stroke="#4285f4" stroke-width="3.0" stroke-linejoin="round" stroke-linecap="round" d="M324.0625 249.45694Q324.0625 251.36319 323.40625 252.30069Q322.76562 253.22256 321.375 253.22256Q320.01562 253.22256 319.35938 252.31631Q318.70312 251.41006 318.67188 249.59756L318.67188 248.16006Q318.67188 246.26944 319.3125 245.36319Q319.96875 244.44131 321.35938 244.44131Q322.73438 244.44131 323.39062 245.33194Q324.04688 246.20694 324.0625 248.05069L324.0625 249.45694ZM322.96875 247.97256Q322.96875 246.59756 322.57812 245.97256Q322.20312 245.33194 321.35938 245.33194Q320.53125 245.33194 320.14062 245.97256Q319.76562 246.59756 319.76562 247.89444L319.76562 249.62881Q319.76562 251.00381 320.15625 251.67569Q320.5625 252.33194 321.375 252.33194Q322.17188 252.33194 322.5625 251.70694Q322.95312 251.08194 322.96875 249.75381L322.96875 247.97256ZM325.84375 252.53506Q325.84375 252.25381 326.0 252.06631Q326.17188 251.87881 326.5 251.87881Q326.84375 251.87881 327.01562 252.06631Q327.1875 252.25381 327.1875 252.53506Q327.1875 252.80069 327.01562 252.98819Q326.84375 253.16006 326.5 253.16006Q326.17188 253.16006 326.0 252.98819Q325.84375 252.80069 325.84375 252.53506ZM332.26562 253.09756L331.1875 253.09756L331.1875 245.87881L329.0 246.67569L329.0 245.69131L332.10938 244.51944L332.26562 244.51944L332.26562 253.09756ZM337.28125 248.30069L338.09375 248.30069Q338.875 248.28506 339.3125 247.89444Q339.75 247.50381 339.75 246.83194Q339.75 245.33194 338.25 245.33194Q337.54688 245.33194 337.125 245.73819Q336.71875 246.14444 336.71875 246.80069L335.625 246.80069Q335.625 245.78506 336.35938 245.11319Q337.10938 244.44131 338.25 244.44131Q339.45312 244.44131 340.14062 245.08194Q340.82812 245.72256 340.82812 246.86319Q340.82812 247.42569 340.46875 247.94131Q340.10938 248.45694 339.48438 248.72256Q340.1875 248.94131 340.5625 249.45694Q340.95312 249.97256 340.95312 250.72256Q340.95312 251.86319 340.20312 252.55069Q339.45312 253.22256 338.25 253.22256Q337.0625 253.22256 336.29688 252.56631Q335.54688 251.91006 335.54688 250.84756L336.64062 250.84756Q336.64062 251.51944 337.07812 251.92569Q337.51562 252.33194 338.26562 252.33194Q339.04688 252.33194 339.45312 251.92569Q339.875 251.50381 339.875 250.73819Q339.875 250.00381 339.42188 249.61319Q338.96875 249.20694 338.09375 249.19131L337.28125 249.19131L337.28125 248.30069Z" fill-rule="nonzero"/><path fill="#ffffff" d="M324.0625 249.45694Q324.0625 251.36319 323.40625 252.30069Q322.76562 253.22256 321.375 253.22256Q320.01562 253.22256 319.35938 252.31631Q318.70312 251.41006 318.67188 249.59756L318.67188 248.16006Q318.67188 246.26944 319.3125 245.36319Q319.96875 244.44131 321.35938 244.44131Q322.73438 244.44131 323.39062 245.33194Q324.04688 246.20694 324.0625 248.05069L324.0625 249.45694ZM322.96875 247.97256Q322.96875 246.59756 322.57812 245.97256Q322.20312 245.33194 321.35938 245.33194Q320.53125 245.33194 320.14062 245.97256Q319.76562 246.59756 319.76562 247.89444L319.76562 249.62881Q319.76562 251.00381 320.15625 251.67569Q320.5625 252.33194 321.375 252.33194Q322.17188 252.33194 322.5625 251.70694Q322.95312 251.08194 322.96875 249.75381L322.96875 247.97256ZM325.84375 252.53506Q325.84375 252.25381 326.0 252.06631Q326.17188 251.87881 326.5 251.87881Q326.84375 251.87881 327.01562 252.06631Q327.1875 252.25381 327.1875 252.53506Q327.1875 252.80069 327.01562 252.98819Q326.84375 253.16006 326.5 253.16006Q326.17188 253.16006 326.0 252.98819Q325.84375 252.80069 325.84375 252.53506ZM332.26562 253.09756L331.1875 253.09756L331.1875 245.87881L329.0 246.67569L329.0 245.69131L332.10938 244.51944L332.26562 244.51944L332.26562 253.09756ZM337.28125 248.30069L338.09375 248.30069Q338.875 248.28506 339.3125 247.89444Q339.75 247.50381 339.75 246.83194Q339.75 245.33194 338.25 245.33194Q337.54688 245.33194 337.125 245.73819Q336.71875 246.14444 336.71875 246.80069L335.625 246.80069Q335.625 245.78506 336.35938 245.11319Q337.10938 244.44131 338.25 244.44131Q339.45312 244.44131 340.14062 245.08194Q340.82812 245.72256 340.82812 246.86319Q340.82812 247.42569 340.46875 247.94131Q340.10938 248.45694 339.48438 248.72256Q340.1875 248.94131 340.5625 249.45694Q340.95312 249.97256 340.95312 250.72256Q340.95312 251.86319 340.20312 252.55069Q339.45312 253.22256 338.25 253.22256Q337.0625 253.22256 336.29688 252.56631Q335.54688 251.91006 335.54688 250.84756L336.64062 250.84756Q336.64062 251.51944 337.07812 251.92569Q337.51562 252.33194 338.26562 252.33194Q339.04688 252.33194 339.45312 251.92569Q339.875 251.50381 339.875 250.73819Q339.875 250.00381 339.42188 249.61319Q338.96875 249.20694 338.09375 249.19131L337.28125 249.19131L337.28125 248.30069Z" fill-rule="nonzero"/><path stroke="#4285f4" stroke-width="3.0" stroke-linejoin="round" stroke-linecap="round" d="M418.0625 206.19516Q418.0625 208.10141 417.40625 209.03891Q416.76562 209.96078 415.375 209.96078Q414.01562 209.96078 413.35938 209.05453Q412.70312 208.14828 412.67188 206.33578L412.67188 204.89828Q412.67188 203.00766 413.3125 202.10141Q413.96875 201.17953 415.35938 201.17953Q416.73438 201.17953 417.39062 202.07016Q418.04688 202.94516 418.0625 204.78891L418.0625 206.19516ZM416.96875 204.71078Q416.96875 203.33578 416.57812 202.71078Q416.20312 202.07016 415.35938 202.07016Q414.53125 202.07016 414.14062 202.71078Q413.76562 203.33578 413.76562 204.63266L413.76562 206.36703Q413.76562 207.74203 414.15625 208.41391Q414.5625 209.07016 415.375 209.07016Q416.17188 209.07016 416.5625 208.44516Q416.95312 207.82016 416.96875 206.49203L416.96875 204.71078ZM419.84375 209.27328Q419.84375 208.99203 420.0 208.80453Q420.17188 208.61703 420.5 208.61703Q420.84375 208.61703 421.01562 208.80453Q421.1875 208.99203 421.1875 209.27328Q421.1875 209.53891 421.01562 209.72641Q420.84375 209.89828 420.5 209.89828Q420.17188 209.89828 420.0 209.72641Q419.84375 209.53891 419.84375 209.27328ZM428.29688 209.83578L422.70312 209.83578L422.70312 209.05453L425.65625 205.77328Q426.3125 205.02328 426.5625 204.57016Q426.8125 204.10141 426.8125 203.60141Q426.8125 202.92953 426.40625 202.50766Q426.01562 202.07016 425.32812 202.07016Q424.53125 202.07016 424.07812 202.53891Q423.625 202.99203 423.625 203.82016L422.54688 203.82016Q422.54688 202.63266 423.29688 201.91391Q424.0625 201.17953 425.32812 201.17953Q426.53125 201.17953 427.21875 201.80453Q427.90625 202.42953 427.90625 203.47641Q427.90625 204.72641 426.29688 206.47641L424.01562 208.94516L428.29688 208.94516L428.29688 209.83578ZM431.28125 205.03891L432.09375 205.03891Q432.875 205.02328 433.3125 204.63266Q433.75 204.24203 433.75 203.57016Q433.75 202.07016 432.25 202.07016Q431.54688 202.07016 431.125 202.47641Q430.71875 202.88266 430.71875 203.53891L429.625 203.53891Q429.625 202.52328 430.35938 201.85141Q431.10938 201.17953 432.25 201.17953Q433.45312 201.17953 434.14062 201.82016Q434.82812 202.46078 434.82812 203.60141Q434.82812 204.16391 434.46875 204.67953Q434.10938 205.19516 433.48438 205.46078Q434.1875 205.67953 434.5625 206.19516Q434.95312 206.71078 434.95312 207.46078Q434.95312 208.60141 434.20312 209.28891Q433.45312 209.96078 432.25 209.96078Q431.0625 209.96078 430.29688 209.30453Q429.54688 208.64828 429.54688 207.58578L430.64062 207.58578Q430.64062 208.25766 431.07812 208.66391Q431.51562 209.07016 432.26562 209.07016Q433.04688 209.07016 433.45312 208.66391Q433.875 208.24203 433.875 207.47641Q433.875 206.74203 433.42188 206.35141Q432.96875 205.94516 432.09375 205.92953L431.28125 205.92953L431.28125 205.03891Z" fill-rule="nonzero"/><path fill="#ffffff" d="M418.0625 206.19516Q418.0625 208.10141 417.40625 209.03891Q416.76562 209.96078 415.375 209.96078Q414.01562 209.96078 413.35938 209.05453Q412.70312 208.14828 412.67188 206.33578L412.67188 204.89828Q412.67188 203.00766 413.3125 202.10141Q413.96875 201.17953 415.35938 201.17953Q416.73438 201.17953 417.39062 202.07016Q418.04688 202.94516 418.0625 204.78891L418.0625 206.19516ZM416.96875 204.71078Q416.96875 203.33578 416.57812 202.71078Q416.20312 202.07016 415.35938 202.07016Q414.53125 202.07016 414.14062 202.71078Q413.76562 203.33578 413.76562 204.63266L413.76562 206.36703Q413.76562 207.74203 414.15625 208.41391Q414.5625 209.07016 415.375 209.07016Q416.17188 209.07016 416.5625 208.44516Q416.95312 207.82016 416.96875 206.49203L416.96875 204.71078ZM419.84375 209.27328Q419.84375 208.99203 420.0 208.80453Q420.17188 208.61703 420.5 208.61703Q420.84375 208.61703 421.01562 208.80453Q421.1875 208.99203 421.1875 209.27328Q421.1875 209.53891 421.01562 209.72641Q420.84375 209.89828 420.5 209.89828Q420.17188 209.89828 420.0 209.72641Q419.84375 209.53891 419.84375 209.27328ZM428.29688 209.83578L422.70312 209.83578L422.70312 209.05453L425.65625 205.77328Q426.3125 205.02328 426.5625 204.57016Q426.8125 204.10141 426.8125 203.60141Q426.8125 202.92953 426.40625 202.50766Q426.01562 202.07016 425.32812 202.07016Q424.53125 202.07016 424.07812 202.53891Q423.625 202.99203 423.625 203.82016L422.54688 203.82016Q422.54688 202.63266 423.29688 201.91391Q424.0625 201.17953 425.32812 201.17953Q426.53125 201.17953 427.21875 201.80453Q427.90625 202.42953 427.90625 203.47641Q427.90625 204.72641 426.29688 206.47641L424.01562 208.94516L428.29688 208.94516L428.29688 209.83578ZM431.28125 205.03891L432.09375 205.03891Q432.875 205.02328 433.3125 204.63266Q433.75 204.24203 433.75 203.57016Q433.75 202.07016 432.25 202.07016Q431.54688 202.07016 431.125 202.47641Q430.71875 202.88266 430.71875 203.53891L429.625 203.53891Q429.625 202.52328 430.35938 201.85141Q431.10938 201.17953 432.25 201.17953Q433.45312 201.17953 434.14062 201.82016Q434.82812 202.46078 434.82812 203.60141Q434.82812 204.16391 434.46875 204.67953Q434.10938 205.19516 433.48438 205.46078Q434.1875 205.67953 434.5625 206.19516Q434.95312 206.71078 434.95312 207.46078Q434.95312 208.60141 434.20312 209.28891Q433.45312 209.96078 432.25 209.96078Q431.0625 209.96078 430.29688 209.30453Q429.54688 208.64828 429.54688 207.58578L430.64062 207.58578Q430.64062 208.25766 431.07812 208.66391Q431.51562 209.07016 432.26562 209.07016Q433.04688 209.07016 433.45312 208.66391Q433.875 208.24203 433.875 207.47641Q433.875 206.74203 433.42188 206.35141Q432.96875 205.94516 432.09375 205.92953L431.28125 205.92953L431.28125 205.03891Z" fill-rule="nonzero"/><path stroke="#4285f4" stroke-width="3.0" stroke-linejoin="round" stroke-linecap="round" d="M512.0625 105.64501Q512.0625 107.55126 511.40625 108.48876Q510.76562 109.41064 509.375 109.41064Q508.01562 109.41064 507.35938 108.50439Q506.70312 107.59814 506.67188 105.78564L506.67188 104.34814Q506.67188 102.45751 507.3125 101.55126Q507.96875 100.62939 509.35938 100.62939Q510.73438 100.62939 511.39062 101.52001Q512.0469 102.39501 512.0625 104.23876L512.0625 105.64501ZM510.96875 104.16064Q510.96875 102.78564 510.57812 102.16064Q510.20312 101.52001 509.35938 101.52001Q508.53125 101.52001 508.14062 102.16064Q507.76562 102.78564 507.76562 104.08251L507.76562 105.81689Q507.76562 107.19189 508.15625 107.86376Q508.5625 108.52001 509.375 108.52001Q510.17188 108.52001 510.5625 107.89501Q510.95312 107.27001 510.96875 105.94189L510.96875 104.16064ZM513.84375 108.72314Q513.84375 108.44189 514.0 108.25439Q514.1719 108.06689 514.5 108.06689Q514.84375 108.06689 515.0156 108.25439Q515.1875 108.44189 515.1875 108.72314Q515.1875 108.98876 515.0156 109.17626Q514.84375 109.34814 514.5 109.34814Q514.1719 109.34814 514.0 109.17626Q513.84375 108.98876 513.84375 108.72314ZM521.28125 106.42626L522.46875 106.42626L522.46875 107.30126L521.28125 107.30126L521.28125 109.28564L520.2031 109.28564L520.2031 107.30126L516.3125 107.30126L516.3125 106.66064L520.125 100.75439L521.28125 100.75439L521.28125 106.42626ZM517.5469 106.42626L520.2031 106.42626L520.2031 102.23876L520.0625 102.47314L517.5469 106.42626ZM528.28125 106.42626L529.46875 106.42626L529.46875 107.30126L528.28125 107.30126L528.28125 109.28564L527.2031 109.28564L527.2031 107.30126L523.3125 107.30126L523.3125 106.66064L527.125 100.75439L528.28125 100.75439L528.28125 106.42626ZM524.5469 106.42626L527.2031 106.42626L527.2031 102.23876L527.0625 102.47314L524.5469 106.42626Z" fill-rule="nonzero"/><path fill="#ffffff" d="M512.0625 105.64501Q512.0625 107.55126 511.40625 108.48876Q510.76562 109.41064 509.375 109.41064Q508.01562 109.41064 507.35938 108.50439Q506.70312 107.59814 506.67188 105.78564L506.67188 104.34814Q506.67188 102.45751 507.3125 101.55126Q507.96875 100.62939 509.35938 100.62939Q510.73438 100.62939 511.39062 101.52001Q512.0469 102.39501 512.0625 104.23876L512.0625 105.64501ZM510.96875 104.16064Q510.96875 102.78564 510.57812 102.16064Q510.20312 101.52001 509.35938 101.52001Q508.53125 101.52001 508.14062 102.16064Q507.76562 102.78564 507.76562 104.08251L507.76562 105.81689Q507.76562 107.19189 508.15625 107.86376Q508.5625 108.52001 509.375 108.52001Q510.17188 108.52001 510.5625 107.89501Q510.95312 107.27001 510.96875 105.94189L510.96875 104.16064ZM513.84375 108.72314Q513.84375 108.44189 514.0 108.25439Q514.1719 108.06689 514.5 108.06689Q514.84375 108.06689 515.0156 108.25439Q515.1875 108.44189 515.1875 108.72314Q515.1875 108.98876 515.0156 109.17626Q514.84375 109.34814 514.5 109.34814Q514.1719 109.34814 514.0 109.17626Q513.84375 108.98876 513.84375 108.72314ZM521.28125 106.42626L522.46875 106.42626L522.46875 107.30126L521.28125 107.30126L521.28125 109.28564L520.2031 109.28564L520.2031 107.30126L516.3125 107.30126L516.3125 106.66064L520.125 100.75439L521.28125 100.75439L521.28125 106.42626ZM517.5469 106.42626L520.2031 106.42626L520.2031 102.23876L520.0625 102.47314L517.5469 106.42626ZM528.28125 106.42626L529.46875 106.42626L529.46875 107.30126L528.28125 107.30126L528.28125 109.28564L527.2031 109.28564L527.2031 107.30126L523.3125 107.30126L523.3125 106.66064L527.125 100.75439L528.28125 100.75439L528.28125 106.42626ZM524.5469 106.42626L527.2031 106.42626L527.2031 102.23876L527.0625 102.47314L524.5469 106.42626Z" fill-rule="nonzero"/><path fill="#000000" d="M283.42188 349.45L283.42188 340.85626L284.57812 340.85626L289.09375 347.60626L289.09375 340.85626L290.1875 340.85626L290.1875 349.45L289.01562 349.45L284.5 342.7L284.5 349.45L283.42188 349.45ZM296.375 349.45L296.375 348.52814Q295.64062 349.59064 294.39062 349.59064Q293.84375 349.59064 293.35938 349.3875Q292.89062 349.16876 292.65625 348.85626Q292.42188 348.52814 292.32812 348.0594Q292.26562 347.7625 292.26562 347.075L292.26562 343.23126L293.32812 343.23126L293.32812 346.6844Q293.32812 347.4969 293.39062 347.79376Q293.48438 348.2 293.79688 348.45Q294.125 348.6844 294.60938 348.6844Q295.07812 348.6844 295.48438 348.45Q295.90625 348.2 296.07812 347.77814Q296.26562 347.35626 296.26562 346.5594L296.26562 343.23126L297.3125 343.23126L297.3125 349.45L296.375 349.45ZM299.29688 349.45L299.29688 343.23126L300.23438 343.23126L300.23438 344.10626Q300.53125 343.6375 301.01562 343.3719Q301.5 343.09064 302.125 343.09064Q302.8125 343.09064 303.25 343.3719Q303.70312 343.65314 303.875 344.16876Q304.625 343.09064 305.79688 343.09064Q306.73438 343.09064 307.21875 343.60626Q307.71875 344.10626 307.71875 345.1844L307.71875 349.45L306.67188 349.45L306.67188 345.52814Q306.67188 344.90314 306.5625 344.6219Q306.46875 344.34064 306.20312 344.16876Q305.9375 343.9969 305.5625 343.9969Q304.90625 343.9969 304.46875 344.4344Q304.04688 344.8719 304.04688 345.84064L304.04688 349.45L302.98438 349.45L302.98438 345.40314Q302.98438 344.7 302.71875 344.35626Q302.46875 343.9969 301.89062 343.9969Q301.4375 343.9969 301.0625 344.23126Q300.6875 344.46564 300.51562 344.91876Q300.34375 345.3719 300.34375 346.21564L300.34375 349.45L299.29688 349.45ZM311.26562 349.45L310.28125 349.45L310.28125 340.85626L311.34375 340.85626L311.34375 343.91876Q312.01562 343.09064 313.04688 343.09064Q313.625 343.09064 314.125 343.325Q314.64062 343.54376 314.96875 343.96564Q315.3125 344.3875 315.5 344.98126Q315.6875 345.575 315.6875 346.2469Q315.6875 347.84064 314.89062 348.71564Q314.09375 349.59064 313.0 349.59064Q311.89062 349.59064 311.26562 348.66876L311.26562 349.45ZM311.25 346.29376Q311.25 347.40314 311.5625 347.90314Q312.0625 348.71564 312.90625 348.71564Q313.59375 348.71564 314.09375 348.1219Q314.60938 347.52814 314.60938 346.325Q314.60938 345.10626 314.125 344.52814Q313.64062 343.95 312.95312 343.95Q312.26562 343.95 311.75 344.5594Q311.25 345.15314 311.25 346.29376ZM321.54688 347.45L322.64062 347.575Q322.39062 348.52814 321.6875 349.0594Q320.98438 349.59064 319.90625 349.59064Q318.54688 349.59064 317.73438 348.7469Q316.9375 347.90314 316.9375 346.3875Q316.9375 344.825 317.75 343.96564Q318.5625 343.09064 319.84375 343.09064Q321.09375 343.09064 321.875 343.9344Q322.67188 344.77814 322.67188 346.325Q322.67188 346.41876 322.67188 346.60626L318.03125 346.60626Q318.09375 347.6375 318.60938 348.1844Q319.125 348.71564 319.90625 348.71564Q320.48438 348.71564 320.89062 348.41876Q321.3125 348.10626 321.54688 347.45ZM318.09375 345.7469L321.5625 345.7469Q321.5 344.95 321.17188 344.5594Q320.65625 343.95 319.85938 343.95Q319.125 343.95 318.625 344.4344Q318.14062 344.91876 318.09375 345.7469ZM324.28125 349.45L324.28125 343.23126L325.23438 343.23126L325.23438 344.16876Q325.59375 343.5125 325.89062 343.3094Q326.20312 343.09064 326.57812 343.09064Q327.10938 343.09064 327.65625 343.41876L327.29688 344.40314Q326.90625 344.16876 326.53125 344.16876Q326.17188 344.16876 325.89062 344.3875Q325.625 344.59064 325.51562 344.96564Q325.32812 345.52814 325.32812 346.1844L325.32812 349.45L324.28125 349.45ZM330.90625 346.34064Q330.90625 344.60626 331.85938 343.77814Q332.65625 343.09064 333.8125 343.09064Q335.09375 343.09064 335.90625 343.9344Q336.73438 344.7625 336.73438 346.2469Q336.73438 347.45 336.375 348.1375Q336.01562 348.825 335.3125 349.21564Q334.625 349.59064 333.8125 349.59064Q332.51562 349.59064 331.70312 348.7625Q330.90625 347.91876 330.90625 346.34064ZM331.98438 346.34064Q331.98438 347.52814 332.5 348.1219Q333.03125 348.71564 333.8125 348.71564Q334.60938 348.71564 335.125 348.1219Q335.64062 347.52814 335.64062 346.3094Q335.64062 345.15314 335.10938 344.5594Q334.59375 343.96564 333.8125 343.96564Q333.03125 343.96564 332.5 344.5594Q331.98438 345.1375 331.98438 346.34064ZM338.54688 349.45L338.54688 344.04376L337.60938 344.04376L337.60938 343.23126L338.54688 343.23126L338.54688 342.5594Q338.54688 341.9344 338.65625 341.6375Q338.8125 341.21564 339.1875 340.96564Q339.57812 340.71564 340.26562 340.71564Q340.71875 340.71564 341.25 340.825L341.09375 341.73126Q340.76562 341.6844 340.46875 341.6844Q339.98438 341.6844 339.78125 341.8875Q339.59375 342.09064 339.59375 342.65314L339.59375 343.23126L340.8125 343.23126L340.8125 344.04376L339.59375 344.04376L339.59375 349.45L338.54688 349.45ZM348.45312 346.075L348.45312 345.075L352.07812 345.0594L352.07812 348.2469Q351.25 348.91876 350.35938 349.2625Q349.46875 349.59064 348.53125 349.59064Q347.26562 349.59064 346.21875 349.0594Q345.1875 348.5125 344.65625 347.4969Q344.14062 346.46564 344.14062 345.2Q344.14062 343.9344 344.65625 342.85626Q345.1875 341.7625 346.17188 341.2469Q347.15625 340.71564 348.4375 340.71564Q349.375 340.71564 350.125 341.0125Q350.875 341.3094 351.29688 341.85626Q351.73438 342.3875 351.95312 343.2625L350.9375 343.54376Q350.73438 342.8875 350.4375 342.5125Q350.15625 342.1375 349.625 341.91876Q349.09375 341.6844 348.45312 341.6844Q347.67188 341.6844 347.09375 341.91876Q346.53125 342.15314 346.17188 342.54376Q345.82812 342.9344 345.64062 343.40314Q345.3125 344.2 345.3125 345.1219Q345.3125 346.27814 345.70312 347.0594Q346.10938 347.825 346.85938 348.2Q347.60938 348.575 348.46875 348.575Q349.20312 348.575 349.90625 348.29376Q350.60938 347.9969 350.96875 347.6844L350.96875 346.075L348.45312 346.075ZM353.42188 349.45L353.42188 340.85626L356.67188 340.85626Q357.51562 340.85626 357.96875 340.9344Q358.60938 341.04376 359.03125 341.34064Q359.46875 341.6375 359.71875 342.16876Q359.98438 342.7 359.98438 343.34064Q359.98438 344.4344 359.28125 345.2Q358.59375 345.95 356.76562 345.95L354.5625 345.95L354.5625 349.45L353.42188 349.45ZM354.5625 344.95L356.78125 344.95Q357.89062 344.95 358.34375 344.54376Q358.8125 344.1219 358.8125 343.3719Q358.8125 342.84064 358.53125 342.46564Q358.26562 342.075 357.82812 341.95Q357.53125 341.8719 356.76562 341.8719L354.5625 341.8719L354.5625 344.95ZM367.0625 340.85626L368.20312 340.85626L368.20312 345.825Q368.20312 347.1219 367.90625 347.8875Q367.60938 348.6375 366.84375 349.1219Q366.07812 349.59064 364.84375 349.59064Q363.64062 349.59064 362.85938 349.1844Q362.09375 348.7625 361.76562 347.98126Q361.4375 347.1844 361.4375 345.825L361.4375 340.85626L362.57812 340.85626L362.57812 345.8094Q362.57812 346.9344 362.78125 347.46564Q363.0 347.9969 363.5 348.29376Q364.01562 348.575 364.75 348.575Q366.0 348.575 366.53125 348.0125Q367.0625 347.4344 367.0625 345.8094L367.0625 340.85626ZM369.875 347.59064L370.90625 347.4344Q371.0 348.0594 371.39062 348.3875Q371.79688 348.71564 372.53125 348.71564Q373.25 348.71564 373.59375 348.4344Q373.95312 348.1375 373.95312 347.73126Q373.95312 347.3719 373.64062 347.16876Q373.42188 347.02814 372.5625 346.8094Q371.40625 346.5125 370.95312 346.3094Q370.51562 346.09064 370.28125 345.71564Q370.04688 345.34064 370.04688 344.8719Q370.04688 344.46564 370.23438 344.10626Q370.42188 343.7469 370.75 343.5125Q371.0 343.34064 371.42188 343.21564Q371.84375 343.09064 372.34375 343.09064Q373.0625 343.09064 373.60938 343.3094Q374.17188 343.5125 374.4375 343.8719Q374.70312 344.23126 374.79688 344.825L373.76562 344.96564Q373.70312 344.4969 373.35938 344.23126Q373.03125 343.95 372.40625 343.95Q371.6875 343.95 371.375 344.2Q371.0625 344.4344 371.0625 344.7625Q371.0625 344.96564 371.1875 345.1219Q371.32812 345.29376 371.59375 345.40314Q371.75 345.46564 372.53125 345.66876Q373.65625 345.98126 374.09375 346.16876Q374.53125 346.35626 374.78125 346.71564Q375.03125 347.075 375.03125 347.6219Q375.03125 348.15314 374.71875 348.6219Q374.42188 349.075 373.84375 349.34064Q373.26562 349.59064 372.53125 349.59064Q371.3125 349.59064 370.67188 349.09064Q370.04688 348.575 369.875 347.59064Z" fill-rule="nonzero"/><path fill="#000000" d="M29.550013 219.79271L20.956263 219.79271L20.956263 218.07396L27.034388 216.04271Q27.893763 215.76146 28.315638 215.63646Q27.846888 215.49583 26.940638 215.18333L20.956263 213.12083L20.956263 211.58958L29.550013 211.58958L29.550013 212.68333L22.362513 212.68333L29.550013 215.18333L29.550013 216.21458L22.237513 218.69896L29.550013 218.69896L29.550013 219.79271ZM22.175013 210.88646L20.956263 210.88646L20.956263 209.82396L22.175013 209.82396L22.175013 210.88646ZM29.550013 210.88646L23.331263 210.88646L23.331263 209.82396L29.550013 209.82396L29.550013 210.88646ZM29.550013 207.91771L20.956263 207.91771L20.956263 206.85521L29.550013 206.85521L29.550013 207.91771ZM22.175013 204.88646L20.956263 204.88646L20.956263 203.82396L22.175013 203.82396L22.175013 204.88646ZM29.550013 204.88646L23.331263 204.88646L23.331263 203.82396L29.550013 203.82396L29.550013 204.88646ZM27.690638 202.30833L27.534388 201.27708Q28.159388 201.18333 28.487513 200.79271Q28.815638 200.38646 28.815638 199.65208Q28.815638 198.93333 28.534388 198.58958Q28.237513 198.23021 27.831263 198.23021Q27.471888 198.23021 27.268763 198.54271Q27.128138 198.76146 26.909388 199.62083Q26.612513 200.77708 26.409388 201.23021Q26.190638 201.66771 25.815638 201.90208Q25.440638 202.13646 24.971888 202.13646Q24.565638 202.13646 24.206263 201.94896Q23.846888 201.76146 23.612513 201.43333Q23.440638 201.18333 23.315638 200.76146Q23.190638 200.33958 23.190638 199.83958Q23.190638 199.12083 23.409388 198.57396Q23.612513 198.01146 23.971888 197.74583Q24.331263 197.48021 24.925013 197.38646L25.065638 198.41771Q24.596888 198.48021 24.331263 198.82396Q24.050013 199.15208 24.050013 199.77708Q24.050013 200.49583 24.300013 200.80833Q24.534388 201.12083 24.862513 201.12083Q25.065638 201.12083 25.221888 200.99583Q25.393763 200.85521 25.503138 200.58958Q25.565638 200.43333 25.768763 199.65208Q26.081263 198.52708 26.268763 198.08958Q26.456263 197.65208 26.815638 197.40208Q27.175013 197.15208 27.721888 197.15208Q28.253138 197.15208 28.721888 197.46458Q29.175013 197.76146 29.440638 198.33958Q29.690638 198.91771 29.690638 199.65208Q29.690638 200.87083 29.190638 201.51146Q28.675013 202.13646 27.690638 202.30833ZM27.550013 190.63646L27.675013 189.54271Q28.628138 189.79271 29.159388 190.49583Q29.690638 191.19896 29.690638 192.27708Q29.690638 193.63646 28.846888 194.44896Q28.003138 195.24583 26.487513 195.24583Q24.925013 195.24583 24.065638 194.43333Q23.190638 193.62083 23.190638 192.33958Q23.190638 191.08958 24.034388 190.30833Q24.878138 189.51146 26.425013 189.51146Q26.518763 189.51146 26.706263 189.51146L26.706263 194.15208Q27.737513 194.08958 28.284388 193.57396Q28.815638 193.05833 28.815638 192.27708Q28.815638 191.69896 28.518763 191.29271Q28.206263 190.87083 27.550013 190.63646ZM25.846888 194.08958L25.846888 190.62083Q25.050013 190.68333 24.659388 191.01146Q24.050013 191.52708 24.050013 192.32396Q24.050013 193.05833 24.534388 193.55833Q25.018763 194.04271 25.846888 194.08958ZM27.268763 183.82396L27.409388 182.79271Q28.471888 182.96458 29.081263 183.66771Q29.690638 184.37083 29.690638 185.38646Q29.690638 186.66771 28.862513 187.44896Q28.018763 188.21458 26.456263 188.21458Q25.456263 188.21458 24.706263 187.88646Q23.940638 187.54271 23.565638 186.87083Q23.190638 186.18333 23.190638 185.37083Q23.190638 184.37083 23.706263 183.73021Q24.206263 183.07396 25.159388 182.88646L25.315638 183.91771Q24.690638 184.05833 24.378138 184.43333Q24.050013 184.80833 24.050013 185.33958Q24.050013 186.13646 24.628138 186.63646Q25.190638 187.13646 26.425013 187.13646Q27.690638 187.13646 28.253138 186.65208Q28.815638 186.16771 28.815638 185.40208Q28.815638 184.77708 28.440638 184.37083Q28.065638 183.94896 27.268763 183.82396ZM26.440638 182.27708Q24.706263 182.27708 23.878138 181.32396Q23.190638 180.52708 23.190638 179.37083Q23.190638 178.08958 24.034388 177.27708Q24.862513 176.44896 26.346888 176.44896Q27.550013 176.44896 28.237513 176.80833Q28.925013 177.16771 29.315638 177.87083Q29.690638 178.55833 29.690638 179.37083Q29.690638 180.66771 28.862513 181.48021Q28.018763 182.27708 26.440638 182.27708ZM26.440638 181.19896Q27.628138 181.19896 28.221888 180.68333Q28.815638 180.15208 28.815638 179.37083Q28.815638 178.57396 28.221888 178.05833Q27.628138 177.54271 26.409388 177.54271Q25.253138 177.54271 24.659388 178.07396Q24.065638 178.58958 24.065638 179.37083Q24.065638 180.15208 24.659388 180.68333Q25.237513 181.19896 26.440638 181.19896ZM29.550013 174.88646L23.331263 174.88646L23.331263 173.94896L24.206263 173.94896Q23.190638 173.26146 23.190638 171.96458Q23.190638 171.40208 23.393763 170.93333Q23.596888 170.44896 23.925013 170.21458Q24.253138 169.98021 24.690638 169.88646Q24.987513 169.83958 25.721888 169.83958L29.550013 169.83958L29.550013 170.88646L25.768763 170.88646Q25.112513 170.88646 24.800013 171.01146Q24.487513 171.13646 24.300013 171.44896Q24.096888 171.76146 24.096888 172.18333Q24.096888 172.85521 24.534388 173.35521Q24.956263 173.83958 26.143763 173.83958L29.550013 173.83958L29.550013 174.88646ZM29.550013 163.85521L28.768763 163.85521Q29.690638 164.44896 29.690638 165.58958Q29.690638 166.33958 29.284388 166.96458Q28.862513 167.58958 28.128138 167.93333Q27.393763 168.27708 26.440638 168.27708Q25.518763 168.27708 24.753138 167.96458Q23.987513 167.65208 23.596888 167.02708Q23.190638 166.40208 23.190638 165.63646Q23.190638 165.07396 23.425013 164.63646Q23.659388 164.19896 24.034388 163.91771L20.956263 163.91771L20.956263 162.87083L29.550013 162.87083L29.550013 163.85521ZM26.440638 167.18333Q27.643763 167.18333 28.237513 166.68333Q28.815638 166.18333 28.815638 165.49583Q28.815638 164.80833 28.253138 164.32396Q27.690638 163.83958 26.534388 163.83958Q25.253138 163.83958 24.659388 164.33958Q24.065638 164.82396 24.065638 165.54271Q24.065638 166.24583 24.643763 166.71458Q25.206263 167.18333 26.440638 167.18333ZM27.690638 161.30833L27.534388 160.27708Q28.159388 160.18333 28.487513 159.79271Q28.815638 159.38646 28.815638 158.65208Q28.815638 157.93333 28.534388 157.58958Q28.237513 157.23021 27.831263 157.23021Q27.471888 157.23021 27.268763 157.54271Q27.128138 157.76146 26.909388 158.62083Q26.612513 159.77708 26.409388 160.23021Q26.190638 160.66771 25.815638 160.90208Q25.440638 161.13646 24.971888 161.13646Q24.565638 161.13646 24.206263 160.94896Q23.846888 160.76146 23.612513 160.43333Q23.440638 160.18333 23.315638 159.76146Q23.190638 159.33958 23.190638 158.83958Q23.190638 158.12083 23.409388 157.57396Q23.612513 157.01146 23.971888 156.74583Q24.331263 156.48021 24.925013 156.38646L25.065638 157.41771Q24.596888 157.48021 24.331263 157.82396Q24.050013 158.15208 24.050013 158.77708Q24.050013 159.49583 24.300013 159.80833Q24.534388 160.12083 24.862513 160.12083Q25.065638 160.12083 25.221888 159.99583Q25.393763 159.85521 25.503138 159.58958Q25.565638 159.43333 25.768763 158.65208Q26.081263 157.52708 26.268763 157.08958Q26.456263 156.65208 26.815638 156.40208Q27.175013 156.15208 27.721888 156.15208Q28.253138 156.15208 28.721888 156.46458Q29.175013 156.76146 29.440638 157.33958Q29.690638 157.91771 29.690638 158.65208Q29.690638 159.87083 29.190638 160.51146Q28.675013 161.13646 27.690638 161.30833Z" fill-rule="nonzero"/><path fill="#000000" d="M55.05 300.21564Q55.05 298.6844 55.3625 297.7625Q55.675 296.825 56.284374 296.325Q56.909374 295.825 57.846874 295.825Q58.534374 295.825 59.05 296.10626Q59.58125 296.3875 59.925 296.91876Q60.26875 297.4344 60.45625 298.1844Q60.64375 298.9344 60.64375 300.21564Q60.64375 301.73126 60.33125 302.65314Q60.034374 303.575 59.409374 304.09064Q58.8 304.59064 57.846874 304.59064Q56.6125 304.59064 55.89375 303.7Q55.05 302.6375 55.05 300.21564ZM56.128124 300.21564Q56.128124 302.325 56.628124 303.02814Q57.128124 303.73126 57.846874 303.73126Q58.58125 303.73126 59.065624 303.02814Q59.565624 302.325 59.565624 300.21564Q59.565624 298.09064 59.065624 297.40314Q58.58125 296.7 57.83125 296.7Q57.1125 296.7 56.675 297.3094Q56.128124 298.09064 56.128124 300.21564ZM62.64375 304.45L62.64375 303.2469L63.846874 303.2469L63.846874 304.45L62.64375 304.45ZM65.05 300.21564Q65.05 298.6844 65.3625 297.7625Q65.675 296.825 66.28438 296.325Q66.90938 295.825 67.84688 295.825Q68.53438 295.825 69.05 296.10626Q69.58125 296.3875 69.925 296.91876Q70.26875 297.4344 70.45625 298.1844Q70.64375 298.9344 70.64375 300.21564Q70.64375 301.73126 70.33125 302.65314Q70.03438 303.575 69.40938 304.09064Q68.8 304.59064 67.84688 304.59064Q66.6125 304.59064 65.89375 303.7Q65.05 302.6375 65.05 300.21564ZM66.12813 300.21564Q66.12813 302.325 66.62813 303.02814Q67.12813 303.73126 67.84688 303.73126Q68.58125 303.73126 69.06563 303.02814Q69.56563 302.325 69.56563 300.21564Q69.56563 298.09064 69.06563 297.40314Q68.58125 296.7 67.83125 296.7Q67.1125 296.7 66.675 297.3094Q66.12813 298.09064 66.12813 300.21564Z" fill-rule="nonzero"/><path fill="#000000" d="M55.05 252.50897Q55.05 250.97772 55.3625 250.05585Q55.675 249.11835 56.284374 248.61835Q56.909374 248.11835 57.846874 248.11835Q58.534374 248.11835 59.05 248.3996Q59.58125 248.68085 59.925 249.2121Q60.26875 249.72772 60.45625 250.47772Q60.64375 251.22772 60.64375 252.50897Q60.64375 254.0246 60.33125 254.94647Q60.034374 255.86835 59.409374 256.38397Q58.8 256.88397 57.846874 256.88397Q56.6125 256.88397 55.89375 255.99335Q55.05 254.93085 55.05 252.50897ZM56.128124 252.50897Q56.128124 254.61835 56.628124 255.32147Q57.128124 256.0246 57.846874 256.0246Q58.58125 256.0246 59.065624 255.32147Q59.565624 254.61835 59.565624 252.50897Q59.565624 250.38397 59.065624 249.69647Q58.58125 248.99335 57.83125 248.99335Q57.1125 248.99335 56.675 249.60272Q56.128124 250.38397 56.128124 252.50897ZM62.64375 256.74335L62.64375 255.54022L63.846874 255.54022L63.846874 256.74335L62.64375 256.74335ZM69.01875 256.74335L67.97188 256.74335L67.97188 250.0246Q67.58125 250.38397 66.95625 250.75897Q66.34688 251.11835 65.8625 251.29022L65.8625 250.2746Q66.7375 249.85272 67.39375 249.2746Q68.06563 248.68085 68.34688 248.11835L69.01875 248.11835L69.01875 256.74335Z" fill-rule="nonzero"/><path fill="#000000" d="M55.05 204.80229Q55.05 203.27104 55.3625 202.34917Q55.675 201.41167 56.284374 200.91167Q56.909374 200.41167 57.846874 200.41167Q58.534374 200.41167 59.05 200.69292Q59.58125 200.97417 59.925 201.50542Q60.26875 202.02104 60.45625 202.77104Q60.64375 203.52104 60.64375 204.80229Q60.64375 206.31792 60.33125 207.23979Q60.034374 208.16167 59.409374 208.67729Q58.8 209.17729 57.846874 209.17729Q56.6125 209.17729 55.89375 208.28667Q55.05 207.22417 55.05 204.80229ZM56.128124 204.80229Q56.128124 206.91167 56.628124 207.61479Q57.128124 208.31792 57.846874 208.31792Q58.58125 208.31792 59.065624 207.61479Q59.565624 206.91167 59.565624 204.80229Q59.565624 202.67729 59.065624 201.98979Q58.58125 201.28667 57.83125 201.28667Q57.1125 201.28667 56.675 201.89604Q56.128124 202.67729 56.128124 204.80229ZM62.64375 209.03667L62.64375 207.83354L63.846874 207.83354L63.846874 209.03667L62.64375 209.03667ZM70.59688 208.02104L70.59688 209.03667L64.90938 209.03667Q64.90938 208.66167 65.03438 208.30229Q65.25313 207.72417 65.72188 207.16167Q66.20625 206.59917 67.1125 205.86479Q68.51875 204.70854 69.00313 204.03667Q69.50313 203.36479 69.50313 202.77104Q69.50313 202.14604 69.05 201.72417Q68.59688 201.28667 67.87813 201.28667Q67.1125 201.28667 66.65938 201.73979Q66.20625 202.19292 66.19063 203.00542L65.1125 202.89604Q65.22188 201.67729 65.94063 201.05229Q66.675 200.41167 67.90938 200.41167Q69.14375 200.41167 69.8625 201.09917Q70.58125 201.78667 70.58125 202.80229Q70.58125 203.31792 70.3625 203.81792Q70.15938 204.30229 69.65938 204.86479Q69.175 205.41167 68.05 206.36479Q67.09688 207.16167 66.81563 207.45854Q66.55 207.73979 66.37813 208.02104L70.59688 208.02104Z" fill-rule="nonzero"/><path fill="#000000" d="M55.05 157.09563Q55.05 155.56438 55.3625 154.6425Q55.675 153.705 56.284374 153.205Q56.909374 152.705 57.846874 152.705Q58.534374 152.705 59.05 152.98625Q59.58125 153.2675 59.925 153.79875Q60.26875 154.31438 60.45625 155.06438Q60.64375 155.81438 60.64375 157.09563Q60.64375 158.61125 60.33125 159.53313Q60.034374 160.455 59.409374 160.97063Q58.8 161.47063 57.846874 161.47063Q56.6125 161.47063 55.89375 160.58Q55.05 159.5175 55.05 157.09563ZM56.128124 157.09563Q56.128124 159.205 56.628124 159.90813Q57.128124 160.61125 57.846874 160.61125Q58.58125 160.61125 59.065624 159.90813Q59.565624 159.205 59.565624 157.09563Q59.565624 154.97063 59.065624 154.28313Q58.58125 153.58 57.83125 153.58Q57.1125 153.58 56.675 154.18938Q56.128124 154.97063 56.128124 157.09563ZM62.64375 161.33L62.64375 160.12688L63.846874 160.12688L63.846874 161.33L62.64375 161.33ZM65.05 159.06438L66.1125 158.92375Q66.28438 159.81438 66.72188 160.22063Q67.15938 160.61125 67.78438 160.61125Q68.53438 160.61125 69.05 160.09563Q69.56563 159.58 69.56563 158.81438Q69.56563 158.09563 69.08125 157.62688Q68.6125 157.1425 67.87813 157.1425Q67.58125 157.1425 67.12813 157.2675L67.25313 156.33Q67.3625 156.34563 67.425 156.34563Q68.09688 156.34563 68.62813 156.00188Q69.175 155.6425 69.175 154.90813Q69.175 154.33 68.78438 153.955Q68.39375 153.56438 67.76875 153.56438Q67.15938 153.56438 66.7375 153.955Q66.33125 154.34563 66.22188 155.11125L65.15938 154.92375Q65.34688 153.87688 66.03438 153.29875Q66.72188 152.705 67.7375 152.705Q68.44063 152.705 69.03438 153.0175Q69.62813 153.31438 69.94063 153.83Q70.25313 154.34563 70.25313 154.93938Q70.25313 155.48625 69.95625 155.955Q69.65938 156.40813 69.08125 156.67375Q69.83125 156.84563 70.25313 157.40813Q70.675 157.955 70.675 158.79875Q70.675 159.92375 69.84688 160.705Q69.03438 161.48625 67.78438 161.48625Q66.65938 161.48625 65.90938 160.81438Q65.15938 160.12688 65.05 159.06438Z" fill-rule="nonzero"/><path fill="#000000" d="M55.05 109.38896Q55.05 107.85771 55.3625 106.93584Q55.675 105.99834 56.284374 105.49834Q56.909374 104.99834 57.846874 104.99834Q58.534374 104.99834 59.05 105.27959Q59.58125 105.56084 59.925 106.09209Q60.26875 106.60771 60.45625 107.35771Q60.64375 108.10771 60.64375 109.38896Q60.64375 110.90459 60.33125 111.82646Q60.034374 112.74834 59.409374 113.26396Q58.8 113.76396 57.846874 113.76396Q56.6125 113.76396 55.89375 112.87334Q55.05 111.81084 55.05 109.38896ZM56.128124 109.38896Q56.128124 111.49834 56.628124 112.20146Q57.128124 112.90459 57.846874 112.90459Q58.58125 112.90459 59.065624 112.20146Q59.565624 111.49834 59.565624 109.38896Q59.565624 107.26396 59.065624 106.57646Q58.58125 105.87334 57.83125 105.87334Q57.1125 105.87334 56.675 106.48271Q56.128124 107.26396 56.128124 109.38896ZM62.64375 113.62334L62.64375 112.42021L63.846874 112.42021L63.846874 113.62334L62.64375 113.62334ZM68.425 113.62334L68.425 111.56084L64.70625 111.56084L64.70625 110.59209L68.62813 105.02959L69.4875 105.02959L69.4875 110.59209L70.64375 110.59209L70.64375 111.56084L69.4875 111.56084L69.4875 113.62334L68.425 113.62334ZM68.425 110.59209L68.425 106.73271L65.7375 110.59209L68.425 110.59209Z" fill-rule="nonzero"/><path fill="#000000" d="M55.05 61.68229Q55.05 60.15104 55.3625 59.229164Q55.675 58.291664 56.284374 57.791664Q56.909374 57.291664 57.846874 57.291664Q58.534374 57.291664 59.05 57.572914Q59.58125 57.854164 59.925 58.385414Q60.26875 58.90104 60.45625 59.65104Q60.64375 60.40104 60.64375 61.68229Q60.64375 63.197914 60.33125 64.11979Q60.034374 65.041664 59.409374 65.55729Q58.8 66.05729 57.846874 66.05729Q56.6125 66.05729 55.89375 65.166664Q55.05 64.104164 55.05 61.68229ZM56.128124 61.68229Q56.128124 63.791664 56.628124 64.49479Q57.128124 65.197914 57.846874 65.197914Q58.58125 65.197914 59.065624 64.49479Q59.565624 63.791664 59.565624 61.68229Q59.565624 59.55729 59.065624 58.86979Q58.58125 58.166664 57.83125 58.166664Q57.1125 58.166664 56.675 58.77604Q56.128124 59.55729 56.128124 61.68229ZM62.64375 65.916664L62.64375 64.71354L63.846874 64.71354L63.846874 65.916664L62.64375 65.916664ZM65.05 63.666664L66.15938 63.572914Q66.28438 64.385414 66.72188 64.791664Q67.175 65.197914 67.81563 65.197914Q68.56563 65.197914 69.09688 64.61979Q69.62813 64.041664 69.62813 63.104164Q69.62813 62.197914 69.1125 61.68229Q68.6125 61.15104 67.78438 61.15104Q67.28438 61.15104 66.8625 61.385414Q66.45625 61.61979 66.22188 61.979164L65.2375 61.854164L66.06563 57.447914L70.34688 57.447914L70.34688 58.447914L66.90938 58.447914L66.45625 60.760414Q67.22188 60.21354 68.06563 60.21354Q69.19063 60.21354 69.95625 60.99479Q70.7375 61.77604 70.7375 63.010414Q70.7375 64.166664 70.06563 65.02604Q69.2375 66.05729 67.81563 66.05729Q66.64375 66.05729 65.89375 65.40104Q65.15938 64.74479 65.05 63.666664Z" fill-rule="nonzero"/><path fill="#000000" d="M142.09492 317.45L141.04805 317.45L141.04805 310.73126Q140.65742 311.09064 140.03242 311.46564Q139.42305 311.825 138.93867 311.9969L138.93867 310.98126Q139.81367 310.5594 140.46992 309.98126Q141.1418 309.3875 141.42305 308.825L142.09492 308.825L142.09492 317.45Z" fill-rule="nonzero"/><path fill="#000000" d="M237.85995 316.4344L237.85995 317.45L232.17245 317.45Q232.17245 317.075 232.29745 316.71564Q232.5162 316.1375 232.98495 315.575Q233.46933 315.0125 234.37558 314.27814Q235.78183 313.1219 236.2662 312.45Q236.7662 311.77814 236.7662 311.1844Q236.7662 310.5594 236.31308 310.1375Q235.85995 309.7 235.1412 309.7Q234.37558 309.7 233.92245 310.15314Q233.46933 310.60626 233.4537 311.41876L232.37558 311.3094Q232.48495 310.09064 233.2037 309.46564Q233.93808 308.825 235.17245 308.825Q236.40683 308.825 237.12558 309.5125Q237.84433 310.2 237.84433 311.21564Q237.84433 311.73126 237.62558 312.23126Q237.42245 312.71564 236.92245 313.27814Q236.43808 313.825 235.31308 314.77814Q234.35995 315.575 234.0787 315.8719Q233.81308 316.15314 233.6412 316.4344L237.85995 316.4344Z" fill-rule="nonzero"/><path fill="#000000" d="M329.875 317.45L329.875 315.3875L326.15625 315.3875L326.15625 314.41876L330.07812 308.85626L330.9375 308.85626L330.9375 314.41876L332.09375 314.41876L332.09375 315.3875L330.9375 315.3875L330.9375 317.45L329.875 317.45ZM329.875 314.41876L329.875 310.5594L327.1875 314.41876L329.875 314.41876Z" fill-rule="nonzero"/><path fill="#000000" d="M422.31192 312.79376Q421.65567 312.54376 421.32755 312.10626Q421.01505 311.65314 421.01505 311.04376Q421.01505 310.10626 421.68692 309.46564Q422.37442 308.825 423.4838 308.825Q424.6088 308.825 425.2963 309.48126Q425.9838 310.1375 425.9838 311.075Q425.9838 311.66876 425.6713 312.10626Q425.3588 312.54376 424.71817 312.79376Q425.51505 313.04376 425.9213 313.6219Q426.32755 314.2 426.32755 314.9969Q426.32755 316.09064 425.5463 316.84064Q424.78067 317.59064 423.49942 317.59064Q422.2338 317.59064 421.45255 316.84064Q420.6713 316.09064 420.6713 314.96564Q420.6713 314.1219 421.09317 313.5594Q421.53067 312.9969 422.31192 312.79376ZM422.09317 310.9969Q422.09317 311.60626 422.4838 311.9969Q422.89005 312.3875 423.51505 312.3875Q424.12442 312.3875 424.51505 312.0125Q424.90567 311.6219 424.90567 311.0594Q424.90567 310.48126 424.49942 310.09064Q424.09317 309.6844 423.49942 309.6844Q422.89005 309.6844 422.4838 310.075Q422.09317 310.46564 422.09317 310.9969ZM421.76505 314.96564Q421.76505 315.41876 421.96817 315.84064Q422.18692 316.2625 422.6088 316.4969Q423.03067 316.73126 423.51505 316.73126Q424.26505 316.73126 424.74942 316.2469Q425.24942 315.7625 425.24942 315.0125Q425.24942 314.2469 424.74942 313.7469Q424.24942 313.2469 423.4838 313.2469Q422.7338 313.2469 422.24942 313.7469Q421.76505 314.23126 421.76505 314.96564Z" fill-rule="nonzero"/><path fill="#000000" d="M515.3426 317.45L514.2957 317.45L514.2957 310.73126Q513.9051 311.09064 513.2801 311.46564Q512.6707 311.825 512.18634 311.9969L512.18634 310.98126Q513.06134 310.5594 513.7176 309.98126Q514.38947 309.3875 514.6707 308.825L515.3426 308.825L515.3426 317.45ZM523.8426 310.96564L522.7957 311.04376Q522.6551 310.41876 522.4051 310.1375Q521.9676 309.6844 521.3426 309.6844Q520.8426 309.6844 520.45197 309.96564Q519.9676 310.34064 519.6707 311.04376Q519.38947 311.73126 519.37384 313.0125Q519.74884 312.4344 520.2957 312.15314Q520.8582 311.8719 521.4676 311.8719Q522.51447 311.8719 523.24884 312.65314Q523.99884 313.4344 523.99884 314.65314Q523.99884 315.46564 523.63947 316.16876Q523.2957 316.85626 522.68634 317.23126Q522.07697 317.59064 521.31134 317.59064Q519.9832 317.59064 519.1551 316.6219Q518.32697 315.65314 518.32697 313.4344Q518.32697 310.9344 519.24884 309.8094Q520.0457 308.825 521.4051 308.825Q522.4207 308.825 523.06134 309.40314Q523.7176 309.96564 523.8426 310.96564ZM519.5457 314.66876Q519.5457 315.21564 519.76447 315.71564Q519.99884 316.2 520.4051 316.46564Q520.82697 316.73126 521.2957 316.73126Q521.95197 316.73126 522.43634 316.2Q522.9207 315.65314 522.9207 314.73126Q522.9207 313.84064 522.43634 313.325Q521.9676 312.8094 521.24884 312.8094Q520.5301 312.8094 520.0301 313.325Q519.5457 313.84064 519.5457 314.66876Z" fill-rule="nonzero"/><path fill="#757575" d="M226.96875 37.55L226.96875 23.2375L232.34375 23.2375Q233.98438 23.2375 234.96875 23.675Q235.95312 24.096874 236.51562 25.003124Q237.07812 25.909374 237.07812 26.89375Q237.07812 27.815624 236.57812 28.628124Q236.09375 29.440624 235.07812 29.925Q236.375 30.315624 237.07812 31.2375Q237.78125 32.14375 237.78125 33.39375Q237.78125 34.409374 237.34375 35.26875Q236.92188 36.128124 236.29688 36.596874Q235.67188 37.065624 234.73438 37.315624Q233.79688 37.55 232.42188 37.55L226.96875 37.55ZM228.85938 29.253124L231.95312 29.253124Q233.21875 29.253124 233.76562 29.08125Q234.48438 28.8625 234.84375 28.378124Q235.21875 27.878124 235.21875 27.1125Q235.21875 26.409374 234.875 25.8625Q234.53125 25.315624 233.89062 25.128124Q233.26562 24.925 231.71875 24.925L228.85938 24.925L228.85938 29.253124ZM228.85938 35.8625L232.42188 35.8625Q233.34375 35.8625 233.71875 35.784374Q234.375 35.675 234.8125 35.409374Q235.25 35.128124 235.53125 34.6125Q235.8125 34.08125 235.8125 33.39375Q235.8125 32.596874 235.40625 32.003124Q235.0 31.409374 234.26562 31.175Q233.53125 30.940624 232.17188 30.940624L228.85938 30.940624L228.85938 35.8625ZM239.79688 37.55L239.79688 27.175L241.375 27.175L241.375 28.753124Q241.98438 27.64375 242.5 27.3Q243.01562 26.940624 243.625 26.940624Q244.51562 26.940624 245.4375 27.503124L244.82812 29.14375Q244.1875 28.753124 243.54688 28.753124Q242.96875 28.753124 242.5 29.1125Q242.04688 29.45625 241.84375 30.065624Q241.5625 31.003124 241.5625 32.1125L241.5625 37.55L239.79688 37.55ZM246.17188 32.3625Q246.17188 29.4875 247.76562 28.096874Q249.10938 26.940624 251.03125 26.940624Q253.17188 26.940624 254.51562 28.346874Q255.875 29.753124 255.875 32.221874Q255.875 34.221874 255.28125 35.378124Q254.6875 36.51875 253.53125 37.159374Q252.39062 37.784374 251.03125 37.784374Q248.84375 37.784374 247.5 36.39375Q246.17188 34.9875 246.17188 32.3625ZM247.96875 32.3625Q247.96875 34.3625 248.82812 35.346874Q249.70312 36.33125 251.03125 36.33125Q252.34375 36.33125 253.20312 35.346874Q254.07812 34.346874 254.07812 32.3Q254.07812 30.378124 253.20312 29.39375Q252.32812 28.39375 251.03125 28.39375Q249.70312 28.39375 248.82812 29.39375Q247.96875 30.378124 247.96875 32.3625ZM264.59375 36.26875Q263.60938 37.096874 262.70312 37.440624Q261.79688 37.784374 260.76562 37.784374Q259.0625 37.784374 258.14062 36.95625Q257.21875 36.1125 257.21875 34.815624Q257.21875 34.05 257.5625 33.425Q257.92188 32.8 258.48438 32.425Q259.04688 32.034374 259.75 31.83125Q260.26562 31.70625 261.3125 31.565624Q263.4375 31.315624 264.4375 30.971874Q264.45312 30.6125 264.45312 30.503124Q264.45312 29.440624 263.95312 28.9875Q263.28125 28.39375 261.95312 28.39375Q260.70312 28.39375 260.10938 28.83125Q259.53125 29.26875 259.25 30.378124L257.53125 30.14375Q257.76562 29.034374 258.29688 28.3625Q258.82812 27.675 259.84375 27.315624Q260.85938 26.940624 262.20312 26.940624Q263.53125 26.940624 264.35938 27.253124Q265.1875 27.565624 265.57812 28.05Q265.96875 28.51875 266.125 29.2375Q266.21875 29.690624 266.21875 30.8625L266.21875 33.20625Q266.21875 35.659374 266.32812 36.315624Q266.4375 36.95625 266.78125 37.55L264.9375 37.55Q264.67188 37.003124 264.59375 36.26875ZM264.4375 32.346874Q263.48438 32.7375 261.5625 33.003124Q260.48438 33.159374 260.03125 33.3625Q259.59375 33.55 259.34375 33.925Q259.09375 34.3 259.09375 34.76875Q259.09375 35.471874 259.625 35.940624Q260.15625 36.409374 261.1875 36.409374Q262.20312 36.409374 262.98438 35.971874Q263.78125 35.51875 264.15625 34.753124Q264.4375 34.14375 264.4375 32.9875L264.4375 32.346874ZM275.54688 37.55L275.54688 36.2375Q274.5625 37.784374 272.64062 37.784374Q271.40625 37.784374 270.35938 37.096874Q269.32812 36.409374 268.75 35.190624Q268.1875 33.971874 268.1875 32.378124Q268.1875 30.815624 268.70312 29.55Q269.21875 28.284374 270.25 27.6125Q271.29688 26.940624 272.5625 26.940624Q273.5 26.940624 274.23438 27.346874Q274.96875 27.7375 275.4375 28.3625L275.4375 23.2375L277.17188 23.2375L277.17188 37.55L275.54688 37.55ZM269.98438 32.378124Q269.98438 34.3625 270.82812 35.346874Q271.67188 36.33125 272.8125 36.33125Q273.96875 36.33125 274.76562 35.39375Q275.57812 34.45625 275.57812 32.51875Q275.57812 30.39375 274.75 29.39375Q273.9375 28.39375 272.73438 28.39375Q271.5625 28.39375 270.76562 29.3625Q269.98438 30.315624 269.98438 32.378124ZM286.59375 33.753124L288.3125 33.971874Q288.03125 35.76875 286.85938 36.784374Q285.70312 37.784374 284.0 37.784374Q281.875 37.784374 280.57812 36.39375Q279.28125 35.003124 279.28125 32.409374Q279.28125 30.721874 279.82812 29.471874Q280.39062 28.20625 281.53125 27.58125Q282.67188 26.940624 284.01562 26.940624Q285.70312 26.940624 286.76562 27.8Q287.84375 28.659374 288.15625 30.221874L286.4375 30.4875Q286.20312 29.440624 285.57812 28.925Q284.95312 28.39375 284.07812 28.39375Q282.75 28.39375 281.92188 29.346874Q281.09375 30.3 281.09375 32.346874Q281.09375 34.440624 281.89062 35.39375Q282.6875 36.33125 283.98438 36.33125Q285.01562 36.33125 285.70312 35.70625Q286.40625 35.065624 286.59375 33.753124ZM296.59375 36.26875Q295.60938 37.096874 294.70312 37.440624Q293.79688 37.784374 292.76562 37.784374Q291.0625 37.784374 290.14062 36.95625Q289.21875 36.1125 289.21875 34.815624Q289.21875 34.05 289.5625 33.425Q289.92188 32.8 290.48438 32.425Q291.04688 32.034374 291.75 31.83125Q292.26562 31.70625 293.3125 31.565624Q295.4375 31.315624 296.4375 30.971874Q296.45312 30.6125 296.45312 30.503124Q296.45312 29.440624 295.95312 28.9875Q295.28125 28.39375 293.95312 28.39375Q292.70312 28.39375 292.10938 28.83125Q291.53125 29.26875 291.25 30.378124L289.53125 30.14375Q289.76562 29.034374 290.29688 28.3625Q290.82812 27.675 291.84375 27.315624Q292.85938 26.940624 294.20312 26.940624Q295.53125 26.940624 296.35938 27.253124Q297.1875 27.565624 297.57812 28.05Q297.96875 28.51875 298.125 29.2375Q298.21875 29.690624 298.21875 30.8625L298.21875 33.20625Q298.21875 35.659374 298.32812 36.315624Q298.4375 36.95625 298.78125 37.55L296.9375 37.55Q296.67188 37.003124 296.59375 36.26875ZM296.4375 32.346874Q295.48438 32.7375 293.5625 33.003124Q292.48438 33.159374 292.03125 33.3625Q291.59375 33.55 291.34375 33.925Q291.09375 34.3 291.09375 34.76875Q291.09375 35.471874 291.625 35.940624Q292.15625 36.409374 293.1875 36.409374Q294.20312 36.409374 294.98438 35.971874Q295.78125 35.51875 296.15625 34.753124Q296.4375 34.14375 296.4375 32.9875L296.4375 32.346874ZM300.10938 34.45625L301.85938 34.175Q302.0 35.221874 302.67188 35.784374Q303.34375 36.33125 304.54688 36.33125Q305.75 36.33125 306.32812 35.846874Q306.92188 35.346874 306.92188 34.690624Q306.92188 34.096874 306.40625 33.753124Q306.04688 33.51875 304.60938 33.159374Q302.67188 32.659374 301.92188 32.315624Q301.1875 31.95625 300.79688 31.33125Q300.40625 30.690624 300.40625 29.925Q300.40625 29.2375 300.71875 28.64375Q301.04688 28.05 301.59375 27.659374Q302.0 27.3625 302.70312 27.159374Q303.42188 26.940624 304.23438 26.940624Q305.45312 26.940624 306.375 27.3Q307.29688 27.64375 307.73438 28.253124Q308.17188 28.846874 308.34375 29.846874L306.625 30.08125Q306.5 29.284374 305.9375 28.846874Q305.375 28.39375 304.35938 28.39375Q303.14062 28.39375 302.625 28.8Q302.10938 29.190624 302.10938 29.721874Q302.10938 30.065624 302.32812 30.346874Q302.53125 30.628124 303.0 30.815624Q303.26562 30.909374 304.54688 31.253124Q306.42188 31.753124 307.15625 32.08125Q307.89062 32.39375 308.3125 33.003124Q308.73438 33.596874 308.73438 34.503124Q308.73438 35.378124 308.21875 36.159374Q307.70312 36.940624 306.73438 37.3625Q305.76562 37.784374 304.54688 37.784374Q302.53125 37.784374 301.46875 36.940624Q300.40625 36.096874 300.10938 34.45625ZM314.65625 35.971874L314.90625 37.534374Q314.17188 37.690624 313.57812 37.690624Q312.625 37.690624 312.09375 37.39375Q311.57812 37.08125 311.35938 36.596874Q311.14062 36.096874 311.14062 34.51875L311.14062 28.55L309.85938 28.55L309.85938 27.175L311.14062 27.175L311.14062 24.6125L312.89062 23.55L312.89062 27.175L314.65625 27.175L314.65625 28.55L312.89062 28.55L312.89062 34.6125Q312.89062 35.3625 312.98438 35.58125Q313.07812 35.784374 313.28125 35.925Q313.5 36.05 313.89062 36.05Q314.17188 36.05 314.65625 35.971874ZM326.6875 37.55L326.6875 24.925L321.96875 24.925L321.96875 23.2375L333.3125 23.2375L333.3125 24.925L328.57812 24.925L328.57812 37.55L326.6875 37.55ZM334.82812 25.253124L334.82812 23.2375L336.59375 23.2375L336.59375 25.253124L334.82812 25.253124ZM334.82812 37.55L334.82812 27.175L336.59375 27.175L336.59375 37.55L334.82812 37.55ZM338.8125 37.55L338.8125 27.175L340.39062 27.175L340.39062 28.628124Q340.875 27.878124 341.6875 27.409374Q342.5 26.940624 343.53125 26.940624Q344.6875 26.940624 345.42188 27.425Q346.15625 27.89375 346.46875 28.753124Q347.70312 26.940624 349.67188 26.940624Q351.21875 26.940624 352.04688 27.8Q352.875 28.659374 352.875 30.425L352.875 37.55L351.125 37.55L351.125 31.01875Q351.125 29.95625 350.95312 29.503124Q350.78125 29.034374 350.32812 28.753124Q349.89062 28.471874 349.28125 28.471874Q348.1875 28.471874 347.45312 29.20625Q346.73438 29.925 346.73438 31.51875L346.73438 37.55L344.98438 37.55L344.98438 30.815624Q344.98438 29.64375 344.54688 29.065624Q344.125 28.471874 343.14062 28.471874Q342.40625 28.471874 341.76562 28.8625Q341.14062 29.253124 340.85938 30.003124Q340.57812 30.753124 340.57812 32.175L340.57812 37.55L338.8125 37.55ZM361.92188 34.20625L363.73438 34.440624Q363.3125 36.01875 362.14062 36.909374Q360.98438 37.784374 359.17188 37.784374Q356.90625 37.784374 355.5625 36.39375Q354.23438 34.9875 354.23438 32.45625Q354.23438 29.83125 355.57812 28.39375Q356.92188 26.940624 359.07812 26.940624Q361.15625 26.940624 362.46875 28.3625Q363.79688 29.76875 363.79688 32.346874Q363.79688 32.503124 363.78125 32.815624L356.04688 32.815624Q356.14062 34.51875 357.01562 35.425Q357.89062 36.33125 359.1875 36.33125Q360.15625 36.33125 360.82812 35.83125Q361.51562 35.315624 361.92188 34.20625ZM356.14062 31.3625L361.9375 31.3625Q361.82812 30.065624 361.28125 29.409374Q360.4375 28.39375 359.09375 28.39375Q357.89062 28.39375 357.0625 29.20625Q356.23438 30.003124 356.14062 31.3625ZM365.10938 34.45625L366.85938 34.175Q367.0 35.221874 367.67188 35.784374Q368.34375 36.33125 369.54688 36.33125Q370.75 36.33125 371.32812 35.846874Q371.92188 35.346874 371.92188 34.690624Q371.92188 34.096874 371.40625 33.753124Q371.04688 33.51875 369.60938 33.159374Q367.67188 32.659374 366.92188 32.315624Q366.1875 31.95625 365.79688 31.33125Q365.40625 30.690624 365.40625 29.925Q365.40625 29.2375 365.71875 28.64375Q366.04688 28.05 366.59375 27.659374Q367.0 27.3625 367.70312 27.159374Q368.42188 26.940624 369.23438 26.940624Q370.45312 26.940624 371.375 27.3Q372.29688 27.64375 372.73438 28.253124Q373.17188 28.846874 373.34375 29.846874L371.625 30.08125Q371.5 29.284374 370.9375 28.846874Q370.375 28.39375 369.35938 28.39375Q368.14062 28.39375 367.625 28.8Q367.10938 29.190624 367.10938 29.721874Q367.10938 30.065624 367.32812 30.346874Q367.53125 30.628124 368.0 30.815624Q368.26562 30.909374 369.54688 31.253124Q371.42188 31.753124 372.15625 32.08125Q372.89062 32.39375 373.3125 33.003124Q373.73438 33.596874 373.73438 34.503124Q373.73438 35.378124 373.21875 36.159374Q372.70312 36.940624 371.73438 37.3625Q370.76562 37.784374 369.54688 37.784374Q367.53125 37.784374 366.46875 36.940624Q365.40625 36.096874 365.10938 34.45625Z" fill-rule="nonzero"/></svg>