<svg version="1.1" viewBox="0.0 0.0 600.0 371.0" fill="none" stroke="none" stroke-linecap="square" stroke-miterlimit="10" width="600" height="371" xmlns:xlink="http://www.w3.org/1999/xlink" xmlns="http://www.w3.org/2000/svg"><path fill="#ffffff" d="M0 0L600.0 0L600.0 371.0L0 371.0L0 0Z" fill-rule="nonzero"/><path stroke="#333333" stroke-width="1.0" stroke-linecap="butt" d="M77.5 300.5L581.5 300.5" fill-rule="nonzero"/><path stroke="#cccccc" stroke-width="1.0" stroke-linecap="butt" d="M77.5 240.5L581.5 240.5" fill-rule="nonzero"/><path stroke="#cccccc" stroke-width="1.0" stroke-linecap="butt" d="M77.5 181.5L581.5 181.5" fill-rule="nonzero"/><path stroke="#cccccc" stroke-width="1.0" stroke-linecap="butt" d="M77.5 121.5L581.5 121.5" fill-rule="nonzero"/><path stroke="#cccccc" stroke-width="1.0" stroke-linecap="butt" d="M77.5 61.5L581.5 61.5" fill-rule="nonzero"/><clipPath id="id_0"><path d="M77.55 61.916668L581.45 61.916668L581.45 300.45L77.55 300.45L77.55 61.916668Z" clip-rule="nonzero"/></clipPath><path stroke="#000000" stroke-width="2.0" stroke-linecap="butt" stroke-opacity="0.0" clip-path="url(#id_0)" d="M122.0 300.0L112.0 300.0L112.0 292.0C112.0 290.89542 112.89543 290.0 114.0 290.0L120.0 290.0C121.10457 290.0 122.0 290.89542 122.0 292.0Z" fill-rule="nonzero"/><path fill="#4285f4" clip-path="url(#id_0)" d="M122.0 300.0L112.0 300.0L112.0 292.0C112.0 290.89542 112.89543 290.0 114.0 290.0L120.0 290.0C121.10457 290.0 122.0 290.89542 122.0 292.0Z" fill-rule="nonzero"/><path stroke="#000000" stroke-width="2.0" stroke-linecap="butt" stroke-opacity="0.0" clip-path="url(#id_0)" d="M216.0 300.0L206.0 300.0L206.0 283.0C206.0 281.89542 206.89543 281.0 208.0 281.0L214.0 281.0C215.10457 281.0 216.0 281.89542 216.0 283.0Z" fill-rule="nonzero"/><path fill="#4285f4" clip-path="url(#id_0)" d="M216.0 300.0L206.0 300.0L206.0 283.0C206.0 281.89542 206.89543 281.0 208.0 281.0L214.0 281.0C215.10457 281.0 216.0 281.89542 216.0 283.0Z" fill-rule="nonzero"/><path stroke="#000000" stroke-width="2.0" stroke-linecap="butt" stroke-opacity="0.0" clip-path="url(#id_0)" d="M311.0 300.0L301.0 300.0L301.0 265.0C301.0 263.89542 301.89542 263.0 303.0 263.0L309.0 263.0C310.10458 263.0 311.0 263.89542 311.0 265.0Z" fill-rule="nonzero"/><path fill="#4285f4" clip-path="url(#id_0)" d="M311.0 300.0L301.0 300.0L301.0 265.0C301.0 263.89542 301.89542 263.0 303.0 263.0L309.0 263.0C310.10458 263.0 311.0 263.89542 311.0 265.0Z" fill-rule="nonzero"/><path stroke="#000000" stroke-width="2.0" stroke-linecap="butt" stroke-opacity="0.0" clip-path="url(#id_0)" d="M405.0 300.0L395.0 300.0L395.0 210.0C395.0 208.89543 395.89542 208.0 397.0 208.0L403.0 208.0C404.10458 208.0 405.0 208.89543 405.0 210.0Z" fill-rule="nonzero"/><path fill="#4285f4" clip-path="url(#id_0)" d="M405.0 300.0L395.0 300.0L395.0 210.0C395.0 208.89543 395.89542 208.0 397.0 208.0L403.0 208.0C404.10458 208.0 405.0 208.89543 405.0 210.0Z" fill-rule="nonzero"/><path stroke="#000000" stroke-width="2.0" stroke-linecap="butt" stroke-opacity="0.0" clip-path="url(#id_0)" d="M499.0 300.0L489.0 300.0L489.0 120.0C489.0 118.89543 489.89542 118.0 491.0 118.0L497.0 118.0C498.10458 118.0 499.0 118.89543 499.0 120.0Z" fill-rule="nonzero"/><path fill="#4285f4" clip-path="url(#id_0)" d="M499.0 300.0L489.0 300.0L489.0 120.0C489.0 118.89543 489.89542 118.0 491.0 118.0L497.0 118.0C498.10458 118.0 499.0 118.89543 499.0 120.0Z" fill-rule="nonzero"/><path stroke="#000000" stroke-width="2.0" stroke-linecap="butt" stroke-opacity="0.0" clip-path="url(#id_0)" d="M134.0 300.0L124.0 300.0L124.0 293.0C124.0 291.89542 124.89543 291.0 126.0 291.0L132.0 291.0C133.10457 291.0 134.0 291.89542 134.0 293.0Z" fill-rule="nonzero"/><path fill="#ea4335" clip-path="url(#id_0)" d="M134.0 300.0L124.0 300.0L124.0 293.0C124.0 291.89542 124.89543 291.0 126.0 291.0L132.0 291.0C133.10457 291.0 134.0 291.89542 134.0 293.0Z" fill-rule="nonzero"/><path stroke="#000000" stroke-width="2.0" stroke-linecap="butt" stroke-opacity="0.0" clip-path="url(#id_0)" d="M228.0 300.0L218.0 300.0L218.0 284.0C218.0 282.89542 218.89543 282.0 220.0 282.0L226.0 282.0C227.10457 282.0 228.0 282.89542 228.0 284.0Z" fill-rule="nonzero"/><path fill="#ea4335" clip-path="url(#id_0)" d="M228.0 300.0L218.0 300.0L218.0 284.0C218.0 282.89542 218.89543 282.0 220.0 282.0L226.0 282.0C227.10457 282.0 228.0 282.89542 228.0 284.0Z" fill-rule="nonzero"/><path stroke="#000000" stroke-width="2.0" stroke-linecap="butt" stroke-opacity="0.0" clip-path="url(#id_0)" d="M323.0 300.0L313.0 300.0L313.0 268.0C313.0 266.89542 313.89542 266.0 315.0 266.0L321.0 266.0C322.10458 266.0 323.0 266.89542 323.0 268.0Z" fill-rule="nonzero"/><path fill="#ea4335" clip-path="url(#id_0)" d="M323.0 300.0L313.0 300.0L313.0 268.0C313.0 266.89542 313.89542 266.0 315.0 266.0L321.0 266.0C322.10458 266.0 323.0 266.89542 323.0 268.0Z" fill-rule="nonzero"/><path stroke="#000000" stroke-width="2.0" stroke-linecap="butt" stroke-opacity="0.0" clip-path="url(#id_0)" d="M417.0 300.0L407.0 300.0L407.0 211.0C407.0 209.89543 407.89542 209.0 409.0 209.0L415.0 209.0C416.10458 209.0 417.0 209.89543 417.0 211.0Z" fill-rule="nonzero"/><path fill="#ea4335" clip-path="url(#id_0)" d="M417.0 300.0L407.0 300.0L407.0 211.0C407.0 209.89543 407.89542 209.0 409.0 209.0L415.0 209.0C416.10458 209.0 417.0 209.89543 417.0 211.0Z" fill-rule="nonzero"/><path stroke="#000000" stroke-width="2.0" stroke-linecap="butt" stroke-opacity="0.0" clip-path="url(#id_0)" d="M511.0 300.0L501.0 300.0L501.0 109.0C501.0 107.89543 501.89542 107.0 503.0 107.0L509.0 107.0C510.10458 107.0 511.0 107.89543 511.0 109.0Z" fill-rule="nonzero"/><path fill="#ea4335" clip-path="url(#id_0)" d="M511.0 300.0L501.0 300.0L501.0 109.0C501.0 107.89543 501.89542 107.0 503.0 107.0L509.0 107.0C510.10458 107.0 511.0 107.89543 511.0 109.0Z" fill-rule="nonzero"/><path stroke="#000000" stroke-width="2.0" stroke-linecap="butt" stroke-opacity="0.0" clip-path="url(#id_0)" d="M146.0 300.0L136.0 300.0L136.0 293.0C136.0 291.89542 136.89543 291.0 138.0 291.0L144.0 291.0C145.10457 291.0 146.0 291.89542 146.0 293.0Z" fill-rule="nonzero"/><path fill="#fbbc04" clip-path="url(#id_0)" d="M146.0 300.0L136.0 300.0L136.0 293.0C136.0 291.89542 136.89543 291.0 138.0 291.0L144.0 291.0C145.10457 291.0 146.0 291.89542 146.0 293.0Z" fill-rule="nonzero"/><path stroke="#000000" stroke-width="2.0" stroke-linecap="butt" stroke-opacity="0.0" clip-path="url(#id_0)" d="M240.0 300.0L230.0 300.0L230.0 285.0C230.0 283.89542 230.89543 283.0 232.0 283.0L238.0 283.0C239.10457 283.0 240.0 283.89542 240.0 285.0Z" fill-rule="nonzero"/><path fill="#fbbc04" clip-path="url(#id_0)" d="M240.0 300.0L230.0 300.0L230.0 285.0C230.0 283.89542 230.89543 283.0 232.0 283.0L238.0 283.0C239.10457 283.0 240.0 283.89542 240.0 285.0Z" fill-rule="nonzero"/><path stroke="#000000" stroke-width="2.0" stroke-linecap="butt" stroke-opacity="0.0" clip-path="url(#id_0)" d="M335.0 300.0L325.0 300.0L325.0 266.0C325.0 264.89542 325.89542 264.0 327.0 264.0L333.0 264.0C334.10458 264.0 335.0 264.89542 335.0 266.0Z" fill-rule="nonzero"/><path fill="#fbbc04" clip-path="url(#id_0)" d="M335.0 300.0L325.0 300.0L325.0 266.0C325.0 264.89542 325.89542 264.0 327.0 264.0L333.0 264.0C334.10458 264.0 335.0 264.89542 335.0 266.0Z" fill-rule="nonzero"/><path stroke="#000000" stroke-width="2.0" stroke-linecap="butt" stroke-opacity="0.0" clip-path="url(#id_0)" d="M429.0 300.0L419.0 300.0L419.0 214.0C419.0 212.89543 419.89542 212.0 421.0 212.0L427.0 212.0C428.10458 212.0 429.0 212.89543 429.0 214.0Z" fill-rule="nonzero"/><path fill="#fbbc04" clip-path="url(#id_0)" d="M429.0 300.0L419.0 300.0L419.0 214.0C419.0 212.89543 419.89542 212.0 421.0 212.0L427.0 212.0C428.10458 212.0 429.0 212.89543 429.0 214.0Z" fill-rule="nonzero"/><path stroke="#000000" stroke-width="2.0" stroke-linecap="butt" stroke-opacity="0.0" clip-path="url(#id_0)" d="M523.0 300.0L513.0 300.0L513.0 118.0C513.0 116.89543 513.89545 116.0 515.0 116.0L521.0 116.0C522.10455 116.0 523.0 116.89543 523.0 118.0Z" fill-rule="nonzero"/><path fill="#fbbc04" clip-path="url(#id_0)" d="M523.0 300.0L513.0 300.0L513.0 118.0C513.0 116.89543 513.89545 116.0 515.0 116.0L521.0 116.0C522.10455 116.0 523.0 116.89543 523.0 118.0Z" fill-rule="nonzero"/><path stroke="#000000" stroke-width="2.0" stroke-linecap="butt" stroke-opacity="0.0" clip-path="url(#id_0)" d="M158.0 300.0L148.0 300.0L148.0 294.0C148.0 292.89542 148.89543 292.0 150.0 292.0L156.0 292.0C157.10457 292.0 158.0 292.89542 158.0 294.0Z" fill-rule="nonzero"/><path fill="#34a853" clip-path="url(#id_0)" d="M158.0 300.0L148.0 300.0L148.0 294.0C148.0 292.89542 148.89543 292.0 150.0 292.0L156.0 292.0C157.10457 292.0 158.0 292.89542 158.0 294.0Z" fill-rule="nonzero"/><path stroke="#000000" stroke-width="2.0" stroke-linecap="butt" stroke-opacity="0.0" clip-path="url(#id_0)" d="M252.0 300.0L242.0 300.0L242.0 285.0C242.0 283.89542 242.89543 283.0 244.0 283.0L250.0 283.0C251.10457 283.0 252.0 283.89542 252.0 285.0Z" fill-rule="nonzero"/><path fill="#34a853" clip-path="url(#id_0)" d="M252.0 300.0L242.0 300.0L242.0 285.0C242.0 283.89542 242.89543 283.0 244.0 283.0L250.0 283.0C251.10457 283.0 252.0 283.89542 252.0 285.0Z" fill-rule="nonzero"/><path stroke="#000000" stroke-width="2.0" stroke-linecap="butt" stroke-opacity="0.0" clip-path="url(#id_0)" d="M347.0 300.0L337.0 300.0L337.0 265.0C337.0 263.89542 337.89542 263.0 339.0 263.0L345.0 263.0C346.10458 263.0 347.0 263.89542 347.0 265.0Z" fill-rule="nonzero"/><path fill="#34a853" clip-path="url(#id_0)" d="M347.0 300.0L337.0 300.0L337.0 265.0C337.0 263.89542 337.89542 263.0 339.0 263.0L345.0 263.0C346.10458 263.0 347.0 263.89542 347.0 265.0Z" fill-rule="nonzero"/><path stroke="#000000" stroke-width="2.0" stroke-linecap="butt" stroke-opacity="0.0" clip-path="url(#id_0)" d="M441.0 300.0L431.0 300.0L431.0 206.0C431.0 204.89543 431.89542 204.0 433.0 204.0L439.0 204.0C440.10458 204.0 441.0 204.89543 441.0 206.0Z" fill-rule="nonzero"/><path fill="#34a853" clip-path="url(#id_0)" d="M441.0 300.0L431.0 300.0L431.0 206.0C431.0 204.89543 431.89542 204.0 433.0 204.0L439.0 204.0C440.10458 204.0 441.0 204.89543 441.0 206.0Z" fill-rule="nonzero"/><path stroke="#000000" stroke-width="2.0" stroke-linecap="butt" stroke-opacity="0.0" clip-path="url(#id_0)" d="M535.0 300.0L525.0 300.0L525.0 118.0C525.0 116.89543 525.89545 116.0 527.0 116.0L533.0 116.0C534.10455 116.0 535.0 116.89543 535.0 118.0Z" fill-rule="nonzero"/><path fill="#34a853" clip-path="url(#id_0)" d="M535.0 300.0L525.0 300.0L525.0 118.0C525.0 116.89543 525.89545 116.0 527.0 116.0L533.0 116.0C534.10455 116.0 535.0 116.89543 535.0 118.0Z" fill-rule="nonzero"/><path stroke="#000000" stroke-width="2.0" stroke-linecap="butt" stroke-opacity="0.0" clip-path="url(#id_0)" d="M170.0 300.0L160.0 300.0L160.0 294.0C160.0 292.89542 160.89543 292.0 162.0 292.0L168.0 292.0C169.10457 292.0 170.0 292.89542 170.0 294.0Z" fill-rule="nonzero"/><path fill="#ff6d01" clip-path="url(#id_0)" d="M170.0 300.0L160.0 300.0L160.0 294.0C160.0 292.89542 160.89543 292.0 162.0 292.0L168.0 292.0C169.10457 292.0 170.0 292.89542 170.0 294.0Z" fill-rule="nonzero"/><path stroke="#000000" stroke-width="2.0" stroke-linecap="butt" stroke-opacity="0.0" clip-path="url(#id_0)" d="M264.0 300.0L254.0 300.0L254.0 285.0C254.0 283.89542 254.89543 283.0 256.0 283.0L262.0 283.0C263.10458 283.0 264.0 283.89542 264.0 285.0Z" fill-rule="nonzero"/><path fill="#ff6d01" clip-path="url(#id_0)" d="M264.0 300.0L254.0 300.0L254.0 285.0C254.0 283.89542 254.89543 283.0 256.0 283.0L262.0 283.0C263.10458 283.0 264.0 283.89542 264.0 285.0Z" fill-rule="nonzero"/><path stroke="#000000" stroke-width="2.0" stroke-linecap="butt" stroke-opacity="0.0" clip-path="url(#id_0)" d="M359.0 300.0L349.0 300.0L349.0 268.0C349.0 266.89542 349.89542 266.0 351.0 266.0L357.0 266.0C358.10458 266.0 359.0 266.89542 359.0 268.0Z" fill-rule="nonzero"/><path fill="#ff6d01" clip-path="url(#id_0)" d="M359.0 300.0L349.0 300.0L349.0 268.0C349.0 266.89542 349.89542 266.0 351.0 266.0L357.0 266.0C358.10458 266.0 359.0 266.89542 359.0 268.0Z" fill-rule="nonzero"/><path stroke="#000000" stroke-width="2.0" stroke-linecap="butt" stroke-opacity="0.0" clip-path="url(#id_0)" d="M453.0 300.0L443.0 300.0L443.0 209.0C443.0 207.89543 443.89542 207.0 445.0 207.0L451.0 207.0C452.10458 207.0 453.0 207.89543 453.0 209.0Z" fill-rule="nonzero"/><path fill="#ff6d01" clip-path="url(#id_0)" d="M453.0 300.0L443.0 300.0L443.0 209.0C443.0 207.89543 443.89542 207.0 445.0 207.0L451.0 207.0C452.10458 207.0 453.0 207.89543 453.0 209.0Z" fill-rule="nonzero"/><path stroke="#000000" stroke-width="2.0" stroke-linecap="butt" stroke-opacity="0.0" clip-path="url(#id_0)" d="M547.0 300.0L537.0 300.0L537.0 113.0C537.0 111.89543 537.89545 111.0 539.0 111.0L545.0 111.0C546.10455 111.0 547.0 111.89543 547.0 113.0Z" fill-rule="nonzero"/><path fill="#ff6d01" clip-path="url(#id_0)" d="M547.0 300.0L537.0 300.0L537.0 113.0C537.0 111.89543 537.89545 111.0 539.0 111.0L545.0 111.0C546.10455 111.0 547.0 111.89543 547.0 113.0Z" fill-rule="nonzero"/><path fill="#000000" d="M283.42188 349.45L283.42188 340.85626L284.57812 340.85626L289.09375 347.60626L289.09375 340.85626L290.1875 340.85626L290.1875 349.45L289.01562 349.45L284.5 342.7L284.5 349.45L283.42188 349.45ZM296.375 349.45L296.375 348.52814Q295.64062 349.59064 294.39062 349.59064Q293.84375 349.59064 293.35938 349.3875Q292.89062 349.16876 292.65625 348.85626Q292.42188 348.52814 292.32812 348.0594Q292.26562 347.7625 292.26562 347.075L292.26562 343.23126L293.32812 343.23126L293.32812 346.6844Q293.32812 347.4969 293.39062 347.79376Q293.48438 348.2 293.79688 348.45Q294.125 348.6844 294.60938 348.6844Q295.07812 348.6844 295.48438 348.45Q295.90625 348.2 296.07812 347.77814Q296.26562 347.35626 296.26562 346.5594L296.26562 343.23126L297.3125 343.23126L297.3125 349.45L296.375 349.45ZM299.29688 349.45L299.29688 343.23126L300.23438 343.23126L300.23438 344.10626Q300.53125 343.6375 301.01562 343.3719Q301.5 343.09064 302.125 343.09064Q302.8125 343.09064 303.25 343.3719Q303.70312 343.65314 303.875 344.16876Q304.625 343.09064 305.79688 343.09064Q306.73438 343.09064 307.21875 343.60626Q307.71875 344.10626 307.71875 345.1844L307.71875 349.45L306.67188 349.45L306.67188 345.52814Q306.67188 344.90314 306.5625 344.6219Q306.46875 344.34064 306.20312 344.16876Q305.9375 343.9969 305.5625 343.9969Q304.90625 343.9969 304.46875 344.4344Q304.04688 344.8719 304.04688 345.84064L304.04688 349.45L302.98438 349.45L302.98438 345.40314Q302.98438 344.7 302.71875 344.35626Q302.46875 343.9969 301.89062 343.9969Q301.4375 343.9969 301.0625 344.23126Q300.6875 344.46564 300.51562 344.91876Q300.34375 345.3719 300.34375 346.21564L300.34375 349.45L299.29688 349.45ZM311.26562 349.45L310.28125 349.45L310.28125 340.85626L311.34375 340.85626L311.34375 343.91876Q312.01562 343.09064 313.04688 343.09064Q313.625 343.09064 314.125 343.325Q314.64062 343.54376 314.96875 343.96564Q315.3125 344.3875 315.5 344.98126Q315.6875 345.575 315.6875 346.2469Q315.6875 347.84064 314.89062 348.71564Q314.09375 349.59064 313.0 349.59064Q311.89062 349.59064 311.26562 348.66876L311.26562 349.45ZM311.25 346.29376Q311.25 347.40314 311.5625 347.90314Q312.0625 348.71564 312.90625 348.71564Q313.59375 348.71564 314.09375 348.1219Q314.60938 347.52814 314.60938 346.325Q314.60938 345.10626 314.125 344.52814Q313.64062 343.95 312.95312 343.95Q312.26562 343.95 311.75 344.5594Q311.25 345.15314 311.25 346.29376ZM321.54688 347.45L322.64062 347.575Q322.39062 348.52814 321.6875 349.0594Q320.98438 349.59064 319.90625 349.59064Q318.54688 349.59064 317.73438 348.7469Q316.9375 347.90314 316.9375 346.3875Q316.9375 344.825 317.75 343.96564Q318.5625 343.09064 319.84375 343.09064Q321.09375 343.09064 321.875 343.9344Q322.67188 344.77814 322.67188 346.325Q322.67188 346.41876 322.67188 346.60626L318.03125 346.60626Q318.09375 347.6375 318.60938 348.1844Q319.125 348.71564 319.90625 348.71564Q320.48438 348.71564 320.89062 348.41876Q321.3125 348.10626 321.54688 347.45ZM318.09375 345.7469L321.5625 345.7469Q321.5 344.95 321.17188 344.5594Q320.65625 343.95 319.85938 343.95Q319.125 343.95 318.625 344.4344Q318.14062 344.91876 318.09375 345.7469ZM324.28125 349.45L324.28125 343.23126L325.23438 343.23126L325.23438 344.16876Q325.59375 343.5125 325.89062 343.3094Q326.20312 343.09064 326.57812 343.09064Q327.10938 343.09064 327.65625 343.41876L327.29688 344.40314Q326.90625 344.16876 326.53125 344.16876Q326.17188 344.16876 325.89062 344.3875Q325.625 344.59064 325.51562 344.96564Q325.32812 345.52814 325.32812 346.1844L325.32812 349.45L324.28125 349.45ZM330.90625 346.34064Q330.90625 344.60626 331.85938 343.77814Q332.65625 343.09064 333.8125 343.09064Q335.09375 343.09064 335.90625 343.9344Q336.73438 344.7625 336.73438 346.2469Q336.73438 347.45 336.375 348.1375Q336.01562 348.825 335.3125 349.21564Q334.625 349.59064 333.8125 349.59064Q332.51562 349.59064 331.70312 348.7625Q330.90625 347.91876 330.90625 346.34064ZM331.98438 346.34064Q331.98438 347.52814 332.5 348.1219Q333.03125 348.71564 333.8125 348.71564Q334.60938 348.71564 335.125 348.1219Q335.64062 347.52814 335.64062 346.3094Q335.64062 345.15314 335.10938 344.5594Q334.59375 343.96564 333.8125 343.96564Q333.03125 343.96564 332.5 344.5594Q331.98438 345.1375 331.98438 346.34064ZM338.54688 349.45L338.54688 344.04376L337.60938 344.04376L337.60938 343.23126L338.54688 343.23126L338.54688 342.5594Q338.54688 341.9344 338.65625 341.6375Q338.8125 341.21564 339.1875 340.96564Q339.57812 340.71564 340.26562 340.71564Q340.71875 340.71564 341.25 340.825L341.09375 341.73126Q340.76562 341.6844 340.46875 341.6844Q339.98438 341.6844 339.78125 341.8875Q339.59375 342.09064 339.59375 342.65314L339.59375 343.23126L340.8125 343.23126L340.8125 344.04376L339.59375 344.04376L339.59375 349.45L338.54688 349.45ZM348.45312 346.075L348.45312 345.075L352.07812 345.0594L352.07812 348.2469Q351.25 348.91876 350.35938 349.2625Q349.46875 349.59064 348.53125 349.59064Q347.26562 349.59064 346.21875 349.0594Q345.1875 348.5125 344.65625 347.4969Q344.14062 346.46564 344.14062 345.2Q344.14062 343.9344 344.65625 342.85626Q345.1875 341.7625 346.17188 341.2469Q347.15625 340.71564 348.4375 340.71564Q349.375 340.71564 350.125 341.0125Q350.875 341.3094 351.29688 341.85626Q351.73438 342.3875 351.95312 343.2625L350.9375 343.54376Q350.73438 342.8875 350.4375 342.5125Q350.15625 342.1375 349.625 341.91876Q349.09375 341.6844 348.45312 341.6844Q347.67188 341.6844 347.09375 341.91876Q346.53125 342.15314 346.17188 342.54376Q345.82812 342.9344 345.64062 343.40314Q345.3125 344.2 345.3125 345.1219Q345.3125 346.27814 345.70312 347.0594Q346.10938 347.825 346.85938 348.2Q347.60938 348.575 348.46875 348.575Q349.20312 348.575 349.90625 348.29376Q350.60938 347.9969 350.96875 347.6844L350.96875 346.075L348.45312 346.075ZM353.42188 349.45L353.42188 340.85626L356.67188 340.85626Q357.51562 340.85626 357.96875 340.9344Q358.60938 341.04376 359.03125 341.34064Q359.46875 341.6375 359.71875 342.16876Q359.98438 342.7 359.98438 343.34064Q359.98438 344.4344 359.28125 345.2Q358.59375 345.95 356.76562 345.95L354.5625 345.95L354.5625 349.45L353.42188 349.45ZM354.5625 344.95L356.78125 344.95Q357.89062 344.95 358.34375 344.54376Q358.8125 344.1219 358.8125 343.3719Q358.8125 342.84064 358.53125 342.46564Q358.26562 342.075 357.82812 341.95Q357.53125 341.8719 356.76562 341.8719L354.5625 341.8719L354.5625 344.95ZM367.0625 340.85626L368.20312 340.85626L368.20312 345.825Q368.20312 347.1219 367.90625 347.8875Q367.60938 348.6375 366.84375 349.1219Q366.07812 349.59064 364.84375 349.59064Q363.64062 349.59064 362.85938 349.1844Q362.09375 348.7625 361.76562 347.98126Q361.4375 347.1844 361.4375 345.825L361.4375 340.85626L362.57812 340.85626L362.57812 345.8094Q362.57812 346.9344 362.78125 347.46564Q363.0 347.9969 363.5 348.29376Q364.01562 348.575 364.75 348.575Q366.0 348.575 366.53125 348.0125Q367.0625 347.4344 367.0625 345.8094L367.0625 340.85626ZM369.875 347.59064L370.90625 347.4344Q371.0 348.0594 371.39062 348.3875Q371.79688 348.71564 372.53125 348.71564Q373.25 348.71564 373.59375 348.4344Q373.95312 348.1375 373.95312 347.73126Q373.95312 347.3719 373.64062 347.16876Q373.42188 347.02814 372.5625 346.8094Q371.40625 346.5125 370.95312 346.3094Q370.51562 346.09064 370.28125 345.71564Q370.04688 345.34064 370.04688 344.8719Q370.04688 344.46564 370.23438 344.10626Q370.42188 343.7469 370.75 343.5125Q371.0 343.34064 371.42188 343.21564Q371.84375 343.09064 372.34375 343.09064Q373.0625 343.09064 373.60938 343.3094Q374.17188 343.5125 374.4375 343.8719Q374.70312 344.23126 374.79688 344.825L373.76562 344.96564Q373.70312 344.4969 373.35938 344.23126Q373.03125 343.95 372.40625 343.95Q371.6875 343.95 371.375 344.2Q371.0625 344.4344 371.0625 344.7625Q371.0625 344.96564 371.1875 345.1219Q371.32812 345.29376 371.59375 345.40314Q371.75 345.46564 372.53125 345.66876Q373.65625 345.98126 374.09375 346.16876Q374.53125 346.35626 374.78125 346.71564Q375.03125 347.075 375.03125 347.6219Q375.03125 348.15314 374.71875 348.6219Q374.42188 349.075 373.84375 349.34064Q373.26562 349.59064 372.53125 349.59064Q371.3125 349.59064 370.67188 349.09064Q370.04688 348.575 369.875 347.59064Z" fill-rule="nonzero"/><path fill="#000000" d="M26.784388 211.63646L26.690638 210.57396Q27.346888 210.49583 27.753138 210.21458Q28.159388 209.93333 28.425013 209.35521Q28.675013 208.76146 28.675013 208.02708Q28.675013 207.38646 28.487513 206.88646Q28.284388 206.38646 27.956263 206.15208Q27.612513 205.90208 27.221888 205.90208Q26.815638 205.90208 26.518763 206.13646Q26.206263 206.37083 26.003138 206.90208Q25.862513 207.26146 25.581263 208.44896Q25.300013 209.62083 25.050013 210.08958Q24.721888 210.71458 24.253138 211.01146Q23.768763 211.30833 23.175013 211.30833Q22.534388 211.30833 21.971888 210.94896Q21.393763 210.57396 21.112513 209.87083Q20.815638 209.15208 20.815638 208.29271Q20.815638 207.33958 21.128138 206.60521Q21.425013 205.87083 22.034388 205.48021Q22.628138 205.08958 23.378138 205.05833L23.456263 206.15208Q22.643763 206.24583 22.237513 206.76146Q21.815638 207.26146 21.815638 208.24583Q21.815638 209.27708 22.190638 209.74583Q22.565638 210.21458 23.096888 210.21458Q23.565638 210.21458 23.862513 209.88646Q24.159388 209.55833 24.471888 208.18333Q24.784388 206.79271 25.018763 206.27708Q25.378138 205.52708 25.909388 205.16771Q26.425013 204.80833 27.128138 204.80833Q27.815638 204.80833 28.425013 205.19896Q29.018763 205.58958 29.362513 206.32396Q29.690638 207.05833 29.690638 207.98021Q29.690638 209.15208 29.362513 209.94896Q29.018763 210.73021 28.331263 211.18333Q27.643763 211.62083 26.784388 211.63646ZM27.550013 199.13646L27.675013 198.04271Q28.628138 198.29271 29.159388 198.99583Q29.690638 199.69896 29.690638 200.77708Q29.690638 202.13646 28.846888 202.94896Q28.003138 203.74583 26.487513 203.74583Q24.925013 203.74583 24.065638 202.93333Q23.190638 202.12083 23.190638 200.83958Q23.190638 199.58958 24.034388 198.80833Q24.878138 198.01146 26.425013 198.01146Q26.518763 198.01146 26.706263 198.01146L26.706263 202.65208Q27.737513 202.58958 28.284388 202.07396Q28.815638 201.55833 28.815638 200.77708Q28.815638 200.19896 28.518763 199.79271Q28.206263 199.37083 27.550013 199.13646ZM25.846888 202.58958L25.846888 199.12083Q25.050013 199.18333 24.659388 199.51146Q24.050013 200.02708 24.050013 200.82396Q24.050013 201.55833 24.534388 202.05833Q25.018763 202.54271 25.846888 202.58958ZM27.268763 192.32396L27.409388 191.29271Q28.471888 191.46458 29.081263 192.16771Q29.690638 192.87083 29.690638 193.88646Q29.690638 195.16771 28.862513 195.94896Q28.018763 196.71458 26.456263 196.71458Q25.456263 196.71458 24.706263 196.38646Q23.940638 196.04271 23.565638 195.37083Q23.190638 194.68333 23.190638 193.87083Q23.190638 192.87083 23.706263 192.23021Q24.206263 191.57396 25.159388 191.38646L25.315638 192.41771Q24.690638 192.55833 24.378138 192.93333Q24.050013 193.30833 24.050013 193.83958Q24.050013 194.63646 24.628138 195.13646Q25.190638 195.63646 26.425013 195.63646Q27.690638 195.63646 28.253138 195.15208Q28.815638 194.66771 28.815638 193.90208Q28.815638 193.27708 28.440638 192.87083Q28.065638 192.44896 27.268763 192.32396ZM26.440638 190.77708Q24.706263 190.77708 23.878138 189.82396Q23.190638 189.02708 23.190638 187.87083Q23.190638 186.58958 24.034388 185.77708Q24.862513 184.94896 26.346888 184.94896Q27.550013 184.94896 28.237513 185.30833Q28.925013 185.66771 29.315638 186.37083Q29.690638 187.05833 29.690638 187.87083Q29.690638 189.16771 28.862513 189.98021Q28.018763 190.77708 26.440638 190.77708ZM26.440638 189.69896Q27.628138 189.69896 28.221888 189.18333Q28.815638 188.65208 28.815638 187.87083Q28.815638 187.07396 28.221888 186.55833Q27.628138 186.04271 26.409388 186.04271Q25.253138 186.04271 24.659388 186.57396Q24.065638 187.08958 24.065638 187.87083Q24.065638 188.65208 24.659388 189.18333Q25.237513 189.69896 26.440638 189.69896ZM29.550013 183.38646L23.331263 183.38646L23.331263 182.44896L24.206263 182.44896Q23.190638 181.76146 23.190638 180.46458Q23.190638 179.90208 23.393763 179.43333Q23.596888 178.94896 23.925013 178.71458Q24.253138 178.48021 24.690638 178.38646Q24.987513 178.33958 25.721888 178.33958L29.550013 178.33958L29.550013 179.38646L25.768763 179.38646Q25.112513 179.38646 24.800013 179.51146Q24.487513 179.63646 24.300013 179.94896Q24.096888 180.26146 24.096888 180.68333Q24.096888 181.35521 24.534388 181.85521Q24.956263 182.33958 26.143763 182.33958L29.550013 182.33958L29.550013 183.38646ZM29.550013 172.35521L28.768763 172.35521Q29.690638 172.94896 29.690638 174.08958Q29.690638 174.83958 29.284388 175.46458Q28.862513 176.08958 28.128138 176.43333Q27.393763 176.77708 26.440638 176.77708Q25.518763 176.77708 24.753138 176.46458Q23.987513 176.15208 23.596888 175.52708Q23.190638 174.90208 23.190638 174.13646Q23.190638 173.57396 23.425013 173.13646Q23.659388 172.69896 24.034388 172.41771L20.956263 172.41771L20.956263 171.37083L29.550013 171.37083L29.550013 172.35521ZM26.440638 175.68333Q27.643763 175.68333 28.237513 175.18333Q28.815638 174.68333 28.815638 173.99583Q28.815638 173.30833 28.253138 172.82396Q27.690638 172.33958 26.534388 172.33958Q25.253138 172.33958 24.659388 172.83958Q24.065638 173.32396 24.065638 174.04271Q24.065638 174.74583 24.643763 175.21458Q25.206263 175.68333 26.440638 175.68333ZM27.690638 169.80833L27.534388 168.77708Q28.159388 168.68333 28.487513 168.29271Q28.815638 167.88646 28.815638 167.15208Q28.815638 166.43333 28.534388 166.08958Q28.237513 165.73021 27.831263 165.73021Q27.471888 165.73021 27.268763 166.04271Q27.128138 166.26146 26.909388 167.12083Q26.612513 168.27708 26.409388 168.73021Q26.190638 169.16771 25.815638 169.40208Q25.440638 169.63646 24.971888 169.63646Q24.565638 169.63646 24.206263 169.44896Q23.846888 169.26146 23.612513 168.93333Q23.440638 168.68333 23.315638 168.26146Q23.190638 167.83958 23.190638 167.33958Q23.190638 166.62083 23.409388 166.07396Q23.612513 165.51146 23.971888 165.24583Q24.331263 164.98021 24.925013 164.88646L25.065638 165.91771Q24.596888 165.98021 24.331263 166.32396Q24.050013 166.65208 24.050013 167.27708Q24.050013 167.99583 24.300013 168.30833Q24.534388 168.62083 24.862513 168.62083Q25.065638 168.62083 25.221888 168.49583Q25.393763 168.35521 25.503138 168.08958Q25.565638 167.93333 25.768763 167.15208Q26.081263 166.02708 26.268763 165.58958Q26.456263 165.15208 26.815638 164.90208Q27.175013 164.65208 27.721888 164.65208Q28.253138 164.65208 28.721888 164.96458Q29.175013 165.26146 29.440638 165.83958Q29.690638 166.41771 29.690638 167.15208Q29.690638 168.37083 29.190638 169.01146Q28.675013 169.63646 27.690638 169.80833Z" fill-rule="nonzero"/><path fill="#000000" d="M65.05 300.21564Q65.05 298.6844 65.3625 297.7625Q65.675 296.825 66.28438 296.325Q66.90938 295.825 67.84688 295.825Q68.53438 295.825 69.05 296.10626Q69.58125 296.3875 69.925 296.91876Q70.26875 297.4344 70.45625 298.1844Q70.64375 298.9344 70.64375 300.21564Q70.64375 301.73126 70.33125 302.65314Q70.03438 303.575 69.40938 304.09064Q68.8 304.59064 67.84688 304.59064Q66.6125 304.59064 65.89375 303.7Q65.05 302.6375 65.05 300.21564ZM66.12813 300.21564Q66.12813 302.325 66.62813 303.02814Q67.12813 303.73126 67.84688 303.73126Q68.58125 303.73126 69.06563 303.02814Q69.56563 302.325 69.56563 300.21564Q69.56563 298.09064 69.06563 297.40314Q68.58125 296.7 67.83125 296.7Q67.1125 296.7 66.675 297.3094Q66.12813 298.09064 66.12813 300.21564Z" fill-rule="nonzero"/><path fill="#000000" d="M70.59688 243.80104L70.59688 244.81667L64.90938 244.81667Q64.90938 244.44167 65.03438 244.08229Q65.25313 243.50417 65.72188 242.94167Q66.20625 242.37917 67.1125 241.64479Q68.51875 240.48854 69.00313 239.81667Q69.50313 239.14479 69.50313 238.55104Q69.50313 237.92604 69.05 237.50417Q68.59688 237.06667 67.87813 237.06667Q67.1125 237.06667 66.65938 237.51979Q66.20625 237.97292 66.19063 238.78542L65.1125 238.67604Q65.22188 237.45729 65.94063 236.83229Q66.675 236.19167 67.90938 236.19167Q69.14375 236.19167 69.8625 236.87917Q70.58125 237.56667 70.58125 238.58229Q70.58125 239.09792 70.3625 239.59792Q70.15938 240.08229 69.65938 240.64479Q69.175 241.19167 68.05 242.14479Q67.09688 242.94167 66.81563 243.23854Q66.55 243.51979 66.37813 243.80104L70.59688 243.80104Z" fill-rule="nonzero"/><path fill="#000000" d="M68.425 185.18333L68.425 183.12083L64.70625 183.12083L64.70625 182.15208L68.62813 176.58958L69.4875 176.58958L69.4875 182.15208L70.64375 182.15208L70.64375 183.12083L69.4875 183.12083L69.4875 185.18333L68.425 185.18333ZM68.425 182.15208L68.425 178.29271L65.7375 182.15208L68.425 182.15208Z" fill-rule="nonzero"/><path fill="#000000" d="M70.51875 119.06563L69.47188 119.14375Q69.33125 118.51875 69.08125 118.2375Q68.64375 117.78438 68.01875 117.78438Q67.51875 117.78438 67.12813 118.06563Q66.64375 118.44063 66.34688 119.14375Q66.06563 119.83125 66.05 121.1125Q66.425 120.53438 66.97188 120.25313Q67.53438 119.97188 68.14375 119.97188Q69.19063 119.97188 69.925 120.75313Q70.675 121.53438 70.675 122.75313Q70.675 123.56563 70.31563 124.26875Q69.97188 124.95625 69.3625 125.33125Q68.75313 125.69063 67.9875 125.69063Q66.65938 125.69063 65.83125 124.72188Q65.00313 123.75313 65.00313 121.53438Q65.00313 119.03438 65.925 117.90938Q66.72188 116.925 68.08125 116.925Q69.09688 116.925 69.7375 117.50313Q70.39375 118.06563 70.51875 119.06563ZM66.22188 122.76875Q66.22188 123.31563 66.44063 123.81563Q66.675 124.3 67.08125 124.56563Q67.50313 124.83125 67.97188 124.83125Q68.62813 124.83125 69.1125 124.3Q69.59688 123.75313 69.59688 122.83125Q69.59688 121.94063 69.1125 121.425Q68.64375 120.90938 67.925 120.90938Q67.20625 120.90938 66.70625 121.425Q66.22188 121.94063 66.22188 122.76875Z" fill-rule="nonzero"/><path fill="#000000" d="M66.675 61.260414Q66.01875 61.010414 65.69063 60.572914Q65.37813 60.11979 65.37813 59.510414Q65.37813 58.572914 66.05 57.93229Q66.7375 57.291664 67.84688 57.291664Q68.97188 57.291664 69.65938 57.947914Q70.34688 58.604164 70.34688 59.541664Q70.34688 60.135414 70.03438 60.572914Q69.72188 61.010414 69.08125 61.260414Q69.87813 61.510414 70.28438 62.08854Q70.69063 62.666664 70.69063 63.46354Q70.69063 64.55729 69.90938 65.30729Q69.14375 66.05729 67.8625 66.05729Q66.59688 66.05729 65.81563 65.30729Q65.03438 64.55729 65.03438 63.43229Q65.03438 62.58854 65.45625 62.02604Q65.89375 61.46354 66.675 61.260414ZM66.45625 59.46354Q66.45625 60.072914 66.84688 60.46354Q67.25313 60.854164 67.87813 60.854164Q68.4875 60.854164 68.87813 60.479164Q69.26875 60.08854 69.26875 59.52604Q69.26875 58.947914 68.8625 58.55729Q68.45625 58.15104 67.8625 58.15104Q67.25313 58.15104 66.84688 58.541664Q66.45625 58.93229 66.45625 59.46354ZM66.12813 63.43229Q66.12813 63.885414 66.33125 64.30729Q66.55 64.729164 66.97188 64.96354Q67.39375 65.197914 67.87813 65.197914Q68.62813 65.197914 69.1125 64.71354Q69.6125 64.229164 69.6125 63.479164Q69.6125 62.71354 69.1125 62.21354Q68.6125 61.71354 67.84688 61.71354Q67.09688 61.71354 66.6125 62.21354Q66.12813 62.697914 66.12813 63.43229Z" fill-rule="nonzero"/><path fill="#000000" d="M142.09492 317.45L141.04805 317.45L141.04805 310.73126Q140.65742 311.09064 140.03242 311.46564Q139.42305 311.825 138.93867 311.9969L138.93867 310.98126Q139.81367 310.5594 140.46992 309.98126Q141.1418 309.3875 141.42305 308.825L142.09492 308.825L142.09492 317.45Z" fill-rule="nonzero"/><path fill="#000000" d="M237.85995 316.4344L237.85995 317.45L232.17245 317.45Q232.17245 317.075 232.29745 316.71564Q232.5162 316.1375 232.98495 315.575Q233.46933 315.0125 234.37558 314.27814Q235.78183 313.1219 236.2662 312.45Q236.7662 311.77814 236.7662 311.1844Q236.7662 310.5594 236.31308 310.1375Q235.85995 309.7 235.1412 309.7Q234.37558 309.7 233.92245 310.15314Q233.46933 310.60626 233.4537 311.41876L232.37558 311.3094Q232.48495 310.09064 233.2037 309.46564Q233.93808 308.825 235.17245 308.825Q236.40683 308.825 237.12558 309.5125Q237.84433 310.2 237.84433 311.21564Q237.84433 311.73126 237.62558 312.23126Q237.42245 312.71564 236.92245 313.27814Q236.43808 313.825 235.31308 314.77814Q234.35995 315.575 234.0787 315.8719Q233.81308 316.15314 233.6412 316.4344L237.85995 316.4344Z" fill-rule="nonzero"/><path fill="#000000" d="M329.875 317.45L329.875 315.3875L326.15625 315.3875L326.15625 314.41876L330.07812 308.85626L330.9375 308.85626L330.9375 314.41876L332.09375 314.41876L332.09375 315.3875L330.9375 315.3875L330.9375 317.45L329.875 317.45ZM329.875 314.41876L329.875 310.5594L327.1875 314.41876L329.875 314.41876Z" fill-rule="nonzero"/><path fill="#000000" d="M422.31192 312.79376Q421.65567 312.54376 421.32755 312.10626Q421.01505 311.65314 421.01505 311.04376Q421.01505 310.10626 421.68692 309.46564Q422.37442 308.825 423.4838 308.825Q424.6088 308.825 425.2963 309.48126Q425.9838 310.1375 425.9838 311.075Q425.9838 311.66876 425.6713 312.10626Q425.3588 312.54376 424.71817 312.79376Q425.51505 313.04376 425.9213 313.6219Q426.32755 314.2 426.32755 314.9969Q426.32755 316.09064 425.5463 316.84064Q424.78067 317.59064 423.49942 317.59064Q422.2338 317.59064 421.45255 316.84064Q420.6713 316.09064 420.6713 314.96564Q420.6713 314.1219 421.09317 313.5594Q421.53067 312.9969 422.31192 312.79376ZM422.09317 310.9969Q422.09317 311.60626 422.4838 311.9969Q422.89005 312.3875 423.51505 312.3875Q424.12442 312.3875 424.51505 312.0125Q424.90567 311.6219 424.90567 311.0594Q424.90567 310.48126 424.49942 310.09064Q424.09317 309.6844 423.49942 309.6844Q422.89005 309.6844 422.4838 310.075Q422.09317 310.46564 422.09317 310.9969ZM421.76505 314.96564Q421.76505 315.41876 421.96817 315.84064Q422.18692 316.2625 422.6088 316.4969Q423.03067 316.73126 423.51505 316.73126Q424.26505 316.73126 424.74942 316.2469Q425.24942 315.7625 425.24942 315.0125Q425.24942 314.2469 424.74942 313.7469Q424.24942 313.2469 423.4838 313.2469Q422.7338 313.2469 422.24942 313.7469Q421.76505 314.23126 421.76505 314.96564Z" fill-rule="nonzero"/><path fill="#000000" d="M515.3426 317.45L514.2957 317.45L514.2957 310.73126Q513.9051 311.09064 513.2801 311.46564Q512.6707 311.825 512.18634 311.9969L512.18634 310.98126Q513.06134 310.5594 513.7176 309.98126Q514.38947 309.3875 514.6707 308.825L515.3426 308.825L515.3426 317.45ZM523.8426 310.96564L522.7957 311.04376Q522.6551 310.41876 522.4051 310.1375Q521.9676 309.6844 521.3426 309.6844Q520.8426 309.6844 520.45197 309.96564Q519.9676 310.34064 519.6707 311.04376Q519.38947 311.73126 519.37384 313.0125Q519.74884 312.4344 520.2957 312.15314Q520.8582 311.8719 521.4676 311.8719Q522.51447 311.8719 523.24884 312.65314Q523.99884 313.4344 523.99884 314.65314Q523.99884 315.46564 523.63947 316.16876Q523.2957 316.85626 522.68634 317.23126Q522.07697 317.59064 521.31134 317.59064Q519.9832 317.59064 519.1551 316.6219Q518.32697 315.65314 518.32697 313.4344Q518.32697 310.9344 519.24884 309.8094Q520.0457 308.825 521.4051 308.825Q522.4207 308.825 523.06134 309.40314Q523.7176 309.96564 523.8426 310.96564ZM519.5457 314.66876Q519.5457 315.21564 519.76447 315.71564Q519.99884 316.2 520.4051 316.46564Q520.82697 316.73126 521.2957 316.73126Q521.95197 316.73126 522.43634 316.2Q522.9207 315.65314 522.9207 314.73126Q522.9207 313.84064 522.43634 313.325Q521.9676 312.8094 521.24884 312.8094Q520.5301 312.8094 520.0301 313.325Q519.5457 313.84064 519.5457 314.66876Z" fill-rule="nonzero"/><path fill="#4285f4" d="M158.5 70.916664C158.5 70.36438 158.94771 69.916664 159.5 69.916664L169.5 69.916664C170.05229 69.916664 170.5 70.36438 170.5 70.916664L170.5 80.916664C170.5 81.46895 170.05229 81.916664 169.5 81.916664L159.5 81.916664C158.94771 81.916664 158.5 81.46895 158.5 80.916664Z" fill-rule="nonzero"/><path stroke="#ffffff" stroke-width="3.0" stroke-linejoin="round" stroke-linecap="round" d="M182.96875 79.916664L181.92188 79.916664L181.92188 73.197914Q181.53125 73.55729 180.90625 73.93229Q180.29688 74.291664 179.8125 74.46354L179.8125 73.447914Q180.6875 73.02604 181.34375 72.447914Q182.01562 71.854164 182.29688 71.291664L182.96875 71.291664L182.96875 79.916664ZM191.54688 78.90104L191.54688 79.916664L185.85938 79.916664Q185.85938 79.541664 185.98438 79.18229Q186.20312 78.604164 186.67188 78.041664Q187.15625 77.479164 188.0625 76.74479Q189.46875 75.58854 189.95312 74.916664Q190.45312 74.24479 190.45312 73.65104Q190.45312 73.02604 190.0 72.604164Q189.54688 72.166664 188.82812 72.166664Q188.0625 72.166664 187.60938 72.61979Q187.15625 73.072914 187.14062 73.885414L186.0625 73.77604Q186.17188 72.55729 186.89062 71.93229Q187.625 71.291664 188.85938 71.291664Q190.09375 71.291664 190.8125 71.979164Q191.53125 72.666664 191.53125 73.68229Q191.53125 74.197914 191.3125 74.697914Q191.10938 75.18229 190.60938 75.74479Q190.125 76.291664 189.0 77.24479Q188.04688 78.041664 187.76562 78.33854Q187.5 78.61979 187.32812 78.90104L191.54688 78.90104ZM194.625 75.260414Q193.96875 75.010414 193.64062 74.572914Q193.32812 74.11979 193.32812 73.510414Q193.32812 72.572914 194.0 71.93229Q194.6875 71.291664 195.79688 71.291664Q196.92188 71.291664 197.60938 71.947914Q198.29688 72.604164 198.29688 73.541664Q198.29688 74.135414 197.98438 74.572914Q197.67188 75.010414 197.03125 75.260414Q197.82812 75.510414 198.23438 76.08854Q198.64062 76.666664 198.64062 77.46354Q198.64062 78.55729 197.85938 79.30729Q197.09375 80.05729 195.8125 80.05729Q194.54688 80.05729 193.76562 79.30729Q192.98438 78.55729 192.98438 77.43229Q192.98438 76.58854 193.40625 76.02604Q193.84375 75.46354 194.625 75.260414ZM194.40625 73.46354Q194.40625 74.072914 194.79688 74.46354Q195.20312 74.854164 195.82812 74.854164Q196.4375 74.854164 196.82812 74.479164Q197.21875 74.08854 197.21875 73.52604Q197.21875 72.947914 196.8125 72.55729Q196.40625 72.15104 195.8125 72.15104Q195.20312 72.15104 194.79688 72.541664Q194.40625 72.93229 194.40625 73.46354ZM194.07812 77.43229Q194.07812 77.885414 194.28125 78.30729Q194.5 78.729164 194.92188 78.96354Q195.34375 79.197914 195.82812 79.197914Q196.57812 79.197914 197.0625 78.71354Q197.5625 78.229164 197.5625 77.479164Q197.5625 76.71354 197.0625 76.21354Q196.5625 75.71354 195.79688 75.71354Q195.04688 75.71354 194.5625 76.21354Q194.07812 76.697914 194.07812 77.43229Z" fill-rule="nonzero"/><path fill="#1a1a1a" d="M182.96875 79.916664L181.92188 79.916664L181.92188 73.197914Q181.53125 73.55729 180.90625 73.93229Q180.29688 74.291664 179.8125 74.46354L179.8125 73.447914Q180.6875 73.02604 181.34375 72.447914Q182.01562 71.854164 182.29688 71.291664L182.96875 71.291664L182.96875 79.916664ZM191.54688 78.90104L191.54688 79.916664L185.85938 79.916664Q185.85938 79.541664 185.98438 79.18229Q186.20312 78.604164 186.67188 78.041664Q187.15625 77.479164 188.0625 76.74479Q189.46875 75.58854 189.95312 74.916664Q190.45312 74.24479 190.45312 73.65104Q190.45312 73.02604 190.0 72.604164Q189.54688 72.166664 188.82812 72.166664Q188.0625 72.166664 187.60938 72.61979Q187.15625 73.072914 187.14062 73.885414L186.0625 73.77604Q186.17188 72.55729 186.89062 71.93229Q187.625 71.291664 188.85938 71.291664Q190.09375 71.291664 190.8125 71.979164Q191.53125 72.666664 191.53125 73.68229Q191.53125 74.197914 191.3125 74.697914Q191.10938 75.18229 190.60938 75.74479Q190.125 76.291664 189.0 77.24479Q188.04688 78.041664 187.76562 78.33854Q187.5 78.61979 187.32812 78.90104L191.54688 78.90104ZM194.625 75.260414Q193.96875 75.010414 193.64062 74.572914Q193.32812 74.11979 193.32812 73.510414Q193.32812 72.572914 194.0 71.93229Q194.6875 71.291664 195.79688 71.291664Q196.92188 71.291664 197.60938 71.947914Q198.29688 72.604164 198.29688 73.541664Q198.29688 74.135414 197.98438 74.572914Q197.67188 75.010414 197.03125 75.260414Q197.82812 75.510414 198.23438 76.08854Q198.64062 76.666664 198.64062 77.46354Q198.64062 78.55729 197.85938 79.30729Q197.09375 80.05729 195.8125 80.05729Q194.54688 80.05729 193.76562 79.30729Q192.98438 78.55729 192.98438 77.43229Q192.98438 76.58854 193.40625 76.02604Q193.84375 75.46354 194.625 75.260414ZM194.40625 73.46354Q194.40625 74.072914 194.79688 74.46354Q195.20312 74.854164 195.82812 74.854164Q196.4375 74.854164 196.82812 74.479164Q197.21875 74.08854 197.21875 73.52604Q197.21875 72.947914 196.8125 72.55729Q196.40625 72.15104 195.8125 72.15104Q195.20312 72.15104 194.79688 72.541664Q194.40625 72.93229 194.40625 73.46354ZM194.07812 77.43229Q194.07812 77.885414 194.28125 78.30729Q194.5 78.729164 194.92188 78.96354Q195.34375 79.197914 195.82812 79.197914Q196.57812 79.197914 197.0625 78.71354Q197.5625 78.229164 197.5625 77.479164Q197.5625 76.71354 197.0625 76.21354Q196.5625 75.71354 195.79688 75.71354Q195.04688 75.71354 194.5625 76.21354Q194.07812 76.697914 194.07812 77.43229Z" fill-rule="nonzero"/><path fill="#ea4335" d="M215.5 70.916664C215.5 70.36438 215.94771 69.916664 216.5 69.916664L226.5 69.916664C227.05229 69.916664 227.5 70.36438 227.5 70.916664L227.5 80.916664C227.5 81.46895 227.05229 81.916664 226.5 81.916664L216.5 81.916664C215.94771 81.916664 215.5 81.46895 215.5 80.916664Z" fill-rule="nonzero"/><path stroke="#ffffff" stroke-width="3.0" stroke-linejoin="round" stroke-linecap="round" d="M241.54688 78.90104L241.54688 79.916664L235.85938 79.916664Q235.85938 79.541664 235.98438 79.18229Q236.20312 78.604164 236.67188 78.041664Q237.15625 77.479164 238.0625 76.74479Q239.46875 75.58854 239.95312 74.916664Q240.45312 74.24479 240.45312 73.65104Q240.45312 73.02604 240.0 72.604164Q239.54688 72.166664 238.82812 72.166664Q238.0625 72.166664 237.60938 72.61979Q237.15625 73.072914 237.14062 73.885414L236.0625 73.77604Q236.17188 72.55729 236.89062 71.93229Q237.625 71.291664 238.85938 71.291664Q240.09375 71.291664 240.8125 71.979164Q241.53125 72.666664 241.53125 73.68229Q241.53125 74.197914 241.3125 74.697914Q241.10938 75.18229 240.60938 75.74479Q240.125 76.291664 239.0 77.24479Q238.04688 78.041664 237.76562 78.33854Q237.5 78.61979 237.32812 78.90104L241.54688 78.90104ZM243.0 77.666664L244.10938 77.572914Q244.23438 78.385414 244.67188 78.791664Q245.125 79.197914 245.76562 79.197914Q246.51562 79.197914 247.04688 78.61979Q247.57812 78.041664 247.57812 77.104164Q247.57812 76.197914 247.0625 75.68229Q246.5625 75.15104 245.73438 75.15104Q245.23438 75.15104 244.8125 75.385414Q244.40625 75.61979 244.17188 75.979164L243.1875 75.854164L244.01562 71.447914L248.29688 71.447914L248.29688 72.447914L244.85938 72.447914L244.40625 74.760414Q245.17188 74.21354 246.01562 74.21354Q247.14062 74.21354 247.90625 74.99479Q248.6875 75.77604 248.6875 77.010414Q248.6875 78.166664 248.01562 79.02604Q247.1875 80.05729 245.76562 80.05729Q244.59375 80.05729 243.84375 79.40104Q243.10938 78.74479 243.0 77.666664ZM255.46875 73.43229L254.42188 73.510414Q254.28125 72.885414 254.03125 72.604164Q253.59375 72.15104 252.96875 72.15104Q252.46875 72.15104 252.07812 72.43229Q251.59375 72.80729 251.29688 73.510414Q251.01562 74.197914 251.0 75.479164Q251.375 74.90104 251.92188 74.61979Q252.48438 74.33854 253.09375 74.33854Q254.14062 74.33854 254.875 75.11979Q255.625 75.90104 255.625 77.11979Q255.625 77.93229 255.26562 78.635414Q254.92188 79.322914 254.3125 79.697914Q253.70312 80.05729 252.9375 80.05729Q251.60938 80.05729 250.78125 79.08854Q249.95312 78.11979 249.95312 75.90104Q249.95312 73.40104 250.875 72.27604Q251.67188 71.291664 253.03125 71.291664Q254.04688 71.291664 254.6875 71.86979Q255.34375 72.43229 255.46875 73.43229ZM251.17188 77.135414Q251.17188 77.68229 251.39062 78.18229Q251.625 78.666664 252.03125 78.93229Q252.45312 79.197914 252.92188 79.197914Q253.57812 79.197914 254.0625 78.666664Q254.54688 78.11979 254.54688 77.197914Q254.54688 76.30729 254.0625 75.791664Q253.59375 75.27604 252.875 75.27604Q252.15625 75.27604 251.65625 75.791664Q251.17188 76.30729 251.17188 77.135414Z" fill-rule="nonzero"/><path fill="#1a1a1a" d="M241.54688 78.90104L241.54688 79.916664L235.85938 79.916664Q235.85938 79.541664 235.98438 79.18229Q236.20312 78.604164 236.67188 78.041664Q237.15625 77.479164 238.0625 76.74479Q239.46875 75.58854 239.95312 74.916664Q240.45312 74.24479 240.45312 73.65104Q240.45312 73.02604 240.0 72.604164Q239.54688 72.166664 238.82812 72.166664Q238.0625 72.166664 237.60938 72.61979Q237.15625 73.072914 237.14062 73.885414L236.0625 73.77604Q236.17188 72.55729 236.89062 71.93229Q237.625 71.291664 238.85938 71.291664Q240.09375 71.291664 240.8125 71.979164Q241.53125 72.666664 241.53125 73.68229Q241.53125 74.197914 241.3125 74.697914Q241.10938 75.18229 240.60938 75.74479Q240.125 76.291664 239.0 77.24479Q238.04688 78.041664 237.76562 78.33854Q237.5 78.61979 237.32812 78.90104L241.54688 78.90104ZM243.0 77.666664L244.10938 77.572914Q244.23438 78.385414 244.67188 78.791664Q245.125 79.197914 245.76562 79.197914Q246.51562 79.197914 247.04688 78.61979Q247.57812 78.041664 247.57812 77.104164Q247.57812 76.197914 247.0625 75.68229Q246.5625 75.15104 245.73438 75.15104Q245.23438 75.15104 244.8125 75.385414Q244.40625 75.61979 244.17188 75.979164L243.1875 75.854164L244.01562 71.447914L248.29688 71.447914L248.29688 72.447914L244.85938 72.447914L244.40625 74.760414Q245.17188 74.21354 246.01562 74.21354Q247.14062 74.21354 247.90625 74.99479Q248.6875 75.77604 248.6875 77.010414Q248.6875 78.166664 248.01562 79.02604Q247.1875 80.05729 245.76562 80.05729Q244.59375 80.05729 243.84375 79.40104Q243.10938 78.74479 243.0 77.666664ZM255.46875 73.43229L254.42188 73.510414Q254.28125 72.885414 254.03125 72.604164Q253.59375 72.15104 252.96875 72.15104Q252.46875 72.15104 252.07812 72.43229Q251.59375 72.80729 251.29688 73.510414Q251.01562 74.197914 251.0 75.479164Q251.375 74.90104 251.92188 74.61979Q252.48438 74.33854 253.09375 74.33854Q254.14062 74.33854 254.875 75.11979Q255.625 75.90104 255.625 77.11979Q255.625 77.93229 255.26562 78.635414Q254.92188 79.322914 254.3125 79.697914Q253.70312 80.05729 252.9375 80.05729Q251.60938 80.05729 250.78125 79.08854Q249.95312 78.11979 249.95312 75.90104Q249.95312 73.40104 250.875 72.27604Q251.67188 71.291664 253.03125 71.291664Q254.04688 71.291664 254.6875 71.86979Q255.34375 72.43229 255.46875 73.43229ZM251.17188 77.135414Q251.17188 77.68229 251.39062 78.18229Q251.625 78.666664 252.03125 78.93229Q252.45312 79.197914 252.92188 79.197914Q253.57812 79.197914 254.0625 78.666664Q254.54688 78.11979 254.54688 77.197914Q254.54688 76.30729 254.0625 75.791664Q253.59375 75.27604 252.875 75.27604Q252.15625 75.27604 251.65625 75.791664Q251.17188 76.30729 251.17188 77.135414Z" fill-rule="nonzero"/><path fill="#fbbc04" d="M272.5 70.916664C272.5 70.36438 272.94772 69.916664 273.5 69.916664L283.5 69.916664C284.05228 69.916664 284.5 70.36438 284.5 70.916664L284.5 80.916664C284.5 81.46895 284.05228 81.916664 283.5 81.916664L273.5 81.916664C272.94772 81.916664 272.5 81.46895 272.5 80.916664Z" fill-rule="nonzero"/><path stroke="#ffffff" stroke-width="3.0" stroke-linejoin="round" stroke-linecap="round" d="M293.0 77.666664L294.10938 77.572914Q294.23438 78.385414 294.67188 78.791664Q295.125 79.197914 295.76562 79.197914Q296.51562 79.197914 297.04688 78.61979Q297.57812 78.041664 297.57812 77.104164Q297.57812 76.197914 297.0625 75.68229Q296.5625 75.15104 295.73438 75.15104Q295.23438 75.15104 294.8125 75.385414Q294.40625 75.61979 294.17188 75.979164L293.1875 75.854164L294.01562 71.447914L298.29688 71.447914L298.29688 72.447914L294.85938 72.447914L294.40625 74.760414Q295.17188 74.21354 296.01562 74.21354Q297.14062 74.21354 297.90625 74.99479Q298.6875 75.77604 298.6875 77.010414Q298.6875 78.166664 298.01562 79.02604Q297.1875 80.05729 295.76562 80.05729Q294.59375 80.05729 293.84375 79.40104Q293.10938 78.74479 293.0 77.666664ZM303.96875 79.916664L302.92188 79.916664L302.92188 73.197914Q302.53125 73.55729 301.90625 73.93229Q301.29688 74.291664 300.8125 74.46354L300.8125 73.447914Q301.6875 73.02604 302.34375 72.447914Q303.01562 71.854164 303.29688 71.291664L303.96875 71.291664L303.96875 79.916664ZM312.54688 78.90104L312.54688 79.916664L306.85938 79.916664Q306.85938 79.541664 306.98438 79.18229Q307.20312 78.604164 307.67188 78.041664Q308.15625 77.479164 309.0625 76.74479Q310.46875 75.58854 310.95312 74.916664Q311.45312 74.24479 311.45312 73.65104Q311.45312 73.02604 311.0 72.604164Q310.54688 72.166664 309.82812 72.166664Q309.0625 72.166664 308.60938 72.61979Q308.15625 73.072914 308.14062 73.885414L307.0625 73.77604Q307.17188 72.55729 307.89062 71.93229Q308.625 71.291664 309.85938 71.291664Q311.09375 71.291664 311.8125 71.979164Q312.53125 72.666664 312.53125 73.68229Q312.53125 74.197914 312.3125 74.697914Q312.10938 75.18229 311.60938 75.74479Q311.125 76.291664 310.0 77.24479Q309.04688 78.041664 308.76562 78.33854Q308.5 78.61979 308.32812 78.90104L312.54688 78.90104Z" fill-rule="nonzero"/><path fill="#1a1a1a" d="M293.0 77.666664L294.10938 77.572914Q294.23438 78.385414 294.67188 78.791664Q295.125 79.197914 295.76562 79.197914Q296.51562 79.197914 297.04688 78.61979Q297.57812 78.041664 297.57812 77.104164Q297.57812 76.197914 297.0625 75.68229Q296.5625 75.15104 295.73438 75.15104Q295.23438 75.15104 294.8125 75.385414Q294.40625 75.61979 294.17188 75.979164L293.1875 75.854164L294.01562 71.447914L298.29688 71.447914L298.29688 72.447914L294.85938 72.447914L294.40625 74.760414Q295.17188 74.21354 296.01562 74.21354Q297.14062 74.21354 297.90625 74.99479Q298.6875 75.77604 298.6875 77.010414Q298.6875 78.166664 298.01562 79.02604Q297.1875 80.05729 295.76562 80.05729Q294.59375 80.05729 293.84375 79.40104Q293.10938 78.74479 293.0 77.666664ZM303.96875 79.916664L302.92188 79.916664L302.92188 73.197914Q302.53125 73.55729 301.90625 73.93229Q301.29688 74.291664 300.8125 74.46354L300.8125 73.447914Q301.6875 73.02604 302.34375 72.447914Q303.01562 71.854164 303.29688 71.291664L303.96875 71.291664L303.96875 79.916664ZM312.54688 78.90104L312.54688 79.916664L306.85938 79.916664Q306.85938 79.541664 306.98438 79.18229Q307.20312 78.604164 307.67188 78.041664Q308.15625 77.479164 309.0625 76.74479Q310.46875 75.58854 310.95312 74.916664Q311.45312 74.24479 311.45312 73.65104Q311.45312 73.02604 311.0 72.604164Q310.54688 72.166664 309.82812 72.166664Q309.0625 72.166664 308.60938 72.61979Q308.15625 73.072914 308.14062 73.885414L307.0625 73.77604Q307.17188 72.55729 307.89062 71.93229Q308.625 71.291664 309.85938 71.291664Q311.09375 71.291664 311.8125 71.979164Q312.53125 72.666664 312.53125 73.68229Q312.53125 74.197914 312.3125 74.697914Q312.10938 75.18229 311.60938 75.74479Q311.125 76.291664 310.0 77.24479Q309.04688 78.041664 308.76562 78.33854Q308.5 78.61979 308.32812 78.90104L312.54688 78.90104Z" fill-rule="nonzero"/><path fill="#34a853" d="M329.5 70.916664C329.5 70.36438 329.94772 69.916664 330.5 69.916664L340.5 69.916664C341.05228 69.916664 341.5 70.36438 341.5 70.916664L341.5 80.916664C341.5 81.46895 341.05228 81.916664 340.5 81.916664L330.5 81.916664C329.94772 81.916664 329.5 81.46895 329.5 80.916664Z" fill-rule="nonzero"/><path stroke="#ffffff" stroke-width="3.0" stroke-linejoin="round" stroke-linecap="round" d="M353.96875 79.916664L352.92188 79.916664L352.92188 73.197914Q352.53125 73.55729 351.90625 73.93229Q351.29688 74.291664 350.8125 74.46354L350.8125 73.447914Q351.6875 73.02604 352.34375 72.447914Q353.01562 71.854164 353.29688 71.291664L353.96875 71.291664L353.96875 79.916664ZM357.0 75.68229Q357.0 74.15104 357.3125 73.229164Q357.625 72.291664 358.23438 71.791664Q358.85938 71.291664 359.79688 71.291664Q360.48438 71.291664 361.0 71.572914Q361.53125 71.854164 361.875 72.385414Q362.21875 72.90104 362.40625 73.65104Q362.59375 74.40104 362.59375 75.68229Q362.59375 77.197914 362.28125 78.11979Q361.98438 79.041664 361.35938 79.55729Q360.75 80.05729 359.79688 80.05729Q358.5625 80.05729 357.84375 79.166664Q357.0 78.104164 357.0 75.68229ZM358.07812 75.68229Q358.07812 77.791664 358.57812 78.49479Q359.07812 79.197914 359.79688 79.197914Q360.53125 79.197914 361.01562 78.49479Q361.51562 77.791664 361.51562 75.68229Q361.51562 73.55729 361.01562 72.86979Q360.53125 72.166664 359.78125 72.166664Q359.0625 72.166664 358.625 72.77604Q358.07812 73.55729 358.07812 75.68229ZM369.54688 78.90104L369.54688 79.916664L363.85938 79.916664Q363.85938 79.541664 363.98438 79.18229Q364.20312 78.604164 364.67188 78.041664Q365.15625 77.479164 366.0625 76.74479Q367.46875 75.58854 367.95312 74.916664Q368.45312 74.24479 368.45312 73.65104Q368.45312 73.02604 368.0 72.604164Q367.54688 72.166664 366.82812 72.166664Q366.0625 72.166664 365.60938 72.61979Q365.15625 73.072914 365.14062 73.885414L364.0625 73.77604Q364.17188 72.55729 364.89062 71.93229Q365.625 71.291664 366.85938 71.291664Q368.09375 71.291664 368.8125 71.979164Q369.53125 72.666664 369.53125 73.68229Q369.53125 74.197914 369.3125 74.697914Q369.10938 75.18229 368.60938 75.74479Q368.125 76.291664 367.0 77.24479Q366.04688 78.041664 365.76562 78.33854Q365.5 78.61979 365.32812 78.90104L369.54688 78.90104ZM374.375 79.916664L374.375 77.854164L370.65625 77.854164L370.65625 76.885414L374.57812 71.322914L375.4375 71.322914L375.4375 76.885414L376.59375 76.885414L376.59375 77.854164L375.4375 77.854164L375.4375 79.916664L374.375 79.916664ZM374.375 76.885414L374.375 73.02604L371.6875 76.885414L374.375 76.885414Z" fill-rule="nonzero"/><path fill="#1a1a1a" d="M353.96875 79.916664L352.92188 79.916664L352.92188 73.197914Q352.53125 73.55729 351.90625 73.93229Q351.29688 74.291664 350.8125 74.46354L350.8125 73.447914Q351.6875 73.02604 352.34375 72.447914Q353.01562 71.854164 353.29688 71.291664L353.96875 71.291664L353.96875 79.916664ZM357.0 75.68229Q357.0 74.15104 357.3125 73.229164Q357.625 72.291664 358.23438 71.791664Q358.85938 71.291664 359.79688 71.291664Q360.48438 71.291664 361.0 71.572914Q361.53125 71.854164 361.875 72.385414Q362.21875 72.90104 362.40625 73.65104Q362.59375 74.40104 362.59375 75.68229Q362.59375 77.197914 362.28125 78.11979Q361.98438 79.041664 361.35938 79.55729Q360.75 80.05729 359.79688 80.05729Q358.5625 80.05729 357.84375 79.166664Q357.0 78.104164 357.0 75.68229ZM358.07812 75.68229Q358.07812 77.791664 358.57812 78.49479Q359.07812 79.197914 359.79688 79.197914Q360.53125 79.197914 361.01562 78.49479Q361.51562 77.791664 361.51562 75.68229Q361.51562 73.55729 361.01562 72.86979Q360.53125 72.166664 359.78125 72.166664Q359.0625 72.166664 358.625 72.77604Q358.07812 73.55729 358.07812 75.68229ZM369.54688 78.90104L369.54688 79.916664L363.85938 79.916664Q363.85938 79.541664 363.98438 79.18229Q364.20312 78.604164 364.67188 78.041664Q365.15625 77.479164 366.0625 76.74479Q367.46875 75.58854 367.95312 74.916664Q368.45312 74.24479 368.45312 73.65104Q368.45312 73.02604 368.0 72.604164Q367.54688 72.166664 366.82812 72.166664Q366.0625 72.166664 365.60938 72.61979Q365.15625 73.072914 365.14062 73.885414L364.0625 73.77604Q364.17188 72.55729 364.89062 71.93229Q365.625 71.291664 366.85938 71.291664Q368.09375 71.291664 368.8125 71.979164Q369.53125 72.666664 369.53125 73.68229Q369.53125 74.197914 369.3125 74.697914Q369.10938 75.18229 368.60938 75.74479Q368.125 76.291664 367.0 77.24479Q366.04688 78.041664 365.76562 78.33854Q365.5 78.61979 365.32812 78.90104L369.54688 78.90104ZM374.375 79.916664L374.375 77.854164L370.65625 77.854164L370.65625 76.885414L374.57812 71.322914L375.4375 71.322914L375.4375 76.885414L376.59375 76.885414L376.59375 77.854164L375.4375 77.854164L375.4375 79.916664L374.375 79.916664ZM374.375 76.885414L374.375 73.02604L371.6875 76.885414L374.375 76.885414Z" fill-rule="nonzero"/><path fill="#ff6d01" d="M393.5 70.916664C393.5 70.36438 393.94772 69.916664 394.5 69.916664L404.5 69.916664C405.05228 69.916664 405.5 70.36438 405.5 70.916664L405.5 80.916664C405.5 81.46895 405.05228 81.916664 404.5 81.916664L394.5 81.916664C393.94772 81.916664 393.5 81.46895 393.5 80.916664Z" fill-rule="nonzero"/><path stroke="#ffffff" stroke-width="3.0" stroke-linejoin="round" stroke-linecap="round" d="M419.54688 78.90104L419.54688 79.916664L413.85938 79.916664Q413.85938 79.541664 413.98438 79.18229Q414.20312 78.604164 414.67188 78.041664Q415.15625 77.479164 416.0625 76.74479Q417.46875 75.58854 417.95312 74.916664Q418.45312 74.24479 418.45312 73.65104Q418.45312 73.02604 418.0 72.604164Q417.54688 72.166664 416.82812 72.166664Q416.0625 72.166664 415.60938 72.61979Q415.15625 73.072914 415.14062 73.885414L414.0625 73.77604Q414.17188 72.55729 414.89062 71.93229Q415.625 71.291664 416.85938 71.291664Q418.09375 71.291664 418.8125 71.979164Q419.53125 72.666664 419.53125 73.68229Q419.53125 74.197914 419.3125 74.697914Q419.10938 75.18229 418.60938 75.74479Q418.125 76.291664 417.0 77.24479Q416.04688 78.041664 415.76562 78.33854Q415.5 78.61979 415.32812 78.90104L419.54688 78.90104ZM421.0 75.68229Q421.0 74.15104 421.3125 73.229164Q421.625 72.291664 422.23438 71.791664Q422.85938 71.291664 423.79688 71.291664Q424.48438 71.291664 425.0 71.572914Q425.53125 71.854164 425.875 72.385414Q426.21875 72.90104 426.40625 73.65104Q426.59375 74.40104 426.59375 75.68229Q426.59375 77.197914 426.28125 78.11979Q425.98438 79.041664 425.35938 79.55729Q424.75 80.05729 423.79688 80.05729Q422.5625 80.05729 421.84375 79.166664Q421.0 78.104164 421.0 75.68229ZM422.07812 75.68229Q422.07812 77.791664 422.57812 78.49479Q423.07812 79.197914 423.79688 79.197914Q424.53125 79.197914 425.01562 78.49479Q425.51562 77.791664 425.51562 75.68229Q425.51562 73.55729 425.01562 72.86979Q424.53125 72.166664 423.78125 72.166664Q423.0625 72.166664 422.625 72.77604Q422.07812 73.55729 422.07812 75.68229ZM431.375 79.916664L431.375 77.854164L427.65625 77.854164L427.65625 76.885414L431.57812 71.322914L432.4375 71.322914L432.4375 76.885414L433.59375 76.885414L433.59375 77.854164L432.4375 77.854164L432.4375 79.916664L431.375 79.916664ZM431.375 76.885414L431.375 73.02604L428.6875 76.885414L431.375 76.885414ZM436.625 75.260414Q435.96875 75.010414 435.64062 74.572914Q435.32812 74.11979 435.32812 73.510414Q435.32812 72.572914 436.0 71.93229Q436.6875 71.291664 437.79688 71.291664Q438.92188 71.291664 439.60938 71.947914Q440.29688 72.604164 440.29688 73.541664Q440.29688 74.135414 439.98438 74.572914Q439.67188 75.010414 439.03125 75.260414Q439.82812 75.510414 440.23438 76.08854Q440.64062 76.666664 440.64062 77.46354Q440.64062 78.55729 439.85938 79.30729Q439.09375 80.05729 437.8125 80.05729Q436.54688 80.05729 435.76562 79.30729Q434.98438 78.55729 434.98438 77.43229Q434.98438 76.58854 435.40625 76.02604Q435.84375 75.46354 436.625 75.260414ZM436.40625 73.46354Q436.40625 74.072914 436.79688 74.46354Q437.20312 74.854164 437.82812 74.854164Q438.4375 74.854164 438.82812 74.479164Q439.21875 74.08854 439.21875 73.52604Q439.21875 72.947914 438.8125 72.55729Q438.40625 72.15104 437.8125 72.15104Q437.20312 72.15104 436.79688 72.541664Q436.40625 72.93229 436.40625 73.46354ZM436.07812 77.43229Q436.07812 77.885414 436.28125 78.30729Q436.5 78.729164 436.92188 78.96354Q437.34375 79.197914 437.82812 79.197914Q438.57812 79.197914 439.0625 78.71354Q439.5625 78.229164 439.5625 77.479164Q439.5625 76.71354 439.0625 76.21354Q438.5625 75.71354 437.79688 75.71354Q437.04688 75.71354 436.5625 76.21354Q436.07812 76.697914 436.07812 77.43229Z" fill-rule="nonzero"/><path fill="#1a1a1a" d="M419.54688 78.90104L419.54688 79.916664L413.85938 79.916664Q413.85938 79.541664 413.98438 79.18229Q414.20312 78.604164 414.67188 78.041664Q415.15625 77.479164 416.0625 76.74479Q417.46875 75.58854 417.95312 74.916664Q418.45312 74.24479 418.45312 73.65104Q418.45312 73.02604 418.0 72.604164Q417.54688 72.166664 416.82812 72.166664Q416.0625 72.166664 415.60938 72.61979Q415.15625 73.072914 415.14062 73.885414L414.0625 73.77604Q414.17188 72.55729 414.89062 71.93229Q415.625 71.291664 416.85938 71.291664Q418.09375 71.291664 418.8125 71.979164Q419.53125 72.666664 419.53125 73.68229Q419.53125 74.197914 419.3125 74.697914Q419.10938 75.18229 418.60938 75.74479Q418.125 76.291664 417.0 77.24479Q416.04688 78.041664 415.76562 78.33854Q415.5 78.61979 415.32812 78.90104L419.54688 78.90104ZM421.0 75.68229Q421.0 74.15104 421.3125 73.229164Q421.625 72.291664 422.23438 71.791664Q422.85938 71.291664 423.79688 71.291664Q424.48438 71.291664 425.0 71.572914Q425.53125 71.854164 425.875 72.385414Q426.21875 72.90104 426.40625 73.65104Q426.59375 74.40104 426.59375 75.68229Q426.59375 77.197914 426.28125 78.11979Q425.98438 79.041664 425.35938 79.55729Q424.75 80.05729 423.79688 80.05729Q422.5625 80.05729 421.84375 79.166664Q421.0 78.104164 421.0 75.68229ZM422.07812 75.68229Q422.07812 77.791664 422.57812 78.49479Q423.07812 79.197914 423.79688 79.197914Q424.53125 79.197914 425.01562 78.49479Q425.51562 77.791664 425.51562 75.68229Q425.51562 73.55729 425.01562 72.86979Q424.53125 72.166664 423.78125 72.166664Q423.0625 72.166664 422.625 72.77604Q422.07812 73.55729 422.07812 75.68229ZM431.375 79.916664L431.375 77.854164L427.65625 77.854164L427.65625 76.885414L431.57812 71.322914L432.4375 71.322914L432.4375 76.885414L433.59375 76.885414L433.59375 77.854164L432.4375 77.854164L432.4375 79.916664L431.375 79.916664ZM431.375 76.885414L431.375 73.02604L428.6875 76.885414L431.375 76.885414ZM436.625 75.260414Q435.96875 75.010414 435.64062 74.572914Q435.32812 74.11979 435.32812 73.510414Q435.32812 72.572914 436.0 71.93229Q436.6875 71.291664 437.79688 71.291664Q438.92188 71.291664 439.60938 71.947914Q440.29688 72.604164 440.29688 73.541664Q440.29688 74.135414 439.98438 74.572914Q439.67188 75.010414 439.03125 75.260414Q439.82812 75.510414 440.23438 76.08854Q440.64062 76.666664 440.64062 77.46354Q440.64062 78.55729 439.85938 79.30729Q439.09375 80.05729 437.8125 80.05729Q436.54688 80.05729 435.76562 79.30729Q434.98438 78.55729 434.98438 77.43229Q434.98438 76.58854 435.40625 76.02604Q435.84375 75.46354 436.625 75.260414ZM436.40625 73.46354Q436.40625 74.072914 436.79688 74.46354Q437.20312 74.854164 437.82812 74.854164Q438.4375 74.854164 438.82812 74.479164Q439.21875 74.08854 439.21875 73.52604Q439.21875 72.947914 438.8125 72.55729Q438.40625 72.15104 437.8125 72.15104Q437.20312 72.15104 436.79688 72.541664Q436.40625 72.93229 436.40625 73.46354ZM436.07812 77.43229Q436.07812 77.885414 436.28125 78.30729Q436.5 78.729164 436.92188 78.96354Q437.34375 79.197914 437.82812 79.197914Q438.57812 79.197914 439.0625 78.71354Q439.5625 78.229164 439.5625 77.479164Q439.5625 76.71354 439.0625 76.21354Q438.5625 75.71354 437.79688 75.71354Q437.04688 75.71354 436.5625 76.21354Q436.07812 76.697914 436.07812 77.43229Z" fill-rule="nonzero"/><path fill="#757575" d="M212.26562 32.534374L214.15625 33.003124Q213.5625 35.346874 212.01562 36.58125Q210.46875 37.8 208.21875 37.8Q205.90625 37.8 204.45312 36.8625Q203.01562 35.909374 202.25 34.128124Q201.5 32.33125 201.5 30.284374Q201.5 28.05 202.34375 26.39375Q203.20312 24.721874 204.78125 23.8625Q206.35938 22.9875 208.25 22.9875Q210.40625 22.9875 211.85938 24.08125Q213.32812 25.175 213.90625 27.159374L212.04688 27.596874Q211.54688 26.034374 210.59375 25.33125Q209.65625 24.6125 208.21875 24.6125Q206.5625 24.6125 205.45312 25.409374Q204.34375 26.190624 203.89062 27.534374Q203.45312 28.8625 203.45312 30.26875Q203.45312 32.096874 203.98438 33.471874Q204.51562 34.83125 205.64062 35.503124Q206.76562 36.175 208.0625 36.175Q209.65625 36.175 210.76562 35.253124Q211.875 34.33125 212.26562 32.534374ZM215.17188 32.3625Q215.17188 29.4875 216.76562 28.096874Q218.10938 26.940624 220.03125 26.940624Q222.17188 26.940624 223.51562 28.346874Q224.875 29.753124 224.875 32.221874Q224.875 34.221874 224.28125 35.378124Q223.6875 36.51875 222.53125 37.159374Q221.39062 37.784374 220.03125 37.784374Q217.84375 37.784374 216.5 36.39375Q215.17188 34.9875 215.17188 32.3625ZM216.96875 32.3625Q216.96875 34.3625 217.82812 35.346874Q218.70312 36.33125 220.03125 36.33125Q221.34375 36.33125 222.20312 35.346874Q223.07812 34.346874 223.07812 32.3Q223.07812 30.378124 222.20312 29.39375Q221.32812 28.39375 220.03125 28.39375Q218.70312 28.39375 217.82812 29.39375Q216.96875 30.378124 216.96875 32.3625ZM226.8125 37.55L226.8125 27.175L228.39062 27.175L228.39062 28.628124Q228.875 27.878124 229.6875 27.409374Q230.5 26.940624 231.53125 26.940624Q232.6875 26.940624 233.42188 27.425Q234.15625 27.89375 234.46875 28.753124Q235.70312 26.940624 237.67188 26.940624Q239.21875 26.940624 240.04688 27.8Q240.875 28.659374 240.875 30.425L240.875 37.55L239.125 37.55L239.125 31.01875Q239.125 29.95625 238.95312 29.503124Q238.78125 29.034374 238.32812 28.753124Q237.89062 28.471874 237.28125 28.471874Q236.1875 28.471874 235.45312 29.20625Q234.73438 29.925 234.73438 31.51875L234.73438 37.55L232.98438 37.55L232.98438 30.815624Q232.98438 29.64375 232.54688 29.065624Q232.125 28.471874 231.14062 28.471874Q230.40625 28.471874 229.76562 28.8625Q229.14062 29.253124 228.85938 30.003124Q228.57812 30.753124 228.57812 32.175L228.57812 37.55L226.8125 37.55ZM242.8125 41.51875L242.8125 27.175L244.42188 27.175L244.42188 28.51875Q244.98438 27.7375 245.6875 27.346874Q246.40625 26.940624 247.42188 26.940624Q248.75 26.940624 249.76562 27.628124Q250.78125 28.315624 251.29688 29.565624Q251.82812 30.8 251.82812 32.284374Q251.82812 33.878124 251.25 35.159374Q250.6875 36.425 249.59375 37.1125Q248.5 37.784374 247.29688 37.784374Q246.42188 37.784374 245.71875 37.409374Q245.03125 37.034374 244.57812 36.471874L244.57812 41.51875L242.8125 41.51875ZM244.40625 32.425Q244.40625 34.425 245.21875 35.378124Q246.03125 36.33125 247.1875 36.33125Q248.35938 36.33125 249.1875 35.346874Q250.03125 34.3625 250.03125 32.26875Q250.03125 30.3 249.20312 29.315624Q248.39062 28.315624 247.26562 28.315624Q246.14062 28.315624 245.26562 29.378124Q244.40625 30.425 244.40625 32.425ZM260.60938 37.55L260.60938 36.01875Q259.40625 37.784374 257.32812 37.784374Q256.40625 37.784374 255.60938 37.440624Q254.8125 37.08125 254.42188 36.55Q254.04688 36.01875 253.89062 35.2375Q253.78125 34.721874 253.78125 33.596874L253.78125 27.175L255.53125 27.175L255.53125 32.925Q255.53125 34.3 255.64062 34.784374Q255.8125 35.471874 256.34375 35.878124Q256.89062 36.26875 257.67188 36.26875Q258.46875 36.26875 259.15625 35.8625Q259.85938 35.45625 260.14062 34.76875Q260.4375 34.065624 260.4375 32.7375L260.4375 27.175L262.1875 27.175L262.1875 37.55L260.60938 37.55ZM267.65625 35.971874L267.90625 37.534374Q267.17188 37.690624 266.57812 37.690624Q265.625 37.690624 265.09375 37.39375Q264.57812 37.08125 264.35938 36.596874Q264.14062 36.096874 264.14062 34.51875L264.14062 28.55L262.85938 28.55L262.85938 27.175L264.14062 27.175L264.14062 24.6125L265.89062 23.55L265.89062 27.175L267.65625 27.175L267.65625 28.55L265.89062 28.55L265.89062 34.6125Q265.89062 35.3625 265.98438 35.58125Q266.07812 35.784374 266.28125 35.925Q266.5 36.05 266.89062 36.05Q267.17188 36.05 267.65625 35.971874ZM276.92188 34.20625L278.73438 34.440624Q278.3125 36.01875 277.14062 36.909374Q275.98438 37.784374 274.17188 37.784374Q271.90625 37.784374 270.5625 36.39375Q269.23438 34.9875 269.23438 32.45625Q269.23438 29.83125 270.57812 28.39375Q271.92188 26.940624 274.07812 26.940624Q276.15625 26.940624 277.46875 28.3625Q278.79688 29.76875 278.79688 32.346874Q278.79688 32.503124 278.78125 32.815624L271.04688 32.815624Q271.14062 34.51875 272.01562 35.425Q272.89062 36.33125 274.1875 36.33125Q275.15625 36.33125 275.82812 35.83125Q276.51562 35.315624 276.92188 34.20625ZM271.14062 31.3625L276.9375 31.3625Q276.82812 30.065624 276.28125 29.409374Q275.4375 28.39375 274.09375 28.39375Q272.89062 28.39375 272.0625 29.20625Q271.23438 30.003124 271.14062 31.3625ZM286.98438 37.55L286.98438 23.2375L289.84375 23.2375L293.21875 33.3625Q293.6875 34.784374 293.90625 35.4875Q294.15625 34.70625 294.67188 33.190624L298.09375 23.2375L300.64062 23.2375L300.64062 37.55L298.82812 37.55L298.82812 25.565624L294.65625 37.55L292.95312 37.55L288.8125 25.3625L288.8125 37.55L286.98438 37.55ZM310.92188 34.20625L312.73438 34.440624Q312.3125 36.01875 311.14062 36.909374Q309.98438 37.784374 308.17188 37.784374Q305.90625 37.784374 304.5625 36.39375Q303.23438 34.9875 303.23438 32.45625Q303.23438 29.83125 304.57812 28.39375Q305.92188 26.940624 308.07812 26.940624Q310.15625 26.940624 311.46875 28.3625Q312.79688 29.76875 312.79688 32.346874Q312.79688 32.503124 312.78125 32.815624L305.04688 32.815624Q305.14062 34.51875 306.01562 35.425Q306.89062 36.33125 308.1875 36.33125Q309.15625 36.33125 309.82812 35.83125Q310.51562 35.315624 310.92188 34.20625ZM305.14062 31.3625L310.9375 31.3625Q310.82812 30.065624 310.28125 29.409374Q309.4375 28.39375 308.09375 28.39375Q306.89062 28.39375 306.0625 29.20625Q305.23438 30.003124 305.14062 31.3625ZM318.65625 35.971874L318.90625 37.534374Q318.17188 37.690624 317.57812 37.690624Q316.625 37.690624 316.09375 37.39375Q315.57812 37.08125 315.35938 36.596874Q315.14062 36.096874 315.14062 34.51875L315.14062 28.55L313.85938 28.55L313.85938 27.175L315.14062 27.175L315.14062 24.6125L316.89062 23.55L316.89062 27.175L318.65625 27.175L318.65625 28.55L316.89062 28.55L316.89062 34.6125Q316.89062 35.3625 316.98438 35.58125Q317.07812 35.784374 317.28125 35.925Q317.5 36.05 317.89062 36.05Q318.17188 36.05 318.65625 35.971874ZM320.79688 37.55L320.79688 27.175L322.375 27.175L322.375 28.753124Q322.98438 27.64375 323.5 27.3Q324.01562 26.940624 324.625 26.940624Q325.51562 26.940624 326.4375 27.503124L325.82812 29.14375Q325.1875 28.753124 324.54688 28.753124Q323.96875 28.753124 323.5 29.1125Q323.04688 29.45625 322.84375 30.065624Q322.5625 31.003124 322.5625 32.1125L322.5625 37.55L320.79688 37.55ZM327.82812 25.253124L327.82812 23.2375L329.59375 23.2375L329.59375 25.253124L327.82812 25.253124ZM327.82812 37.55L327.82812 27.175L329.59375 27.175L329.59375 37.55L327.82812 37.55ZM338.59375 33.753124L340.3125 33.971874Q340.03125 35.76875 338.85938 36.784374Q337.70312 37.784374 336.0 37.784374Q333.875 37.784374 332.57812 36.39375Q331.28125 35.003124 331.28125 32.409374Q331.28125 30.721874 331.82812 29.471874Q332.39062 28.20625 333.53125 27.58125Q334.67188 26.940624 336.01562 26.940624Q337.70312 26.940624 338.76562 27.8Q339.84375 28.659374 340.15625 30.221874L338.4375 30.4875Q338.20312 29.440624 337.57812 28.925Q336.95312 28.39375 336.07812 28.39375Q334.75 28.39375 333.92188 29.346874Q333.09375 30.3 333.09375 32.346874Q333.09375 34.440624 333.89062 35.39375Q334.6875 36.33125 335.98438 36.33125Q337.01562 36.33125 337.70312 35.70625Q338.40625 35.065624 338.59375 33.753124ZM351.6875 37.55L351.6875 24.925L346.96875 24.925L346.96875 23.2375L358.3125 23.2375L358.3125 24.925L353.57812 24.925L353.57812 37.55L351.6875 37.55ZM359.82812 25.253124L359.82812 23.2375L361.59375 23.2375L361.59375 25.253124L359.82812 25.253124ZM359.82812 37.55L359.82812 27.175L361.59375 27.175L361.59375 37.55L359.82812 37.55ZM363.8125 37.55L363.8125 27.175L365.39062 27.175L365.39062 28.628124Q365.875 27.878124 366.6875 27.409374Q367.5 26.940624 368.53125 26.940624Q369.6875 26.940624 370.42188 27.425Q371.15625 27.89375 371.46875 28.753124Q372.70312 26.940624 374.67188 26.940624Q376.21875 26.940624 377.04688 27.8Q377.875 28.659374 377.875 30.425L377.875 37.55L376.125 37.55L376.125 31.01875Q376.125 29.95625 375.95312 29.503124Q375.78125 29.034374 375.32812 28.753124Q374.89062 28.471874 374.28125 28.471874Q373.1875 28.471874 372.45312 29.20625Q371.73438 29.925 371.73438 31.51875L371.73438 37.55L369.98438 37.55L369.98438 30.815624Q369.98438 29.64375 369.54688 29.065624Q369.125 28.471874 368.14062 28.471874Q367.40625 28.471874 366.76562 28.8625Q366.14062 29.253124 365.85938 30.003124Q365.57812 30.753124 365.57812 32.175L365.57812 37.55L363.8125 37.55ZM386.92188 34.20625L388.73438 34.440624Q388.3125 36.01875 387.14062 36.909374Q385.98438 37.784374 384.17188 37.784374Q381.90625 37.784374 380.5625 36.39375Q379.23438 34.9875 379.23438 32.45625Q379.23438 29.83125 380.57812 28.39375Q381.92188 26.940624 384.07812 26.940624Q386.15625 26.940624 387.46875 28.3625Q388.79688 29.76875 388.79688 32.346874Q388.79688 32.503124 388.78125 32.815624L381.04688 32.815624Q381.14062 34.51875 382.01562 35.425Q382.89062 36.33125 384.1875 36.33125Q385.15625 36.33125 385.82812 35.83125Q386.51562 35.315624 386.92188 34.20625ZM381.14062 31.3625L386.9375 31.3625Q386.82812 30.065624 386.28125 29.409374Q385.4375 28.39375 384.09375 28.39375Q382.89062 28.39375 382.0625 29.20625Q381.23438 30.003124 381.14062 31.3625ZM390.10938 34.45625L391.85938 34.175Q392.0 35.221874 392.67188 35.784374Q393.34375 36.33125 394.54688 36.33125Q395.75 36.33125 396.32812 35.846874Q396.92188 35.346874 396.92188 34.690624Q396.92188 34.096874 396.40625 33.753124Q396.04688 33.51875 394.60938 33.159374Q392.67188 32.659374 391.92188 32.315624Q391.1875 31.95625 390.79688 31.33125Q390.40625 30.690624 390.40625 29.925Q390.40625 29.2375 390.71875 28.64375Q391.04688 28.05 391.59375 27.659374Q392.0 27.3625 392.70312 27.159374Q393.42188 26.940624 394.23438 26.940624Q395.45312 26.940624 396.375 27.3Q397.29688 27.64375 397.73438 28.253124Q398.17188 28.846874 398.34375 29.846874L396.625 30.08125Q396.5 29.284374 395.9375 28.846874Q395.375 28.39375 394.35938 28.39375Q393.14062 28.39375 392.625 28.8Q392.10938 29.190624 392.10938 29.721874Q392.10938 30.065624 392.32812 30.346874Q392.53125 30.628124 393.0 30.815624Q393.26562 30.909374 394.54688 31.253124Q396.42188 31.753124 397.15625 32.08125Q397.89062 32.39375 398.3125 33.003124Q398.73438 33.596874 398.73438 34.503124Q398.73438 35.378124 398.21875 36.159374Q397.70312 36.940624 396.73438 37.3625Q395.76562 37.784374 394.54688 37.784374Q392.53125 37.784374 391.46875 36.940624Q390.40625 36.096874 390.10938 34.45625Z" fill-rule="nonzero"/></svg>