<svg version="1.1" viewBox="0.0 0.0 600.0 371.0" fill="none" stroke="none" stroke-linecap="square" stroke-miterlimit="10" width="600" height="371" xmlns:xlink="http://www.w3.org/1999/xlink" xmlns="http://www.w3.org/2000/svg"><path fill="#ffffff" d="M0 0L600.0 0L600.0 371.0L0 371.0L0 0Z" fill-rule="nonzero"/><path stroke="#333333" stroke-width="1.0" stroke-linecap="butt" d="M84.5 300.5L581.5 300.5" fill-rule="nonzero"/><path stroke="#cccccc" stroke-width="1.0" stroke-linecap="butt" d="M84.5 229.5L581.5 229.5" fill-rule="nonzero"/><path stroke="#cccccc" stroke-width="1.0" stroke-linecap="butt" d="M84.5 159.5L581.5 159.5" fill-rule="nonzero"/><path stroke="#cccccc" stroke-width="1.0" stroke-linecap="butt" d="M84.5 88.5L581.5 88.5" fill-rule="nonzero"/><clipPath id="id_0"><path d="M84.55 88.28333L581.45 88.28333L581.45 300.45L84.55 300.45L84.55 88.28333Z" clip-rule="nonzero"/></clipPath><path stroke="#000000" stroke-width="2.0" stroke-linecap="butt" stroke-opacity="0.0" clip-path="url(#id_0)" d="M121.0 300.0L113.0 300.0L113.0 229.0C113.0 227.89543 113.89543 227.0 115.0 227.0L119.0 227.0C120.10457 227.0 121.0 227.89543 121.0 229.0Z" fill-rule="nonzero"/><path fill="#4285f4" clip-path="url(#id_0)" d="M121.0 300.0L113.0 300.0L113.0 229.0C113.0 227.89543 113.89543 227.0 115.0 227.0L119.0 227.0C120.10457 227.0 121.0 227.89543 121.0 229.0Z" fill-rule="nonzero"/><path stroke="#000000" stroke-width="2.0" stroke-linecap="butt" stroke-opacity="0.0" clip-path="url(#id_0)" d="M200.0 300.0L192.0 300.0L192.0 224.0C192.0 222.89543 192.89543 222.0 194.0 222.0L198.0 222.0C199.10457 222.0 200.0 222.89543 200.0 224.0Z" fill-rule="nonzero"/><path fill="#4285f4" clip-path="url(#id_0)" d="M200.0 300.0L192.0 300.0L192.0 224.0C192.0 222.89543 192.89543 222.0 194.0 222.0L198.0 222.0C199.10457 222.0 200.0 222.89543 200.0 224.0Z" fill-rule="nonzero"/><path stroke="#000000" stroke-width="2.0" stroke-linecap="butt" stroke-opacity="0.0" clip-path="url(#id_0)" d="M278.0 300.0L270.0 300.0L270.0 224.0C270.0 222.89543 270.89542 222.0 272.0 222.0L276.0 222.0C277.10458 222.0 278.0 222.89543 278.0 224.0Z" fill-rule="nonzero"/><path fill="#4285f4" clip-path="url(#id_0)" d="M278.0 300.0L270.0 300.0L270.0 224.0C270.0 222.89543 270.89542 222.0 272.0 222.0L276.0 222.0C277.10458 222.0 278.0 222.89543 278.0 224.0Z" fill-rule="nonzero"/><path stroke="#000000" stroke-width="2.0" stroke-linecap="butt" stroke-opacity="0.0" clip-path="url(#id_0)" d="M356.0 300.0L348.0 300.0L348.0 170.0C348.0 168.89543 348.89542 168.0 350.0 168.0L354.0 168.0C355.10458 168.0 356.0 168.89543 356.0 170.0Z" fill-rule="nonzero"/><path fill="#4285f4" clip-path="url(#id_0)" d="M356.0 300.0L348.0 300.0L348.0 170.0C348.0 168.89543 348.89542 168.0 350.0 168.0L354.0 168.0C355.10458 168.0 356.0 168.89543 356.0 170.0Z" fill-rule="nonzero"/><path stroke="#000000" stroke-width="2.0" stroke-linecap="butt" stroke-opacity="0.0" clip-path="url(#id_0)" d="M434.0 300.0L426.0 300.0L426.0 134.0C426.0 132.89543 426.89542 132.0 428.0 132.0L432.0 132.0C433.10458 132.0 434.0 132.89543 434.0 134.0Z" fill-rule="nonzero"/><path fill="#4285f4" clip-path="url(#id_0)" d="M434.0 300.0L426.0 300.0L426.0 134.0C426.0 132.89543 426.89542 132.0 428.0 132.0L432.0 132.0C433.10458 132.0 434.0 132.89543 434.0 134.0Z" fill-rule="nonzero"/><path stroke="#000000" stroke-width="2.0" stroke-linecap="butt" stroke-opacity="0.0" clip-path="url(#id_0)" d="M513.0 300.0L505.0 300.0L505.0 109.0C505.0 107.89543 505.89542 107.0 507.0 107.0L511.0 107.0C512.10455 107.0 513.0 107.89543 513.0 109.0Z" fill-rule="nonzero"/><path fill="#4285f4" clip-path="url(#id_0)" d="M513.0 300.0L505.0 300.0L505.0 109.0C505.0 107.89543 505.89542 107.0 507.0 107.0L511.0 107.0C512.10455 107.0 513.0 107.89543 513.0 109.0Z" fill-rule="nonzero"/><path stroke="#000000" stroke-width="2.0" stroke-linecap="butt" stroke-opacity="0.0" clip-path="url(#id_0)" d="M131.0 300.0L123.0 300.0L123.0 232.0C123.0 230.89543 123.89543 230.0 125.0 230.0L129.0 230.0C130.10457 230.0 131.0 230.89543 131.0 232.0Z" fill-rule="nonzero"/><path fill="#ea4335" clip-path="url(#id_0)" d="M131.0 300.0L123.0 300.0L123.0 232.0C123.0 230.89543 123.89543 230.0 125.0 230.0L129.0 230.0C130.10457 230.0 131.0 230.89543 131.0 232.0Z" fill-rule="nonzero"/><path stroke="#000000" stroke-width="2.0" stroke-linecap="butt" stroke-opacity="0.0" clip-path="url(#id_0)" d="M210.0 300.0L202.0 300.0L202.0 227.0C202.0 225.89543 202.89543 225.0 204.0 225.0L208.0 225.0C209.10457 225.0 210.0 225.89543 210.0 227.0Z" fill-rule="nonzero"/><path fill="#ea4335" clip-path="url(#id_0)" d="M210.0 300.0L202.0 300.0L202.0 227.0C202.0 225.89543 202.89543 225.0 204.0 225.0L208.0 225.0C209.10457 225.0 210.0 225.89543 210.0 227.0Z" fill-rule="nonzero"/><path stroke="#000000" stroke-width="2.0" stroke-linecap="butt" stroke-opacity="0.0" clip-path="url(#id_0)" d="M288.0 300.0L280.0 300.0L280.0 228.0C280.0 226.89543 280.89542 226.0 282.0 226.0L286.0 226.0C287.10458 226.0 288.0 226.89543 288.0 228.0Z" fill-rule="nonzero"/><path fill="#ea4335" clip-path="url(#id_0)" d="M288.0 300.0L280.0 300.0L280.0 228.0C280.0 226.89543 280.89542 226.0 282.0 226.0L286.0 226.0C287.10458 226.0 288.0 226.89543 288.0 228.0Z" fill-rule="nonzero"/><path stroke="#000000" stroke-width="2.0" stroke-linecap="butt" stroke-opacity="0.0" clip-path="url(#id_0)" d="M366.0 300.0L358.0 300.0L358.0 176.0C358.0 174.89543 358.89542 174.0 360.0 174.0L364.0 174.0C365.10458 174.0 366.0 174.89543 366.0 176.0Z" fill-rule="nonzero"/><path fill="#ea4335" clip-path="url(#id_0)" d="M366.0 300.0L358.0 300.0L358.0 176.0C358.0 174.89543 358.89542 174.0 360.0 174.0L364.0 174.0C365.10458 174.0 366.0 174.89543 366.0 176.0Z" fill-rule="nonzero"/><path stroke="#000000" stroke-width="2.0" stroke-linecap="butt" stroke-opacity="0.0" clip-path="url(#id_0)" d="M444.0 300.0L436.0 300.0L436.0 140.0C436.0 138.89543 436.89542 138.0 438.0 138.0L442.0 138.0C443.10458 138.0 444.0 138.89543 444.0 140.0Z" fill-rule="nonzero"/><path fill="#ea4335" clip-path="url(#id_0)" d="M444.0 300.0L436.0 300.0L436.0 140.0C436.0 138.89543 436.89542 138.0 438.0 138.0L442.0 138.0C443.10458 138.0 444.0 138.89543 444.0 140.0Z" fill-rule="nonzero"/><path stroke="#000000" stroke-width="2.0" stroke-linecap="butt" stroke-opacity="0.0" clip-path="url(#id_0)" d="M523.0 300.0L515.0 300.0L515.0 118.0C515.0 116.89543 515.89545 116.0 517.0 116.0L521.0 116.0C522.10455 116.0 523.0 116.89543 523.0 118.0Z" fill-rule="nonzero"/><path fill="#ea4335" clip-path="url(#id_0)" d="M523.0 300.0L515.0 300.0L515.0 118.0C515.0 116.89543 515.89545 116.0 517.0 116.0L521.0 116.0C522.10455 116.0 523.0 116.89543 523.0 118.0Z" fill-rule="nonzero"/><path stroke="#000000" stroke-width="2.0" stroke-linecap="butt" stroke-opacity="0.0" clip-path="url(#id_0)" d="M141.0 300.0L133.0 300.0L133.0 236.0C133.0 234.89543 133.89543 234.0 135.0 234.0L139.0 234.0C140.10457 234.0 141.0 234.89543 141.0 236.0Z" fill-rule="nonzero"/><path fill="#fbbc04" clip-path="url(#id_0)" d="M141.0 300.0L133.0 300.0L133.0 236.0C133.0 234.89543 133.89543 234.0 135.0 234.0L139.0 234.0C140.10457 234.0 141.0 234.89543 141.0 236.0Z" fill-rule="nonzero"/><path stroke="#000000" stroke-width="2.0" stroke-linecap="butt" stroke-opacity="0.0" clip-path="url(#id_0)" d="M220.0 300.0L212.0 300.0L212.0 230.0C212.0 228.89543 212.89543 228.0 214.0 228.0L218.0 228.0C219.10457 228.0 220.0 228.89543 220.0 230.0Z" fill-rule="nonzero"/><path fill="#fbbc04" clip-path="url(#id_0)" d="M220.0 300.0L212.0 300.0L212.0 230.0C212.0 228.89543 212.89543 228.0 214.0 228.0L218.0 228.0C219.10457 228.0 220.0 228.89543 220.0 230.0Z" fill-rule="nonzero"/><path stroke="#000000" stroke-width="2.0" stroke-linecap="butt" stroke-opacity="0.0" clip-path="url(#id_0)" d="M298.0 300.0L290.0 300.0L290.0 233.0C290.0 231.89543 290.89542 231.0 292.0 231.0L296.0 231.0C297.10458 231.0 298.0 231.89543 298.0 233.0Z" fill-rule="nonzero"/><path fill="#fbbc04" clip-path="url(#id_0)" d="M298.0 300.0L290.0 300.0L290.0 233.0C290.0 231.89543 290.89542 231.0 292.0 231.0L296.0 231.0C297.10458 231.0 298.0 231.89543 298.0 233.0Z" fill-rule="nonzero"/><path stroke="#000000" stroke-width="2.0" stroke-linecap="butt" stroke-opacity="0.0" clip-path="url(#id_0)" d="M376.0 300.0L368.0 300.0L368.0 190.0C368.0 188.89543 368.89542 188.0 370.0 188.0L374.0 188.0C375.10458 188.0 376.0 188.89543 376.0 190.0Z" fill-rule="nonzero"/><path fill="#fbbc04" clip-path="url(#id_0)" d="M376.0 300.0L368.0 300.0L368.0 190.0C368.0 188.89543 368.89542 188.0 370.0 188.0L374.0 188.0C375.10458 188.0 376.0 188.89543 376.0 190.0Z" fill-rule="nonzero"/><path stroke="#000000" stroke-width="2.0" stroke-linecap="butt" stroke-opacity="0.0" clip-path="url(#id_0)" d="M454.0 300.0L446.0 300.0L446.0 154.0C446.0 152.89543 446.89542 152.0 448.0 152.0L452.0 152.0C453.10458 152.0 454.0 152.89543 454.0 154.0Z" fill-rule="nonzero"/><path fill="#fbbc04" clip-path="url(#id_0)" d="M454.0 300.0L446.0 300.0L446.0 154.0C446.0 152.89543 446.89542 152.0 448.0 152.0L452.0 152.0C453.10458 152.0 454.0 152.89543 454.0 154.0Z" fill-rule="nonzero"/><path stroke="#000000" stroke-width="2.0" stroke-linecap="butt" stroke-opacity="0.0" clip-path="url(#id_0)" d="M533.0 300.0L525.0 300.0L525.0 131.0C525.0 129.89543 525.89545 129.0 527.0 129.0L531.0 129.0C532.10455 129.0 533.0 129.89543 533.0 131.0Z" fill-rule="nonzero"/><path fill="#fbbc04" clip-path="url(#id_0)" d="M533.0 300.0L525.0 300.0L525.0 131.0C525.0 129.89543 525.89545 129.0 527.0 129.0L531.0 129.0C532.10455 129.0 533.0 129.89543 533.0 131.0Z" fill-rule="nonzero"/><path stroke="#000000" stroke-width="2.0" stroke-linecap="butt" stroke-opacity="0.0" clip-path="url(#id_0)" d="M151.0 300.0L143.0 300.0L143.0 238.0C143.0 236.89543 143.89543 236.0 145.0 236.0L149.0 236.0C150.10457 236.0 151.0 236.89543 151.0 238.0Z" fill-rule="nonzero"/><path fill="#34a853" clip-path="url(#id_0)" d="M151.0 300.0L143.0 300.0L143.0 238.0C143.0 236.89543 143.89543 236.0 145.0 236.0L149.0 236.0C150.10457 236.0 151.0 236.89543 151.0 238.0Z" fill-rule="nonzero"/><path stroke="#000000" stroke-width="2.0" stroke-linecap="butt" stroke-opacity="0.0" clip-path="url(#id_0)" d="M230.0 300.0L222.0 300.0L222.0 233.0C222.0 231.89543 222.89543 231.0 224.0 231.0L228.0 231.0C229.10457 231.0 230.0 231.89543 230.0 233.0Z" fill-rule="nonzero"/><path fill="#34a853" clip-path="url(#id_0)" d="M230.0 300.0L222.0 300.0L222.0 233.0C222.0 231.89543 222.89543 231.0 224.0 231.0L228.0 231.0C229.10457 231.0 230.0 231.89543 230.0 233.0Z" fill-rule="nonzero"/><path stroke="#000000" stroke-width="2.0" stroke-linecap="butt" stroke-opacity="0.0" clip-path="url(#id_0)" d="M308.0 300.0L300.0 300.0L300.0 237.0C300.0 235.89543 300.89542 235.0 302.0 235.0L306.0 235.0C307.10458 235.0 308.0 235.89543 308.0 237.0Z" fill-rule="nonzero"/><path fill="#34a853" clip-path="url(#id_0)" d="M308.0 300.0L300.0 300.0L300.0 237.0C300.0 235.89543 300.89542 235.0 302.0 235.0L306.0 235.0C307.10458 235.0 308.0 235.89543 308.0 237.0Z" fill-rule="nonzero"/><path stroke="#000000" stroke-width="2.0" stroke-linecap="butt" stroke-opacity="0.0" clip-path="url(#id_0)" d="M386.0 300.0L378.0 300.0L378.0 201.0C378.0 199.89543 378.89542 199.0 380.0 199.0L384.0 199.0C385.10458 199.0 386.0 199.89543 386.0 201.0Z" fill-rule="nonzero"/><path fill="#34a853" clip-path="url(#id_0)" d="M386.0 300.0L378.0 300.0L378.0 201.0C378.0 199.89543 378.89542 199.0 380.0 199.0L384.0 199.0C385.10458 199.0 386.0 199.89543 386.0 201.0Z" fill-rule="nonzero"/><path stroke="#000000" stroke-width="2.0" stroke-linecap="butt" stroke-opacity="0.0" clip-path="url(#id_0)" d="M464.0 300.0L456.0 300.0L456.0 163.0C456.0 161.89543 456.89542 161.0 458.0 161.0L462.0 161.0C463.10458 161.0 464.0 161.89543 464.0 163.0Z" fill-rule="nonzero"/><path fill="#34a853" clip-path="url(#id_0)" d="M464.0 300.0L456.0 300.0L456.0 163.0C456.0 161.89543 456.89542 161.0 458.0 161.0L462.0 161.0C463.10458 161.0 464.0 161.89543 464.0 163.0Z" fill-rule="nonzero"/><path stroke="#000000" stroke-width="2.0" stroke-linecap="butt" stroke-opacity="0.0" clip-path="url(#id_0)" d="M543.0 300.0L535.0 300.0L535.0 143.0C535.0 141.89543 535.89545 141.0 537.0 141.0L541.0 141.0C542.10455 141.0 543.0 141.89543 543.0 143.0Z" fill-rule="nonzero"/><path fill="#34a853" clip-path="url(#id_0)" d="M543.0 300.0L535.0 300.0L535.0 143.0C535.0 141.89543 535.89545 141.0 537.0 141.0L541.0 141.0C542.10455 141.0 543.0 141.89543 543.0 143.0Z" fill-rule="nonzero"/><path stroke="#000000" stroke-width="2.0" stroke-linecap="butt" stroke-opacity="0.0" clip-path="url(#id_0)" d="M161.0 300.0L153.0 300.0L153.0 244.0C153.0 242.89543 153.89543 242.0 155.0 242.0L159.0 242.0C160.10457 242.0 161.0 242.89543 161.0 244.0Z" fill-rule="nonzero"/><path fill="#ff6d01" clip-path="url(#id_0)" d="M161.0 300.0L153.0 300.0L153.0 244.0C153.0 242.89543 153.89543 242.0 155.0 242.0L159.0 242.0C160.10457 242.0 161.0 242.89543 161.0 244.0Z" fill-rule="nonzero"/><path stroke="#000000" stroke-width="2.0" stroke-linecap="butt" stroke-opacity="0.0" clip-path="url(#id_0)" d="M240.0 300.0L232.0 300.0L232.0 238.0C232.0 236.89543 232.89543 236.0 234.0 236.0L238.0 236.0C239.10457 236.0 240.0 236.89543 240.0 238.0Z" fill-rule="nonzero"/><path fill="#ff6d01" clip-path="url(#id_0)" d="M240.0 300.0L232.0 300.0L232.0 238.0C232.0 236.89543 232.89543 236.0 234.0 236.0L238.0 236.0C239.10457 236.0 240.0 236.89543 240.0 238.0Z" fill-rule="nonzero"/><path stroke="#000000" stroke-width="2.0" stroke-linecap="butt" stroke-opacity="0.0" clip-path="url(#id_0)" d="M318.0 300.0L310.0 300.0L310.0 239.0C310.0 237.89543 310.89542 237.0 312.0 237.0L316.0 237.0C317.10458 237.0 318.0 237.89543 318.0 239.0Z" fill-rule="nonzero"/><path fill="#ff6d01" clip-path="url(#id_0)" d="M318.0 300.0L310.0 300.0L310.0 239.0C310.0 237.89543 310.89542 237.0 312.0 237.0L316.0 237.0C317.10458 237.0 318.0 237.89543 318.0 239.0Z" fill-rule="nonzero"/><path stroke="#000000" stroke-width="2.0" stroke-linecap="butt" stroke-opacity="0.0" clip-path="url(#id_0)" d="M396.0 300.0L388.0 300.0L388.0 213.0C388.0 211.89543 388.89542 211.0 390.0 211.0L394.0 211.0C395.10458 211.0 396.0 211.89543 396.0 213.0Z" fill-rule="nonzero"/><path fill="#ff6d01" clip-path="url(#id_0)" d="M396.0 300.0L388.0 300.0L388.0 213.0C388.0 211.89543 388.89542 211.0 390.0 211.0L394.0 211.0C395.10458 211.0 396.0 211.89543 396.0 213.0Z" fill-rule="nonzero"/><path stroke="#000000" stroke-width="2.0" stroke-linecap="butt" stroke-opacity="0.0" clip-path="url(#id_0)" d="M474.0 300.0L466.0 300.0L466.0 179.0C466.0 177.89543 466.89542 177.0 468.0 177.0L472.0 177.0C473.10458 177.0 474.0 177.89543 474.0 179.0Z" fill-rule="nonzero"/><path fill="#ff6d01" clip-path="url(#id_0)" d="M474.0 300.0L466.0 300.0L466.0 179.0C466.0 177.89543 466.89542 177.0 468.0 177.0L472.0 177.0C473.10458 177.0 474.0 177.89543 474.0 179.0Z" fill-rule="nonzero"/><path stroke="#000000" stroke-width="2.0" stroke-linecap="butt" stroke-opacity="0.0" clip-path="url(#id_0)" d="M553.0 300.0L545.0 300.0L545.0 159.0C545.0 157.89543 545.89545 157.0 547.0 157.0L551.0 157.0C552.10455 157.0 553.0 157.89543 553.0 159.0Z" fill-rule="nonzero"/><path fill="#ff6d01" clip-path="url(#id_0)" d="M553.0 300.0L545.0 300.0L545.0 159.0C545.0 157.89543 545.89545 157.0 547.0 157.0L551.0 157.0C552.10455 157.0 553.0 157.89543 553.0 159.0Z" fill-rule="nonzero"/><path fill="#000000" d="M250.42188 349.45L250.42188 340.85626L253.67188 340.85626Q254.51562 340.85626 254.96875 340.9344Q255.60938 341.04376 256.03125 341.34064Q256.46875 341.6375 256.71875 342.16876Q256.98438 342.7 256.98438 343.34064Q256.98438 344.4344 256.28125 345.2Q255.59375 345.95 253.76562 345.95L251.5625 345.95L251.5625 349.45L250.42188 349.45ZM251.5625 344.95L253.78125 344.95Q254.89062 344.95 255.34375 344.54376Q255.8125 344.1219 255.8125 343.3719Q255.8125 342.84064 255.53125 342.46564Q255.26562 342.075 254.82812 341.95Q254.53125 341.8719 253.76562 341.8719L251.5625 341.8719L251.5625 344.95ZM258.28125 349.45L258.28125 343.23126L259.23438 343.23126L259.23438 344.16876Q259.59375 343.5125 259.89062 343.3094Q260.20312 343.09064 260.57812 343.09064Q261.10938 343.09064 261.65625 343.41876L261.29688 344.40314Q260.90625 344.16876 260.53125 344.16876Q260.17188 344.16876 259.89062 344.3875Q259.625 344.59064 259.51562 344.96564Q259.32812 345.52814 259.32812 346.1844L259.32812 349.45L258.28125 349.45ZM266.54688 347.45L267.64062 347.575Q267.39062 348.52814 266.6875 349.0594Q265.98438 349.59064 264.90625 349.59064Q263.54688 349.59064 262.73438 348.7469Q261.9375 347.90314 261.9375 346.3875Q261.9375 344.825 262.75 343.96564Q263.5625 343.09064 264.84375 343.09064Q266.09375 343.09064 266.875 343.9344Q267.67188 344.77814 267.67188 346.325Q267.67188 346.41876 267.67188 346.60626L263.03125 346.60626Q263.09375 347.6375 263.60938 348.1844Q264.125 348.71564 264.90625 348.71564Q265.48438 348.71564 265.89062 348.41876Q266.3125 348.10626 266.54688 347.45ZM263.09375 345.7469L266.5625 345.7469Q266.5 344.95 266.17188 344.5594Q265.65625 343.95 264.85938 343.95Q264.125 343.95 263.625 344.4344Q263.14062 344.91876 263.09375 345.7469ZM273.35938 347.16876L274.39062 347.3094Q274.21875 348.3719 273.51562 348.98126Q272.8125 349.59064 271.79688 349.59064Q270.51562 349.59064 269.73438 348.7625Q268.96875 347.91876 268.96875 346.35626Q268.96875 345.35626 269.29688 344.60626Q269.64062 343.84064 270.3125 343.46564Q271.0 343.09064 271.8125 343.09064Q272.8125 343.09064 273.45312 343.60626Q274.10938 344.10626 274.29688 345.0594L273.26562 345.21564Q273.125 344.59064 272.75 344.27814Q272.375 343.95 271.84375 343.95Q271.04688 343.95 270.54688 344.52814Q270.04688 345.09064 270.04688 346.325Q270.04688 347.59064 270.53125 348.15314Q271.01562 348.71564 271.78125 348.71564Q272.40625 348.71564 272.8125 348.34064Q273.23438 347.96564 273.35938 347.16876ZM275.29688 342.075L275.29688 340.85626L276.35938 340.85626L276.35938 342.075L275.29688 342.075ZM275.29688 349.45L275.29688 343.23126L276.35938 343.23126L276.35938 349.45L275.29688 349.45ZM277.875 347.59064L278.90625 347.4344Q279.0 348.0594 279.39062 348.3875Q279.79688 348.71564 280.53125 348.71564Q281.25 348.71564 281.59375 348.4344Q281.95312 348.1375 281.95312 347.73126Q281.95312 347.3719 281.64062 347.16876Q281.42188 347.02814 280.5625 346.8094Q279.40625 346.5125 278.95312 346.3094Q278.51562 346.09064 278.28125 345.71564Q278.04688 345.34064 278.04688 344.8719Q278.04688 344.46564 278.23438 344.10626Q278.42188 343.7469 278.75 343.5125Q279.0 343.34064 279.42188 343.21564Q279.84375 343.09064 280.34375 343.09064Q281.0625 343.09064 281.60938 343.3094Q282.17188 343.5125 282.4375 343.8719Q282.70312 344.23126 282.79688 344.825L281.76562 344.96564Q281.70312 344.4969 281.35938 344.23126Q281.03125 343.95 280.40625 343.95Q279.6875 343.95 279.375 344.2Q279.0625 344.4344 279.0625 344.7625Q279.0625 344.96564 279.1875 345.1219Q279.32812 345.29376 279.59375 345.40314Q279.75 345.46564 280.53125 345.66876Q281.65625 345.98126 282.09375 346.16876Q282.53125 346.35626 282.78125 346.71564Q283.03125 347.075 283.03125 347.6219Q283.03125 348.15314 282.71875 348.6219Q282.42188 349.075 281.84375 349.34064Q281.26562 349.59064 280.53125 349.59064Q279.3125 349.59064 278.67188 349.09064Q278.04688 348.575 277.875 347.59064ZM285.29688 342.075L285.29688 340.85626L286.35938 340.85626L286.35938 342.075L285.29688 342.075ZM285.29688 349.45L285.29688 343.23126L286.35938 343.23126L286.35938 349.45L285.29688 349.45ZM287.90625 346.34064Q287.90625 344.60626 288.85938 343.77814Q289.65625 343.09064 290.8125 343.09064Q292.09375 343.09064 292.90625 343.9344Q293.73438 344.7625 293.73438 346.2469Q293.73438 347.45 293.375 348.1375Q293.01562 348.825 292.3125 349.21564Q291.625 349.59064 290.8125 349.59064Q289.51562 349.59064 288.70312 348.7625Q287.90625 347.91876 287.90625 346.34064ZM288.98438 346.34064Q288.98438 347.52814 289.5 348.1219Q290.03125 348.71564 290.8125 348.71564Q291.60938 348.71564 292.125 348.1219Q292.64062 347.52814 292.64062 346.3094Q292.64062 345.15314 292.10938 344.5594Q291.59375 343.96564 290.8125 343.96564Q290.03125 343.96564 289.5 344.5594Q288.98438 345.1375 288.98438 346.34064ZM295.29688 349.45L295.29688 343.23126L296.23438 343.23126L296.23438 344.10626Q296.92188 343.09064 298.21875 343.09064Q298.78125 343.09064 299.25 343.29376Q299.73438 343.4969 299.96875 343.825Q300.20312 344.15314 300.29688 344.59064Q300.34375 344.8875 300.34375 345.6219L300.34375 349.45L299.29688 349.45L299.29688 345.66876Q299.29688 345.0125 299.17188 344.7Q299.04688 344.3875 298.73438 344.2Q298.42188 343.9969 298.0 343.9969Q297.32812 343.9969 296.82812 344.4344Q296.34375 344.85626 296.34375 346.04376L296.34375 349.45L295.29688 349.45ZM304.875 346.8719L304.875 345.8094L308.125 345.8094L308.125 346.8719L304.875 346.8719ZM314.60938 349.45L314.60938 341.8719L311.78125 341.8719L311.78125 340.85626L318.59375 340.85626L318.59375 341.8719L315.75 341.8719L315.75 349.45L314.60938 349.45ZM319.28125 349.45L319.28125 343.23126L320.23438 343.23126L320.23438 344.16876Q320.59375 343.5125 320.89062 343.3094Q321.20312 343.09064 321.57812 343.09064Q322.10938 343.09064 322.65625 343.41876L322.29688 344.40314Q321.90625 344.16876 321.53125 344.16876Q321.17188 344.16876 320.89062 344.3875Q320.625 344.59064 320.51562 344.96564Q320.32812 345.52814 320.32812 346.1844L320.32812 349.45L319.28125 349.45ZM327.35938 348.6844Q326.76562 349.1844 326.21875 349.3875Q325.6875 349.59064 325.0625 349.59064Q324.03125 349.59064 323.48438 349.09064Q322.9375 348.59064 322.9375 347.8094Q322.9375 347.35626 323.14062 346.98126Q323.34375 346.59064 323.6875 346.3719Q324.03125 346.1375 324.45312 346.02814Q324.75 345.9344 325.39062 345.85626Q326.65625 345.71564 327.26562 345.4969Q327.26562 345.27814 327.26562 345.23126Q327.26562 344.575 326.96875 344.3094Q326.5625 343.96564 325.76562 343.96564Q325.03125 343.96564 324.67188 344.23126Q324.3125 344.48126 324.14062 345.1375L323.10938 344.9969Q323.25 344.34064 323.57812 343.9344Q323.90625 343.52814 324.51562 343.3094Q325.125 343.09064 325.92188 343.09064Q326.71875 343.09064 327.21875 343.27814Q327.71875 343.46564 327.95312 343.7469Q328.1875 344.02814 328.28125 344.46564Q328.32812 344.73126 328.32812 345.4344L328.32812 346.84064Q328.32812 348.3094 328.39062 348.7Q328.46875 349.09064 328.67188 349.45L327.5625 349.45Q327.40625 349.1219 327.35938 348.6844ZM327.26562 346.325Q326.6875 346.5594 325.54688 346.73126Q324.89062 346.825 324.625 346.95Q324.35938 347.0594 324.20312 347.27814Q324.0625 347.4969 324.0625 347.77814Q324.0625 348.2 324.375 348.48126Q324.70312 348.7625 325.3125 348.7625Q325.92188 348.7625 326.39062 348.4969Q326.875 348.23126 327.09375 347.7625Q327.26562 347.40314 327.26562 346.71564L327.26562 346.325ZM330.29688 342.075L330.29688 340.85626L331.35938 340.85626L331.35938 342.075L330.29688 342.075ZM330.29688 349.45L330.29688 343.23126L331.35938 343.23126L331.35938 349.45L330.29688 349.45ZM333.29688 349.45L333.29688 343.23126L334.23438 343.23126L334.23438 344.10626Q334.92188 343.09064 336.21875 343.09064Q336.78125 343.09064 337.25 343.29376Q337.73438 343.4969 337.96875 343.825Q338.20312 344.15314 338.29688 344.59064Q338.34375 344.8875 338.34375 345.6219L338.34375 349.45L337.29688 349.45L337.29688 345.66876Q337.29688 345.0125 337.17188 344.7Q337.04688 344.3875 336.73438 344.2Q336.42188 343.9969 336.0 343.9969Q335.32812 343.9969 334.82812 344.4344Q334.34375 344.85626 334.34375 346.04376L334.34375 349.45L333.29688 349.45ZM340.29688 342.075L340.29688 340.85626L341.35938 340.85626L341.35938 342.075L340.29688 342.075ZM340.29688 349.45L340.29688 343.23126L341.35938 343.23126L341.35938 349.45L340.29688 349.45ZM343.29688 349.45L343.29688 343.23126L344.23438 343.23126L344.23438 344.10626Q344.92188 343.09064 346.21875 343.09064Q346.78125 343.09064 347.25 343.29376Q347.73438 343.4969 347.96875 343.825Q348.20312 344.15314 348.29688 344.59064Q348.34375 344.8875 348.34375 345.6219L348.34375 349.45L347.29688 349.45L347.29688 345.66876Q347.29688 345.0125 347.17188 344.7Q347.04688 344.3875 346.73438 344.2Q346.42188 343.9969 346.0 343.9969Q345.32812 343.9969 344.82812 344.4344Q344.34375 344.85626 344.34375 346.04376L344.34375 349.45L343.29688 349.45ZM350.09375 349.96564L351.125 350.1219Q351.1875 350.59064 351.48438 350.8094Q351.875 351.10626 352.54688 351.10626Q353.28125 351.10626 353.67188 350.8094Q354.07812 350.5125 354.21875 349.9969Q354.3125 349.66876 354.29688 348.6375Q353.60938 349.45 352.57812 349.45Q351.29688 349.45 350.59375 348.52814Q349.89062 347.59064 349.89062 346.3094Q349.89062 345.41876 350.20312 344.66876Q350.53125 343.90314 351.14062 343.4969Q351.75 343.09064 352.57812 343.09064Q353.6875 343.09064 354.40625 343.98126L354.40625 343.23126L355.375 343.23126L355.375 348.60626Q355.375 350.0594 355.07812 350.66876Q354.78125 351.27814 354.14062 351.6219Q353.5 351.98126 352.5625 351.98126Q351.45312 351.98126 350.76562 351.48126Q350.07812 350.98126 350.09375 349.96564ZM350.96875 346.23126Q350.96875 347.45 351.45312 348.0125Q351.9375 348.575 352.67188 348.575Q353.40625 348.575 353.89062 348.0125Q354.39062 347.45 354.39062 346.2625Q354.39062 345.1219 353.875 344.54376Q353.375 343.96564 352.65625 343.96564Q351.95312 343.96564 351.45312 344.54376Q350.96875 345.10626 350.96875 346.23126ZM360.375 349.45L360.375 340.85626L363.60938 340.85626Q364.59375 340.85626 365.1875 341.1219Q365.78125 341.3875 366.10938 341.9344Q366.45312 342.46564 366.45312 343.0594Q366.45312 343.60626 366.15625 344.09064Q365.85938 344.575 365.25 344.8719Q366.03125 345.10626 366.4375 345.66876Q366.85938 346.21564 366.85938 346.96564Q366.85938 347.5594 366.60938 348.09064Q366.35938 348.60626 365.98438 348.8875Q365.60938 349.16876 365.03125 349.3094Q364.46875 349.45 363.65625 349.45L360.375 349.45ZM361.51562 344.46564L363.375 344.46564Q364.125 344.46564 364.45312 344.3719Q364.89062 344.2469 365.10938 343.95Q365.32812 343.6375 365.32812 343.1844Q365.32812 342.7625 365.125 342.4344Q364.92188 342.10626 364.53125 341.9969Q364.15625 341.8719 363.23438 341.8719L361.51562 341.8719L361.51562 344.46564ZM361.51562 348.4344L363.65625 348.4344Q364.20312 348.4344 364.42188 348.3875Q364.82812 348.325 365.07812 348.16876Q365.34375 347.9969 365.51562 347.6844Q365.6875 347.3719 365.6875 346.96564Q365.6875 346.48126 365.4375 346.1219Q365.20312 345.7625 364.76562 345.6219Q364.32812 345.48126 363.5 345.48126L361.51562 345.48126L361.51562 348.4344ZM372.35938 348.6844Q371.76562 349.1844 371.21875 349.3875Q370.6875 349.59064 370.0625 349.59064Q369.03125 349.59064 368.48438 349.09064Q367.9375 348.59064 367.9375 347.8094Q367.9375 347.35626 368.14062 346.98126Q368.34375 346.59064 368.6875 346.3719Q369.03125 346.1375 369.45312 346.02814Q369.75 345.9344 370.39062 345.85626Q371.65625 345.71564 372.26562 345.4969Q372.26562 345.27814 372.26562 345.23126Q372.26562 344.575 371.96875 344.3094Q371.5625 343.96564 370.76562 343.96564Q370.03125 343.96564 369.67188 344.23126Q369.3125 344.48126 369.14062 345.1375L368.10938 344.9969Q368.25 344.34064 368.57812 343.9344Q368.90625 343.52814 369.51562 343.3094Q370.125 343.09064 370.92188 343.09064Q371.71875 343.09064 372.21875 343.27814Q372.71875 343.46564 372.95312 343.7469Q373.1875 344.02814 373.28125 344.46564Q373.32812 344.73126 373.32812 345.4344L373.32812 346.84064Q373.32812 348.3094 373.39062 348.7Q373.46875 349.09064 373.67188 349.45L372.5625 349.45Q372.40625 349.1219 372.35938 348.6844ZM372.26562 346.325Q371.6875 346.5594 370.54688 346.73126Q369.89062 346.825 369.625 346.95Q369.35938 347.0594 369.20312 347.27814Q369.0625 347.4969 369.0625 347.77814Q369.0625 348.2 369.375 348.48126Q369.70312 348.7625 370.3125 348.7625Q370.92188 348.7625 371.39062 348.4969Q371.875 348.23126 372.09375 347.7625Q372.26562 347.40314 372.26562 346.71564L372.26562 346.325ZM377.59375 348.5125L377.75 349.4344Q377.29688 349.52814 376.95312 349.52814Q376.375 349.52814 376.0625 349.35626Q375.75 349.16876 375.60938 348.8719Q375.48438 348.575 375.48438 347.6219L375.48438 344.04376L374.71875 344.04376L374.71875 343.23126L375.48438 343.23126L375.48438 341.6844L376.53125 341.0594L376.53125 343.23126L377.59375 343.23126L377.59375 344.04376L376.53125 344.04376L376.53125 347.6844Q376.53125 348.1375 376.57812 348.2625Q376.64062 348.3875 376.76562 348.46564Q376.89062 348.54376 377.125 348.54376Q377.3125 348.54376 377.59375 348.5125ZM382.35938 347.16876L383.39062 347.3094Q383.21875 348.3719 382.51562 348.98126Q381.8125 349.59064 380.79688 349.59064Q379.51562 349.59064 378.73438 348.7625Q377.96875 347.91876 377.96875 346.35626Q377.96875 345.35626 378.29688 344.60626Q378.64062 343.84064 379.3125 343.46564Q380.0 343.09064 380.8125 343.09064Q381.8125 343.09064 382.45312 343.60626Q383.10938 344.10626 383.29688 345.0594L382.26562 345.21564Q382.125 344.59064 381.75 344.27814Q381.375 343.95 380.84375 343.95Q380.04688 343.95 379.54688 344.52814Q379.04688 345.09064 379.04688 346.325Q379.04688 347.59064 379.53125 348.15314Q380.01562 348.71564 380.78125 348.71564Q381.40625 348.71564 381.8125 348.34064Q382.23438 347.96564 382.35938 347.16876ZM384.29688 349.45L384.29688 340.85626L385.34375 340.85626L385.34375 343.9344Q386.07812 343.09064 387.20312 343.09064Q387.90625 343.09064 388.40625 343.3719Q388.92188 343.6375 389.14062 344.1219Q389.35938 344.59064 389.35938 345.5125L389.35938 349.45L388.3125 349.45L388.3125 345.5125Q388.3125 344.71564 387.96875 344.35626Q387.625 343.9969 387.0 343.9969Q386.53125 343.9969 386.10938 344.2469Q385.70312 344.48126 385.51562 344.90314Q385.34375 345.3094 385.34375 346.04376L385.34375 349.45L384.29688 349.45ZM394.04688 346.6844L395.10938 346.59064Q395.1875 347.2469 395.46875 347.65314Q395.75 348.0594 396.32812 348.325Q396.92188 348.575 397.65625 348.575Q398.29688 348.575 398.79688 348.3875Q399.29688 348.1844 399.53125 347.85626Q399.78125 347.5125 399.78125 347.1219Q399.78125 346.71564 399.54688 346.41876Q399.3125 346.10626 398.78125 345.90314Q398.42188 345.7625 397.23438 345.48126Q396.0625 345.2 395.59375 344.95Q394.96875 344.6219 394.67188 344.15314Q394.375 343.66876 394.375 343.075Q394.375 342.4344 394.73438 341.8719Q395.10938 341.29376 395.8125 341.0125Q396.53125 340.71564 397.39062 340.71564Q398.34375 340.71564 399.07812 341.02814Q399.8125 341.325 400.20312 341.9344Q400.59375 342.52814 400.625 343.27814L399.53125 343.35626Q399.4375 342.54376 398.92188 342.1375Q398.42188 341.71564 397.4375 341.71564Q396.40625 341.71564 395.9375 342.09064Q395.46875 342.46564 395.46875 342.9969Q395.46875 343.46564 395.79688 343.7625Q396.125 344.0594 397.5 344.3719Q398.89062 344.6844 399.40625 344.91876Q400.15625 345.27814 400.51562 345.8094Q400.875 346.325 400.875 347.02814Q400.875 347.71564 400.48438 348.325Q400.09375 348.91876 399.35938 349.2625Q398.625 349.59064 397.70312 349.59064Q396.53125 349.59064 395.73438 349.2625Q394.95312 348.91876 394.5 348.23126Q394.0625 347.54376 394.04688 346.6844ZM402.29688 342.075L402.29688 340.85626L403.35938 340.85626L403.35938 342.075L402.29688 342.075ZM402.29688 349.45L402.29688 343.23126L403.35938 343.23126L403.35938 349.45L402.29688 349.45ZM404.73438 349.45L404.73438 348.59064L408.70312 344.04376Q408.01562 344.075 407.5 344.075L404.96875 344.075L404.96875 343.23126L410.0625 343.23126L410.0625 343.91876L406.6875 347.8719L406.03125 348.59064Q406.75 348.54376 407.35938 348.54376L410.25 348.54376L410.25 349.45L404.73438 349.45ZM414.54688 347.45L415.64062 347.575Q415.39062 348.52814 414.6875 349.0594Q413.98438 349.59064 412.90625 349.59064Q411.54688 349.59064 410.73438 348.7469Q409.9375 347.90314 409.9375 346.3875Q409.9375 344.825 410.75 343.96564Q411.5625 343.09064 412.84375 343.09064Q414.09375 343.09064 414.875 343.9344Q415.67188 344.77814 415.67188 346.325Q415.67188 346.41876 415.67188 346.60626L411.03125 346.60626Q411.09375 347.6375 411.60938 348.1844Q412.125 348.71564 412.90625 348.71564Q413.48438 348.71564 413.89062 348.41876Q414.3125 348.10626 414.54688 347.45ZM411.09375 345.7469L414.5625 345.7469Q414.5 344.95 414.17188 344.5594Q413.65625 343.95 412.85938 343.95Q412.125 343.95 411.625 344.4344Q411.14062 344.91876 411.09375 345.7469Z" fill-rule="nonzero"/><path fill="#000000" d="M29.550013 229.2573L21.971888 229.2573L21.971888 232.08542L20.956263 232.08542L20.956263 225.27292L21.971888 225.27292L21.971888 228.11667L29.550013 228.11667L29.550013 229.2573ZM29.550013 224.5698L20.956263 224.5698L20.956263 223.52292L24.034388 223.52292Q23.190638 222.78854 23.190638 221.66354Q23.190638 220.96042 23.471888 220.46042Q23.737513 219.9448 24.221888 219.72604Q24.690638 219.5073 25.612513 219.5073L29.550013 219.5073L29.550013 220.55417L25.612513 220.55417Q24.815638 220.55417 24.456263 220.89792Q24.096888 221.24167 24.096888 221.86667Q24.096888 222.33542 24.346888 222.7573Q24.581263 223.16354 25.003138 223.35104Q25.409388 223.52292 26.143763 223.52292L29.550013 223.52292L29.550013 224.5698ZM29.550013 217.58542L23.331263 217.58542L23.331263 216.6323L24.268763 216.6323Q23.612513 216.27292 23.409388 215.97604Q23.190638 215.66354 23.190638 215.28854Q23.190638 214.7573 23.518763 214.21042L24.503138 214.5698Q24.268763 214.96042 24.268763 215.33542Q24.268763 215.6948 24.487513 215.97604Q24.690638 216.24167 25.065638 216.35104Q25.628138 216.53854 26.284388 216.53854L29.550013 216.53854L29.550013 217.58542ZM26.440638 213.96042Q24.706263 213.96042 23.878138 213.0073Q23.190638 212.21042 23.190638 211.05417Q23.190638 209.77292 24.034388 208.96042Q24.862513 208.1323 26.346888 208.1323Q27.550013 208.1323 28.237513 208.49167Q28.925013 208.85104 29.315638 209.55417Q29.690638 210.24167 29.690638 211.05417Q29.690638 212.35104 28.862513 213.16354Q28.018763 213.96042 26.440638 213.96042ZM26.440638 212.8823Q27.628138 212.8823 28.221888 212.36667Q28.815638 211.83542 28.815638 211.05417Q28.815638 210.2573 28.221888 209.74167Q27.628138 209.22604 26.409388 209.22604Q25.253138 209.22604 24.659388 209.7573Q24.065638 210.27292 24.065638 211.05417Q24.065638 211.83542 24.659388 212.36667Q25.237513 212.8823 26.440638 212.8823ZM29.550013 202.49167L28.628138 202.49167Q29.690638 203.22604 29.690638 204.47604Q29.690638 205.02292 29.487513 205.5073Q29.268763 205.97604 28.956263 206.21042Q28.628138 206.4448 28.159388 206.53854Q27.862513 206.60104 27.175013 206.60104L23.331263 206.60104L23.331263 205.53854L26.784388 205.53854Q27.596888 205.53854 27.893763 205.47604Q28.300013 205.3823 28.550013 205.0698Q28.784388 204.74167 28.784388 204.2573Q28.784388 203.78854 28.550013 203.3823Q28.300013 202.96042 27.878138 202.78854Q27.456263 202.60104 26.659388 202.60104L23.331263 202.60104L23.331263 201.55417L29.550013 201.55417L29.550013 202.49167ZM30.065638 199.77292L30.221888 198.74167Q30.690638 198.67917 30.909388 198.3823Q31.206263 197.99167 31.206263 197.3198Q31.206263 196.58542 30.909388 196.1948Q30.612513 195.78854 30.096888 195.64792Q29.768763 195.55417 28.737513 195.5698Q29.550013 196.2573 29.550013 197.28854Q29.550013 198.5698 28.628138 199.27292Q27.690638 199.97604 26.409388 199.97604Q25.518763 199.97604 24.768763 199.66354Q24.003138 199.33542 23.596888 198.72604Q23.190638 198.11667 23.190638 197.28854Q23.190638 196.17917 24.081263 195.46042L23.331263 195.46042L23.331263 194.49167L28.706263 194.49167Q30.159388 194.49167 30.768763 194.78854Q31.378138 195.08542 31.721888 195.72604Q32.08126 196.36667 32.08126 197.30417Q32.08126 198.41354 31.581263 199.10104Q31.081263 199.78854 30.065638 199.77292ZM26.331263 198.89792Q27.550013 198.89792 28.112513 198.41354Q28.675013 197.92917 28.675013 197.1948Q28.675013 196.46042 28.112513 195.97604Q27.550013 195.47604 26.362513 195.47604Q25.221888 195.47604 24.643763 195.99167Q24.065638 196.49167 24.065638 197.21042Q24.065638 197.91354 24.643763 198.41354Q25.206263 198.89792 26.331263 198.89792ZM29.550013 192.5698L20.956263 192.5698L20.956263 191.52292L24.034388 191.52292Q23.190638 190.78854 23.190638 189.66354Q23.190638 188.96042 23.471888 188.46042Q23.737513 187.9448 24.221888 187.72604Q24.690638 187.5073 25.612513 187.5073L29.550013 187.5073L29.550013 188.55417L25.612513 188.55417Q24.815638 188.55417 24.456263 188.89792Q24.096888 189.24167 24.096888 189.86667Q24.096888 190.33542 24.346888 190.7573Q24.581263 191.16354 25.003138 191.35104Q25.409388 191.52292 26.143763 191.52292L29.550013 191.52292L29.550013 192.5698ZM31.940638 185.5698L23.331263 185.5698L23.331263 184.61667L24.128138 184.61667Q23.659388 184.27292 23.425013 183.85104Q23.190638 183.41354 23.190638 182.80417Q23.190638 182.0073 23.596888 181.39792Q24.003138 180.78854 24.753138 180.49167Q25.503138 180.17917 26.393763 180.17917Q27.346888 180.17917 28.112513 180.52292Q28.878138 180.85104 29.284388 181.5073Q29.690638 182.16354 29.690638 182.8823Q29.690638 183.41354 29.471888 183.83542Q29.237513 184.2573 28.909388 184.52292L31.940638 184.52292L31.940638 185.5698ZM26.471888 184.61667Q27.675013 184.61667 28.253138 184.1323Q28.815638 183.64792 28.815638 182.96042Q28.815638 182.2573 28.221888 181.7573Q27.628138 181.2573 26.378138 181.2573Q25.190638 181.2573 24.612513 181.74167Q24.018763 182.22604 24.018763 182.91354Q24.018763 183.58542 24.643763 184.10104Q25.268763 184.61667 26.471888 184.61667ZM29.550013 174.49167L28.628138 174.49167Q29.690638 175.22604 29.690638 176.47604Q29.690638 177.02292 29.487513 177.5073Q29.268763 177.97604 28.956263 178.21042Q28.628138 178.4448 28.159388 178.53854Q27.862513 178.60104 27.175013 178.60104L23.331263 178.60104L23.331263 177.53854L26.784388 177.53854Q27.596888 177.53854 27.893763 177.47604Q28.300013 177.3823 28.550013 177.0698Q28.784388 176.74167 28.784388 176.2573Q28.784388 175.78854 28.550013 175.3823Q28.300013 174.96042 27.878138 174.78854Q27.456263 174.60104 26.659388 174.60104L23.331263 174.60104L23.331263 173.55417L29.550013 173.55417L29.550013 174.49167ZM28.612513 169.27292L29.534388 169.11667Q29.628138 169.5698 29.628138 169.91354Q29.628138 170.49167 29.456263 170.80417Q29.268763 171.11667 28.971888 171.2573Q28.675013 171.3823 27.721888 171.3823L24.143763 171.3823L24.143763 172.14792L23.331263 172.14792L23.331263 171.3823L21.784388 171.3823L21.159388 170.33542L23.331263 170.33542L23.331263 169.27292L24.143763 169.27292L24.143763 170.33542L27.784388 170.33542Q28.237513 170.33542 28.362513 170.28854Q28.487513 170.22604 28.565638 170.10104Q28.643763 169.97604 28.643763 169.74167Q28.643763 169.55417 28.612513 169.27292Z" fill-rule="nonzero"/><path fill="#000000" d="M72.05 300.21564Q72.05 298.6844 72.3625 297.7625Q72.675 296.825 73.28438 296.325Q73.90938 295.825 74.84688 295.825Q75.53438 295.825 76.05 296.10626Q76.58125 296.3875 76.925 296.91876Q77.26875 297.4344 77.45625 298.1844Q77.64375 298.9344 77.64375 300.21564Q77.64375 301.73126 77.33125 302.65314Q77.03438 303.575 76.40938 304.09064Q75.8 304.59064 74.84688 304.59064Q73.6125 304.59064 72.89375 303.7Q72.05 302.6375 72.05 300.21564ZM73.12813 300.21564Q73.12813 302.325 73.62813 303.02814Q74.12813 303.73126 74.84688 303.73126Q75.58125 303.73126 76.06563 303.02814Q76.56563 302.325 76.56563 300.21564Q76.56563 298.09064 76.06563 297.40314Q75.58125 296.7 74.83125 296.7Q74.1125 296.7 73.675 297.3094Q73.12813 298.09064 73.12813 300.21564Z" fill-rule="nonzero"/><path fill="#000000" d="M58.05 231.47778L59.159374 231.38403Q59.284374 232.19653 59.721874 232.60278Q60.175 233.00903 60.815624 233.00903Q61.565624 233.00903 62.096874 232.43091Q62.628124 231.85278 62.628124 230.91528Q62.628124 230.00903 62.1125 229.49341Q61.6125 228.96216 60.784374 228.96216Q60.284374 228.96216 59.8625 229.19653Q59.45625 229.43091 59.221874 229.79028L58.2375 229.66528L59.065624 225.25903L63.346874 225.25903L63.346874 226.25903L59.909374 226.25903L59.45625 228.57153Q60.221874 228.02466 61.065624 228.02466Q62.190624 228.02466 62.95625 228.80591Q63.7375 229.58716 63.7375 230.82153Q63.7375 231.97778 63.065624 232.83716Q62.2375 233.86841 60.815624 233.86841Q59.64375 233.86841 58.89375 233.21216Q58.159374 232.55591 58.05 231.47778ZM65.05 229.49341Q65.05 227.96216 65.3625 227.04028Q65.675 226.10278 66.28438 225.60278Q66.90938 225.10278 67.84688 225.10278Q68.53438 225.10278 69.05 225.38403Q69.58125 225.66528 69.925 226.19653Q70.26875 226.71216 70.45625 227.46216Q70.64375 228.21216 70.64375 229.49341Q70.64375 231.00903 70.33125 231.93091Q70.03438 232.85278 69.40938 233.36841Q68.8 233.86841 67.84688 233.86841Q66.6125 233.86841 65.89375 232.97778Q65.05 231.91528 65.05 229.49341ZM66.12813 229.49341Q66.12813 231.60278 66.62813 232.30591Q67.12813 233.00903 67.84688 233.00903Q68.58125 233.00903 69.06563 232.30591Q69.56563 231.60278 69.56563 229.49341Q69.56563 227.36841 69.06563 226.68091Q68.58125 225.97778 67.83125 225.97778Q67.1125 225.97778 66.675 226.58716Q66.12813 227.36841 66.12813 229.49341ZM72.05 229.49341Q72.05 227.96216 72.3625 227.04028Q72.675 226.10278 73.28438 225.60278Q73.90938 225.10278 74.84688 225.10278Q75.53438 225.10278 76.05 225.38403Q76.58125 225.66528 76.925 226.19653Q77.26875 226.71216 77.45625 227.46216Q77.64375 228.21216 77.64375 229.49341Q77.64375 231.00903 77.33125 231.93091Q77.03438 232.85278 76.40938 233.36841Q75.8 233.86841 74.84688 233.86841Q73.6125 233.86841 72.89375 232.97778Q72.05 231.91528 72.05 229.49341ZM73.12813 229.49341Q73.12813 231.60278 73.62813 232.30591Q74.12813 233.00903 74.84688 233.00903Q75.58125 233.00903 76.06563 232.30591Q76.56563 231.60278 76.56563 229.49341Q76.56563 227.36841 76.06563 226.68091Q75.58125 225.97778 74.83125 225.97778Q74.1125 225.97778 73.675 226.58716Q73.12813 227.36841 73.12813 229.49341Z" fill-rule="nonzero"/><path fill="#000000" d="M55.01875 163.00555L53.971874 163.00555L53.971874 156.2868Q53.58125 156.64618 52.95625 157.02118Q52.346874 157.38055 51.8625 157.55243L51.8625 156.5368Q52.7375 156.11493 53.39375 155.5368Q54.065624 154.94305 54.346874 154.38055L55.01875 154.38055L55.01875 163.00555ZM58.05 158.77118Q58.05 157.23993 58.3625 156.31805Q58.675 155.38055 59.284374 154.88055Q59.909374 154.38055 60.846874 154.38055Q61.534374 154.38055 62.05 154.6618Q62.58125 154.94305 62.925 155.4743Q63.26875 155.98993 63.45625 156.73993Q63.64375 157.48993 63.64375 158.77118Q63.64375 160.2868 63.33125 161.20868Q63.034374 162.13055 62.409374 162.64618Q61.8 163.14618 60.846874 163.14618Q59.6125 163.14618 58.89375 162.25555Q58.05 161.19305 58.05 158.77118ZM59.128124 158.77118Q59.128124 160.88055 59.628124 161.58368Q60.128124 162.2868 60.846874 162.2868Q61.58125 162.2868 62.065624 161.58368Q62.565624 160.88055 62.565624 158.77118Q62.565624 156.64618 62.065624 155.95868Q61.58125 155.25555 60.83125 155.25555Q60.1125 155.25555 59.675 155.86493Q59.128124 156.64618 59.128124 158.77118ZM65.05 158.77118Q65.05 157.23993 65.3625 156.31805Q65.675 155.38055 66.28438 154.88055Q66.90938 154.38055 67.84688 154.38055Q68.53438 154.38055 69.05 154.6618Q69.58125 154.94305 69.925 155.4743Q70.26875 155.98993 70.45625 156.73993Q70.64375 157.48993 70.64375 158.77118Q70.64375 160.2868 70.33125 161.20868Q70.03438 162.13055 69.40938 162.64618Q68.8 163.14618 67.84688 163.14618Q66.6125 163.14618 65.89375 162.25555Q65.05 161.19305 65.05 158.77118ZM66.12813 158.77118Q66.12813 160.88055 66.62813 161.58368Q67.12813 162.2868 67.84688 162.2868Q68.58125 162.2868 69.06563 161.58368Q69.56563 160.88055 69.56563 158.77118Q69.56563 156.64618 69.06563 155.95868Q68.58125 155.25555 67.83125 155.25555Q67.1125 155.25555 66.675 155.86493Q66.12813 156.64618 66.12813 158.77118ZM72.05 158.77118Q72.05 157.23993 72.3625 156.31805Q72.675 155.38055 73.28438 154.88055Q73.90938 154.38055 74.84688 154.38055Q75.53438 154.38055 76.05 154.6618Q76.58125 154.94305 76.925 155.4743Q77.26875 155.98993 77.45625 156.73993Q77.64375 157.48993 77.64375 158.77118Q77.64375 160.2868 77.33125 161.20868Q77.03438 162.13055 76.40938 162.64618Q75.8 163.14618 74.84688 163.14618Q73.6125 163.14618 72.89375 162.25555Q72.05 161.19305 72.05 158.77118ZM73.12813 158.77118Q73.12813 160.88055 73.62813 161.58368Q74.12813 162.2868 74.84688 162.2868Q75.58125 162.2868 76.06563 161.58368Q76.56563 160.88055 76.56563 158.77118Q76.56563 156.64618 76.06563 155.95868Q75.58125 155.25555 74.83125 155.25555Q74.1125 155.25555 73.675 155.86493Q73.12813 156.64618 73.12813 158.77118Z" fill-rule="nonzero"/><path fill="#000000" d="M55.01875 92.28333L53.971874 92.28333L53.971874 85.56458Q53.58125 85.92396 52.95625 86.29896Q52.346874 86.65833 51.8625 86.83021L51.8625 85.81458Q52.7375 85.39271 53.39375 84.81458Q54.065624 84.22083 54.346874 83.65833L55.01875 83.65833L55.01875 92.28333ZM58.05 90.03333L59.159374 89.93958Q59.284374 90.75208 59.721874 91.15833Q60.175 91.56458 60.815624 91.56458Q61.565624 91.56458 62.096874 90.98646Q62.628124 90.40833 62.628124 89.47083Q62.628124 88.56458 62.1125 88.04896Q61.6125 87.51771 60.784374 87.51771Q60.284374 87.51771 59.8625 87.75208Q59.45625 87.98646 59.221874 88.34583L58.2375 88.22083L59.065624 83.81458L63.346874 83.81458L63.346874 84.81458L59.909374 84.81458L59.45625 87.12708Q60.221874 86.58021 61.065624 86.58021Q62.190624 86.58021 62.95625 87.36146Q63.7375 88.14271 63.7375 89.37708Q63.7375 90.53333 63.065624 91.39271Q62.2375 92.42396 60.815624 92.42396Q59.64375 92.42396 58.89375 91.76771Q58.159374 91.11146 58.05 90.03333ZM65.05 88.04896Q65.05 86.51771 65.3625 85.59583Q65.675 84.65833 66.28438 84.15833Q66.90938 83.65833 67.84688 83.65833Q68.53438 83.65833 69.05 83.93958Q69.58125 84.22083 69.925 84.75208Q70.26875 85.26771 70.45625 86.01771Q70.64375 86.76771 70.64375 88.04896Q70.64375 89.56458 70.33125 90.48646Q70.03438 91.40833 69.40938 91.92396Q68.8 92.42396 67.84688 92.42396Q66.6125 92.42396 65.89375 91.53333Q65.05 90.47083 65.05 88.04896ZM66.12813 88.04896Q66.12813 90.15833 66.62813 90.86146Q67.12813 91.56458 67.84688 91.56458Q68.58125 91.56458 69.06563 90.86146Q69.56563 90.15833 69.56563 88.04896Q69.56563 85.92396 69.06563 85.23646Q68.58125 84.53333 67.83125 84.53333Q67.1125 84.53333 66.675 85.14271Q66.12813 85.92396 66.12813 88.04896ZM72.05 88.04896Q72.05 86.51771 72.3625 85.59583Q72.675 84.65833 73.28438 84.15833Q73.90938 83.65833 74.84688 83.65833Q75.53438 83.65833 76.05 83.93958Q76.58125 84.22083 76.925 84.75208Q77.26875 85.26771 77.45625 86.01771Q77.64375 86.76771 77.64375 88.04896Q77.64375 89.56458 77.33125 90.48646Q77.03438 91.40833 76.40938 91.92396Q75.8 92.42396 74.84688 92.42396Q73.6125 92.42396 72.89375 91.53333Q72.05 90.47083 72.05 88.04896ZM73.12813 88.04896Q73.12813 90.15833 73.62813 90.86146Q74.12813 91.56458 74.84688 91.56458Q75.58125 91.56458 76.06563 90.86146Q76.56563 90.15833 76.56563 88.04896Q76.56563 85.92396 76.06563 85.23646Q75.58125 84.53333 74.83125 84.53333Q74.1125 84.53333 73.675 85.14271Q73.12813 85.92396 73.12813 88.04896Z" fill-rule="nonzero"/><path fill="#000000" d="M114.416954 317.45L114.416954 312.04376L113.479454 312.04376L113.479454 311.23126L114.416954 311.23126L114.416954 310.5594Q114.416954 309.9344 114.52633 309.6375Q114.68258 309.21564 115.05758 308.96564Q115.448204 308.71564 116.135704 308.71564Q116.58883 308.71564 117.12008 308.825L116.96383 309.73126Q116.635704 309.6844 116.33883 309.6844Q115.854454 309.6844 115.65133 309.8875Q115.46383 310.09064 115.46383 310.65314L115.46383 311.23126L116.68258 311.23126L116.68258 312.04376L115.46383 312.04376L115.46383 317.45L114.416954 317.45ZM117.166954 319.84064L117.166954 311.23126L118.12008 311.23126L118.12008 312.02814Q118.46383 311.5594 118.885704 311.325Q119.323204 311.09064 119.93258 311.09064Q120.729454 311.09064 121.33883 311.4969Q121.948204 311.90314 122.24508 312.65314Q122.55758 313.40314 122.55758 314.29376Q122.55758 315.2469 122.21383 316.0125Q121.885704 316.77814 121.229454 317.1844Q120.573204 317.59064 119.854454 317.59064Q119.323204 317.59064 118.90133 317.3719Q118.479454 317.1375 118.21383 316.8094L118.21383 319.84064L117.166954 319.84064ZM118.12008 314.3719Q118.12008 315.575 118.604454 316.15314Q119.08883 316.71564 119.77633 316.71564Q120.479454 316.71564 120.979454 316.1219Q121.479454 315.52814 121.479454 314.27814Q121.479454 313.09064 120.99508 312.5125Q120.510704 311.91876 119.823204 311.91876Q119.15133 311.91876 118.635704 312.54376Q118.12008 313.16876 118.12008 314.3719ZM123.87008 315.1844L124.93258 315.04376Q125.104454 315.9344 125.541954 316.34064Q125.979454 316.73126 126.604454 316.73126Q127.354454 316.73126 127.87008 316.21564Q128.38571 315.7 128.38571 314.9344Q128.38571 314.21564 127.90133 313.7469Q127.43258 313.2625 126.698204 313.2625Q126.40133 313.2625 125.948204 313.3875L126.073204 312.45Q126.18258 312.46564 126.24508 312.46564Q126.916954 312.46564 127.448204 312.1219Q127.99508 311.7625 127.99508 311.02814Q127.99508 310.45 127.604454 310.075Q127.21383 309.6844 126.58883 309.6844Q125.979454 309.6844 125.55758 310.075Q125.15133 310.46564 125.041954 311.23126L123.979454 311.04376Q124.166954 309.9969 124.854454 309.41876Q125.541954 308.825 126.55758 308.825Q127.260704 308.825 127.854454 309.1375Q128.44821 309.4344 128.76071 309.95Q129.07321 310.46564 129.07321 311.0594Q129.07321 311.60626 128.77634 312.075Q128.47946 312.52814 127.90133 312.79376Q128.65134 312.96564 129.07321 313.52814Q129.49509 314.075 129.49509 314.91876Q129.49509 316.04376 128.66696 316.825Q127.854454 317.60626 126.604454 317.60626Q125.479454 317.60626 124.729454 316.9344Q123.979454 316.2469 123.87008 315.1844ZM136.41696 316.4344L136.41696 317.45L130.72946 317.45Q130.72946 317.075 130.85446 316.71564Q131.07321 316.1375 131.54196 315.575Q132.02634 315.0125 132.93259 314.27814Q134.33884 313.1219 134.82321 312.45Q135.32321 311.77814 135.32321 311.1844Q135.32321 310.5594 134.87009 310.1375Q134.41696 309.7 133.69821 309.7Q132.93259 309.7 132.47946 310.15314Q132.02634 310.60626 132.01071 311.41876L130.93259 311.3094Q131.04196 310.09064 131.76071 309.46564Q132.49509 308.825 133.72946 308.825Q134.96384 308.825 135.68259 309.5125Q136.40134 310.2 136.40134 311.21564Q136.40134 311.73126 136.18259 312.23126Q135.97946 312.71564 135.47946 313.27814Q134.99509 313.825 133.87009 314.77814Q132.91696 315.575 132.63571 315.8719Q132.37009 316.15314 132.19821 316.4344L136.41696 316.4344ZM140.74509 314.8719L140.74509 313.8094L143.99509 313.8094L143.99509 314.8719L140.74509 314.8719ZM153.33884 310.96564L152.29196 311.04376Q152.15134 310.41876 151.90134 310.1375Q151.46384 309.6844 150.83884 309.6844Q150.33884 309.6844 149.94821 309.96564Q149.46384 310.34064 149.16696 311.04376Q148.88571 311.73126 148.87009 313.0125Q149.24509 312.4344 149.79196 312.15314Q150.35446 311.8719 150.96384 311.8719Q152.01071 311.8719 152.74509 312.65314Q153.49509 313.4344 153.49509 314.65314Q153.49509 315.46564 153.13571 316.16876Q152.79196 316.85626 152.18259 317.23126Q151.57321 317.59064 150.80759 317.59064Q149.47946 317.59064 148.65134 316.6219Q147.82321 315.65314 147.82321 313.4344Q147.82321 310.9344 148.74509 309.8094Q149.54196 308.825 150.90134 308.825Q151.91696 308.825 152.55759 309.40314Q153.21384 309.96564 153.33884 310.96564ZM149.04196 314.66876Q149.04196 315.21564 149.26071 315.71564Q149.49509 316.2 149.90134 316.46564Q150.32321 316.73126 150.79196 316.73126Q151.44821 316.73126 151.93259 316.2Q152.41696 315.65314 152.41696 314.73126Q152.41696 313.84064 151.93259 313.325Q151.46384 312.8094 150.74509 312.8094Q150.02634 312.8094 149.52634 313.325Q149.04196 313.84064 149.04196 314.66876ZM158.24509 317.45L158.24509 315.3875L154.52634 315.3875L154.52634 314.41876L158.44821 308.85626L159.30759 308.85626L159.30759 314.41876L160.46384 314.41876L160.46384 315.3875L159.30759 315.3875L159.30759 317.45L158.24509 317.45ZM158.24509 314.41876L158.24509 310.5594L155.55759 314.41876L158.24509 314.41876Z" fill-rule="nonzero"/><path fill="#000000" d="M189.16891 317.45L189.16891 312.04376L188.23141 312.04376L188.23141 311.23126L189.16891 311.23126L189.16891 310.5594Q189.16891 309.9344 189.27829 309.6375Q189.43454 309.21564 189.80954 308.96564Q190.20016 308.71564 190.88766 308.71564Q191.34079 308.71564 191.87204 308.825L191.71579 309.73126Q191.38766 309.6844 191.09079 309.6844Q190.60641 309.6844 190.40329 309.8875Q190.21579 310.09064 190.21579 310.65314L190.21579 311.23126L191.43454 311.23126L191.43454 312.04376L190.21579 312.04376L190.21579 317.45L189.16891 317.45ZM191.91891 319.84064L191.91891 311.23126L192.87204 311.23126L192.87204 312.02814Q193.21579 311.5594 193.63766 311.325Q194.07516 311.09064 194.68454 311.09064Q195.48141 311.09064 196.09079 311.4969Q196.70016 311.90314 196.99704 312.65314Q197.30954 313.40314 197.30954 314.29376Q197.30954 315.2469 196.96579 316.0125Q196.63766 316.77814 195.98141 317.1844Q195.32516 317.59064 194.60641 317.59064Q194.07516 317.59064 193.65329 317.3719Q193.23141 317.1375 192.96579 316.8094L192.96579 319.84064L191.91891 319.84064ZM192.87204 314.3719Q192.87204 315.575 193.35641 316.15314Q193.84079 316.71564 194.52829 316.71564Q195.23141 316.71564 195.73141 316.1219Q196.23141 315.52814 196.23141 314.27814Q196.23141 313.09064 195.74704 312.5125Q195.26266 311.91876 194.57516 311.91876Q193.90329 311.91876 193.38766 312.54376Q192.87204 313.16876 192.87204 314.3719ZM198.62204 315.1844L199.68454 315.04376Q199.85641 315.9344 200.29391 316.34064Q200.73141 316.73126 201.35641 316.73126Q202.10641 316.73126 202.62204 316.21564Q203.13766 315.7 203.13766 314.9344Q203.13766 314.21564 202.65329 313.7469Q202.18454 313.2625 201.45016 313.2625Q201.15329 313.2625 200.70016 313.3875L200.82516 312.45Q200.93454 312.46564 200.99704 312.46564Q201.66891 312.46564 202.20016 312.1219Q202.74704 311.7625 202.74704 311.02814Q202.74704 310.45 202.35641 310.075Q201.96579 309.6844 201.34079 309.6844Q200.73141 309.6844 200.30954 310.075Q199.90329 310.46564 199.79391 311.23126L198.73141 311.04376Q198.91891 309.9969 199.60641 309.41876Q200.29391 308.825 201.30954 308.825Q202.01266 308.825 202.60641 309.1375Q203.20016 309.4344 203.51266 309.95Q203.82516 310.46564 203.82516 311.0594Q203.82516 311.60626 203.52829 312.075Q203.23141 312.52814 202.65329 312.79376Q203.40329 312.96564 203.82516 313.52814Q204.24704 314.075 204.24704 314.91876Q204.24704 316.04376 203.41891 316.825Q202.60641 317.60626 201.35641 317.60626Q200.23141 317.60626 199.48141 316.9344Q198.73141 316.2469 198.62204 315.1844ZM211.16891 316.4344L211.16891 317.45L205.48141 317.45Q205.48141 317.075 205.60641 316.71564Q205.82516 316.1375 206.29391 315.575Q206.77829 315.0125 207.68454 314.27814Q209.09079 313.1219 209.57516 312.45Q210.07516 311.77814 210.07516 311.1844Q210.07516 310.5594 209.62204 310.1375Q209.16891 309.7 208.45016 309.7Q207.68454 309.7 207.23141 310.15314Q206.77829 310.60626 206.76266 311.41876L205.68454 311.3094Q205.79391 310.09064 206.51266 309.46564Q207.24704 308.825 208.48141 308.825Q209.71579 308.825 210.43454 309.5125Q211.15329 310.2 211.15329 311.21564Q211.15329 311.73126 210.93454 312.23126Q210.73141 312.71564 210.23141 313.27814Q209.74704 313.825 208.62204 314.77814Q207.66891 315.575 207.38766 315.8719Q207.12204 316.15314 206.95016 316.4344L211.16891 316.4344ZM215.49704 314.8719L215.49704 313.8094L218.74704 313.8094L218.74704 314.8719L215.49704 314.8719ZM226.59079 317.45L225.54391 317.45L225.54391 310.73126Q225.15329 311.09064 224.52829 311.46564Q223.91891 311.825 223.43454 311.9969L223.43454 310.98126Q224.30954 310.5594 224.96579 309.98126Q225.63766 309.3875 225.91891 308.825L226.59079 308.825L226.59079 317.45ZM235.16891 316.4344L235.16891 317.45L229.48141 317.45Q229.48141 317.075 229.60641 316.71564Q229.82516 316.1375 230.29391 315.575Q230.77829 315.0125 231.68454 314.27814Q233.09079 313.1219 233.57516 312.45Q234.07516 311.77814 234.07516 311.1844Q234.07516 310.5594 233.62204 310.1375Q233.16891 309.7 232.45016 309.7Q231.68454 309.7 231.23141 310.15314Q230.77829 310.60626 230.76266 311.41876L229.68454 311.3094Q229.79391 310.09064 230.51266 309.46564Q231.24704 308.825 232.48141 308.825Q233.71579 308.825 234.43454 309.5125Q235.15329 310.2 235.15329 311.21564Q235.15329 311.73126 234.93454 312.23126Q234.73141 312.71564 234.23141 313.27814Q233.74704 313.825 232.62204 314.77814Q231.66891 315.575 231.38766 315.8719Q231.12204 316.15314 230.95016 316.4344L235.16891 316.4344ZM238.24704 312.79376Q237.59079 312.54376 237.26266 312.10626Q236.95016 311.65314 236.95016 311.04376Q236.95016 310.10626 237.62204 309.46564Q238.30954 308.825 239.41891 308.825Q240.54391 308.825 241.23141 309.48126Q241.91891 310.1375 241.91891 311.075Q241.91891 311.66876 241.60641 312.10626Q241.29391 312.54376 240.65329 312.79376Q241.45016 313.04376 241.85641 313.6219Q242.26266 314.2 242.26266 314.9969Q242.26266 316.09064 241.48141 316.84064Q240.71579 317.59064 239.43454 317.59064Q238.16891 317.59064 237.38766 316.84064Q236.60641 316.09064 236.60641 314.96564Q236.60641 314.1219 237.02829 313.5594Q237.46579 312.9969 238.24704 312.79376ZM238.02829 310.9969Q238.02829 311.60626 238.41891 311.9969Q238.82516 312.3875 239.45016 312.3875Q240.05954 312.3875 240.45016 312.0125Q240.84079 311.6219 240.84079 311.0594Q240.84079 310.48126 240.43454 310.09064Q240.02829 309.6844 239.43454 309.6844Q238.82516 309.6844 238.41891 310.075Q238.02829 310.46564 238.02829 310.9969ZM237.70016 314.96564Q237.70016 315.41876 237.90329 315.84064Q238.12204 316.2625 238.54391 316.4969Q238.96579 316.73126 239.45016 316.73126Q240.20016 316.73126 240.68454 316.2469Q241.18454 315.7625 241.18454 315.0125Q241.18454 314.2469 240.68454 313.7469Q240.18454 313.2469 239.41891 313.2469Q238.66891 313.2469 238.18454 313.7469Q237.70016 314.23126 237.70016 314.96564Z" fill-rule="nonzero"/><path fill="#000000" d="M267.4209 317.45L267.4209 312.04376L266.4834 312.04376L266.4834 311.23126L267.4209 311.23126L267.4209 310.5594Q267.4209 309.9344 267.53027 309.6375Q267.68652 309.21564 268.06152 308.96564Q268.45215 308.71564 269.13965 308.71564Q269.59277 308.71564 270.12402 308.825L269.96777 309.73126Q269.63965 309.6844 269.34277 309.6844Q268.8584 309.6844 268.65527 309.8875Q268.46777 310.09064 268.46777 310.65314L268.46777 311.23126L269.68652 311.23126L269.68652 312.04376L268.46777 312.04376L268.46777 317.45L267.4209 317.45ZM270.1709 319.84064L270.1709 311.23126L271.12402 311.23126L271.12402 312.02814Q271.46777 311.5594 271.88965 311.325Q272.32715 311.09064 272.93652 311.09064Q273.7334 311.09064 274.34277 311.4969Q274.95215 311.90314 275.24902 312.65314Q275.56152 313.40314 275.56152 314.29376Q275.56152 315.2469 275.21777 316.0125Q274.88965 316.77814 274.2334 317.1844Q273.57715 317.59064 272.8584 317.59064Q272.32715 317.59064 271.90527 317.3719Q271.4834 317.1375 271.21777 316.8094L271.21777 319.84064L270.1709 319.84064ZM271.12402 314.3719Q271.12402 315.575 271.6084 316.15314Q272.09277 316.71564 272.78027 316.71564Q273.4834 316.71564 273.9834 316.1219Q274.4834 315.52814 274.4834 314.27814Q274.4834 313.09064 273.99902 312.5125Q273.51465 311.91876 272.82715 311.91876Q272.15527 311.91876 271.63965 312.54376Q271.12402 313.16876 271.12402 314.3719ZM276.87402 315.1844L277.93652 315.04376Q278.1084 315.9344 278.5459 316.34064Q278.9834 316.73126 279.6084 316.73126Q280.3584 316.73126 280.87402 316.21564Q281.38965 315.7 281.38965 314.9344Q281.38965 314.21564 280.90527 313.7469Q280.43652 313.2625 279.70215 313.2625Q279.40527 313.2625 278.95215 313.3875L279.07715 312.45Q279.18652 312.46564 279.24902 312.46564Q279.9209 312.46564 280.45215 312.1219Q280.99902 311.7625 280.99902 311.02814Q280.99902 310.45 280.6084 310.075Q280.21777 309.6844 279.59277 309.6844Q278.9834 309.6844 278.56152 310.075Q278.15527 310.46564 278.0459 311.23126L276.9834 311.04376Q277.1709 309.9969 277.8584 309.41876Q278.5459 308.825 279.56152 308.825Q280.26465 308.825 280.8584 309.1375Q281.45215 309.4344 281.76465 309.95Q282.07715 310.46564 282.07715 311.0594Q282.07715 311.60626 281.78027 312.075Q281.4834 312.52814 280.90527 312.79376Q281.65527 312.96564 282.07715 313.52814Q282.49902 314.075 282.49902 314.91876Q282.49902 316.04376 281.6709 316.825Q280.8584 317.60626 279.6084 317.60626Q278.4834 317.60626 277.7334 316.9344Q276.9834 316.2469 276.87402 315.1844ZM289.4209 316.4344L289.4209 317.45L283.7334 317.45Q283.7334 317.075 283.8584 316.71564Q284.07715 316.1375 284.5459 315.575Q285.03027 315.0125 285.93652 314.27814Q287.34277 313.1219 287.82715 312.45Q288.32715 311.77814 288.32715 311.1844Q288.32715 310.5594 287.87402 310.1375Q287.4209 309.7 286.70215 309.7Q285.93652 309.7 285.4834 310.15314Q285.03027 310.60626 285.01465 311.41876L283.93652 311.3094Q284.0459 310.09064 284.76465 309.46564Q285.49902 308.825 286.7334 308.825Q287.96777 308.825 288.68652 309.5125Q289.40527 310.2 289.40527 311.21564Q289.40527 311.73126 289.18652 312.23126Q288.9834 312.71564 288.4834 313.27814Q287.99902 313.825 286.87402 314.77814Q285.9209 315.575 285.63965 315.8719Q285.37402 316.15314 285.20215 316.4344L289.4209 316.4344ZM293.74902 314.8719L293.74902 313.8094L296.99902 313.8094L296.99902 314.8719L293.74902 314.8719ZM306.4209 316.4344L306.4209 317.45L300.7334 317.45Q300.7334 317.075 300.8584 316.71564Q301.07715 316.1375 301.5459 315.575Q302.03027 315.0125 302.93652 314.27814Q304.34277 313.1219 304.82715 312.45Q305.32715 311.77814 305.32715 311.1844Q305.32715 310.5594 304.87402 310.1375Q304.4209 309.7 303.70215 309.7Q302.93652 309.7 302.4834 310.15314Q302.03027 310.60626 302.01465 311.41876L300.93652 311.3094Q301.0459 310.09064 301.76465 309.46564Q302.49902 308.825 303.7334 308.825Q304.96777 308.825 305.68652 309.5125Q306.40527 310.2 306.40527 311.21564Q306.40527 311.73126 306.18652 312.23126Q305.9834 312.71564 305.4834 313.27814Q304.99902 313.825 303.87402 314.77814Q302.9209 315.575 302.63965 315.8719Q302.37402 316.15314 302.20215 316.4344L306.4209 316.4344ZM307.87402 315.2L308.9834 315.10626Q309.1084 315.91876 309.5459 316.325Q309.99902 316.73126 310.63965 316.73126Q311.38965 316.73126 311.9209 316.15314Q312.45215 315.575 312.45215 314.6375Q312.45215 313.73126 311.93652 313.21564Q311.43652 312.6844 310.6084 312.6844Q310.1084 312.6844 309.68652 312.91876Q309.28027 313.15314 309.0459 313.5125L308.06152 313.3875L308.88965 308.98126L313.1709 308.98126L313.1709 309.98126L309.7334 309.98126L309.28027 312.29376Q310.0459 311.7469 310.88965 311.7469Q312.01465 311.7469 312.78027 312.52814Q313.56152 313.3094 313.56152 314.54376Q313.56152 315.7 312.88965 316.5594Q312.06152 317.59064 310.63965 317.59064Q309.46777 317.59064 308.71777 316.9344Q307.9834 316.27814 307.87402 315.2ZM320.34277 310.96564L319.2959 311.04376Q319.15527 310.41876 318.90527 310.1375Q318.46777 309.6844 317.84277 309.6844Q317.34277 309.6844 316.95215 309.96564Q316.46777 310.34064 316.1709 311.04376Q315.88965 311.73126 315.87402 313.0125Q316.24902 312.4344 316.7959 312.15314Q317.3584 311.8719 317.96777 311.8719Q319.01465 311.8719 319.74902 312.65314Q320.49902 313.4344 320.49902 314.65314Q320.49902 315.46564 320.13965 316.16876Q319.7959 316.85626 319.18652 317.23126Q318.57715 317.59064 317.81152 317.59064Q316.4834 317.59064 315.65527 316.6219Q314.82715 315.65314 314.82715 313.4344Q314.82715 310.9344 315.74902 309.8094Q316.5459 308.825 317.90527 308.825Q318.9209 308.825 319.56152 309.40314Q320.21777 309.96564 320.34277 310.96564ZM316.0459 314.66876Q316.0459 315.21564 316.26465 315.71564Q316.49902 316.2 316.90527 316.46564Q317.32715 316.73126 317.7959 316.73126Q318.45215 316.73126 318.93652 316.2Q319.4209 315.65314 319.4209 314.73126Q319.4209 313.84064 318.93652 313.325Q318.46777 312.8094 317.74902 312.8094Q317.03027 312.8094 316.53027 313.325Q316.0459 313.84064 316.0459 314.66876Z" fill-rule="nonzero"/><path fill="#000000" d="M349.17285 317.45L349.17285 312.04376L348.23535 312.04376L348.23535 311.23126L349.17285 311.23126L349.17285 310.5594Q349.17285 309.9344 349.28223 309.6375Q349.43848 309.21564 349.81348 308.96564Q350.2041 308.71564 350.8916 308.71564Q351.34473 308.71564 351.87598 308.825L351.71973 309.73126Q351.3916 309.6844 351.09473 309.6844Q350.61035 309.6844 350.40723 309.8875Q350.21973 310.09064 350.21973 310.65314L350.21973 311.23126L351.43848 311.23126L351.43848 312.04376L350.21973 312.04376L350.21973 317.45L349.17285 317.45ZM351.92285 319.84064L351.92285 311.23126L352.87598 311.23126L352.87598 312.02814Q353.21973 311.5594 353.6416 311.325Q354.0791 311.09064 354.68848 311.09064Q355.48535 311.09064 356.09473 311.4969Q356.7041 311.90314 357.00098 312.65314Q357.31348 313.40314 357.31348 314.29376Q357.31348 315.2469 356.96973 316.0125Q356.6416 316.77814 355.98535 317.1844Q355.3291 317.59064 354.61035 317.59064Q354.0791 317.59064 353.65723 317.3719Q353.23535 317.1375 352.96973 316.8094L352.96973 319.84064L351.92285 319.84064ZM352.87598 314.3719Q352.87598 315.575 353.36035 316.15314Q353.84473 316.71564 354.53223 316.71564Q355.23535 316.71564 355.73535 316.1219Q356.23535 315.52814 356.23535 314.27814Q356.23535 313.09064 355.75098 312.5125Q355.2666 311.91876 354.5791 311.91876Q353.90723 311.91876 353.3916 312.54376Q352.87598 313.16876 352.87598 314.3719ZM362.59473 317.45L361.54785 317.45L361.54785 310.73126Q361.15723 311.09064 360.53223 311.46564Q359.92285 311.825 359.43848 311.9969L359.43848 310.98126Q360.31348 310.5594 360.96973 309.98126Q361.6416 309.3875 361.92285 308.825L362.59473 308.825L362.59473 317.45ZM371.09473 310.96564L370.04785 311.04376Q369.90723 310.41876 369.65723 310.1375Q369.21973 309.6844 368.59473 309.6844Q368.09473 309.6844 367.7041 309.96564Q367.21973 310.34064 366.92285 311.04376Q366.6416 311.73126 366.62598 313.0125Q367.00098 312.4344 367.54785 312.15314Q368.11035 311.8719 368.71973 311.8719Q369.7666 311.8719 370.50098 312.65314Q371.25098 313.4344 371.25098 314.65314Q371.25098 315.46564 370.8916 316.16876Q370.54785 316.85626 369.93848 317.23126Q369.3291 317.59064 368.56348 317.59064Q367.23535 317.59064 366.40723 316.6219Q365.5791 315.65314 365.5791 313.4344Q365.5791 310.9344 366.50098 309.8094Q367.29785 308.825 368.65723 308.825Q369.67285 308.825 370.31348 309.40314Q370.96973 309.96564 371.09473 310.96564ZM366.79785 314.66876Q366.79785 315.21564 367.0166 315.71564Q367.25098 316.2 367.65723 316.46564Q368.0791 316.73126 368.54785 316.73126Q369.2041 316.73126 369.68848 316.2Q370.17285 315.65314 370.17285 314.73126Q370.17285 313.84064 369.68848 313.325Q369.21973 312.8094 368.50098 312.8094Q367.78223 312.8094 367.28223 313.325Q366.79785 313.84064 366.79785 314.66876ZM375.50098 314.8719L375.50098 313.8094L378.75098 313.8094L378.75098 314.8719L375.50098 314.8719ZM388.09473 310.96564L387.04785 311.04376Q386.90723 310.41876 386.65723 310.1375Q386.21973 309.6844 385.59473 309.6844Q385.09473 309.6844 384.7041 309.96564Q384.21973 310.34064 383.92285 311.04376Q383.6416 311.73126 383.62598 313.0125Q384.00098 312.4344 384.54785 312.15314Q385.11035 311.8719 385.71973 311.8719Q386.7666 311.8719 387.50098 312.65314Q388.25098 313.4344 388.25098 314.65314Q388.25098 315.46564 387.8916 316.16876Q387.54785 316.85626 386.93848 317.23126Q386.3291 317.59064 385.56348 317.59064Q384.23535 317.59064 383.40723 316.6219Q382.5791 315.65314 382.5791 313.4344Q382.5791 310.9344 383.50098 309.8094Q384.29785 308.825 385.65723 308.825Q386.67285 308.825 387.31348 309.40314Q387.96973 309.96564 388.09473 310.96564ZM383.79785 314.66876Q383.79785 315.21564 384.0166 315.71564Q384.25098 316.2 384.65723 316.46564Q385.0791 316.73126 385.54785 316.73126Q386.2041 316.73126 386.68848 316.2Q387.17285 315.65314 387.17285 314.73126Q387.17285 313.84064 386.68848 313.325Q386.21973 312.8094 385.50098 312.8094Q384.78223 312.8094 384.28223 313.325Q383.79785 313.84064 383.79785 314.66876ZM393.00098 317.45L393.00098 315.3875L389.28223 315.3875L389.28223 314.41876L393.2041 308.85626L394.06348 308.85626L394.06348 314.41876L395.21973 314.41876L395.21973 315.3875L394.06348 315.3875L394.06348 317.45L393.00098 317.45ZM393.00098 314.41876L393.00098 310.5594L390.31348 314.41876L393.00098 314.41876Z" fill-rule="nonzero"/><path fill="#000000" d="M423.92484 317.45L423.92484 312.04376L422.98734 312.04376L422.98734 311.23126L423.92484 311.23126L423.92484 310.5594Q423.92484 309.9344 424.0342 309.6375Q424.19046 309.21564 424.56546 308.96564Q424.9561 308.71564 425.6436 308.71564Q426.0967 308.71564 426.62796 308.825L426.4717 309.73126Q426.1436 309.6844 425.8467 309.6844Q425.36234 309.6844 425.1592 309.8875Q424.9717 310.09064 424.9717 310.65314L424.9717 311.23126L426.19046 311.23126L426.19046 312.04376L424.9717 312.04376L424.9717 317.45L423.92484 317.45ZM426.67484 319.84064L426.67484 311.23126L427.62796 311.23126L427.62796 312.02814Q427.9717 311.5594 428.3936 311.325Q428.8311 311.09064 429.44046 311.09064Q430.23734 311.09064 430.8467 311.4969Q431.4561 311.90314 431.75296 312.65314Q432.06546 313.40314 432.06546 314.29376Q432.06546 315.2469 431.7217 316.0125Q431.3936 316.77814 430.73734 317.1844Q430.0811 317.59064 429.36234 317.59064Q428.8311 317.59064 428.4092 317.3719Q427.98734 317.1375 427.7217 316.8094L427.7217 319.84064L426.67484 319.84064ZM427.62796 314.3719Q427.62796 315.575 428.11234 316.15314Q428.5967 316.71564 429.2842 316.71564Q429.98734 316.71564 430.48734 316.1219Q430.98734 315.52814 430.98734 314.27814Q430.98734 313.09064 430.50296 312.5125Q430.0186 311.91876 429.3311 311.91876Q428.6592 311.91876 428.1436 312.54376Q427.62796 313.16876 427.62796 314.3719ZM437.3467 317.45L436.29984 317.45L436.29984 310.73126Q435.9092 311.09064 435.2842 311.46564Q434.67484 311.825 434.19046 311.9969L434.19046 310.98126Q435.06546 310.5594 435.7217 309.98126Q436.3936 309.3875 436.67484 308.825L437.3467 308.825L437.3467 317.45ZM445.8467 310.96564L444.79984 311.04376Q444.6592 310.41876 444.4092 310.1375Q443.9717 309.6844 443.3467 309.6844Q442.8467 309.6844 442.4561 309.96564Q441.9717 310.34064 441.67484 311.04376Q441.3936 311.73126 441.37796 313.0125Q441.75296 312.4344 442.29984 312.15314Q442.86234 311.8719 443.4717 311.8719Q444.5186 311.8719 445.25296 312.65314Q446.00296 313.4344 446.00296 314.65314Q446.00296 315.46564 445.6436 316.16876Q445.29984 316.85626 444.69046 317.23126Q444.0811 317.59064 443.31546 317.59064Q441.98734 317.59064 441.1592 316.6219Q440.3311 315.65314 440.3311 313.4344Q440.3311 310.9344 441.25296 309.8094Q442.04984 308.825 443.4092 308.825Q444.42484 308.825 445.06546 309.40314Q445.7217 309.96564 445.8467 310.96564ZM441.54984 314.66876Q441.54984 315.21564 441.7686 315.71564Q442.00296 316.2 442.4092 316.46564Q442.8311 316.73126 443.29984 316.73126Q443.9561 316.73126 444.44046 316.2Q444.92484 315.65314 444.92484 314.73126Q444.92484 313.84064 444.44046 313.325Q443.9717 312.8094 443.25296 312.8094Q442.5342 312.8094 442.0342 313.325Q441.54984 313.84064 441.54984 314.66876ZM450.25296 314.8719L450.25296 313.8094L453.50296 313.8094L453.50296 314.8719L450.25296 314.8719ZM461.3467 317.45L460.29984 317.45L460.29984 310.73126Q459.9092 311.09064 459.2842 311.46564Q458.67484 311.825 458.19046 311.9969L458.19046 310.98126Q459.06546 310.5594 459.7217 309.98126Q460.3936 309.3875 460.67484 308.825L461.3467 308.825L461.3467 317.45ZM469.92484 316.4344L469.92484 317.45L464.23734 317.45Q464.23734 317.075 464.36234 316.71564Q464.5811 316.1375 465.04984 315.575Q465.5342 315.0125 466.44046 314.27814Q467.8467 313.1219 468.3311 312.45Q468.8311 311.77814 468.8311 311.1844Q468.8311 310.5594 468.37796 310.1375Q467.92484 309.7 467.2061 309.7Q466.44046 309.7 465.98734 310.15314Q465.5342 310.60626 465.5186 311.41876L464.44046 311.3094Q464.54984 310.09064 465.2686 309.46564Q466.00296 308.825 467.23734 308.825Q468.4717 308.825 469.19046 309.5125Q469.9092 310.2 469.9092 311.21564Q469.9092 311.73126 469.69046 312.23126Q469.48734 312.71564 468.98734 313.27814Q468.50296 313.825 467.37796 314.77814Q466.42484 315.575 466.1436 315.8719Q465.87796 316.15314 465.7061 316.4344L469.92484 316.4344ZM473.00296 312.79376Q472.3467 312.54376 472.0186 312.10626Q471.7061 311.65314 471.7061 311.04376Q471.7061 310.10626 472.37796 309.46564Q473.06546 308.825 474.17484 308.825Q475.29984 308.825 475.98734 309.48126Q476.67484 310.1375 476.67484 311.075Q476.67484 311.66876 476.36234 312.10626Q476.04984 312.54376 475.4092 312.79376Q476.2061 313.04376 476.61234 313.6219Q477.0186 314.2 477.0186 314.9969Q477.0186 316.09064 476.23734 316.84064Q475.4717 317.59064 474.19046 317.59064Q472.92484 317.59064 472.1436 316.84064Q471.36234 316.09064 471.36234 314.96564Q471.36234 314.1219 471.7842 313.5594Q472.2217 312.9969 473.00296 312.79376ZM472.7842 310.9969Q472.7842 311.60626 473.17484 311.9969Q473.5811 312.3875 474.2061 312.3875Q474.81546 312.3875 475.2061 312.0125Q475.5967 311.6219 475.5967 311.0594Q475.5967 310.48126 475.19046 310.09064Q474.7842 309.6844 474.19046 309.6844Q473.5811 309.6844 473.17484 310.075Q472.7842 310.46564 472.7842 310.9969ZM472.4561 314.96564Q472.4561 315.41876 472.6592 315.84064Q472.87796 316.2625 473.29984 316.4969Q473.7217 316.73126 474.2061 316.73126Q474.9561 316.73126 475.44046 316.2469Q475.94046 315.7625 475.94046 315.0125Q475.94046 314.2469 475.44046 313.7469Q474.94046 313.2469 474.17484 313.2469Q473.42484 313.2469 472.94046 313.7469Q472.4561 314.23126 472.4561 314.96564Z" fill-rule="nonzero"/><path fill="#000000" d="M502.1768 317.45L502.1768 312.04376L501.2393 312.04376L501.2393 311.23126L502.1768 311.23126L502.1768 310.5594Q502.1768 309.9344 502.28616 309.6375Q502.4424 309.21564 502.8174 308.96564Q503.20804 308.71564 503.89554 308.71564Q504.34866 308.71564 504.8799 308.825L504.72366 309.73126Q504.39554 309.6844 504.09866 309.6844Q503.6143 309.6844 503.41116 309.8875Q503.22366 310.09064 503.22366 310.65314L503.22366 311.23126L504.4424 311.23126L504.4424 312.04376L503.22366 312.04376L503.22366 317.45L502.1768 317.45ZM504.9268 319.84064L504.9268 311.23126L505.8799 311.23126L505.8799 312.02814Q506.22366 311.5594 506.64554 311.325Q507.08304 311.09064 507.6924 311.09064Q508.4893 311.09064 509.09866 311.4969Q509.70804 311.90314 510.0049 312.65314Q510.3174 313.40314 510.3174 314.29376Q510.3174 315.2469 509.97366 316.0125Q509.64554 316.77814 508.9893 317.1844Q508.33304 317.59064 507.6143 317.59064Q507.08304 317.59064 506.66116 317.3719Q506.2393 317.1375 505.97366 316.8094L505.97366 319.84064L504.9268 319.84064ZM505.8799 314.3719Q505.8799 315.575 506.3643 316.15314Q506.84866 316.71564 507.53616 316.71564Q508.2393 316.71564 508.7393 316.1219Q509.2393 315.52814 509.2393 314.27814Q509.2393 313.09064 508.7549 312.5125Q508.27054 311.91876 507.58304 311.91876Q506.91116 311.91876 506.39554 312.54376Q505.8799 313.16876 505.8799 314.3719ZM515.59863 317.45L514.55176 317.45L514.55176 310.73126Q514.16113 311.09064 513.53613 311.46564Q512.92676 311.825 512.4424 311.9969L512.4424 310.98126Q513.3174 310.5594 513.97363 309.98126Q514.6455 309.3875 514.92676 308.825L515.59863 308.825L515.59863 317.45ZM524.09863 310.96564L523.05176 311.04376Q522.91113 310.41876 522.66113 310.1375Q522.22363 309.6844 521.59863 309.6844Q521.09863 309.6844 520.708 309.96564Q520.22363 310.34064 519.92676 311.04376Q519.6455 311.73126 519.6299 313.0125Q520.0049 312.4344 520.55176 312.15314Q521.11426 311.8719 521.72363 311.8719Q522.7705 311.8719 523.5049 312.65314Q524.2549 313.4344 524.2549 314.65314Q524.2549 315.46564 523.8955 316.16876Q523.55176 316.85626 522.9424 317.23126Q522.333 317.59064 521.5674 317.59064Q520.23926 317.59064 519.41113 316.6219Q518.583 315.65314 518.583 313.4344Q518.583 310.9344 519.5049 309.8094Q520.30176 308.825 521.66113 308.825Q522.67676 308.825 523.3174 309.40314Q523.97363 309.96564 524.09863 310.96564ZM519.80176 314.66876Q519.80176 315.21564 520.0205 315.71564Q520.2549 316.2 520.66113 316.46564Q521.083 316.73126 521.55176 316.73126Q522.208 316.73126 522.6924 316.2Q523.17676 315.65314 523.17676 314.73126Q523.17676 313.84064 522.6924 313.325Q522.22363 312.8094 521.5049 312.8094Q520.78613 312.8094 520.28613 313.325Q519.80176 313.84064 519.80176 314.66876ZM528.5049 314.8719L528.5049 313.8094L531.7549 313.8094L531.7549 314.8719L528.5049 314.8719ZM541.17676 316.4344L541.17676 317.45L535.48926 317.45Q535.48926 317.075 535.61426 316.71564Q535.833 316.1375 536.30176 315.575Q536.78613 315.0125 537.6924 314.27814Q539.09863 313.1219 539.583 312.45Q540.083 311.77814 540.083 311.1844Q540.083 310.5594 539.6299 310.1375Q539.17676 309.7 538.458 309.7Q537.6924 309.7 537.23926 310.15314Q536.78613 310.60626 536.7705 311.41876L535.6924 311.3094Q535.80176 310.09064 536.5205 309.46564Q537.2549 308.825 538.48926 308.825Q539.72363 308.825 540.4424 309.5125Q541.16113 310.2 541.16113 311.21564Q541.16113 311.73126 540.9424 312.23126Q540.73926 312.71564 540.23926 313.27814Q539.7549 313.825 538.6299 314.77814Q537.67676 315.575 537.3955 315.8719Q537.1299 316.15314 536.958 316.4344L541.17676 316.4344ZM542.6299 315.2L543.73926 315.10626Q543.86426 315.91876 544.30176 316.325Q544.7549 316.73126 545.3955 316.73126Q546.1455 316.73126 546.67676 316.15314Q547.208 315.575 547.208 314.6375Q547.208 313.73126 546.6924 313.21564Q546.1924 312.6844 545.36426 312.6844Q544.86426 312.6844 544.4424 312.91876Q544.03613 313.15314 543.80176 313.5125L542.8174 313.3875L543.6455 308.98126L547.92676 308.98126L547.92676 309.98126L544.48926 309.98126L544.03613 312.29376Q544.80176 311.7469 545.6455 311.7469Q546.7705 311.7469 547.53613 312.52814Q548.3174 313.3094 548.3174 314.54376Q548.3174 315.7 547.6455 316.5594Q546.8174 317.59064 545.3955 317.59064Q544.22363 317.59064 543.47363 316.9344Q542.73926 316.27814 542.6299 315.2ZM555.09863 310.96564L554.05176 311.04376Q553.91113 310.41876 553.66113 310.1375Q553.22363 309.6844 552.59863 309.6844Q552.09863 309.6844 551.708 309.96564Q551.22363 310.34064 550.92676 311.04376Q550.6455 311.73126 550.6299 313.0125Q551.0049 312.4344 551.55176 312.15314Q552.11426 311.8719 552.72363 311.8719Q553.7705 311.8719 554.5049 312.65314Q555.2549 313.4344 555.2549 314.65314Q555.2549 315.46564 554.8955 316.16876Q554.55176 316.85626 553.9424 317.23126Q553.333 317.59064 552.5674 317.59064Q551.23926 317.59064 550.41113 316.6219Q549.583 315.65314 549.583 313.4344Q549.583 310.9344 550.5049 309.8094Q551.30176 308.825 552.66113 308.825Q553.67676 308.825 554.3174 309.40314Q554.97363 309.96564 555.09863 310.96564ZM550.80176 314.66876Q550.80176 315.21564 551.0205 315.71564Q551.2549 316.2 551.66113 316.46564Q552.083 316.73126 552.55176 316.73126Q553.208 316.73126 553.6924 316.2Q554.17676 315.65314 554.17676 314.73126Q554.17676 313.84064 553.6924 313.325Q553.22363 312.8094 552.5049 312.8094Q551.78613 312.8094 551.28613 313.325Q550.80176 313.84064 550.80176 314.66876Z" fill-rule="nonzero"/><path fill="#4285f4" d="M197.0 56.916668C197.0 56.364384 197.44771 55.916668 198.0 55.916668L208.0 55.916668C208.55229 55.916668 209.0 56.364384 209.0 56.916668L209.0 66.916664C209.0 67.46895 208.55229 67.916664 208.0 67.916664L198.0 67.916664C197.44771 67.916664 197.0 67.46895 197.0 66.916664Z" fill-rule="nonzero"/><path fill="#1a1a1a" d="M221.46875 65.916664L220.42188 65.916664L220.42188 59.197914Q220.03125 59.55729 219.40625 59.93229Q218.79688 60.291664 218.3125 60.46354L218.3125 59.447914Q219.1875 59.02604 219.84375 58.447914Q220.51562 57.854164 220.79688 57.291664L221.46875 57.291664L221.46875 65.916664Z" fill-rule="nonzero"/><path fill="#ea4335" d="M240.0 56.916668C240.0 56.364384 240.44771 55.916668 241.0 55.916668L251.0 55.916668C251.55229 55.916668 252.0 56.364384 252.0 56.916668L252.0 66.916664C252.0 67.46895 251.55229 67.916664 251.0 67.916664L241.0 67.916664C240.44771 67.916664 240.0 67.46895 240.0 66.916664Z" fill-rule="nonzero"/><path fill="#1a1a1a" d="M266.04688 64.90104L266.04688 65.916664L260.35938 65.916664Q260.35938 65.541664 260.48438 65.18229Q260.70312 64.604164 261.17188 64.041664Q261.65625 63.479164 262.5625 62.74479Q263.96875 61.58854 264.45312 60.916664Q264.95312 60.24479 264.95312 59.65104Q264.95312 59.02604 264.5 58.604164Q264.04688 58.166664 263.32812 58.166664Q262.5625 58.166664 262.10938 58.61979Q261.65625 59.072914 261.64062 59.885414L260.5625 59.77604Q260.67188 58.55729 261.39062 57.93229Q262.125 57.291664 263.35938 57.291664Q264.59375 57.291664 265.3125 57.979164Q266.03125 58.666664 266.03125 59.68229Q266.03125 60.197914 265.8125 60.697914Q265.60938 61.18229 265.10938 61.74479Q264.625 62.291664 263.5 63.24479Q262.54688 64.041664 262.26562 64.33854Q262.0 64.61979 261.82812 64.90104L266.04688 64.90104Z" fill-rule="nonzero"/><path fill="#fbbc04" d="M283.0 56.916668C283.0 56.364384 283.44772 55.916668 284.0 55.916668L294.0 55.916668C294.55228 55.916668 295.0 56.364384 295.0 56.916668L295.0 66.916664C295.0 67.46895 294.55228 67.916664 294.0 67.916664L284.0 67.916664C283.44772 67.916664 283.0 67.46895 283.0 66.916664Z" fill-rule="nonzero"/><path fill="#1a1a1a" d="M306.875 65.916664L306.875 63.854164L303.15625 63.854164L303.15625 62.885414L307.07812 57.322914L307.9375 57.322914L307.9375 62.885414L309.09375 62.885414L309.09375 63.854164L307.9375 63.854164L307.9375 65.916664L306.875 65.916664ZM306.875 62.885414L306.875 59.02604L304.1875 62.885414L306.875 62.885414Z" fill-rule="nonzero"/><path fill="#34a853" d="M326.0 56.916668C326.0 56.364384 326.44772 55.916668 327.0 55.916668L337.0 55.916668C337.55228 55.916668 338.0 56.364384 338.0 56.916668L338.0 66.916664C338.0 67.46895 337.55228 67.916664 337.0 67.916664L327.0 67.916664C326.44772 67.916664 326.0 67.46895 326.0 66.916664Z" fill-rule="nonzero"/><path fill="#1a1a1a" d="M348.125 61.260414Q347.46875 61.010414 347.14062 60.572914Q346.82812 60.11979 346.82812 59.510414Q346.82812 58.572914 347.5 57.93229Q348.1875 57.291664 349.29688 57.291664Q350.42188 57.291664 351.10938 57.947914Q351.79688 58.604164 351.79688 59.541664Q351.79688 60.135414 351.48438 60.572914Q351.17188 61.010414 350.53125 61.260414Q351.32812 61.510414 351.73438 62.08854Q352.14062 62.666664 352.14062 63.46354Q352.14062 64.55729 351.35938 65.30729Q350.59375 66.05729 349.3125 66.05729Q348.04688 66.05729 347.26562 65.30729Q346.48438 64.55729 346.48438 63.43229Q346.48438 62.58854 346.90625 62.02604Q347.34375 61.46354 348.125 61.260414ZM347.90625 59.46354Q347.90625 60.072914 348.29688 60.46354Q348.70312 60.854164 349.32812 60.854164Q349.9375 60.854164 350.32812 60.479164Q350.71875 60.08854 350.71875 59.52604Q350.71875 58.947914 350.3125 58.55729Q349.90625 58.15104 349.3125 58.15104Q348.70312 58.15104 348.29688 58.541664Q347.90625 58.93229 347.90625 59.46354ZM347.57812 63.43229Q347.57812 63.885414 347.78125 64.30729Q348.0 64.729164 348.42188 64.96354Q348.84375 65.197914 349.32812 65.197914Q350.07812 65.197914 350.5625 64.71354Q351.0625 64.229164 351.0625 63.479164Q351.0625 62.71354 350.5625 62.21354Q350.0625 61.71354 349.29688 61.71354Q348.54688 61.71354 348.0625 62.21354Q347.57812 62.697914 347.57812 63.43229Z" fill-rule="nonzero"/><path fill="#ff6d01" d="M369.0 56.916668C369.0 56.364384 369.44772 55.916668 370.0 55.916668L380.0 55.916668C380.55228 55.916668 381.0 56.364384 381.0 56.916668L381.0 66.916664C381.0 67.46895 380.55228 67.916664 380.0 67.916664L370.0 67.916664C369.44772 67.916664 369.0 67.46895 369.0 66.916664Z" fill-rule="nonzero"/><path fill="#1a1a1a" d="M393.46875 65.916664L392.42188 65.916664L392.42188 59.197914Q392.03125 59.55729 391.40625 59.93229Q390.79688 60.291664 390.3125 60.46354L390.3125 59.447914Q391.1875 59.02604 391.84375 58.447914Q392.51562 57.854164 392.79688 57.291664L393.46875 57.291664L393.46875 65.916664ZM401.96875 59.43229L400.92188 59.510414Q400.78125 58.885414 400.53125 58.604164Q400.09375 58.15104 399.46875 58.15104Q398.96875 58.15104 398.57812 58.43229Q398.09375 58.80729 397.79688 59.510414Q397.51562 60.197914 397.5 61.479164Q397.875 60.90104 398.42188 60.61979Q398.98438 60.33854 399.59375 60.33854Q400.64062 60.33854 401.375 61.11979Q402.125 61.90104 402.125 63.11979Q402.125 63.93229 401.76562 64.635414Q401.42188 65.322914 400.8125 65.697914Q400.20312 66.05729 399.4375 66.05729Q398.10938 66.05729 397.28125 65.08854Q396.45312 64.11979 396.45312 61.90104Q396.45312 59.40104 397.375 58.27604Q398.17188 57.291664 399.53125 57.291664Q400.54688 57.291664 401.1875 57.86979Q401.84375 58.43229 401.96875 59.43229ZM397.67188 63.135414Q397.67188 63.68229 397.89062 64.18229Q398.125 64.666664 398.53125 64.93229Q398.95312 65.197914 399.42188 65.197914Q400.07812 65.197914 400.5625 64.666664Q401.04688 64.11979 401.04688 63.197914Q401.04688 62.30729 400.5625 61.791664Q400.09375 61.27604 399.375 61.27604Q398.65625 61.27604 398.15625 61.791664Q397.67188 62.30729 397.67188 63.135414Z" fill-rule="nonzero"/><path fill="#757575" d="M179.6875 37.55L179.6875 24.925L174.96875 24.925L174.96875 23.2375L186.3125 23.2375L186.3125 24.925L181.57812 24.925L181.57812 37.55L179.6875 37.55ZM187.79688 37.55L187.79688 27.175L189.375 27.175L189.375 28.753124Q189.98438 27.64375 190.5 27.3Q191.01562 26.940624 191.625 26.940624Q192.51562 26.940624 193.4375 27.503124L192.82812 29.14375Q192.1875 28.753124 191.54688 28.753124Q190.96875 28.753124 190.5 29.1125Q190.04688 29.45625 189.84375 30.065624Q189.5625 31.003124 189.5625 32.1125L189.5625 37.55L187.79688 37.55ZM201.59375 36.26875Q200.60938 37.096874 199.70312 37.440624Q198.79688 37.784374 197.76562 37.784374Q196.0625 37.784374 195.14062 36.95625Q194.21875 36.1125 194.21875 34.815624Q194.21875 34.05 194.5625 33.425Q194.92188 32.8 195.48438 32.425Q196.04688 32.034374 196.75 31.83125Q197.26562 31.70625 198.3125 31.565624Q200.4375 31.315624 201.4375 30.971874Q201.45312 30.6125 201.45312 30.503124Q201.45312 29.440624 200.95312 28.9875Q200.28125 28.39375 198.95312 28.39375Q197.70312 28.39375 197.10938 28.83125Q196.53125 29.26875 196.25 30.378124L194.53125 30.14375Q194.76562 29.034374 195.29688 28.3625Q195.82812 27.675 196.84375 27.315624Q197.85938 26.940624 199.20312 26.940624Q200.53125 26.940624 201.35938 27.253124Q202.1875 27.565624 202.57812 28.05Q202.96875 28.51875 203.125 29.2375Q203.21875 29.690624 203.21875 30.8625L203.21875 33.20625Q203.21875 35.659374 203.32812 36.315624Q203.4375 36.95625 203.78125 37.55L201.9375 37.55Q201.67188 37.003124 201.59375 36.26875ZM201.4375 32.346874Q200.48438 32.7375 198.5625 33.003124Q197.48438 33.159374 197.03125 33.3625Q196.59375 33.55 196.34375 33.925Q196.09375 34.3 196.09375 34.76875Q196.09375 35.471874 196.625 35.940624Q197.15625 36.409374 198.1875 36.409374Q199.20312 36.409374 199.98438 35.971874Q200.78125 35.51875 201.15625 34.753124Q201.4375 34.14375 201.4375 32.9875L201.4375 32.346874ZM205.82812 25.253124L205.82812 23.2375L207.59375 23.2375L207.59375 25.253124L205.82812 25.253124ZM205.82812 37.55L205.82812 27.175L207.59375 27.175L207.59375 37.55L205.82812 37.55ZM209.8125 37.55L209.8125 27.175L211.40625 27.175L211.40625 28.659374Q212.54688 26.940624 214.70312 26.940624Q215.64062 26.940624 216.42188 27.284374Q217.21875 27.6125 217.60938 28.159374Q218.0 28.70625 218.15625 29.45625Q218.25 29.95625 218.25 31.175L218.25 37.55L216.48438 37.55L216.48438 31.2375Q216.48438 30.159374 216.28125 29.628124Q216.07812 29.096874 215.54688 28.784374Q215.03125 28.471874 214.32812 28.471874Q213.20312 28.471874 212.39062 29.190624Q211.57812 29.89375 211.57812 31.878124L211.57812 37.55L209.8125 37.55ZM219.82812 25.253124L219.82812 23.2375L221.59375 23.2375L221.59375 25.253124L219.82812 25.253124ZM219.82812 37.55L219.82812 27.175L221.59375 27.175L221.59375 37.55L219.82812 37.55ZM223.8125 37.55L223.8125 27.175L225.40625 27.175L225.40625 28.659374Q226.54688 26.940624 228.70312 26.940624Q229.64062 26.940624 230.42188 27.284374Q231.21875 27.6125 231.60938 28.159374Q232.0 28.70625 232.15625 29.45625Q232.25 29.95625 232.25 31.175L232.25 37.55L230.48438 37.55L230.48438 31.2375Q230.48438 30.159374 230.28125 29.628124Q230.07812 29.096874 229.54688 28.784374Q229.03125 28.471874 228.32812 28.471874Q227.20312 28.471874 226.39062 29.190624Q225.57812 29.89375 225.57812 31.878124L225.57812 37.55L223.8125 37.55ZM233.5 38.409374L235.20312 38.659374Q235.3125 39.45625 235.79688 39.815624Q236.45312 40.3 237.59375 40.3Q238.8125 40.3 239.46875 39.815624Q240.14062 39.33125 240.375 38.45625Q240.51562 37.909374 240.5 36.190624Q239.34375 37.55 237.625 37.55Q235.48438 37.55 234.3125 36.003124Q233.14062 34.45625 233.14062 32.3Q233.14062 30.815624 233.67188 29.565624Q234.21875 28.315624 235.23438 27.628124Q236.26562 26.940624 237.64062 26.940624Q239.46875 26.940624 240.67188 28.425L240.67188 27.175L242.28125 27.175L242.28125 36.14375Q242.28125 38.565624 241.78125 39.565624Q241.29688 40.58125 240.21875 41.159374Q239.15625 41.753124 237.59375 41.753124Q235.75 41.753124 234.59375 40.925Q233.45312 40.096874 233.5 38.409374ZM234.95312 32.175Q234.95312 34.221874 235.76562 35.159374Q236.57812 36.096874 237.79688 36.096874Q239.0 36.096874 239.8125 35.159374Q240.64062 34.221874 240.64062 32.2375Q240.64062 30.33125 239.79688 29.3625Q238.95312 28.39375 237.76562 28.39375Q236.59375 28.39375 235.76562 29.346874Q234.95312 30.3 234.95312 32.175ZM251.35938 37.55L251.35938 23.2375L253.26562 23.2375L253.26562 37.55L251.35938 37.55ZM260.65625 35.971874L260.90625 37.534374Q260.17188 37.690624 259.57812 37.690624Q258.625 37.690624 258.09375 37.39375Q257.57812 37.08125 257.35938 36.596874Q257.14062 36.096874 257.14062 34.51875L257.14062 28.55L255.85938 28.55L255.85938 27.175L257.14062 27.175L257.14062 24.6125L258.89062 23.55L258.89062 27.175L260.65625 27.175L260.65625 28.55L258.89062 28.55L258.89062 34.6125Q258.89062 35.3625 258.98438 35.58125Q259.07812 35.784374 259.28125 35.925Q259.5 36.05 259.89062 36.05Q260.17188 36.05 260.65625 35.971874ZM269.92188 34.20625L271.73438 34.440624Q271.3125 36.01875 270.14062 36.909374Q268.98438 37.784374 267.17188 37.784374Q264.90625 37.784374 263.5625 36.39375Q262.23438 34.9875 262.23438 32.45625Q262.23438 29.83125 263.57812 28.39375Q264.92188 26.940624 267.07812 26.940624Q269.15625 26.940624 270.46875 28.3625Q271.79688 29.76875 271.79688 32.346874Q271.79688 32.503124 271.78125 32.815624L264.04688 32.815624Q264.14062 34.51875 265.01562 35.425Q265.89062 36.33125 267.1875 36.33125Q268.15625 36.33125 268.82812 35.83125Q269.51562 35.315624 269.92188 34.20625ZM264.14062 31.3625L269.9375 31.3625Q269.82812 30.065624 269.28125 29.409374Q268.4375 28.39375 267.09375 28.39375Q265.89062 28.39375 265.0625 29.20625Q264.23438 30.003124 264.14062 31.3625ZM273.79688 37.55L273.79688 27.175L275.375 27.175L275.375 28.753124Q275.98438 27.64375 276.5 27.3Q277.01562 26.940624 277.625 26.940624Q278.51562 26.940624 279.4375 27.503124L278.82812 29.14375Q278.1875 28.753124 277.54688 28.753124Q276.96875 28.753124 276.5 29.1125Q276.04688 29.45625 275.84375 30.065624Q275.5625 31.003124 275.5625 32.1125L275.5625 37.55L273.79688 37.55ZM287.59375 36.26875Q286.60938 37.096874 285.70312 37.440624Q284.79688 37.784374 283.76562 37.784374Q282.0625 37.784374 281.14062 36.95625Q280.21875 36.1125 280.21875 34.815624Q280.21875 34.05 280.5625 33.425Q280.92188 32.8 281.48438 32.425Q282.04688 32.034374 282.75 31.83125Q283.26562 31.70625 284.3125 31.565624Q286.4375 31.315624 287.4375 30.971874Q287.45312 30.6125 287.45312 30.503124Q287.45312 29.440624 286.95312 28.9875Q286.28125 28.39375 284.95312 28.39375Q283.70312 28.39375 283.10938 28.83125Q282.53125 29.26875 282.25 30.378124L280.53125 30.14375Q280.76562 29.034374 281.29688 28.3625Q281.82812 27.675 282.84375 27.315624Q283.85938 26.940624 285.20312 26.940624Q286.53125 26.940624 287.35938 27.253124Q288.1875 27.565624 288.57812 28.05Q288.96875 28.51875 289.125 29.2375Q289.21875 29.690624 289.21875 30.8625L289.21875 33.20625Q289.21875 35.659374 289.32812 36.315624Q289.4375 36.95625 289.78125 37.55L287.9375 37.55Q287.67188 37.003124 287.59375 36.26875ZM287.4375 32.346874Q286.48438 32.7375 284.5625 33.003124Q283.48438 33.159374 283.03125 33.3625Q282.59375 33.55 282.34375 33.925Q282.09375 34.3 282.09375 34.76875Q282.09375 35.471874 282.625 35.940624Q283.15625 36.409374 284.1875 36.409374Q285.20312 36.409374 285.98438 35.971874Q286.78125 35.51875 287.15625 34.753124Q287.4375 34.14375 287.4375 32.9875L287.4375 32.346874ZM295.65625 35.971874L295.90625 37.534374Q295.17188 37.690624 294.57812 37.690624Q293.625 37.690624 293.09375 37.39375Q292.57812 37.08125 292.35938 36.596874Q292.14062 36.096874 292.14062 34.51875L292.14062 28.55L290.85938 28.55L290.85938 27.175L292.14062 27.175L292.14062 24.6125L293.89062 23.55L293.89062 27.175L295.65625 27.175L295.65625 28.55L293.89062 28.55L293.89062 34.6125Q293.89062 35.3625 293.98438 35.58125Q294.07812 35.784374 294.28125 35.925Q294.5 36.05 294.89062 36.05Q295.17188 36.05 295.65625 35.971874ZM297.82812 25.253124L297.82812 23.2375L299.59375 23.2375L299.59375 25.253124L297.82812 25.253124ZM297.82812 37.55L297.82812 27.175L299.59375 27.175L299.59375 37.55L297.82812 37.55ZM301.17188 32.3625Q301.17188 29.4875 302.76562 28.096874Q304.10938 26.940624 306.03125 26.940624Q308.17188 26.940624 309.51562 28.346874Q310.875 29.753124 310.875 32.221874Q310.875 34.221874 310.28125 35.378124Q309.6875 36.51875 308.53125 37.159374Q307.39062 37.784374 306.03125 37.784374Q303.84375 37.784374 302.5 36.39375Q301.17188 34.9875 301.17188 32.3625ZM302.96875 32.3625Q302.96875 34.3625 303.82812 35.346874Q304.70312 36.33125 306.03125 36.33125Q307.34375 36.33125 308.20312 35.346874Q309.07812 34.346874 309.07812 32.3Q309.07812 30.378124 308.20312 29.39375Q307.32812 28.39375 306.03125 28.39375Q304.70312 28.39375 303.82812 29.39375Q302.96875 30.378124 302.96875 32.3625ZM312.8125 37.55L312.8125 27.175L314.40625 27.175L314.40625 28.659374Q315.54688 26.940624 317.70312 26.940624Q318.64062 26.940624 319.42188 27.284374Q320.21875 27.6125 320.60938 28.159374Q321.0 28.70625 321.15625 29.45625Q321.25 29.95625 321.25 31.175L321.25 37.55L319.48438 37.55L319.48438 31.2375Q319.48438 30.159374 319.28125 29.628124Q319.07812 29.096874 318.54688 28.784374Q318.03125 28.471874 317.32812 28.471874Q316.20312 28.471874 315.39062 29.190624Q314.57812 29.89375 314.57812 31.878124L314.57812 37.55L312.8125 37.55ZM332.6875 37.55L332.6875 24.925L327.96875 24.925L327.96875 23.2375L339.3125 23.2375L339.3125 24.925L334.57812 24.925L334.57812 37.55L332.6875 37.55ZM340.8125 37.55L340.8125 23.2375L342.57812 23.2375L342.57812 28.3625Q343.8125 26.940624 345.6875 26.940624Q346.82812 26.940624 347.67188 27.39375Q348.53125 27.846874 348.89062 28.659374Q349.26562 29.45625 349.26562 30.971874L349.26562 37.55L347.51562 37.55L347.51562 30.971874Q347.51562 29.659374 346.9375 29.065624Q346.35938 28.45625 345.32812 28.45625Q344.54688 28.45625 343.84375 28.8625Q343.15625 29.26875 342.85938 29.971874Q342.57812 30.659374 342.57812 31.878124L342.57812 37.55L340.8125 37.55ZM350.79688 37.55L350.79688 27.175L352.375 27.175L352.375 28.753124Q352.98438 27.64375 353.5 27.3Q354.01562 26.940624 354.625 26.940624Q355.51562 26.940624 356.4375 27.503124L355.82812 29.14375Q355.1875 28.753124 354.54688 28.753124Q353.96875 28.753124 353.5 29.1125Q353.04688 29.45625 352.84375 30.065624Q352.5625 31.003124 352.5625 32.1125L352.5625 37.55L350.79688 37.55ZM357.17188 32.3625Q357.17188 29.4875 358.76562 28.096874Q360.10938 26.940624 362.03125 26.940624Q364.17188 26.940624 365.51562 28.346874Q366.875 29.753124 366.875 32.221874Q366.875 34.221874 366.28125 35.378124Q365.6875 36.51875 364.53125 37.159374Q363.39062 37.784374 362.03125 37.784374Q359.84375 37.784374 358.5 36.39375Q357.17188 34.9875 357.17188 32.3625ZM358.96875 32.3625Q358.96875 34.3625 359.82812 35.346874Q360.70312 36.33125 362.03125 36.33125Q363.34375 36.33125 364.20312 35.346874Q365.07812 34.346874 365.07812 32.3Q365.07812 30.378124 364.20312 29.39375Q363.32812 28.39375 362.03125 28.39375Q360.70312 28.39375 359.82812 29.39375Q358.96875 30.378124 358.96875 32.3625ZM375.60938 37.55L375.60938 36.01875Q374.40625 37.784374 372.32812 37.784374Q371.40625 37.784374 370.60938 37.440624Q369.8125 37.08125 369.42188 36.55Q369.04688 36.01875 368.89062 35.2375Q368.78125 34.721874 368.78125 33.596874L368.78125 27.175L370.53125 27.175L370.53125 32.925Q370.53125 34.3 370.64062 34.784374Q370.8125 35.471874 371.34375 35.878124Q371.89062 36.26875 372.67188 36.26875Q373.46875 36.26875 374.15625 35.8625Q374.85938 35.45625 375.14062 34.76875Q375.4375 34.065624 375.4375 32.7375L375.4375 27.175L377.1875 27.175L377.1875 37.55L375.60938 37.55ZM378.5 38.409374L380.20312 38.659374Q380.3125 39.45625 380.79688 39.815624Q381.45312 40.3 382.59375 40.3Q383.8125 40.3 384.46875 39.815624Q385.14062 39.33125 385.375 38.45625Q385.51562 37.909374 385.5 36.190624Q384.34375 37.55 382.625 37.55Q380.48438 37.55 379.3125 36.003124Q378.14062 34.45625 378.14062 32.3Q378.14062 30.815624 378.67188 29.565624Q379.21875 28.315624 380.23438 27.628124Q381.26562 26.940624 382.64062 26.940624Q384.46875 26.940624 385.67188 28.425L385.67188 27.175L387.28125 27.175L387.28125 36.14375Q387.28125 38.565624 386.78125 39.565624Q386.29688 40.58125 385.21875 41.159374Q384.15625 41.753124 382.59375 41.753124Q380.75 41.753124 379.59375 40.925Q378.45312 40.096874 378.5 38.409374ZM379.95312 32.175Q379.95312 34.221874 380.76562 35.159374Q381.57812 36.096874 382.79688 36.096874Q384.0 36.096874 384.8125 35.159374Q385.64062 34.221874 385.64062 32.2375Q385.64062 30.33125 384.79688 29.3625Q383.95312 28.39375 382.76562 28.39375Q381.59375 28.39375 380.76562 29.346874Q379.95312 30.3 379.95312 32.175ZM389.8125 37.55L389.8125 23.2375L391.57812 23.2375L391.57812 28.3625Q392.8125 26.940624 394.6875 26.940624Q395.82812 26.940624 396.67188 27.39375Q397.53125 27.846874 397.89062 28.659374Q398.26562 29.45625 398.26562 30.971874L398.26562 37.55L396.51562 37.55L396.51562 30.971874Q396.51562 29.659374 395.9375 29.065624Q395.35938 28.45625 394.32812 28.45625Q393.54688 28.45625 392.84375 28.8625Q392.15625 29.26875 391.85938 29.971874Q391.57812 30.659374 391.57812 31.878124L391.57812 37.55L389.8125 37.55ZM399.8125 41.51875L399.8125 27.175L401.42188 27.175L401.42188 28.51875Q401.98438 27.7375 402.6875 27.346874Q403.40625 26.940624 404.42188 26.940624Q405.75 26.940624 406.76562 27.628124Q407.78125 28.315624 408.29688 29.565624Q408.82812 30.8 408.82812 32.284374Q408.82812 33.878124 408.25 35.159374Q407.6875 36.425 406.59375 37.1125Q405.5 37.784374 404.29688 37.784374Q403.42188 37.784374 402.71875 37.409374Q402.03125 37.034374 401.57812 36.471874L401.57812 41.51875L399.8125 41.51875ZM401.40625 32.425Q401.40625 34.425 402.21875 35.378124Q403.03125 36.33125 404.1875 36.33125Q405.35938 36.33125 406.1875 35.346874Q407.03125 34.3625 407.03125 32.26875Q407.03125 30.3 406.20312 29.315624Q405.39062 28.315624 404.26562 28.315624Q403.14062 28.315624 402.26562 29.378124Q401.40625 30.425 401.40625 32.425ZM417.60938 37.55L417.60938 36.01875Q416.40625 37.784374 414.32812 37.784374Q413.40625 37.784374 412.60938 37.440624Q411.8125 37.08125 411.42188 36.55Q411.04688 36.01875 410.89062 35.2375Q410.78125 34.721874 410.78125 33.596874L410.78125 27.175L412.53125 27.175L412.53125 32.925Q412.53125 34.3 412.64062 34.784374Q412.8125 35.471874 413.34375 35.878124Q413.89062 36.26875 414.67188 36.26875Q415.46875 36.26875 416.15625 35.8625Q416.85938 35.45625 417.14062 34.76875Q417.4375 34.065624 417.4375 32.7375L417.4375 27.175L419.1875 27.175L419.1875 37.55L417.60938 37.55ZM424.65625 35.971874L424.90625 37.534374Q424.17188 37.690624 423.57812 37.690624Q422.625 37.690624 422.09375 37.39375Q421.57812 37.08125 421.35938 36.596874Q421.14062 36.096874 421.14062 34.51875L421.14062 28.55L419.85938 28.55L419.85938 27.175L421.14062 27.175L421.14062 24.6125L422.89062 23.55L422.89062 27.175L424.65625 27.175L424.65625 28.55L422.89062 28.55L422.89062 34.6125Q422.89062 35.3625 422.98438 35.58125Q423.07812 35.784374 423.28125 35.925Q423.5 36.05 423.89062 36.05Q424.17188 36.05 424.65625 35.971874Z" fill-rule="nonzero"/></svg>