<svg version="1.1" viewBox="0.0 0.0 600.0 371.0" fill="none" stroke="none" stroke-linecap="square" stroke-miterlimit="10" width="600" height="371" xmlns:xlink="http://www.w3.org/1999/xlink" xmlns="http://www.w3.org/2000/svg"><path fill="#ffffff" d="M0 0L600.0 0L600.0 371.0L0 371.0L0 0Z" fill-rule="nonzero"/><path stroke="#333333" stroke-width="1.0" stroke-linecap="butt" d="M45.5 332.5L581.5 332.5" fill-rule="nonzero"/><path stroke="#cccccc" stroke-width="1.0" stroke-linecap="butt" d="M45.5 304.5L581.5 304.5" fill-rule="nonzero"/><path stroke="#cccccc" stroke-width="1.0" stroke-linecap="butt" d="M45.5 275.5L581.5 275.5" fill-rule="nonzero"/><path stroke="#cccccc" stroke-width="1.0" stroke-linecap="butt" d="M45.5 247.5L581.5 247.5" fill-rule="nonzero"/><path stroke="#cccccc" stroke-width="1.0" stroke-linecap="butt" d="M45.5 219.5L581.5 219.5" fill-rule="nonzero"/><path stroke="#cccccc" stroke-width="1.0" stroke-linecap="butt" d="M45.5 191.5L581.5 191.5" fill-rule="nonzero"/><path stroke="#cccccc" stroke-width="1.0" stroke-linecap="butt" d="M45.5 162.5L581.5 162.5" fill-rule="nonzero"/><path stroke="#cccccc" stroke-width="1.0" stroke-linecap="butt" d="M45.5 134.5L581.5 134.5" fill-rule="nonzero"/><path stroke="#cccccc" stroke-width="1.0" stroke-linecap="butt" d="M45.5 106.5L581.5 106.5" fill-rule="nonzero"/><clipPath id="id_0"><path d="M45.55 106.28333L581.45 106.28333L581.45 332.45L45.55 332.45L45.55 106.28333Z" clip-rule="nonzero"/></clipPath><path stroke="#4285f4" stroke-width="3.0" stroke-linecap="butt" stroke-dasharray="3.0,4.0" clip-path="url(#id_0)" d="M99.14 318.31458C99.14 318.31458 170.59334 311.48386 206.32 305.2976C242.04666 299.1114 277.77335 293.07333 313.5 281.19717C349.22665 269.32104 384.95334 254.87543 420.68 234.04077C456.40668 213.20613 527.86 156.18933 527.86 156.18933" fill-rule="nonzero"/><path stroke="#ea4335" stroke-width="3.0" stroke-linecap="butt" stroke-dasharray="3.0,4.0" clip-path="url(#id_0)" d="M99.14 318.31458C99.14 318.31458 170.59334 311.65042 206.32 305.30865C242.04666 298.96686 277.77335 292.56332 313.5 280.26392C349.22665 267.96454 384.95334 253.17625 420.68 231.51228C456.40668 209.84831 527.86 150.28012 527.86 150.28012" fill-rule="nonzero"/><path stroke="#fbbc04" stroke-width="3.0" stroke-linecap="butt" stroke-dasharray="3.0,4.0" clip-path="url(#id_0)" d="M99.14 318.31458C99.14 318.31458 170.59334 311.42975 206.32 305.46494C242.04666 299.50012 277.77335 293.82565 313.5 282.5257C349.22665 271.22574 384.95334 256.6856 420.68 237.6652C456.40668 218.64482 527.86 168.40338 527.86 168.40338" fill-rule="nonzero"/><path stroke="#34a853" stroke-width="2.0" stroke-linecap="butt" clip-path="url(#id_0)" d="M99.14 318.31458C99.14 318.31458 170.59334 311.19388 206.32 305.5663C242.04666 299.93872 277.77335 294.45456 313.5 284.54913C349.22665 274.64368 384.95334 259.15952 420.68 246.13368C456.40668 233.10786 527.86 206.39417 527.86 206.39417" fill-rule="nonzero"/><path stroke="#ff6d01" stroke-width="2.0" stroke-linecap="butt" clip-path="url(#id_0)" d="M99.14 318.31458C99.14 318.31458 170.59334 311.16617 206.32 305.21045C242.04666 299.25476 277.77335 293.61987 313.5 282.5804C349.22665 271.54092 384.95334 254.96555 420.68 238.9736C456.40668 222.98166 527.86 186.62875 527.86 186.62875" fill-rule="nonzero"/><path stroke="#46bdc6" stroke-width="2.0" stroke-linecap="butt" clip-path="url(#id_0)" d="M99.14 318.31458C99.14 318.31458 170.59334 311.42215 206.32 305.41373C242.04666 299.40533 277.77335 293.3446 313.5 282.26416C349.22665 271.1837 384.95334 255.72572 420.68 238.93091C456.40668 222.13608 527.86 181.49521 527.86 181.49521" fill-rule="nonzero"/><path stroke="#46bdc6" stroke-width="1.0" stroke-linecap="butt" stroke-dasharray="6.0,5.0" clip-path="url(#id_0)" d="M99.14 318.31458C99.14 318.31458 170.59334 311.2469 206.32 304.17917C242.04666 297.11145 277.77335 290.04376 313.5 275.90833C349.22665 261.77292 384.95334 247.6375 420.68 219.36667C456.40668 191.09584 527.86 106.28333 527.86 106.28333" fill-rule="nonzero"/><path fill="#000000" fill-opacity="0.0" clip-path="url(#id_0)" d="M102.14 318.31458C102.14 319.97144 100.79685 321.31458 99.14 321.31458C97.48315 321.31458 96.14 319.97144 96.14 318.31458C96.14 316.6577 97.48315 315.31458 99.14 315.31458C100.79685 315.31458 102.14 316.6577 102.14 318.31458Z" fill-rule="nonzero"/><path fill="#000000" fill-opacity="0.0" clip-path="url(#id_0)" d="M209.32 305.2976C209.32 306.95447 207.97685 308.2976 206.32 308.2976C204.66315 308.2976 203.32 306.95447 203.32 305.2976C203.32 303.64075 204.66315 302.2976 206.32 302.2976C207.97685 302.2976 209.32 303.64075 209.32 305.2976Z" fill-rule="nonzero"/><path fill="#000000" fill-opacity="0.0" clip-path="url(#id_0)" d="M316.5 281.19717C316.5 282.85403 315.15686 284.19717 313.5 284.19717C311.84314 284.19717 310.5 282.85403 310.5 281.19717C310.5 279.5403 311.84314 278.19717 313.5 278.19717C315.15686 278.19717 316.5 279.5403 316.5 281.19717Z" fill-rule="nonzero"/><path fill="#000000" fill-opacity="0.0" clip-path="url(#id_0)" d="M423.68 234.04077C423.68 235.69763 422.33685 237.04077 420.68 237.04077C419.02313 237.04077 417.68 235.69763 417.68 234.04077C417.68 232.38393 419.02313 231.04077 420.68 231.04077C422.33685 231.04077 423.68 232.38393 423.68 234.04077Z" fill-rule="nonzero"/><path fill="#000000" fill-opacity="0.0" clip-path="url(#id_0)" d="M530.86 156.18933C530.86 157.84618 529.51685 159.18933 527.86 159.18933C526.2031 159.18933 524.86 157.84618 524.86 156.18933C524.86 154.53247 526.2031 153.18933 527.86 153.18933C529.51685 153.18933 530.86 154.53247 530.86 156.18933Z" fill-rule="nonzero"/><path fill="#000000" fill-opacity="0.0" clip-path="url(#id_0)" d="M102.14 318.31458C102.14 319.97144 100.79685 321.31458 99.14 321.31458C97.48315 321.31458 96.14 319.97144 96.14 318.31458C96.14 316.6577 97.48315 315.31458 99.14 315.31458C100.79685 315.31458 102.14 316.6577 102.14 318.31458Z" fill-rule="nonzero"/><path fill="#000000" fill-opacity="0.0" clip-path="url(#id_0)" d="M209.32 305.30865C209.32 306.9655 207.97685 308.30865 206.32 308.30865C204.66315 308.30865 203.32 306.9655 203.32 305.30865C203.32 303.6518 204.66315 302.30865 206.32 302.30865C207.97685 302.30865 209.32 303.6518 209.32 305.30865Z" fill-rule="nonzero"/><path fill="#000000" fill-opacity="0.0" clip-path="url(#id_0)" d="M316.5 280.26392C316.5 281.92078 315.15686 283.26392 313.5 283.26392C311.84314 283.26392 310.5 281.92078 310.5 280.26392C310.5 278.6071 311.84314 277.26392 313.5 277.26392C315.15686 277.26392 316.5 278.6071 316.5 280.26392Z" fill-rule="nonzero"/><path fill="#000000" fill-opacity="0.0" clip-path="url(#id_0)" d="M423.68 231.51228C423.68 233.16914 422.33685 234.51228 420.68 234.51228C419.02313 234.51228 417.68 233.16914 417.68 231.51228C417.68 229.85542 419.02313 228.51228 420.68 228.51228C422.33685 228.51228 423.68 229.85542 423.68 231.51228Z" fill-rule="nonzero"/><path fill="#000000" fill-opacity="0.0" clip-path="url(#id_0)" d="M530.86 150.28012C530.86 151.93698 529.51685 153.28012 527.86 153.28012C526.2031 153.28012 524.86 151.93698 524.86 150.28012C524.86 148.62328 526.2031 147.28012 527.86 147.28012C529.51685 147.28012 530.86 148.62328 530.86 150.28012Z" fill-rule="nonzero"/><path fill="#000000" fill-opacity="0.0" clip-path="url(#id_0)" d="M102.14 318.31458C102.14 319.97144 100.79685 321.31458 99.14 321.31458C97.48315 321.31458 96.14 319.97144 96.14 318.31458C96.14 316.6577 97.48315 315.31458 99.14 315.31458C100.79685 315.31458 102.14 316.6577 102.14 318.31458Z" fill-rule="nonzero"/><path fill="#000000" fill-opacity="0.0" clip-path="url(#id_0)" d="M209.32 305.46494C209.32 307.12177 207.97685 308.46494 206.32 308.46494C204.66315 308.46494 203.32 307.12177 203.32 305.46494C203.32 303.80807 204.66315 302.46494 206.32 302.46494C207.97685 302.46494 209.32 303.80807 209.32 305.46494Z" fill-rule="nonzero"/><path fill="#000000" fill-opacity="0.0" clip-path="url(#id_0)" d="M316.5 282.5257C316.5 284.18256 315.15686 285.5257 313.5 285.5257C311.84314 285.5257 310.5 284.18256 310.5 282.5257C310.5 280.86884 311.84314 279.5257 313.5 279.5257C315.15686 279.5257 316.5 280.86884 316.5 282.5257Z" fill-rule="nonzero"/><path fill="#000000" fill-opacity="0.0" clip-path="url(#id_0)" d="M423.68 237.6652C423.68 239.32207 422.33685 240.6652 420.68 240.6652C419.02313 240.6652 417.68 239.32207 417.68 237.6652C417.68 236.00836 419.02313 234.6652 420.68 234.6652C422.33685 234.6652 423.68 236.00836 423.68 237.6652Z" fill-rule="nonzero"/><path fill="#000000" fill-opacity="0.0" clip-path="url(#id_0)" d="M530.86 168.40338C530.86 170.06024 529.51685 171.40338 527.86 171.40338C526.2031 171.40338 524.86 170.06024 524.86 168.40338C524.86 166.74654 526.2031 165.40338 527.86 165.40338C529.51685 165.40338 530.86 166.74654 530.86 168.40338Z" fill-rule="nonzero"/><path fill="#000000" fill-opacity="0.0" clip-path="url(#id_0)" d="M102.14 318.31458C102.14 319.97144 100.79685 321.31458 99.14 321.31458C97.48315 321.31458 96.14 319.97144 96.14 318.31458C96.14 316.6577 97.48315 315.31458 99.14 315.31458C100.79685 315.31458 102.14 316.6577 102.14 318.31458Z" fill-rule="nonzero"/><path fill="#000000" fill-opacity="0.0" clip-path="url(#id_0)" d="M209.32 305.5663C209.32 307.22314 207.97685 308.5663 206.32 308.5663C204.66315 308.5663 203.32 307.22314 203.32 305.5663C203.32 303.90945 204.66315 302.5663 206.32 302.5663C207.97685 302.5663 209.32 303.90945 209.32 305.5663Z" fill-rule="nonzero"/><path fill="#000000" fill-opacity="0.0" clip-path="url(#id_0)" d="M316.5 284.54913C316.5 286.20596 315.15686 287.54913 313.5 287.54913C311.84314 287.54913 310.5 286.20596 310.5 284.54913C310.5 282.89227 311.84314 281.54913 313.5 281.54913C315.15686 281.54913 316.5 282.89227 316.5 284.54913Z" fill-rule="nonzero"/><path fill="#000000" fill-opacity="0.0" clip-path="url(#id_0)" d="M423.68 246.13368C423.68 247.79054 422.33685 249.13368 420.68 249.13368C419.02313 249.13368 417.68 247.79054 417.68 246.13368C417.68 244.47684 419.02313 243.13368 420.68 243.13368C422.33685 243.13368 423.68 244.47684 423.68 246.13368Z" fill-rule="nonzero"/><path fill="#000000" fill-opacity="0.0" clip-path="url(#id_0)" d="M530.86 206.39417C530.86 208.05101 529.51685 209.39417 527.86 209.39417C526.2031 209.39417 524.86 208.05101 524.86 206.39417C524.86 204.7373 526.2031 203.39417 527.86 203.39417C529.51685 203.39417 530.86 204.7373 530.86 206.39417Z" fill-rule="nonzero"/><path fill="#000000" fill-opacity="0.0" clip-path="url(#id_0)" d="M102.14 318.31458C102.14 319.97144 100.79685 321.31458 99.14 321.31458C97.48315 321.31458 96.14 319.97144 96.14 318.31458C96.14 316.6577 97.48315 315.31458 99.14 315.31458C100.79685 315.31458 102.14 316.6577 102.14 318.31458Z" fill-rule="nonzero"/><path fill="#000000" fill-opacity="0.0" clip-path="url(#id_0)" d="M209.32 305.21045C209.32 306.8673 207.97685 308.21045 206.32 308.21045C204.66315 308.21045 203.32 306.8673 203.32 305.21045C203.32 303.5536 204.66315 302.21045 206.32 302.21045C207.97685 302.21045 209.32 303.5536 209.32 305.21045Z" fill-rule="nonzero"/><path fill="#000000" fill-opacity="0.0" clip-path="url(#id_0)" d="M316.5 282.5804C316.5 284.23724 315.15686 285.5804 313.5 285.5804C311.84314 285.5804 310.5 284.23724 310.5 282.5804C310.5 280.92355 311.84314 279.5804 313.5 279.5804C315.15686 279.5804 316.5 280.92355 316.5 282.5804Z" fill-rule="nonzero"/><path fill="#000000" fill-opacity="0.0" clip-path="url(#id_0)" d="M423.68 238.9736C423.68 240.63046 422.33685 241.9736 420.68 241.9736C419.02313 241.9736 417.68 240.63046 417.68 238.9736C417.68 237.31674 419.02313 235.9736 420.68 235.9736C422.33685 235.9736 423.68 237.31674 423.68 238.9736Z" fill-rule="nonzero"/><path fill="#000000" fill-opacity="0.0" clip-path="url(#id_0)" d="M530.86 186.62875C530.86 188.2856 529.51685 189.62875 527.86 189.62875C526.2031 189.62875 524.86 188.2856 524.86 186.62875C524.86 184.9719 526.2031 183.62875 527.86 183.62875C529.51685 183.62875 530.86 184.9719 530.86 186.62875Z" fill-rule="nonzero"/><path fill="#000000" fill-opacity="0.0" clip-path="url(#id_0)" d="M102.14 318.31458C102.14 319.97144 100.79685 321.31458 99.14 321.31458C97.48315 321.31458 96.14 319.97144 96.14 318.31458C96.14 316.6577 97.48315 315.31458 99.14 315.31458C100.79685 315.31458 102.14 316.6577 102.14 318.31458Z" fill-rule="nonzero"/><path fill="#000000" fill-opacity="0.0" clip-path="url(#id_0)" d="M209.32 305.41373C209.32 307.0706 207.97685 308.41373 206.32 308.41373C204.66315 308.41373 203.32 307.0706 203.32 305.41373C203.32 303.75687 204.66315 302.41373 206.32 302.41373C207.97685 302.41373 209.32 303.75687 209.32 305.41373Z" fill-rule="nonzero"/><path fill="#000000" fill-opacity="0.0" clip-path="url(#id_0)" d="M316.5 282.26416C316.5 283.921 315.15686 285.26416 313.5 285.26416C311.84314 285.26416 310.5 283.921 310.5 282.26416C310.5 280.6073 311.84314 279.26416 313.5 279.26416C315.15686 279.26416 316.5 280.6073 316.5 282.26416Z" fill-rule="nonzero"/><path fill="#000000" fill-opacity="0.0" clip-path="url(#id_0)" d="M423.68 238.93091C423.68 240.58775 422.33685 241.93091 420.68 241.93091C419.02313 241.93091 417.68 240.58775 417.68 238.93091C417.68 237.27405 419.02313 235.93091 420.68 235.93091C422.33685 235.93091 423.68 237.27405 423.68 238.93091Z" fill-rule="nonzero"/><path fill="#000000" fill-opacity="0.0" clip-path="url(#id_0)" d="M530.86 181.49521C530.86 183.15207 529.51685 184.49521 527.86 184.49521C526.2031 184.49521 524.86 183.15207 524.86 181.49521C524.86 179.83835 526.2031 178.49521 527.86 178.49521C529.51685 178.49521 530.86 179.83835 530.86 181.49521Z" fill-rule="nonzero"/><path fill="#000000" fill-opacity="0.0" clip-path="url(#id_0)" d="M102.14 318.31458C102.14 319.97144 100.79685 321.31458 99.14 321.31458C97.48315 321.31458 96.14 319.97144 96.14 318.31458C96.14 316.6577 97.48315 315.31458 99.14 315.31458C100.79685 315.31458 102.14 316.6577 102.14 318.31458Z" fill-rule="nonzero"/><path fill="#000000" fill-opacity="0.0" clip-path="url(#id_0)" d="M209.32 304.17917C209.32 305.83603 207.97685 307.17917 206.32 307.17917C204.66315 307.17917 203.32 305.83603 203.32 304.17917C203.32 302.5223 204.66315 301.17917 206.32 301.17917C207.97685 301.17917 209.32 302.5223 209.32 304.17917Z" fill-rule="nonzero"/><path fill="#000000" fill-opacity="0.0" clip-path="url(#id_0)" d="M316.5 275.90833C316.5 277.5652 315.15686 278.90833 313.5 278.90833C311.84314 278.90833 310.5 277.5652 310.5 275.90833C310.5 274.25146 311.84314 272.90833 313.5 272.90833C315.15686 272.90833 316.5 274.25146 316.5 275.90833Z" fill-rule="nonzero"/><path fill="#000000" fill-opacity="0.0" clip-path="url(#id_0)" d="M423.68 219.36667C423.68 221.02351 422.33685 222.36667 420.68 222.36667C419.02313 222.36667 417.68 221.02351 417.68 219.36667C417.68 217.70981 419.02313 216.36667 420.68 216.36667C422.33685 216.36667 423.68 217.70981 423.68 219.36667Z" fill-rule="nonzero"/><path fill="#000000" fill-opacity="0.0" clip-path="url(#id_0)" d="M530.86 106.28333C530.86 107.940186 529.51685 109.28333 527.86 109.28333C526.2031 109.28333 524.86 107.940186 524.86 106.28333C524.86 104.62648 526.2031 103.28333 527.86 103.28333C529.51685 103.28333 530.86 104.62648 530.86 106.28333Z" fill-rule="nonzero"/><path fill="#000000" d="M33.05 332.21564Q33.05 330.6844 33.3625 329.7625Q33.675 328.825 34.284374 328.325Q34.909374 327.825 35.846874 327.825Q36.534374 327.825 37.05 328.10626Q37.58125 328.3875 37.925 328.91876Q38.26875 329.4344 38.45625 330.1844Q38.64375 330.9344 38.64375 332.21564Q38.64375 333.73126 38.33125 334.65314Q38.034374 335.575 37.409374 336.09064Q36.8 336.59064 35.846874 336.59064Q34.6125 336.59064 33.89375 335.7Q33.05 334.6375 33.05 332.21564ZM34.128124 332.21564Q34.128124 334.325 34.628124 335.02814Q35.128124 335.73126 35.846874 335.73126Q36.58125 335.73126 37.065624 335.02814Q37.565624 334.325 37.565624 332.21564Q37.565624 330.09064 37.065624 329.40314Q36.58125 328.7 35.83125 328.7Q35.1125 328.7 34.675 329.3094Q34.128124 330.09064 34.128124 332.21564Z" fill-rule="nonzero"/><path fill="#000000" d="M38.596874 307.16354L38.596874 308.17917L32.909374 308.17917Q32.909374 307.80417 33.034374 307.4448Q33.253124 306.86667 33.721874 306.30417Q34.20625 305.74167 35.1125 305.0073Q36.51875 303.85104 37.003124 303.17917Q37.503124 302.5073 37.503124 301.91354Q37.503124 301.28854 37.05 300.86667Q36.596874 300.42917 35.878124 300.42917Q35.1125 300.42917 34.659374 300.8823Q34.20625 301.33542 34.190624 302.14792L33.1125 302.03854Q33.221874 300.8198 33.940624 300.1948Q34.675 299.55417 35.909374 299.55417Q37.14375 299.55417 37.8625 300.24167Q38.58125 300.92917 38.58125 301.9448Q38.58125 302.46042 38.3625 302.96042Q38.159374 303.4448 37.659374 304.0073Q37.175 304.55417 36.05 305.5073Q35.096874 306.30417 34.815624 306.60104Q34.55 306.8823 34.378124 307.16354L38.596874 307.16354Z" fill-rule="nonzero"/><path fill="#000000" d="M36.425 279.90833L36.425 277.84583L32.70625 277.84583L32.70625 276.87708L36.628124 271.31458L37.4875 271.31458L37.4875 276.87708L38.64375 276.87708L38.64375 277.84583L37.4875 277.84583L37.4875 279.90833L36.425 279.90833ZM36.425 276.87708L36.425 273.0177L33.7375 276.87708L36.425 276.87708Z" fill-rule="nonzero"/><path fill="#000000" d="M38.51875 245.15312L37.471874 245.23125Q37.33125 244.60625 37.08125 244.325Q36.64375 243.87187 36.01875 243.87187Q35.51875 243.87187 35.128124 244.15312Q34.64375 244.52812 34.346874 245.23125Q34.065624 245.91875 34.05 247.2Q34.425 246.62187 34.971874 246.34062Q35.534374 246.05937 36.14375 246.05937Q37.190624 246.05937 37.925 246.84062Q38.675 247.62187 38.675 248.84062Q38.675 249.65312 38.315624 250.35625Q37.971874 251.04375 37.3625 251.41875Q36.753124 251.77812 35.9875 251.77812Q34.659374 251.77812 33.83125 250.80937Q33.003124 249.84062 33.003124 247.62187Q33.003124 245.12187 33.925 243.99687Q34.721874 243.0125 36.08125 243.0125Q37.096874 243.0125 37.7375 243.59062Q38.39375 244.15312 38.51875 245.15312ZM34.221874 248.85625Q34.221874 249.40312 34.440624 249.90312Q34.675 250.3875 35.08125 250.65312Q35.503124 250.91875 35.971874 250.91875Q36.628124 250.91875 37.1125 250.3875Q37.596874 249.84062 37.596874 248.91875Q37.596874 248.02812 37.1125 247.5125Q36.64375 246.99687 35.925 246.99687Q35.20625 246.99687 34.70625 247.5125Q34.221874 248.02812 34.221874 248.85625Z" fill-rule="nonzero"/><path fill="#000000" d="M34.675 218.71042Q34.01875 218.46042 33.690624 218.02292Q33.378124 217.5698 33.378124 216.96042Q33.378124 216.02292 34.05 215.3823Q34.7375 214.74167 35.846874 214.74167Q36.971874 214.74167 37.659374 215.39792Q38.346874 216.05417 38.346874 216.99167Q38.346874 217.58542 38.034374 218.02292Q37.721874 218.46042 37.08125 218.71042Q37.878124 218.96042 38.284374 219.53854Q38.690624 220.11667 38.690624 220.91354Q38.690624 222.0073 37.909374 222.7573Q37.14375 223.5073 35.8625 223.5073Q34.596874 223.5073 33.815624 222.7573Q33.034374 222.0073 33.034374 220.8823Q33.034374 220.03854 33.45625 219.47604Q33.89375 218.91354 34.675 218.71042ZM34.45625 216.91354Q34.45625 217.52292 34.846874 217.91354Q35.253124 218.30417 35.878124 218.30417Q36.4875 218.30417 36.878124 217.92917Q37.26875 217.53854 37.26875 216.97604Q37.26875 216.39792 36.8625 216.0073Q36.45625 215.60104 35.8625 215.60104Q35.253124 215.60104 34.846874 215.99167Q34.45625 216.3823 34.45625 216.91354ZM34.128124 220.8823Q34.128124 221.33542 34.33125 221.7573Q34.55 222.17917 34.971874 222.41354Q35.39375 222.64792 35.878124 222.64792Q36.628124 222.64792 37.1125 222.16354Q37.6125 221.67917 37.6125 220.92917Q37.6125 220.16354 37.1125 219.66354Q36.6125 219.16354 35.846874 219.16354Q35.096874 219.16354 34.6125 219.66354Q34.128124 220.14792 34.128124 220.8823Z" fill-rule="nonzero"/><path fill="#000000" d="M30.01875 195.09584L28.971874 195.09584L28.971874 188.37709Q28.58125 188.73647 27.95625 189.11147Q27.346874 189.47084 26.8625 189.64272L26.8625 188.62709Q27.7375 188.20522 28.39375 187.62709Q29.065624 187.03334 29.346874 186.47084L30.01875 186.47084L30.01875 195.09584ZM33.05 190.86147Q33.05 189.33022 33.3625 188.40834Q33.675 187.47084 34.284374 186.97084Q34.909374 186.47084 35.846874 186.47084Q36.534374 186.47084 37.05 186.75209Q37.58125 187.03334 37.925 187.56459Q38.26875 188.08022 38.45625 188.83022Q38.64375 189.58022 38.64375 190.86147Q38.64375 192.37709 38.33125 193.29897Q38.034374 194.22084 37.409374 194.73647Q36.8 195.23647 35.846874 195.23647Q34.6125 195.23647 33.89375 194.34584Q33.05 193.28334 33.05 190.86147ZM34.128124 190.86147Q34.128124 192.97084 34.628124 193.67397Q35.128124 194.37709 35.846874 194.37709Q36.58125 194.37709 37.065624 193.67397Q37.565624 192.97084 37.565624 190.86147Q37.565624 188.73647 37.065624 188.04897Q36.58125 187.34584 35.83125 187.34584Q35.1125 187.34584 34.675 187.95522Q34.128124 188.73647 34.128124 190.86147Z" fill-rule="nonzero"/><path fill="#000000" d="M30.01875 166.825L28.971874 166.825L28.971874 160.10625Q28.58125 160.46562 27.95625 160.84062Q27.346874 161.2 26.8625 161.37187L26.8625 160.35625Q27.7375 159.93437 28.39375 159.35625Q29.065624 158.7625 29.346874 158.2L30.01875 158.2L30.01875 166.825ZM38.596874 165.80937L38.596874 166.825L32.909374 166.825Q32.909374 166.45 33.034374 166.09062Q33.253124 165.5125 33.721874 164.95Q34.20625 164.3875 35.1125 163.65312Q36.51875 162.49687 37.003124 161.825Q37.503124 161.15312 37.503124 160.55937Q37.503124 159.93437 37.05 159.5125Q36.596874 159.075 35.878124 159.075Q35.1125 159.075 34.659374 159.52812Q34.20625 159.98125 34.190624 160.79375L33.1125 160.68437Q33.221874 159.46562 33.940624 158.84062Q34.675 158.2 35.909374 158.2Q37.14375 158.2 37.8625 158.8875Q38.58125 159.575 38.58125 160.59062Q38.58125 161.10625 38.3625 161.60625Q38.159374 162.09062 37.659374 162.65312Q37.175 163.2 36.05 164.15312Q35.096874 164.95 34.815624 165.24687Q34.55 165.52812 34.378124 165.80937L38.596874 165.80937Z" fill-rule="nonzero"/><path fill="#000000" d="M30.01875 138.55417L28.971874 138.55417L28.971874 131.83542Q28.58125 132.1948 27.95625 132.5698Q27.346874 132.92917 26.8625 133.10104L26.8625 132.08542Q27.7375 131.66354 28.39375 131.08542Q29.065624 130.49167 29.346874 129.92917L30.01875 129.92917L30.01875 138.55417ZM36.425 138.55417L36.425 136.49167L32.70625 136.49167L32.70625 135.52292L36.628124 129.96042L37.4875 129.96042L37.4875 135.52292L38.64375 135.52292L38.64375 136.49167L37.4875 136.49167L37.4875 138.55417L36.425 138.55417ZM36.425 135.52292L36.425 131.66354L33.7375 135.52292L36.425 135.52292Z" fill-rule="nonzero"/><path fill="#000000" d="M30.01875 110.28333L28.971874 110.28333L28.971874 103.56458Q28.58125 103.92396 27.95625 104.29896Q27.346874 104.65833 26.8625 104.83021L26.8625 103.81458Q27.7375 103.39271 28.39375 102.81458Q29.065624 102.22083 29.346874 101.65833L30.01875 101.65833L30.01875 110.28333ZM38.51875 103.79896L37.471874 103.87708Q37.33125 103.25208 37.08125 102.97083Q36.64375 102.51771 36.01875 102.51771Q35.51875 102.51771 35.128124 102.79896Q34.64375 103.17396 34.346874 103.87708Q34.065624 104.56458 34.05 105.84583Q34.425 105.26771 34.971874 104.98646Q35.534374 104.70521 36.14375 104.70521Q37.190624 104.70521 37.925 105.48646Q38.675 106.26771 38.675 107.48646Q38.675 108.29896 38.315624 109.00208Q37.971874 109.68958 37.3625 110.06458Q36.753124 110.42396 35.9875 110.42396Q34.659374 110.42396 33.83125 109.45521Q33.003124 108.48646 33.003124 106.26771Q33.003124 103.76771 33.925 102.64271Q34.721874 101.65833 36.08125 101.65833Q37.096874 101.65833 37.7375 102.23646Q38.39375 102.79896 38.51875 103.79896ZM34.221874 107.50208Q34.221874 108.04896 34.440624 108.54896Q34.675 109.03333 35.08125 109.29896Q35.503124 109.56458 35.971874 109.56458Q36.628124 109.56458 37.1125 109.03333Q37.596874 108.48646 37.596874 107.56458Q37.596874 106.67396 37.1125 106.15833Q36.64375 105.64271 35.925 105.64271Q35.20625 105.64271 34.70625 106.15833Q34.221874 106.67396 34.221874 107.50208Z" fill-rule="nonzero"/><path fill="#000000" d="M100.10875 349.45L99.061874 349.45L99.061874 342.73126Q98.67125 343.09064 98.04625 343.46564Q97.436874 343.825 96.9525 343.9969L96.9525 342.98126Q97.8275 342.5594 98.48375 341.98126Q99.155624 341.3875 99.436874 340.825L100.10875 340.825L100.10875 349.45Z" fill-rule="nonzero"/><path fill="#000000" d="M208.86688 348.4344L208.86688 349.45L203.17938 349.45Q203.17938 349.075 203.30438 348.71564Q203.52313 348.1375 203.99188 347.575Q204.47626 347.0125 205.3825 346.27814Q206.78876 345.1219 207.27313 344.45Q207.77313 343.77814 207.77313 343.1844Q207.77313 342.5594 207.32 342.1375Q206.86688 341.7 206.14813 341.7Q205.3825 341.7 204.92938 342.15314Q204.47626 342.60626 204.46063 343.41876L203.3825 343.3094Q203.49188 342.09064 204.21063 341.46564Q204.945 340.825 206.17938 340.825Q207.41376 340.825 208.1325 341.5125Q208.85126 342.2 208.85126 343.21564Q208.85126 343.73126 208.6325 344.23126Q208.42938 344.71564 207.92938 345.27814Q207.445 345.825 206.32 346.77814Q205.36688 347.575 205.08563 347.8719Q204.82 348.15314 204.64813 348.4344L208.86688 348.4344Z" fill-rule="nonzero"/><path fill="#000000" d="M313.875 349.45L313.875 347.3875L310.15625 347.3875L310.15625 346.41876L314.07812 340.85626L314.9375 340.85626L314.9375 346.41876L316.09375 346.41876L316.09375 347.3875L314.9375 347.3875L314.9375 349.45L313.875 349.45ZM313.875 346.41876L313.875 342.5594L311.1875 346.41876L313.875 346.41876Z" fill-rule="nonzero"/><path fill="#000000" d="M419.305 344.79376Q418.64874 344.54376 418.32062 344.10626Q418.00812 343.65314 418.00812 343.04376Q418.00812 342.10626 418.68 341.46564Q419.3675 340.825 420.47687 340.825Q421.60187 340.825 422.28937 341.48126Q422.97687 342.1375 422.97687 343.075Q422.97687 343.66876 422.66437 344.10626Q422.35187 344.54376 421.71124 344.79376Q422.50812 345.04376 422.91437 345.6219Q423.32062 346.2 423.32062 346.9969Q423.32062 348.09064 422.53937 348.84064Q421.77374 349.59064 420.4925 349.59064Q419.22687 349.59064 418.44562 348.84064Q417.66437 348.09064 417.66437 346.96564Q417.66437 346.1219 418.08624 345.5594Q418.52374 344.9969 419.305 344.79376ZM419.08624 342.9969Q419.08624 343.60626 419.47687 343.9969Q419.88312 344.3875 420.50812 344.3875Q421.1175 344.3875 421.50812 344.0125Q421.89874 343.6219 421.89874 343.0594Q421.89874 342.48126 421.4925 342.09064Q421.08624 341.6844 420.4925 341.6844Q419.88312 341.6844 419.47687 342.075Q419.08624 342.46564 419.08624 342.9969ZM418.75812 346.96564Q418.75812 347.41876 418.96124 347.84064Q419.18 348.2625 419.60187 348.4969Q420.02374 348.73126 420.50812 348.73126Q421.25812 348.73126 421.7425 348.2469Q422.2425 347.7625 422.2425 347.0125Q422.2425 346.2469 421.7425 345.7469Q421.2425 345.2469 420.47687 345.2469Q419.72687 345.2469 419.2425 345.7469Q418.75812 346.23126 418.75812 346.96564Z" fill-rule="nonzero"/><path fill="#000000" d="M525.32874 349.45L524.28186 349.45L524.28186 342.73126Q523.89124 343.09064 523.26624 343.46564Q522.65686 343.825 522.1725 343.9969L522.1725 342.98126Q523.0475 342.5594 523.70374 341.98126Q524.3756 341.3875 524.65686 340.825L525.32874 340.825L525.32874 349.45ZM533.82874 342.96564L532.78186 343.04376Q532.64124 342.41876 532.39124 342.1375Q531.95374 341.6844 531.32874 341.6844Q530.82874 341.6844 530.4381 341.96564Q529.95374 342.34064 529.65686 343.04376Q529.3756 343.73126 529.36 345.0125Q529.735 344.4344 530.28186 344.15314Q530.84436 343.8719 531.45374 343.8719Q532.5006 343.8719 533.235 344.65314Q533.985 345.4344 533.985 346.65314Q533.985 347.46564 533.6256 348.16876Q533.28186 348.85626 532.6725 349.23126Q532.0631 349.59064 531.2975 349.59064Q529.96936 349.59064 529.14124 348.6219Q528.3131 347.65314 528.3131 345.4344Q528.3131 342.9344 529.235 341.8094Q530.03186 340.825 531.39124 340.825Q532.40686 340.825 533.0475 341.40314Q533.70374 341.96564 533.82874 342.96564ZM529.53186 346.66876Q529.53186 347.21564 529.7506 347.71564Q529.985 348.2 530.39124 348.46564Q530.8131 348.73126 531.28186 348.73126Q531.9381 348.73126 532.4225 348.2Q532.90686 347.65314 532.90686 346.73126Q532.90686 345.84064 532.4225 345.325Q531.95374 344.8094 531.235 344.8094Q530.51624 344.8094 530.01624 345.325Q529.53186 345.84064 529.53186 346.66876Z" fill-rule="nonzero"/><path stroke="#4285f4" stroke-width="4.0" stroke-linecap="butt" stroke-dasharray="4.0,5.0" d="M40.5 61.916668L53.5 61.916668" fill-rule="nonzero"/><path fill="#1a1a1a" d="M62.546875 65.916664L62.546875 60.510414L61.609375 60.510414L61.609375 59.697914L62.546875 59.697914L62.546875 59.02604Q62.546875 58.40104 62.65625 58.104164Q62.8125 57.68229 63.1875 57.43229Q63.578125 57.18229 64.265625 57.18229Q64.71875 57.18229 65.25 57.291664L65.09375 58.197914Q64.765625 58.15104 64.46875 58.15104Q63.984375 58.15104 63.78125 58.354164Q63.59375 58.55729 63.59375 59.11979L63.59375 59.697914L64.8125 59.697914L64.8125 60.510414L63.59375 60.510414L63.59375 65.916664L62.546875 65.916664ZM65.296875 68.30729L65.296875 59.697914L66.25 59.697914L66.25 60.49479Q66.59375 60.02604 67.015625 59.791664Q67.453125 59.55729 68.0625 59.55729Q68.859375 59.55729 69.46875 59.96354Q70.078125 60.36979 70.375 61.11979Q70.6875 61.86979 70.6875 62.760414Q70.6875 63.71354 70.34375 64.479164Q70.015625 65.24479 69.359375 65.65104Q68.703125 66.05729 67.984375 66.05729Q67.453125 66.05729 67.03125 65.83854Q66.609375 65.604164 66.34375 65.27604L66.34375 68.30729L65.296875 68.30729ZM66.25 62.83854Q66.25 64.041664 66.734375 64.61979Q67.21875 65.18229 67.90625 65.18229Q68.609375 65.18229 69.109375 64.58854Q69.609375 63.99479 69.609375 62.74479Q69.609375 61.55729 69.125 60.979164Q68.640625 60.385414 67.953125 60.385414Q67.28125 60.385414 66.765625 61.010414Q66.25 61.635414 66.25 62.83854ZM72.0 63.65104L73.0625 63.510414Q73.234375 64.40104 73.671875 64.80729Q74.109375 65.197914 74.734375 65.197914Q75.484375 65.197914 76.0 64.68229Q76.515625 64.166664 76.515625 63.40104Q76.515625 62.68229 76.03125 62.21354Q75.5625 61.729164 74.828125 61.729164Q74.53125 61.729164 74.078125 61.854164L74.203125 60.916664Q74.3125 60.93229 74.375 60.93229Q75.046875 60.93229 75.578125 60.58854Q76.125 60.229164 76.125 59.49479Q76.125 58.916664 75.734375 58.541664Q75.34375 58.15104 74.71875 58.15104Q74.109375 58.15104 73.6875 58.541664Q73.28125 58.93229 73.171875 59.697914L72.109375 59.510414Q72.296875 58.46354 72.984375 57.885414Q73.671875 57.291664 74.6875 57.291664Q75.390625 57.291664 75.984375 57.604164Q76.578125 57.90104 76.890625 58.416664Q77.203125 58.93229 77.203125 59.52604Q77.203125 60.072914 76.90625 60.541664Q76.609375 60.99479 76.03125 61.260414Q76.78125 61.43229 77.203125 61.99479Q77.625 62.541664 77.625 63.385414Q77.625 64.510414 76.796875 65.291664Q75.984375 66.072914 74.734375 66.072914Q73.609375 66.072914 72.859375 65.40104Q72.109375 64.71354 72.0 63.65104ZM84.546875 64.90104L84.546875 65.916664L78.859375 65.916664Q78.859375 65.541664 78.984375 65.18229Q79.203125 64.604164 79.671875 64.041664Q80.15625 63.479164 81.0625 62.74479Q82.46875 61.58854 82.953125 60.916664Q83.453125 60.24479 83.453125 59.65104Q83.453125 59.02604 83.0 58.604164Q82.546875 58.166664 81.828125 58.166664Q81.0625 58.166664 80.609375 58.61979Q80.15625 59.072914 80.140625 59.885414L79.0625 59.77604Q79.171875 58.55729 79.890625 57.93229Q80.625 57.291664 81.859375 57.291664Q83.09375 57.291664 83.8125 57.979164Q84.53125 58.666664 84.53125 59.68229Q84.53125 60.197914 84.3125 60.697914Q84.109375 61.18229 83.609375 61.74479Q83.125 62.291664 82.0 63.24479Q81.046875 64.041664 80.765625 64.33854Q80.5 64.61979 80.328125 64.90104L84.546875 64.90104ZM88.875 63.33854L88.875 62.27604L92.125 62.27604L92.125 63.33854L88.875 63.33854ZM101.46875 59.43229L100.421875 59.510414Q100.28125 58.885414 100.03125 58.604164Q99.59375 58.15104 98.96875 58.15104Q98.46875 58.15104 98.078125 58.43229Q97.59375 58.80729 97.296875 59.510414Q97.015625 60.197914 97.0 61.479164Q97.375 60.90104 97.921875 60.61979Q98.484375 60.33854 99.09375 60.33854Q100.140625 60.33854 100.875 61.11979Q101.625 61.90104 101.625 63.11979Q101.625 63.93229 101.265625 64.635414Q100.921875 65.322914 100.3125 65.697914Q99.703125 66.05729 98.9375 66.05729Q97.609375 66.05729 96.78125 65.08854Q95.953125 64.11979 95.953125 61.90104Q95.953125 59.40104 96.875 58.27604Q97.671875 57.291664 99.03125 57.291664Q100.046875 57.291664 100.6875 57.86979Q101.34375 58.43229 101.46875 59.43229ZM97.171875 63.135414Q97.171875 63.68229 97.390625 64.18229Q97.625 64.666664 98.03125 64.93229Q98.453125 65.197914 98.921875 65.197914Q99.578125 65.197914 100.0625 64.666664Q100.546875 64.11979 100.546875 63.197914Q100.546875 62.30729 100.0625 61.791664Q99.59375 61.27604 98.875 61.27604Q98.15625 61.27604 97.65625 61.791664Q97.171875 62.30729 97.171875 63.135414ZM106.375 65.916664L106.375 63.854164L102.65625 63.854164L102.65625 62.885414L106.578125 57.322914L107.4375 57.322914L107.4375 62.885414L108.59375 62.885414L108.59375 63.854164L107.4375 63.854164L107.4375 65.916664L106.375 65.916664ZM106.375 62.885414L106.375 59.02604L103.6875 62.885414L106.375 62.885414Z" fill-rule="nonzero"/><path stroke="#ea4335" stroke-width="4.0" stroke-linecap="butt" stroke-dasharray="4.0,5.0" d="M125.5 61.916668L138.5 61.916668" fill-rule="nonzero"/><path fill="#1a1a1a" d="M147.54688 65.916664L147.54688 60.510414L146.60938 60.510414L146.60938 59.697914L147.54688 59.697914L147.54688 59.02604Q147.54688 58.40104 147.65625 58.104164Q147.8125 57.68229 148.1875 57.43229Q148.57812 57.18229 149.26562 57.18229Q149.71875 57.18229 150.25 57.291664L150.09375 58.197914Q149.76562 58.15104 149.46875 58.15104Q148.98438 58.15104 148.78125 58.354164Q148.59375 58.55729 148.59375 59.11979L148.59375 59.697914L149.8125 59.697914L149.8125 60.510414L148.59375 60.510414L148.59375 65.916664L147.54688 65.916664ZM150.29688 68.30729L150.29688 59.697914L151.25 59.697914L151.25 60.49479Q151.59375 60.02604 152.01562 59.791664Q152.45312 59.55729 153.0625 59.55729Q153.85938 59.55729 154.46875 59.96354Q155.07812 60.36979 155.375 61.11979Q155.6875 61.86979 155.6875 62.760414Q155.6875 63.71354 155.34375 64.479164Q155.01562 65.24479 154.35938 65.65104Q153.70312 66.05729 152.98438 66.05729Q152.45312 66.05729 152.03125 65.83854Q151.60938 65.604164 151.34375 65.27604L151.34375 68.30729L150.29688 68.30729ZM151.25 62.83854Q151.25 64.041664 151.73438 64.61979Q152.21875 65.18229 152.90625 65.18229Q153.60938 65.18229 154.10938 64.58854Q154.60938 63.99479 154.60938 62.74479Q154.60938 61.55729 154.125 60.979164Q153.64062 60.385414 152.95312 60.385414Q152.28125 60.385414 151.76562 61.010414Q151.25 61.635414 151.25 62.83854ZM157.0 63.65104L158.0625 63.510414Q158.23438 64.40104 158.67188 64.80729Q159.10938 65.197914 159.73438 65.197914Q160.48438 65.197914 161.0 64.68229Q161.51562 64.166664 161.51562 63.40104Q161.51562 62.68229 161.03125 62.21354Q160.5625 61.729164 159.82812 61.729164Q159.53125 61.729164 159.07812 61.854164L159.20312 60.916664Q159.3125 60.93229 159.375 60.93229Q160.04688 60.93229 160.57812 60.58854Q161.125 60.229164 161.125 59.49479Q161.125 58.916664 160.73438 58.541664Q160.34375 58.15104 159.71875 58.15104Q159.10938 58.15104 158.6875 58.541664Q158.28125 58.93229 158.17188 59.697914L157.10938 59.510414Q157.29688 58.46354 157.98438 57.885414Q158.67188 57.291664 159.6875 57.291664Q160.39062 57.291664 160.98438 57.604164Q161.57812 57.90104 161.89062 58.416664Q162.20312 58.93229 162.20312 59.52604Q162.20312 60.072914 161.90625 60.541664Q161.60938 60.99479 161.03125 61.260414Q161.78125 61.43229 162.20312 61.99479Q162.625 62.541664 162.625 63.385414Q162.625 64.510414 161.79688 65.291664Q160.98438 66.072914 159.73438 66.072914Q158.60938 66.072914 157.85938 65.40104Q157.10938 64.71354 157.0 63.65104ZM169.54688 64.90104L169.54688 65.916664L163.85938 65.916664Q163.85938 65.541664 163.98438 65.18229Q164.20312 64.604164 164.67188 64.041664Q165.15625 63.479164 166.0625 62.74479Q167.46875 61.58854 167.95312 60.916664Q168.45312 60.24479 168.45312 59.65104Q168.45312 59.02604 168.0 58.604164Q167.54688 58.166664 166.82812 58.166664Q166.0625 58.166664 165.60938 58.61979Q165.15625 59.072914 165.14062 59.885414L164.0625 59.77604Q164.17188 58.55729 164.89062 57.93229Q165.625 57.291664 166.85938 57.291664Q168.09375 57.291664 168.8125 57.979164Q169.53125 58.666664 169.53125 59.68229Q169.53125 60.197914 169.3125 60.697914Q169.10938 61.18229 168.60938 61.74479Q168.125 62.291664 167.0 63.24479Q166.04688 64.041664 165.76562 64.33854Q165.5 64.61979 165.32812 64.90104L169.54688 64.90104ZM173.875 63.33854L173.875 62.27604L177.125 62.27604L177.125 63.33854L173.875 63.33854ZM184.96875 65.916664L183.92188 65.916664L183.92188 59.197914Q183.53125 59.55729 182.90625 59.93229Q182.29688 60.291664 181.8125 60.46354L181.8125 59.447914Q182.6875 59.02604 183.34375 58.447914Q184.01562 57.854164 184.29688 57.291664L184.96875 57.291664L184.96875 65.916664ZM193.54688 64.90104L193.54688 65.916664L187.85938 65.916664Q187.85938 65.541664 187.98438 65.18229Q188.20312 64.604164 188.67188 64.041664Q189.15625 63.479164 190.0625 62.74479Q191.46875 61.58854 191.95312 60.916664Q192.45312 60.24479 192.45312 59.65104Q192.45312 59.02604 192.0 58.604164Q191.54688 58.166664 190.82812 58.166664Q190.0625 58.166664 189.60938 58.61979Q189.15625 59.072914 189.14062 59.885414L188.0625 59.77604Q188.17188 58.55729 188.89062 57.93229Q189.625 57.291664 190.85938 57.291664Q192.09375 57.291664 192.8125 57.979164Q193.53125 58.666664 193.53125 59.68229Q193.53125 60.197914 193.3125 60.697914Q193.10938 61.18229 192.60938 61.74479Q192.125 62.291664 191.0 63.24479Q190.04688 64.041664 189.76562 64.33854Q189.5 64.61979 189.32812 64.90104L193.54688 64.90104ZM196.625 61.260414Q195.96875 61.010414 195.64062 60.572914Q195.32812 60.11979 195.32812 59.510414Q195.32812 58.572914 196.0 57.93229Q196.6875 57.291664 197.79688 57.291664Q198.92188 57.291664 199.60938 57.947914Q200.29688 58.604164 200.29688 59.541664Q200.29688 60.135414 199.98438 60.572914Q199.67188 61.010414 199.03125 61.260414Q199.82812 61.510414 200.23438 62.08854Q200.64062 62.666664 200.64062 63.46354Q200.64062 64.55729 199.85938 65.30729Q199.09375 66.05729 197.8125 66.05729Q196.54688 66.05729 195.76562 65.30729Q194.98438 64.55729 194.98438 63.43229Q194.98438 62.58854 195.40625 62.02604Q195.84375 61.46354 196.625 61.260414ZM196.40625 59.46354Q196.40625 60.072914 196.79688 60.46354Q197.20312 60.854164 197.82812 60.854164Q198.4375 60.854164 198.82812 60.479164Q199.21875 60.08854 199.21875 59.52604Q199.21875 58.947914 198.8125 58.55729Q198.40625 58.15104 197.8125 58.15104Q197.20312 58.15104 196.79688 58.541664Q196.40625 58.93229 196.40625 59.46354ZM196.07812 63.43229Q196.07812 63.885414 196.28125 64.30729Q196.5 64.729164 196.92188 64.96354Q197.34375 65.197914 197.82812 65.197914Q198.57812 65.197914 199.0625 64.71354Q199.5625 64.229164 199.5625 63.479164Q199.5625 62.71354 199.0625 62.21354Q198.5625 61.71354 197.79688 61.71354Q197.04688 61.71354 196.5625 62.21354Q196.07812 62.697914 196.07812 63.43229Z" fill-rule="nonzero"/><path stroke="#fbbc04" stroke-width="4.0" stroke-linecap="butt" stroke-dasharray="4.0,5.0" d="M217.5 61.916668L230.5 61.916668" fill-rule="nonzero"/><path fill="#1a1a1a" d="M239.54688 65.916664L239.54688 60.510414L238.60938 60.510414L238.60938 59.697914L239.54688 59.697914L239.54688 59.02604Q239.54688 58.40104 239.65625 58.104164Q239.8125 57.68229 240.1875 57.43229Q240.57812 57.18229 241.26562 57.18229Q241.71875 57.18229 242.25 57.291664L242.09375 58.197914Q241.76562 58.15104 241.46875 58.15104Q240.98438 58.15104 240.78125 58.354164Q240.59375 58.55729 240.59375 59.11979L240.59375 59.697914L241.8125 59.697914L241.8125 60.510414L240.59375 60.510414L240.59375 65.916664L239.54688 65.916664ZM242.29688 68.30729L242.29688 59.697914L243.25 59.697914L243.25 60.49479Q243.59375 60.02604 244.01562 59.791664Q244.45312 59.55729 245.0625 59.55729Q245.85938 59.55729 246.46875 59.96354Q247.07812 60.36979 247.375 61.11979Q247.6875 61.86979 247.6875 62.760414Q247.6875 63.71354 247.34375 64.479164Q247.01562 65.24479 246.35938 65.65104Q245.70312 66.05729 244.98438 66.05729Q244.45312 66.05729 244.03125 65.83854Q243.60938 65.604164 243.34375 65.27604L243.34375 68.30729L242.29688 68.30729ZM243.25 62.83854Q243.25 64.041664 243.73438 64.61979Q244.21875 65.18229 244.90625 65.18229Q245.60938 65.18229 246.10938 64.58854Q246.60938 63.99479 246.60938 62.74479Q246.60938 61.55729 246.125 60.979164Q245.64062 60.385414 244.95312 60.385414Q244.28125 60.385414 243.76562 61.010414Q243.25 61.635414 243.25 62.83854ZM249.0 63.65104L250.0625 63.510414Q250.23438 64.40104 250.67188 64.80729Q251.10938 65.197914 251.73438 65.197914Q252.48438 65.197914 253.0 64.68229Q253.51562 64.166664 253.51562 63.40104Q253.51562 62.68229 253.03125 62.21354Q252.5625 61.729164 251.82812 61.729164Q251.53125 61.729164 251.07812 61.854164L251.20312 60.916664Q251.3125 60.93229 251.375 60.93229Q252.04688 60.93229 252.57812 60.58854Q253.125 60.229164 253.125 59.49479Q253.125 58.916664 252.73438 58.541664Q252.34375 58.15104 251.71875 58.15104Q251.10938 58.15104 250.6875 58.541664Q250.28125 58.93229 250.17188 59.697914L249.10938 59.510414Q249.29688 58.46354 249.98438 57.885414Q250.67188 57.291664 251.6875 57.291664Q252.39062 57.291664 252.98438 57.604164Q253.57812 57.90104 253.89062 58.416664Q254.20312 58.93229 254.20312 59.52604Q254.20312 60.072914 253.90625 60.541664Q253.60938 60.99479 253.03125 61.260414Q253.78125 61.43229 254.20312 61.99479Q254.625 62.541664 254.625 63.385414Q254.625 64.510414 253.79688 65.291664Q252.98438 66.072914 251.73438 66.072914Q250.60938 66.072914 249.85938 65.40104Q249.10938 64.71354 249.0 63.65104ZM261.54688 64.90104L261.54688 65.916664L255.85938 65.916664Q255.85938 65.541664 255.98438 65.18229Q256.20312 64.604164 256.67188 64.041664Q257.15625 63.479164 258.0625 62.74479Q259.46875 61.58854 259.95312 60.916664Q260.45312 60.24479 260.45312 59.65104Q260.45312 59.02604 260.0 58.604164Q259.54688 58.166664 258.82812 58.166664Q258.0625 58.166664 257.60938 58.61979Q257.15625 59.072914 257.14062 59.885414L256.0625 59.77604Q256.17188 58.55729 256.89062 57.93229Q257.625 57.291664 258.85938 57.291664Q260.09375 57.291664 260.8125 57.979164Q261.53125 58.666664 261.53125 59.68229Q261.53125 60.197914 261.3125 60.697914Q261.10938 61.18229 260.60938 61.74479Q260.125 62.291664 259.0 63.24479Q258.04688 64.041664 257.76562 64.33854Q257.5 64.61979 257.32812 64.90104L261.54688 64.90104ZM265.875 63.33854L265.875 62.27604L269.125 62.27604L269.125 63.33854L265.875 63.33854ZM278.54688 64.90104L278.54688 65.916664L272.85938 65.916664Q272.85938 65.541664 272.98438 65.18229Q273.20312 64.604164 273.67188 64.041664Q274.15625 63.479164 275.0625 62.74479Q276.46875 61.58854 276.95312 60.916664Q277.45312 60.24479 277.45312 59.65104Q277.45312 59.02604 277.0 58.604164Q276.54688 58.166664 275.82812 58.166664Q275.0625 58.166664 274.60938 58.61979Q274.15625 59.072914 274.14062 59.885414L273.0625 59.77604Q273.17188 58.55729 273.89062 57.93229Q274.625 57.291664 275.85938 57.291664Q277.09375 57.291664 277.8125 57.979164Q278.53125 58.666664 278.53125 59.68229Q278.53125 60.197914 278.3125 60.697914Q278.10938 61.18229 277.60938 61.74479Q277.125 62.291664 276.0 63.24479Q275.04688 64.041664 274.76562 64.33854Q274.5 64.61979 274.32812 64.90104L278.54688 64.90104ZM280.0 63.666664L281.10938 63.572914Q281.23438 64.385414 281.67188 64.791664Q282.125 65.197914 282.76562 65.197914Q283.51562 65.197914 284.04688 64.61979Q284.57812 64.041664 284.57812 63.104164Q284.57812 62.197914 284.0625 61.68229Q283.5625 61.15104 282.73438 61.15104Q282.23438 61.15104 281.8125 61.385414Q281.40625 61.61979 281.17188 61.979164L280.1875 61.854164L281.01562 57.447914L285.29688 57.447914L285.29688 58.447914L281.85938 58.447914L281.40625 60.760414Q282.17188 60.21354 283.01562 60.21354Q284.14062 60.21354 284.90625 60.99479Q285.6875 61.77604 285.6875 63.010414Q285.6875 64.166664 285.01562 65.02604Q284.1875 66.05729 282.76562 66.05729Q281.59375 66.05729 280.84375 65.40104Q280.10938 64.74479 280.0 63.666664ZM292.46875 59.43229L291.42188 59.510414Q291.28125 58.885414 291.03125 58.604164Q290.59375 58.15104 289.96875 58.15104Q289.46875 58.15104 289.07812 58.43229Q288.59375 58.80729 288.29688 59.510414Q288.01562 60.197914 288.0 61.479164Q288.375 60.90104 288.92188 60.61979Q289.48438 60.33854 290.09375 60.33854Q291.14062 60.33854 291.875 61.11979Q292.625 61.90104 292.625 63.11979Q292.625 63.93229 292.26562 64.635414Q291.92188 65.322914 291.3125 65.697914Q290.70312 66.05729 289.9375 66.05729Q288.60938 66.05729 287.78125 65.08854Q286.95312 64.11979 286.95312 61.90104Q286.95312 59.40104 287.875 58.27604Q288.67188 57.291664 290.03125 57.291664Q291.04688 57.291664 291.6875 57.86979Q292.34375 58.43229 292.46875 59.43229ZM288.17188 63.135414Q288.17188 63.68229 288.39062 64.18229Q288.625 64.666664 289.03125 64.93229Q289.45312 65.197914 289.92188 65.197914Q290.57812 65.197914 291.0625 64.666664Q291.54688 64.11979 291.54688 63.197914Q291.54688 62.30729 291.0625 61.791664Q290.59375 61.27604 289.875 61.27604Q289.15625 61.27604 288.65625 61.791664Q288.17188 62.30729 288.17188 63.135414Z" fill-rule="nonzero"/><path stroke="#34a853" stroke-width="4.0" stroke-linecap="butt" d="M309.5 61.916668L321.5 61.916668" fill-rule="nonzero"/><path fill="#1a1a1a" d="M330.54688 65.916664L330.54688 60.510414L329.60938 60.510414L329.60938 59.697914L330.54688 59.697914L330.54688 59.02604Q330.54688 58.40104 330.65625 58.104164Q330.8125 57.68229 331.1875 57.43229Q331.57812 57.18229 332.26562 57.18229Q332.71875 57.18229 333.25 57.291664L333.09375 58.197914Q332.76562 58.15104 332.46875 58.15104Q331.98438 58.15104 331.78125 58.354164Q331.59375 58.55729 331.59375 59.11979L331.59375 59.697914L332.8125 59.697914L332.8125 60.510414L331.59375 60.510414L331.59375 65.916664L330.54688 65.916664ZM333.29688 68.30729L333.29688 59.697914L334.25 59.697914L334.25 60.49479Q334.59375 60.02604 335.01562 59.791664Q335.45312 59.55729 336.0625 59.55729Q336.85938 59.55729 337.46875 59.96354Q338.07812 60.36979 338.375 61.11979Q338.6875 61.86979 338.6875 62.760414Q338.6875 63.71354 338.34375 64.479164Q338.01562 65.24479 337.35938 65.65104Q336.70312 66.05729 335.98438 66.05729Q335.45312 66.05729 335.03125 65.83854Q334.60938 65.604164 334.34375 65.27604L334.34375 68.30729L333.29688 68.30729ZM334.25 62.83854Q334.25 64.041664 334.73438 64.61979Q335.21875 65.18229 335.90625 65.18229Q336.60938 65.18229 337.10938 64.58854Q337.60938 63.99479 337.60938 62.74479Q337.60938 61.55729 337.125 60.979164Q336.64062 60.385414 335.95312 60.385414Q335.28125 60.385414 334.76562 61.010414Q334.25 61.635414 334.25 62.83854ZM343.96875 65.916664L342.92188 65.916664L342.92188 59.197914Q342.53125 59.55729 341.90625 59.93229Q341.29688 60.291664 340.8125 60.46354L340.8125 59.447914Q341.6875 59.02604 342.34375 58.447914Q343.01562 57.854164 343.29688 57.291664L343.96875 57.291664L343.96875 65.916664ZM352.46875 59.43229L351.42188 59.510414Q351.28125 58.885414 351.03125 58.604164Q350.59375 58.15104 349.96875 58.15104Q349.46875 58.15104 349.07812 58.43229Q348.59375 58.80729 348.29688 59.510414Q348.01562 60.197914 348.0 61.479164Q348.375 60.90104 348.92188 60.61979Q349.48438 60.33854 350.09375 60.33854Q351.14062 60.33854 351.875 61.11979Q352.625 61.90104 352.625 63.11979Q352.625 63.93229 352.26562 64.635414Q351.92188 65.322914 351.3125 65.697914Q350.70312 66.05729 349.9375 66.05729Q348.60938 66.05729 347.78125 65.08854Q346.95312 64.11979 346.95312 61.90104Q346.95312 59.40104 347.875 58.27604Q348.67188 57.291664 350.03125 57.291664Q351.04688 57.291664 351.6875 57.86979Q352.34375 58.43229 352.46875 59.43229ZM348.17188 63.135414Q348.17188 63.68229 348.39062 64.18229Q348.625 64.666664 349.03125 64.93229Q349.45312 65.197914 349.92188 65.197914Q350.57812 65.197914 351.0625 64.666664Q351.54688 64.11979 351.54688 63.197914Q351.54688 62.30729 351.0625 61.791664Q350.59375 61.27604 349.875 61.27604Q349.15625 61.27604 348.65625 61.791664Q348.17188 62.30729 348.17188 63.135414ZM356.875 63.33854L356.875 62.27604L360.125 62.27604L360.125 63.33854L356.875 63.33854ZM369.46875 59.43229L368.42188 59.510414Q368.28125 58.885414 368.03125 58.604164Q367.59375 58.15104 366.96875 58.15104Q366.46875 58.15104 366.07812 58.43229Q365.59375 58.80729 365.29688 59.510414Q365.01562 60.197914 365.0 61.479164Q365.375 60.90104 365.92188 60.61979Q366.48438 60.33854 367.09375 60.33854Q368.14062 60.33854 368.875 61.11979Q369.625 61.90104 369.625 63.11979Q369.625 63.93229 369.26562 64.635414Q368.92188 65.322914 368.3125 65.697914Q367.70312 66.05729 366.9375 66.05729Q365.60938 66.05729 364.78125 65.08854Q363.95312 64.11979 363.95312 61.90104Q363.95312 59.40104 364.875 58.27604Q365.67188 57.291664 367.03125 57.291664Q368.04688 57.291664 368.6875 57.86979Q369.34375 58.43229 369.46875 59.43229ZM365.17188 63.135414Q365.17188 63.68229 365.39062 64.18229Q365.625 64.666664 366.03125 64.93229Q366.45312 65.197914 366.92188 65.197914Q367.57812 65.197914 368.0625 64.666664Q368.54688 64.11979 368.54688 63.197914Q368.54688 62.30729 368.0625 61.791664Q367.59375 61.27604 366.875 61.27604Q366.15625 61.27604 365.65625 61.791664Q365.17188 62.30729 365.17188 63.135414ZM374.375 65.916664L374.375 63.854164L370.65625 63.854164L370.65625 62.885414L374.57812 57.322914L375.4375 57.322914L375.4375 62.885414L376.59375 62.885414L376.59375 63.854164L375.4375 63.854164L375.4375 65.916664L374.375 65.916664ZM374.375 62.885414L374.375 59.02604L371.6875 62.885414L374.375 62.885414Z" fill-rule="nonzero"/><path stroke="#ff6d01" stroke-width="4.0" stroke-linecap="butt" d="M393.5 61.916668L405.5 61.916668" fill-rule="nonzero"/><path fill="#1a1a1a" d="M414.54688 65.916664L414.54688 60.510414L413.60938 60.510414L413.60938 59.697914L414.54688 59.697914L414.54688 59.02604Q414.54688 58.40104 414.65625 58.104164Q414.8125 57.68229 415.1875 57.43229Q415.57812 57.18229 416.26562 57.18229Q416.71875 57.18229 417.25 57.291664L417.09375 58.197914Q416.76562 58.15104 416.46875 58.15104Q415.98438 58.15104 415.78125 58.354164Q415.59375 58.55729 415.59375 59.11979L415.59375 59.697914L416.8125 59.697914L416.8125 60.510414L415.59375 60.510414L415.59375 65.916664L414.54688 65.916664ZM417.29688 68.30729L417.29688 59.697914L418.25 59.697914L418.25 60.49479Q418.59375 60.02604 419.01562 59.791664Q419.45312 59.55729 420.0625 59.55729Q420.85938 59.55729 421.46875 59.96354Q422.07812 60.36979 422.375 61.11979Q422.6875 61.86979 422.6875 62.760414Q422.6875 63.71354 422.34375 64.479164Q422.01562 65.24479 421.35938 65.65104Q420.70312 66.05729 419.98438 66.05729Q419.45312 66.05729 419.03125 65.83854Q418.60938 65.604164 418.34375 65.27604L418.34375 68.30729L417.29688 68.30729ZM418.25 62.83854Q418.25 64.041664 418.73438 64.61979Q419.21875 65.18229 419.90625 65.18229Q420.60938 65.18229 421.10938 64.58854Q421.60938 63.99479 421.60938 62.74479Q421.60938 61.55729 421.125 60.979164Q420.64062 60.385414 419.95312 60.385414Q419.28125 60.385414 418.76562 61.010414Q418.25 61.635414 418.25 62.83854ZM427.96875 65.916664L426.92188 65.916664L426.92188 59.197914Q426.53125 59.55729 425.90625 59.93229Q425.29688 60.291664 424.8125 60.46354L424.8125 59.447914Q425.6875 59.02604 426.34375 58.447914Q427.01562 57.854164 427.29688 57.291664L427.96875 57.291664L427.96875 65.916664ZM436.46875 59.43229L435.42188 59.510414Q435.28125 58.885414 435.03125 58.604164Q434.59375 58.15104 433.96875 58.15104Q433.46875 58.15104 433.07812 58.43229Q432.59375 58.80729 432.29688 59.510414Q432.01562 60.197914 432.0 61.479164Q432.375 60.90104 432.92188 60.61979Q433.48438 60.33854 434.09375 60.33854Q435.14062 60.33854 435.875 61.11979Q436.625 61.90104 436.625 63.11979Q436.625 63.93229 436.26562 64.635414Q435.92188 65.322914 435.3125 65.697914Q434.70312 66.05729 433.9375 66.05729Q432.60938 66.05729 431.78125 65.08854Q430.95312 64.11979 430.95312 61.90104Q430.95312 59.40104 431.875 58.27604Q432.67188 57.291664 434.03125 57.291664Q435.04688 57.291664 435.6875 57.86979Q436.34375 58.43229 436.46875 59.43229ZM432.17188 63.135414Q432.17188 63.68229 432.39062 64.18229Q432.625 64.666664 433.03125 64.93229Q433.45312 65.197914 433.92188 65.197914Q434.57812 65.197914 435.0625 64.666664Q435.54688 64.11979 435.54688 63.197914Q435.54688 62.30729 435.0625 61.791664Q434.59375 61.27604 433.875 61.27604Q433.15625 61.27604 432.65625 61.791664Q432.17188 62.30729 432.17188 63.135414ZM440.875 63.33854L440.875 62.27604L444.125 62.27604L444.125 63.33854L440.875 63.33854ZM451.96875 65.916664L450.92188 65.916664L450.92188 59.197914Q450.53125 59.55729 449.90625 59.93229Q449.29688 60.291664 448.8125 60.46354L448.8125 59.447914Q449.6875 59.02604 450.34375 58.447914Q451.01562 57.854164 451.29688 57.291664L451.96875 57.291664L451.96875 65.916664ZM460.54688 64.90104L460.54688 65.916664L454.85938 65.916664Q454.85938 65.541664 454.98438 65.18229Q455.20312 64.604164 455.67188 64.041664Q456.15625 63.479164 457.0625 62.74479Q458.46875 61.58854 458.95312 60.916664Q459.45312 60.24479 459.45312 59.65104Q459.45312 59.02604 459.0 58.604164Q458.54688 58.166664 457.82812 58.166664Q457.0625 58.166664 456.60938 58.61979Q456.15625 59.072914 456.14062 59.885414L455.0625 59.77604Q455.17188 58.55729 455.89062 57.93229Q456.625 57.291664 457.85938 57.291664Q459.09375 57.291664 459.8125 57.979164Q460.53125 58.666664 460.53125 59.68229Q460.53125 60.197914 460.3125 60.697914Q460.10938 61.18229 459.60938 61.74479Q459.125 62.291664 458.0 63.24479Q457.04688 64.041664 456.76562 64.33854Q456.5 64.61979 456.32812 64.90104L460.54688 64.90104ZM463.625 61.260414Q462.96875 61.010414 462.64062 60.572914Q462.32812 60.11979 462.32812 59.510414Q462.32812 58.572914 463.0 57.93229Q463.6875 57.291664 464.79688 57.291664Q465.92188 57.291664 466.60938 57.947914Q467.29688 58.604164 467.29688 59.541664Q467.29688 60.135414 466.98438 60.572914Q466.67188 61.010414 466.03125 61.260414Q466.82812 61.510414 467.23438 62.08854Q467.64062 62.666664 467.64062 63.46354Q467.64062 64.55729 466.85938 65.30729Q466.09375 66.05729 464.8125 66.05729Q463.54688 66.05729 462.76562 65.30729Q461.98438 64.55729 461.98438 63.43229Q461.98438 62.58854 462.40625 62.02604Q462.84375 61.46354 463.625 61.260414ZM463.40625 59.46354Q463.40625 60.072914 463.79688 60.46354Q464.20312 60.854164 464.82812 60.854164Q465.4375 60.854164 465.82812 60.479164Q466.21875 60.08854 466.21875 59.52604Q466.21875 58.947914 465.8125 58.55729Q465.40625 58.15104 464.8125 58.15104Q464.20312 58.15104 463.79688 58.541664Q463.40625 58.93229 463.40625 59.46354ZM463.07812 63.43229Q463.07812 63.885414 463.28125 64.30729Q463.5 64.729164 463.92188 64.96354Q464.34375 65.197914 464.82812 65.197914Q465.57812 65.197914 466.0625 64.71354Q466.5625 64.229164 466.5625 63.479164Q466.5625 62.71354 466.0625 62.21354Q465.5625 61.71354 464.79688 61.71354Q464.04688 61.71354 463.5625 62.21354Q463.07812 62.697914 463.07812 63.43229Z" fill-rule="nonzero"/><path stroke="#46bdc6" stroke-width="4.0" stroke-linecap="butt" d="M484.5 61.916668L496.5 61.916668" fill-rule="nonzero"/><path fill="#1a1a1a" d="M505.54688 65.916664L505.54688 60.510414L504.60938 60.510414L504.60938 59.697914L505.54688 59.697914L505.54688 59.02604Q505.54688 58.40104 505.65625 58.104164Q505.8125 57.68229 506.1875 57.43229Q506.57812 57.18229 507.26562 57.18229Q507.71875 57.18229 508.25 57.291664L508.09375 58.197914Q507.76562 58.15104 507.46875 58.15104Q506.98438 58.15104 506.78125 58.354164Q506.59375 58.55729 506.59375 59.11979L506.59375 59.697914L507.8125 59.697914L507.8125 60.510414L506.59375 60.510414L506.59375 65.916664L505.54688 65.916664ZM508.29688 68.30729L508.29688 59.697914L509.25 59.697914L509.25 60.49479Q509.59375 60.02604 510.01562 59.791664Q510.45312 59.55729 511.0625 59.55729Q511.85938 59.55729 512.46875 59.96354Q513.0781 60.36979 513.375 61.11979Q513.6875 61.86979 513.6875 62.760414Q513.6875 63.71354 513.34375 64.479164Q513.0156 65.24479 512.3594 65.65104Q511.70312 66.05729 510.98438 66.05729Q510.45312 66.05729 510.03125 65.83854Q509.60938 65.604164 509.34375 65.27604L509.34375 68.30729L508.29688 68.30729ZM509.25 62.83854Q509.25 64.041664 509.73438 64.61979Q510.21875 65.18229 510.90625 65.18229Q511.60938 65.18229 512.1094 64.58854Q512.6094 63.99479 512.6094 62.74479Q512.6094 61.55729 512.125 60.979164Q511.64062 60.385414 510.95312 60.385414Q510.28125 60.385414 509.76562 61.010414Q509.25 61.635414 509.25 62.83854ZM518.96875 65.916664L517.9219 65.916664L517.9219 59.197914Q517.53125 59.55729 516.90625 59.93229Q516.2969 60.291664 515.8125 60.46354L515.8125 59.447914Q516.6875 59.02604 517.34375 58.447914Q518.0156 57.854164 518.2969 57.291664L518.96875 57.291664L518.96875 65.916664ZM527.46875 59.43229L526.4219 59.510414Q526.28125 58.885414 526.03125 58.604164Q525.59375 58.15104 524.96875 58.15104Q524.46875 58.15104 524.0781 58.43229Q523.59375 58.80729 523.2969 59.510414Q523.0156 60.197914 523.0 61.479164Q523.375 60.90104 523.9219 60.61979Q524.4844 60.33854 525.09375 60.33854Q526.1406 60.33854 526.875 61.11979Q527.625 61.90104 527.625 63.11979Q527.625 63.93229 527.2656 64.635414Q526.9219 65.322914 526.3125 65.697914Q525.7031 66.05729 524.9375 66.05729Q523.6094 66.05729 522.78125 65.08854Q521.9531 64.11979 521.9531 61.90104Q521.9531 59.40104 522.875 58.27604Q523.6719 57.291664 525.03125 57.291664Q526.0469 57.291664 526.6875 57.86979Q527.34375 58.43229 527.46875 59.43229ZM523.1719 63.135414Q523.1719 63.68229 523.3906 64.18229Q523.625 64.666664 524.03125 64.93229Q524.4531 65.197914 524.9219 65.197914Q525.5781 65.197914 526.0625 64.666664Q526.5469 64.11979 526.5469 63.197914Q526.5469 62.30729 526.0625 61.791664Q525.59375 61.27604 524.875 61.27604Q524.15625 61.27604 523.65625 61.791664Q523.1719 62.30729 523.1719 63.135414ZM531.875 63.33854L531.875 62.27604L535.125 62.27604L535.125 63.33854L531.875 63.33854ZM544.5469 64.90104L544.5469 65.916664L538.8594 65.916664Q538.8594 65.541664 538.9844 65.18229Q539.2031 64.604164 539.6719 64.041664Q540.15625 63.479164 541.0625 62.74479Q542.46875 61.58854 542.9531 60.916664Q543.4531 60.24479 543.4531 59.65104Q543.4531 59.02604 543.0 58.604164Q542.5469 58.166664 541.8281 58.166664Q541.0625 58.166664 540.6094 58.61979Q540.15625 59.072914 540.1406 59.885414L539.0625 59.77604Q539.1719 58.55729 539.8906 57.93229Q540.625 57.291664 541.8594 57.291664Q543.09375 57.291664 543.8125 57.979164Q544.53125 58.666664 544.53125 59.68229Q544.53125 60.197914 544.3125 60.697914Q544.1094 61.18229 543.6094 61.74479Q543.125 62.291664 542.0 63.24479Q541.0469 64.041664 540.7656 64.33854Q540.5 64.61979 540.3281 64.90104L544.5469 64.90104ZM546.0 63.666664L547.1094 63.572914Q547.2344 64.385414 547.6719 64.791664Q548.125 65.197914 548.7656 65.197914Q549.5156 65.197914 550.0469 64.61979Q550.5781 64.041664 550.5781 63.104164Q550.5781 62.197914 550.0625 61.68229Q549.5625 61.15104 548.7344 61.15104Q548.2344 61.15104 547.8125 61.385414Q547.40625 61.61979 547.1719 61.979164L546.1875 61.854164L547.0156 57.447914L551.2969 57.447914L551.2969 58.447914L547.8594 58.447914L547.40625 60.760414Q548.1719 60.21354 549.0156 60.21354Q550.1406 60.21354 550.90625 60.99479Q551.6875 61.77604 551.6875 63.010414Q551.6875 64.166664 551.0156 65.02604Q550.1875 66.05729 548.7656 66.05729Q547.59375 66.05729 546.84375 65.40104Q546.1094 64.74479 546.0 63.666664ZM558.46875 59.43229L557.4219 59.510414Q557.28125 58.885414 557.03125 58.604164Q556.59375 58.15104 555.96875 58.15104Q555.46875 58.15104 555.0781 58.43229Q554.59375 58.80729 554.2969 59.510414Q554.0156 60.197914 554.0 61.479164Q554.375 60.90104 554.9219 60.61979Q555.4844 60.33854 556.09375 60.33854Q557.1406 60.33854 557.875 61.11979Q558.625 61.90104 558.625 63.11979Q558.625 63.93229 558.2656 64.635414Q557.9219 65.322914 557.3125 65.697914Q556.7031 66.05729 555.9375 66.05729Q554.6094 66.05729 553.78125 65.08854Q552.9531 64.11979 552.9531 61.90104Q552.9531 59.40104 553.875 58.27604Q554.6719 57.291664 556.03125 57.291664Q557.0469 57.291664 557.6875 57.86979Q558.34375 58.43229 558.46875 59.43229ZM554.1719 63.135414Q554.1719 63.68229 554.3906 64.18229Q554.625 64.666664 555.03125 64.93229Q555.4531 65.197914 555.9219 65.197914Q556.5781 65.197914 557.0625 64.666664Q557.5469 64.11979 557.5469 63.197914Q557.5469 62.30729 557.0625 61.791664Q556.59375 61.27604 555.875 61.27604Q555.15625 61.27604 554.65625 61.791664Q554.1719 62.30729 554.1719 63.135414Z" fill-rule="nonzero"/><path stroke="#46bdc6" stroke-width="4.0" stroke-linecap="butt" stroke-dasharray="13.0,9.0" d="M263.5 79.916664L298.5 79.916664" fill-rule="nonzero"/><path fill="#1a1a1a" d="M307.625 83.916664L307.625 75.322914L308.75 75.322914L308.75 83.916664L307.625 83.916664ZM314.32812 83.916664L314.32812 83.135414Q313.73438 84.05729 312.59375 84.05729Q311.84375 84.05729 311.21875 83.65104Q310.59375 83.229164 310.25 82.49479Q309.90625 81.760414 309.90625 80.80729Q309.90625 79.885414 310.21875 79.11979Q310.53125 78.354164 311.15625 77.96354Q311.78125 77.55729 312.54688 77.55729Q313.10938 77.55729 313.54688 77.791664Q313.98438 78.02604 314.26562 78.40104L314.26562 75.322914L315.3125 75.322914L315.3125 83.916664L314.32812 83.916664ZM311.0 80.80729Q311.0 82.010414 311.5 82.604164Q312.0 83.18229 312.6875 83.18229Q313.375 83.18229 313.85938 82.61979Q314.34375 82.05729 314.34375 80.90104Q314.34375 79.61979 313.84375 79.02604Q313.35938 78.43229 312.64062 78.43229Q311.9375 78.43229 311.46875 79.010414Q311.0 79.572914 311.0 80.80729ZM321.54688 81.916664L322.64062 82.041664Q322.39062 82.99479 321.6875 83.52604Q320.98438 84.05729 319.90625 84.05729Q318.54688 84.05729 317.73438 83.21354Q316.9375 82.36979 316.9375 80.854164Q316.9375 79.291664 317.75 78.43229Q318.5625 77.55729 319.84375 77.55729Q321.09375 77.55729 321.875 78.40104Q322.67188 79.24479 322.67188 80.791664Q322.67188 80.885414 322.67188 81.072914L318.03125 81.072914Q318.09375 82.104164 318.60938 82.65104Q319.125 83.18229 319.90625 83.18229Q320.48438 83.18229 320.89062 82.885414Q321.3125 82.572914 321.54688 81.916664ZM318.09375 80.21354L321.5625 80.21354Q321.5 79.416664 321.17188 79.02604Q320.65625 78.416664 319.85938 78.416664Q319.125 78.416664 318.625 78.90104Q318.14062 79.385414 318.09375 80.21354ZM328.35938 83.15104Q327.76562 83.65104 327.21875 83.854164Q326.6875 84.05729 326.0625 84.05729Q325.03125 84.05729 324.48438 83.55729Q323.9375 83.05729 323.9375 82.27604Q323.9375 81.822914 324.14062 81.447914Q324.34375 81.05729 324.6875 80.83854Q325.03125 80.604164 325.45312 80.49479Q325.75 80.40104 326.39062 80.322914Q327.65625 80.18229 328.26562 79.96354Q328.26562 79.74479 328.26562 79.697914Q328.26562 79.041664 327.96875 78.77604Q327.5625 78.43229 326.76562 78.43229Q326.03125 78.43229 325.67188 78.697914Q325.3125 78.947914 325.14062 79.604164L324.10938 79.46354Q324.25 78.80729 324.57812 78.40104Q324.90625 77.99479 325.51562 77.77604Q326.125 77.55729 326.92188 77.55729Q327.71875 77.55729 328.21875 77.74479Q328.71875 77.93229 328.95312 78.21354Q329.1875 78.49479 329.28125 78.93229Q329.32812 79.197914 329.32812 79.90104L329.32812 81.30729Q329.32812 82.77604 329.39062 83.166664Q329.46875 83.55729 329.67188 83.916664L328.5625 83.916664Q328.40625 83.58854 328.35938 83.15104ZM328.26562 80.791664Q327.6875 81.02604 326.54688 81.197914Q325.89062 81.291664 325.625 81.416664Q325.35938 81.52604 325.20312 81.74479Q325.0625 81.96354 325.0625 82.24479Q325.0625 82.666664 325.375 82.947914Q325.70312 83.229164 326.3125 83.229164Q326.92188 83.229164 327.39062 82.96354Q327.875 82.697914 328.09375 82.229164Q328.26562 81.86979 328.26562 81.18229L328.26562 80.791664ZM331.26562 83.916664L331.26562 75.322914L332.32812 75.322914L332.32812 83.916664L331.26562 83.916664Z" fill-rule="nonzero"/><path fill="#757575" d="M189.6875 37.55L189.6875 24.925L184.96875 24.925L184.96875 23.2375L196.3125 23.2375L196.3125 24.925L191.57812 24.925L191.57812 37.55L189.6875 37.55ZM197.79688 37.55L197.79688 27.175L199.375 27.175L199.375 28.753124Q199.98438 27.64375 200.5 27.3Q201.01562 26.940624 201.625 26.940624Q202.51562 26.940624 203.4375 27.503124L202.82812 29.14375Q202.1875 28.753124 201.54688 28.753124Q200.96875 28.753124 200.5 29.1125Q200.04688 29.45625 199.84375 30.065624Q199.5625 31.003124 199.5625 32.1125L199.5625 37.55L197.79688 37.55ZM211.59375 36.26875Q210.60938 37.096874 209.70312 37.440624Q208.79688 37.784374 207.76562 37.784374Q206.0625 37.784374 205.14062 36.95625Q204.21875 36.1125 204.21875 34.815624Q204.21875 34.05 204.5625 33.425Q204.92188 32.8 205.48438 32.425Q206.04688 32.034374 206.75 31.83125Q207.26562 31.70625 208.3125 31.565624Q210.4375 31.315624 211.4375 30.971874Q211.45312 30.6125 211.45312 30.503124Q211.45312 29.440624 210.95312 28.9875Q210.28125 28.39375 208.95312 28.39375Q207.70312 28.39375 207.10938 28.83125Q206.53125 29.26875 206.25 30.378124L204.53125 30.14375Q204.76562 29.034374 205.29688 28.3625Q205.82812 27.675 206.84375 27.315624Q207.85938 26.940624 209.20312 26.940624Q210.53125 26.940624 211.35938 27.253124Q212.1875 27.565624 212.57812 28.05Q212.96875 28.51875 213.125 29.2375Q213.21875 29.690624 213.21875 30.8625L213.21875 33.20625Q213.21875 35.659374 213.32812 36.315624Q213.4375 36.95625 213.78125 37.55L211.9375 37.55Q211.67188 37.003124 211.59375 36.26875ZM211.4375 32.346874Q210.48438 32.7375 208.5625 33.003124Q207.48438 33.159374 207.03125 33.3625Q206.59375 33.55 206.34375 33.925Q206.09375 34.3 206.09375 34.76875Q206.09375 35.471874 206.625 35.940624Q207.15625 36.409374 208.1875 36.409374Q209.20312 36.409374 209.98438 35.971874Q210.78125 35.51875 211.15625 34.753124Q211.4375 34.14375 211.4375 32.9875L211.4375 32.346874ZM215.82812 25.253124L215.82812 23.2375L217.59375 23.2375L217.59375 25.253124L215.82812 25.253124ZM215.82812 37.55L215.82812 27.175L217.59375 27.175L217.59375 37.55L215.82812 37.55ZM219.8125 37.55L219.8125 27.175L221.40625 27.175L221.40625 28.659374Q222.54688 26.940624 224.70312 26.940624Q225.64062 26.940624 226.42188 27.284374Q227.21875 27.6125 227.60938 28.159374Q228.0 28.70625 228.15625 29.45625Q228.25 29.95625 228.25 31.175L228.25 37.55L226.48438 37.55L226.48438 31.2375Q226.48438 30.159374 226.28125 29.628124Q226.07812 29.096874 225.54688 28.784374Q225.03125 28.471874 224.32812 28.471874Q223.20312 28.471874 222.39062 29.190624Q221.57812 29.89375 221.57812 31.878124L221.57812 37.55L219.8125 37.55ZM229.82812 25.253124L229.82812 23.2375L231.59375 23.2375L231.59375 25.253124L229.82812 25.253124ZM229.82812 37.55L229.82812 27.175L231.59375 27.175L231.59375 37.55L229.82812 37.55ZM233.8125 37.55L233.8125 27.175L235.40625 27.175L235.40625 28.659374Q236.54688 26.940624 238.70312 26.940624Q239.64062 26.940624 240.42188 27.284374Q241.21875 27.6125 241.60938 28.159374Q242.0 28.70625 242.15625 29.45625Q242.25 29.95625 242.25 31.175L242.25 37.55L240.48438 37.55L240.48438 31.2375Q240.48438 30.159374 240.28125 29.628124Q240.07812 29.096874 239.54688 28.784374Q239.03125 28.471874 238.32812 28.471874Q237.20312 28.471874 236.39062 29.190624Q235.57812 29.89375 235.57812 31.878124L235.57812 37.55L233.8125 37.55ZM243.5 38.409374L245.20312 38.659374Q245.3125 39.45625 245.79688 39.815624Q246.45312 40.3 247.59375 40.3Q248.8125 40.3 249.46875 39.815624Q250.14062 39.33125 250.375 38.45625Q250.51562 37.909374 250.5 36.190624Q249.34375 37.55 247.625 37.55Q245.48438 37.55 244.3125 36.003124Q243.14062 34.45625 243.14062 32.3Q243.14062 30.815624 243.67188 29.565624Q244.21875 28.315624 245.23438 27.628124Q246.26562 26.940624 247.64062 26.940624Q249.46875 26.940624 250.67188 28.425L250.67188 27.175L252.28125 27.175L252.28125 36.14375Q252.28125 38.565624 251.78125 39.565624Q251.29688 40.58125 250.21875 41.159374Q249.15625 41.753124 247.59375 41.753124Q245.75 41.753124 244.59375 40.925Q243.45312 40.096874 243.5 38.409374ZM244.95312 32.175Q244.95312 34.221874 245.76562 35.159374Q246.57812 36.096874 247.79688 36.096874Q249.0 36.096874 249.8125 35.159374Q250.64062 34.221874 250.64062 32.2375Q250.64062 30.33125 249.79688 29.3625Q248.95312 28.39375 247.76562 28.39375Q246.59375 28.39375 245.76562 29.346874Q244.95312 30.3 244.95312 32.175ZM261.35938 37.55L261.35938 23.2375L263.26562 23.2375L263.26562 37.55L261.35938 37.55ZM270.65625 35.971874L270.90625 37.534374Q270.17188 37.690624 269.57812 37.690624Q268.625 37.690624 268.09375 37.39375Q267.57812 37.08125 267.35938 36.596874Q267.14062 36.096874 267.14062 34.51875L267.14062 28.55L265.85938 28.55L265.85938 27.175L267.14062 27.175L267.14062 24.6125L268.89062 23.55L268.89062 27.175L270.65625 27.175L270.65625 28.55L268.89062 28.55L268.89062 34.6125Q268.89062 35.3625 268.98438 35.58125Q269.07812 35.784374 269.28125 35.925Q269.5 36.05 269.89062 36.05Q270.17188 36.05 270.65625 35.971874ZM279.92188 34.20625L281.73438 34.440624Q281.3125 36.01875 280.14062 36.909374Q278.98438 37.784374 277.17188 37.784374Q274.90625 37.784374 273.5625 36.39375Q272.23438 34.9875 272.23438 32.45625Q272.23438 29.83125 273.57812 28.39375Q274.92188 26.940624 277.07812 26.940624Q279.15625 26.940624 280.46875 28.3625Q281.79688 29.76875 281.79688 32.346874Q281.79688 32.503124 281.78125 32.815624L274.04688 32.815624Q274.14062 34.51875 275.01562 35.425Q275.89062 36.33125 277.1875 36.33125Q278.15625 36.33125 278.82812 35.83125Q279.51562 35.315624 279.92188 34.20625ZM274.14062 31.3625L279.9375 31.3625Q279.82812 30.065624 279.28125 29.409374Q278.4375 28.39375 277.09375 28.39375Q275.89062 28.39375 275.0625 29.20625Q274.23438 30.003124 274.14062 31.3625ZM283.79688 37.55L283.79688 27.175L285.375 27.175L285.375 28.753124Q285.98438 27.64375 286.5 27.3Q287.01562 26.940624 287.625 26.940624Q288.51562 26.940624 289.4375 27.503124L288.82812 29.14375Q288.1875 28.753124 287.54688 28.753124Q286.96875 28.753124 286.5 29.1125Q286.04688 29.45625 285.84375 30.065624Q285.5625 31.003124 285.5625 32.1125L285.5625 37.55L283.79688 37.55ZM297.59375 36.26875Q296.60938 37.096874 295.70312 37.440624Q294.79688 37.784374 293.76562 37.784374Q292.0625 37.784374 291.14062 36.95625Q290.21875 36.1125 290.21875 34.815624Q290.21875 34.05 290.5625 33.425Q290.92188 32.8 291.48438 32.425Q292.04688 32.034374 292.75 31.83125Q293.26562 31.70625 294.3125 31.565624Q296.4375 31.315624 297.4375 30.971874Q297.45312 30.6125 297.45312 30.503124Q297.45312 29.440624 296.95312 28.9875Q296.28125 28.39375 294.95312 28.39375Q293.70312 28.39375 293.10938 28.83125Q292.53125 29.26875 292.25 30.378124L290.53125 30.14375Q290.76562 29.034374 291.29688 28.3625Q291.82812 27.675 292.84375 27.315624Q293.85938 26.940624 295.20312 26.940624Q296.53125 26.940624 297.35938 27.253124Q298.1875 27.565624 298.57812 28.05Q298.96875 28.51875 299.125 29.2375Q299.21875 29.690624 299.21875 30.8625L299.21875 33.20625Q299.21875 35.659374 299.32812 36.315624Q299.4375 36.95625 299.78125 37.55L297.9375 37.55Q297.67188 37.003124 297.59375 36.26875ZM297.4375 32.346874Q296.48438 32.7375 294.5625 33.003124Q293.48438 33.159374 293.03125 33.3625Q292.59375 33.55 292.34375 33.925Q292.09375 34.3 292.09375 34.76875Q292.09375 35.471874 292.625 35.940624Q293.15625 36.409374 294.1875 36.409374Q295.20312 36.409374 295.98438 35.971874Q296.78125 35.51875 297.15625 34.753124Q297.4375 34.14375 297.4375 32.9875L297.4375 32.346874ZM305.65625 35.971874L305.90625 37.534374Q305.17188 37.690624 304.57812 37.690624Q303.625 37.690624 303.09375 37.39375Q302.57812 37.08125 302.35938 36.596874Q302.14062 36.096874 302.14062 34.51875L302.14062 28.55L300.85938 28.55L300.85938 27.175L302.14062 27.175L302.14062 24.6125L303.89062 23.55L303.89062 27.175L305.65625 27.175L305.65625 28.55L303.89062 28.55L303.89062 34.6125Q303.89062 35.3625 303.98438 35.58125Q304.07812 35.784374 304.28125 35.925Q304.5 36.05 304.89062 36.05Q305.17188 36.05 305.65625 35.971874ZM307.82812 25.253124L307.82812 23.2375L309.59375 23.2375L309.59375 25.253124L307.82812 25.253124ZM307.82812 37.55L307.82812 27.175L309.59375 27.175L309.59375 37.55L307.82812 37.55ZM311.17188 32.3625Q311.17188 29.4875 312.76562 28.096874Q314.10938 26.940624 316.03125 26.940624Q318.17188 26.940624 319.51562 28.346874Q320.875 29.753124 320.875 32.221874Q320.875 34.221874 320.28125 35.378124Q319.6875 36.51875 318.53125 37.159374Q317.39062 37.784374 316.03125 37.784374Q313.84375 37.784374 312.5 36.39375Q311.17188 34.9875 311.17188 32.3625ZM312.96875 32.3625Q312.96875 34.3625 313.82812 35.346874Q314.70312 36.33125 316.03125 36.33125Q317.34375 36.33125 318.20312 35.346874Q319.07812 34.346874 319.07812 32.3Q319.07812 30.378124 318.20312 29.39375Q317.32812 28.39375 316.03125 28.39375Q314.70312 28.39375 313.82812 29.39375Q312.96875 30.378124 312.96875 32.3625ZM322.8125 37.55L322.8125 27.175L324.40625 27.175L324.40625 28.659374Q325.54688 26.940624 327.70312 26.940624Q328.64062 26.940624 329.42188 27.284374Q330.21875 27.6125 330.60938 28.159374Q331.0 28.70625 331.15625 29.45625Q331.25 29.95625 331.25 31.175L331.25 37.55L329.48438 37.55L329.48438 31.2375Q329.48438 30.159374 329.28125 29.628124Q329.07812 29.096874 328.54688 28.784374Q328.03125 28.471874 327.32812 28.471874Q326.20312 28.471874 325.39062 29.190624Q324.57812 29.89375 324.57812 31.878124L324.57812 37.55L322.8125 37.55ZM338.40625 32.95625L340.1875 32.8Q340.3125 33.8625 340.76562 34.55Q341.23438 35.2375 342.20312 35.675Q343.1875 36.096874 344.42188 36.096874Q345.5 36.096874 346.32812 35.784374Q347.15625 35.45625 347.5625 34.89375Q347.96875 34.33125 347.96875 33.659374Q347.96875 32.9875 347.57812 32.4875Q347.1875 31.9875 346.29688 31.64375Q345.71875 31.409374 343.73438 30.940624Q341.76562 30.471874 340.98438 30.05Q339.95312 29.51875 339.45312 28.721874Q338.95312 27.925 338.95312 26.940624Q338.95312 25.846874 339.5625 24.909374Q340.17188 23.971874 341.35938 23.4875Q342.54688 22.9875 343.98438 22.9875Q345.57812 22.9875 346.79688 23.503124Q348.01562 24.01875 348.65625 25.01875Q349.3125 26.003124 349.35938 27.26875L347.54688 27.409374Q347.40625 26.05 346.5625 25.3625Q345.71875 24.659374 344.0625 24.659374Q342.34375 24.659374 341.54688 25.3Q340.76562 25.925 340.76562 26.8Q340.76562 27.58125 341.32812 28.08125Q341.875 28.58125 344.1875 29.096874Q346.5 29.6125 347.35938 30.003124Q348.60938 30.58125 349.20312 31.471874Q349.79688 32.346874 349.79688 33.503124Q349.79688 34.64375 349.14062 35.659374Q348.48438 36.675 347.25 37.2375Q346.03125 37.8 344.5 37.8Q342.5625 37.8 341.25 37.2375Q339.9375 36.659374 339.1875 35.51875Q338.4375 34.378124 338.40625 32.95625ZM351.8125 41.51875L351.8125 27.175L353.42188 27.175L353.42188 28.51875Q353.98438 27.7375 354.6875 27.346874Q355.40625 26.940624 356.42188 26.940624Q357.75 26.940624 358.76562 27.628124Q359.78125 28.315624 360.29688 29.565624Q360.82812 30.8 360.82812 32.284374Q360.82812 33.878124 360.25 35.159374Q359.6875 36.425 358.59375 37.1125Q357.5 37.784374 356.29688 37.784374Q355.42188 37.784374 354.71875 37.409374Q354.03125 37.034374 353.57812 36.471874L353.57812 41.51875L351.8125 41.51875ZM353.40625 32.425Q353.40625 34.425 354.21875 35.378124Q355.03125 36.33125 356.1875 36.33125Q357.35938 36.33125 358.1875 35.346874Q359.03125 34.3625 359.03125 32.26875Q359.03125 30.3 358.20312 29.315624Q357.39062 28.315624 356.26562 28.315624Q355.14062 28.315624 354.26562 29.378124Q353.40625 30.425 353.40625 32.425ZM369.92188 34.20625L371.73438 34.440624Q371.3125 36.01875 370.14062 36.909374Q368.98438 37.784374 367.17188 37.784374Q364.90625 37.784374 363.5625 36.39375Q362.23438 34.9875 362.23438 32.45625Q362.23438 29.83125 363.57812 28.39375Q364.92188 26.940624 367.07812 26.940624Q369.15625 26.940624 370.46875 28.3625Q371.79688 29.76875 371.79688 32.346874Q371.79688 32.503124 371.78125 32.815624L364.04688 32.815624Q364.14062 34.51875 365.01562 35.425Q365.89062 36.33125 367.1875 36.33125Q368.15625 36.33125 368.82812 35.83125Q369.51562 35.315624 369.92188 34.20625ZM364.14062 31.3625L369.9375 31.3625Q369.82812 30.065624 369.28125 29.409374Q368.4375 28.39375 367.09375 28.39375Q365.89062 28.39375 365.0625 29.20625Q364.23438 30.003124 364.14062 31.3625ZM380.92188 34.20625L382.73438 34.440624Q382.3125 36.01875 381.14062 36.909374Q379.98438 37.784374 378.17188 37.784374Q375.90625 37.784374 374.5625 36.39375Q373.23438 34.9875 373.23438 32.45625Q373.23438 29.83125 374.57812 28.39375Q375.92188 26.940624 378.07812 26.940624Q380.15625 26.940624 381.46875 28.3625Q382.79688 29.76875 382.79688 32.346874Q382.79688 32.503124 382.78125 32.815624L375.04688 32.815624Q375.14062 34.51875 376.01562 35.425Q376.89062 36.33125 378.1875 36.33125Q379.15625 36.33125 379.82812 35.83125Q380.51562 35.315624 380.92188 34.20625ZM375.14062 31.3625L380.9375 31.3625Q380.82812 30.065624 380.28125 29.409374Q379.4375 28.39375 378.09375 28.39375Q376.89062 28.39375 376.0625 29.20625Q375.23438 30.003124 375.14062 31.3625ZM391.54688 37.55L391.54688 36.2375Q390.5625 37.784374 388.64062 37.784374Q387.40625 37.784374 386.35938 37.096874Q385.32812 36.409374 384.75 35.190624Q384.1875 33.971874 384.1875 32.378124Q384.1875 30.815624 384.70312 29.55Q385.21875 28.284374 386.25 27.6125Q387.29688 26.940624 388.5625 26.940624Q389.5 26.940624 390.23438 27.346874Q390.96875 27.7375 391.4375 28.3625L391.4375 23.2375L393.17188 23.2375L393.17188 37.55L391.54688 37.55ZM385.98438 32.378124Q385.98438 34.3625 386.82812 35.346874Q387.67188 36.33125 388.8125 36.33125Q389.96875 36.33125 390.76562 35.39375Q391.57812 34.45625 391.57812 32.51875Q391.57812 30.39375 390.75 29.39375Q389.9375 28.39375 388.73438 28.39375Q387.5625 28.39375 386.76562 29.3625Q385.98438 30.315624 385.98438 32.378124ZM402.60938 37.55L402.60938 36.01875Q401.40625 37.784374 399.32812 37.784374Q398.40625 37.784374 397.60938 37.440624Q396.8125 37.08125 396.42188 36.55Q396.04688 36.01875 395.89062 35.2375Q395.78125 34.721874 395.78125 33.596874L395.78125 27.175L397.53125 27.175L397.53125 32.925Q397.53125 34.3 397.64062 34.784374Q397.8125 35.471874 398.34375 35.878124Q398.89062 36.26875 399.67188 36.26875Q400.46875 36.26875 401.15625 35.8625Q401.85938 35.45625 402.14062 34.76875Q402.4375 34.065624 402.4375 32.7375L402.4375 27.175L404.1875 27.175L404.1875 37.55L402.60938 37.55ZM405.8125 41.51875L405.8125 27.175L407.42188 27.175L407.42188 28.51875Q407.98438 27.7375 408.6875 27.346874Q409.40625 26.940624 410.42188 26.940624Q411.75 26.940624 412.76562 27.628124Q413.78125 28.315624 414.29688 29.565624Q414.82812 30.8 414.82812 32.284374Q414.82812 33.878124 414.25 35.159374Q413.6875 36.425 412.59375 37.1125Q411.5 37.784374 410.29688 37.784374Q409.42188 37.784374 408.71875 37.409374Q408.03125 37.034374 407.57812 36.471874L407.57812 41.51875L405.8125 41.51875ZM407.40625 32.425Q407.40625 34.425 408.21875 35.378124Q409.03125 36.33125 410.1875 36.33125Q411.35938 36.33125 412.1875 35.346874Q413.03125 34.3625 413.03125 32.26875Q413.03125 30.3 412.20312 29.315624Q411.39062 28.315624 410.26562 28.315624Q409.14062 28.315624 408.26562 29.378124Q407.40625 30.425 407.40625 32.425Z" fill-rule="nonzero"/></svg>